<svg xmlns="http://www.w3.org/2000/svg" xmlns:xlink="http://www.w3.org/1999/xlink" width="118" height="118" viewBox="0 0 118 118">
  <defs>
    <clipPath id="clip-path">
      <rect id="Rectángulo_349857" data-name="Rectángulo 349857" width="80.648" height="93.862" fill="none"/>
    </clipPath>
  </defs>
  <g id="Grupo_998199" data-name="Grupo 998199" transform="translate(-741 -1040)">
    <circle id="Elipse_5963" data-name="Elipse 5963" cx="59" cy="59" r="59" transform="translate(741 1040)" fill="#b20d0d"/>
    <g id="Grupo_997484" data-name="Grupo 997484" transform="translate(759.676 1053.891)">
      <g id="Grupo_997483" data-name="Grupo 997483" clip-path="url(#clip-path)">
        <path id="Trazado_733550" data-name="Trazado 733550" d="M73.378,91.945V89.466H7.422c-.068,3.73-2.374,4.732-5.474,4.3A2.079,2.079,0,0,1,.026,91.91a5.707,5.707,0,0,1-.014-.916q0-36.119-.005-72.239a5.08,5.08,0,0,1,.057-.545c.343-.311.97-.608.985-.934.187-4.169.332-8.342.368-12.514.007-.78.051-1.955-1.332-1.96Q.063,2.443.04,2.084L1.48.276C3.264-.011,5.1-.486,6.407,1.348a15.988,15.988,0,0,1,.979,1.821c-.019,7.349-.025,14.7-.071,22.045-.006.872.2,1.266,1.115,1.005l3.257.046c.258-.517.737-1.033.742-1.552q.08-8.751.005-17.5A4.327,4.327,0,0,0,11.8,5.737q.006-.37.011-.741l.28-.276a16.935,16.935,0,0,1,2.617-.429c3.958-.045,7.918-.084,11.875.006,3.678.084,7.352.333,11.351.524V26.462l4.652-.548c.224-.491.639-.981.643-1.474q.068-8.61,0-17.221a4.35,4.35,0,0,0-.634-1.482q0-.37.01-.74l.281-.278a16.82,16.82,0,0,1,2.607-.428c3.944-.045,7.89-.062,11.833,0,3.43.054,6.86.209,10.287.376.328.016.637.438.954.672a7.852,7.852,0,0,0-.714,2.21c-.06,5.644-.067,11.29.017,16.934.009.6.71,1.189,1.09,1.783l3.257-.046c.911.261,1.121-.134,1.115-1.005-.048-7.348-.056-14.7-.076-22.045.313-2.018.963-3.323,5.18-2.895l1.908,2.161.244,1.1a6.048,6.048,0,0,0-.644,1.842q-.048,42.717-.011,85.434a9.315,9.315,0,0,0,.391,1.883c-.423.361-.819.99-1.272,1.034a35.124,35.124,0,0,1-3.9-.01c.084-1.267-.82-1.544-1.772-1.773M5.13,88.644,5.5,87.176V27.014q0-10.537-.007-21.073c0-.742.278-1.714-1.032-1.672L3.589,2.9a15.961,15.961,0,0,0-.643,1.514,3.143,3.143,0,0,0-.016.911q0,41.578.013,83.157c0,.67.04,1.341.061,2.011l.282.291,1.067.052.775-2.187m53.509-22.7H55.78l-.26.561a4.708,4.708,0,0,0,1.3.826,7.316,7.316,0,0,0,1.814-.005l.913.361q0-1.047,0-2.094l-.914.352M54.271,8.633h2.857l.255-.565a4.674,4.674,0,0,0-1.3-.823,7.362,7.362,0,0,0-1.813,0l-.925-.187q0,.875,0,1.75l.926-.178M38.058,81.656l.114.036c.228-.37.646-.736.653-1.11q.082-4.4,0-8.8c-.007-.374-.416-.742-.639-1.112l-1.535-.31h-5.86c0,.706.006,1.25,0,1.795-.027,2.2-.366,2.546-2.492,2.545H25c-3.341,0-3,.345-3.009-3.067,0-.407-.035-.815-.054-1.227H14.723V81.665l.314.286,21.612-.025,1.109.018.3-.288m-30-47.977c-.244.276-.7.55-.7.827q-.06,9.383,0,18.767c0,.277.457.551.7.827H8.8c2.933.153,2.933.153,2.933-2.693,0-4.09-.037-8.181.033-12.27a8.542,8.542,0,0,1,.7-2.27l1.114-.282q11.068-.023,22.135-.045,15.277-.011,30.554,0c2.167,0,2.644.479,2.657,2.615.008,1.526,0,3.051,0,4.577V54.1h3.666c.244-.406.7-.81.7-1.217q.068-9.189,0-18.379c0-.276-.457-.55-.7-.825q-17.638-.031-35.276-.057c-9.5,0-19.008.036-28.512.057H8.063M65.933,82.02c.384-.5,1.09-.987,1.1-1.491q.131-6.553,0-13.109c-.01-.509-.711-1-1.091-1.5l-1.429.046H61.587c0,.705.006,1.249,0,1.792-.027,2.2-.367,2.545-2.492,2.545-1.038,0-2.076,0-3.115,0-3.608-.016-3.172.412-3.194-3.249,0-.347-.042-.693-.064-1.04H48.449V81.665l.315.287,15.746-.027,1.11.018a.418.418,0,0,0,.314.076m11.05,8.764c.244-.55.7-1.1.7-1.649Q77.738,47.019,77.7,4.9a8.047,8.047,0,0,0-.354-1.662L76.19,3.9c-1.377.232-1.027,1.324-1.028,2.175q-.025,14.851-.011,29.7,0,14.026,0,28.052c0,8.555-.012,17.111.056,25.666,0,.447.707.888,1.085,1.331l.692-.045m-3.724-4.7c.267-1.372-.727-1.114-1.473-1.114q-31.493,0-62.986.017l-1.246-.189.528.923a9.926,9.926,0,0,0,2.5.68q18.75.066,37.5.028,12.438-.009,24.876-.053l.3-.292M67.45,57.036c-.491-.225-.982-.645-1.474-.646q-25.653-.051-51.306,0c-.491,0-.982.421-1.473.646L8.8,57.1l-1.245-.188.528.923a9.921,9.921,0,0,0,2.5.681q18.75.066,37.5.028,12.438-.009,24.876-.053l.3-.292c.209-.931-.262-1.143-1.09-1.13-1.573.025-3.146-.019-4.719-.035M33.72,26.22h1.367V7.214l-1.368.06H29.325c0,.642,0,1.124,0,1.607-.02,2.445-.3,2.724-2.694,2.726H23.336c-2.8,0-2.8,0-2.813-2.719,0-.527-.054-1.053-.082-1.562H14.779V26.22Zm30.794,0h1.372V7.273H60.18c-.173,3.637-.879,4.334-4.257,4.334-4.209,0-4.209,0-4.77-4.3H45.563V26.22Zm8.07,35.325c-.364-.023-.728-.066-1.093-.066q-31.023,0-62.046,0H7.454V82.224l4.214-.55c.265-.453.749-.9.758-1.361.065-3.4.059-6.795.006-10.191-.007-.432-.413-.859-.634-1.288q0-.369.007-.738l.286-.287a5.7,5.7,0,0,1,1.5-.428q12.627-.019,25.253.024l1.1.74a7.136,7.136,0,0,1,1.07,2.375c.134,3.716.091,7.438.112,11.158l.3.3a16.277,16.277,0,0,1,1.826.074c1.771.265,2.3-.44,2.253-2.22-.12-4.765-.089-9.537.008-14.3.015-.759.681-1.505,1.046-2.257L47.3,63H66.342l1.482.275,1.053,1.177c.014,5.451.036,10.9.033,16.352,0,.8-.035,1.512,1.109,1.18h2.566c.244-.406.7-.81.7-1.218q.068-9.2,0-18.39c0-.277-.457-.551-.7-.826m-8.07-22.006H45.456c0,.772.008,1.431,0,2.09-.02,1.459-.476,2.394-2.225,2.285-2.062-.129-4.136-.066-6.205-.087l-1.479-.271c-.183-1.326-.367-2.652-.549-3.97H14.721v14.2l.315.287H64.512c.49-.329,1.4-.649,1.408-.988.095-4.517.064-9.036.064-13.61l-1.469.064m7.332-8.857c-.148-1.859-1.343-1.452-2.2-1.453Q39.5,29.2,9.351,29.216a3.64,3.64,0,0,0-1.092.029,3.722,3.722,0,0,0-.9.623,4.009,4.009,0,0,0,.924.782,2.966,2.966,0,0,0,1.088.032H71.846ZM38.2,41.418c1.462-1.179,3.532.619,4.559-1.857H38.2ZM27.842,71.706c-.031-.5-.057-.93-.084-1.355H24.942c.032.5.06.929.088,1.355ZM26.527,8.9c-.417-2.716-2.019-1.273-3.161-1.7.249,2.451,1.913,1.046,3.161,1.7" transform="translate(0 0)"/>
        <path id="Trazado_733551" data-name="Trazado 733551" d="M217.555,98.767a9.288,9.288,0,0,1-.391-1.883q-.029-42.717.011-85.434a6.048,6.048,0,0,1,.644-1.842c.02.61.058,1.22.058,1.83q0,42.737-.011,85.474a11.068,11.068,0,0,1-.311,1.855" transform="translate(-137.23 -6.072)" fill="#010101"/>
        <path id="Trazado_733552" data-name="Trazado 733552" d="M185.394,35.43c-.38-.594-1.081-1.184-1.09-1.783-.084-5.644-.077-11.29-.017-16.934A7.867,7.867,0,0,1,185,14.5a10.383,10.383,0,0,1,.337,1.835c.039,6.364.043,12.728.057,19.092" transform="translate(-116.433 -9.165)" fill="#010101"/>
        <path id="Trazado_733553" data-name="Trazado 733553" d="M.2,7.614c1.383.005,1.339,1.181,1.332,1.96-.037,4.173-.181,8.345-.368,12.514-.015.325-.642.623-.985.934q.01-7.7.021-15.408" transform="translate(-0.11 -4.812)"/>
        <path id="Trazado_733554" data-name="Trazado 733554" d="M31.867,15.588a4.319,4.319,0,0,1,.633,1.474q.067,8.751,0,17.5c0,.52-.483,1.035-.742,1.552q.056-10.264.113-20.528" transform="translate(-20.067 -9.851)" fill="#010101"/>
        <path id="Trazado_733555" data-name="Trazado 733555" d="M115.715,15.588a4.358,4.358,0,0,1,.635,1.482q.067,8.61,0,17.221c0,.493-.419.983-.643,1.474q0-10.088.008-20.177" transform="translate(-73.122 -9.851)" fill="#010101"/>
        <path id="Trazado_733556" data-name="Trazado 733556" d="M199.239,249.825c.952.229,1.857.506,1.773,1.773q-2.24.469-1.773-1.773" transform="translate(-125.86 -157.88)"/>
        <path id="Trazado_733557" data-name="Trazado 733557" d="M32.37,12.824l-.28.276.28-.276" transform="translate(-20.28 -8.104)" fill="#010101"/>
        <path id="Trazado_733558" data-name="Trazado 733558" d="M116.039,12.82l-.281.278.281-.278" transform="translate(-73.155 -8.102)" fill="#010101"/>
        <path id="Trazado_733559" data-name="Trazado 733559" d="M62.3,111.72c2.069.02,4.143-.042,6.205.087,1.75.109,2.2-.826,2.225-2.286.009-.658,0-1.318,0-2.09H89.794q0,7.267,0,14.535H40.316L40,121.678v-14.2H60.275c.182,1.318.365,2.644.549,3.97l1.479.271" transform="translate(-25.279 -67.893)" fill="#ffce54"/>
        <path id="Trazado_733560" data-name="Trazado 733560" d="M142.751,38.709H123.8V19.8h5.589c.561,4.3.561,4.3,4.77,4.3,3.379,0,4.085-.7,4.257-4.333h4.334q0,9.473,0,18.946" transform="translate(-78.237 -12.489)" fill="#ffce54"/>
        <path id="Trazado_733561" data-name="Trazado 733561" d="M59.1,38.709H40.156V19.815h5.662c.028.509.079,1.035.082,1.562.018,2.718.014,2.718,2.813,2.719q1.647,0,3.294,0c2.4,0,2.675-.281,2.694-2.726,0-.482,0-.965,0-1.607H59.1q0,9.473,0,18.947" transform="translate(-25.377 -12.489)" fill="#ffce54"/>
        <path id="Trazado_733562" data-name="Trazado 733562" d="M131.641,194.927V179.268h4.273c.022.347.062.693.064,1.04.022,3.66-.414,3.232,3.194,3.249,1.038,0,2.076,0,3.115,0,2.126,0,2.465-.345,2.492-2.545.007-.543,0-1.086,0-1.792h2.927q0,7.983,0,15.966l-15.746.027-.315-.287" transform="translate(-83.192 -113.262)" fill="#ffce54"/>
        <path id="Trazado_733563" data-name="Trazado 733563" d="M40,202.478V191.217h7.214c.019.413.053.82.054,1.227.007,3.412-.332,3.064,3.009,3.067h3.3c2.126,0,2.465-.344,2.492-2.545.007-.545,0-1.089,0-1.795h5.861l0,11.568-21.612.025L40,202.478" transform="translate(-25.281 -120.814)" fill="#ffce54"/>
        <path id="Trazado_733564" data-name="Trazado 733564" d="M9.34,95.8,8.273,95.75l-.282-.291c-.021-.671-.061-1.341-.061-2.011Q7.92,51.87,7.916,10.291a3.144,3.144,0,0,1,.016-.911,15.961,15.961,0,0,1,.643-1.514l.869,1.375q0,11.372,0,22.744,0,.734,0,1.468v4.4q0,11,0,22.01,0,.733,0,1.468V87.745q0,.734,0,1.468l0,2.934v1.468q-.051,1.093-.1,2.187" transform="translate(-4.985 -4.971)" fill="#656d78"/>
        <path id="Trazado_733565" data-name="Trazado 733565" d="M22.677,155.039l4.4-.066c8.646.02,17.293.056,25.939.056,9.438,0,18.876-.036,28.314-.056,1.573.015,3.146.06,4.719.035.828-.013,1.3.2,1.09,1.13l-.3.292q-12.438.028-24.876.053-18.751.014-37.5-.028a9.922,9.922,0,0,1-2.5-.68l.718-.735" transform="translate(-13.877 -97.937)" fill="#545c66"/>
        <path id="Trazado_733566" data-name="Trazado 733566" d="M22.678,230.847q31.493-.01,62.987-.017c.745,0,1.74-.258,1.473,1.114l-.3.291q-12.438.028-24.876.054-18.751.014-37.5-.028a9.924,9.924,0,0,1-2.5-.68l.718-.735" transform="translate(-13.878 -145.864)" fill="#545c66"/>
        <path id="Trazado_733567" data-name="Trazado 733567" d="M84.486,80.8H22.012a2.958,2.958,0,0,1-1.088-.032A3.988,3.988,0,0,1,20,79.986a3.72,3.72,0,0,1,.9-.623,3.64,3.64,0,0,1,1.092-.029q30.149,0,60.3.014c.854,0,2.05-.406,2.2,1.453" transform="translate(-12.639 -50.118)" fill="#545c66"/>
        <path id="Trazado_733568" data-name="Trazado 733568" d="M205.286,97.53c-.378-.443-1.081-.885-1.085-1.331-.068-8.555-.055-17.11-.056-25.666q0-14.026,0-28.052,0-14.851.011-29.7c0-.851-.349-1.943,1.028-2.175.02.732.058,1.465.058,2.2q0,26.593,0,53.186.005,15.772.039,31.543" transform="translate(-128.994 -6.701)"/>
        <path id="Trazado_733569" data-name="Trazado 733569" d="M207.118,96.395q-.02-15.772-.039-31.543-.01-26.593,0-53.186c0-.732-.038-1.465-.058-2.2l1.159-.661a23.4,23.4,0,0,0-.349,2.879q-.029,42.332-.016,84.664l-.692.045" transform="translate(-130.826 -5.566)" fill="#656d78"/>
        <path id="Trazado_733570" data-name="Trazado 733570" d="M209.172,96.35q0-42.332.016-84.664a23.41,23.41,0,0,1,.349-2.879,8.047,8.047,0,0,1,.354,1.661q.026,42.116-.015,84.232c0,.55-.459,1.1-.7,1.649" transform="translate(-132.188 -5.566)" fill="#646c77"/>
        <path id="Trazado_733571" data-name="Trazado 733571" d="M90.111,153.82c-9.438.02-18.876.055-28.314.056-8.647,0-17.293-.035-25.939-.056.491-.225.982-.645,1.474-.646q25.653-.051,51.306,0c.491,0,.982.421,1.473.646" transform="translate(-22.661 -96.784)" fill="#010101"/>
        <path id="Trazado_733572" data-name="Trazado 733572" d="M175.292,38.709q0-9.473,0-18.946h1.373V38.709Z" transform="translate(-110.777 -12.489)" fill="#f6bb42"/>
        <path id="Trazado_733573" data-name="Trazado 733573" d="M91.62,38.606q0-9.473,0-18.947l1.368-.06V38.606Z" transform="translate(-57.9 -12.386)" fill="#f6bb42"/>
        <path id="Trazado_733574" data-name="Trazado 733574" d="M12.1,34.343q0-11.372,0-22.744c1.31-.042,1.031.929,1.032,1.672q.016,10.537.006,21.073H12.1" transform="translate(-7.649 -7.329)"/>
        <path id="Trazado_733575" data-name="Trazado 733575" d="M12.1,187.113q0-11.005,0-22.01h1.042v22.01H12.1" transform="translate(-7.649 -104.338)"/>
        <path id="Trazado_733576" data-name="Trazado 733576" d="M12.1,111.358q0-11.005,0-22.01h1.042v22.01H12.1" transform="translate(-7.649 -56.465)"/>
        <path id="Trazado_733577" data-name="Trazado 733577" d="M175.282,195.109q0-7.983,0-15.966l1.429-.046q-.013,7.879-.027,15.759l-.3.27-1.11-.018" transform="translate(-110.772 -113.183)" fill="#f6bb42"/>
        <path id="Trazado_733578" data-name="Trazado 733578" d="M175.287,121.857q0-7.267,0-14.534l1.469-.064c0,4.574.032,9.094-.064,13.61-.007.339-.917.659-1.408.988" transform="translate(-110.775 -67.783)" fill="#f6bb42"/>
        <path id="Trazado_733579" data-name="Trazado 733579" d="M179.1,194.857q.013-7.879.026-15.759c.381.5,1.081,1,1.091,1.5q.131,6.553,0,13.109c-.01.5-.717.994-1.1,1.491a.461.461,0,0,0-.017-.346" transform="translate(-113.187 -113.183)"/>
        <path id="Trazado_733580" data-name="Trazado 733580" d="M99.579,202.74l0-11.567,1.534.309q-.008,5.512-.015,11.024l-.114-.036-.3.288-1.109-.018" transform="translate(-62.93 -120.814)" fill="#f6bb42"/>
        <path id="Trazado_733581" data-name="Trazado 733581" d="M31.7,199.87q.065-6.42.13-12.84c.221.429.628.855.634,1.288.053,3.4.059,6.8-.006,10.191-.008.458-.494.907-.758,1.361" transform="translate(-20.036 -118.196)" fill="#010101"/>
        <path id="Trazado_733582" data-name="Trazado 733582" d="M103.719,203.038q.008-5.512.015-11.024c.223.371.632.738.639,1.112q.08,4.4,0,8.8c-.007.374-.425.74-.653,1.11" transform="translate(-65.547 -121.346)" fill="#010100"/>
        <path id="Trazado_733583" data-name="Trazado 733583" d="M103.781,109.349v-1.857h4.559c-1.027,2.477-3.1.678-4.559,1.857" transform="translate(-65.586 -67.931)" fill="#e7e9ea"/>
        <path id="Trazado_733584" data-name="Trazado 733584" d="M70.671,192.505H67.86c-.028-.426-.056-.858-.088-1.355h2.815c.027.426.053.857.084,1.355" transform="translate(-42.829 -120.8)" fill="#e4e7eb"/>
        <path id="Trazado_733585" data-name="Trazado 733585" d="M147.462,19.582a7.347,7.347,0,0,1,1.813,0,4.685,4.685,0,0,1,1.3.823l-.255.565H147.46q0-.692,0-1.384" transform="translate(-93.189 -12.333)" fill="#e4e7eb"/>
        <path id="Trazado_733586" data-name="Trazado 733586" d="M66.651,21.245c-1.247-.653-2.912.752-3.161-1.7,1.141.426,2.743-1.017,3.161,1.7" transform="translate(-40.123 -12.344)" fill="#e4e7eb"/>
        <path id="Trazado_733587" data-name="Trazado 733587" d="M153.971,180.547a7.334,7.334,0,0,1-1.814.005,4.706,4.706,0,0,1-1.3-.826l.26-.56h2.859l0,1.381" transform="translate(-95.334 -113.226)" fill="#e4e7eb"/>
        <path id="Trazado_733588" data-name="Trazado 733588" d="M12.1,156.075q0-1.467,0-2.934h1.042v2.935H12.1" transform="translate(-7.649 -96.779)"/>
        <path id="Trazado_733589" data-name="Trazado 733589" d="M159.322,179.942l0-1.381.914-.353q0,1.048,0,2.095l-.913-.361" transform="translate(-100.686 -112.621)"/>
        <path id="Trazado_733590" data-name="Trazado 733590" d="M12.1,80.322q0-1.467,0-2.934h1.042v2.935H12.1" transform="translate(-7.649 -48.906)"/>
        <path id="Trazado_733591" data-name="Trazado 733591" d="M12.107,231.829l0-2.934h1.042v2.935H12.107" transform="translate(-7.649 -144.653)"/>
        <path id="Trazado_733592" data-name="Trazado 733592" d="M145.873,19.375q0,.692,0,1.384l-.926.178q0-.875,0-1.75l.925.187" transform="translate(-91.6 -12.126)"/>
        <path id="Trazado_733593" data-name="Trazado 733593" d="M13.145,226.374H12.1q0-.734,0-1.467h1.042Z" transform="translate(-7.649 -142.133)"/>
        <path id="Trazado_733594" data-name="Trazado 733594" d="M13.145,150.621H12.1v-1.467h1.042Z" transform="translate(-7.649 -94.26)"/>
        <path id="Trazado_733595" data-name="Trazado 733595" d="M11.833,243.042q.051-1.093.1-2.187h.672l-.775,2.187" transform="translate(-7.478 -152.211)"/>
        <path id="Trazado_733596" data-name="Trazado 733596" d="M12.1,85.361h1.042v1.468H12.1q0-.734,0-1.468" transform="translate(-7.649 -53.945)"/>
        <path id="Trazado_733597" data-name="Trazado 733597" d="M12.785,238.335h-.672v-1.468h1.039l-.367,1.467" transform="translate(-7.655 -149.691)"/>
        <path id="Trazado_733598" data-name="Trazado 733598" d="M13.145,74.868H12.1V73.4h1.042Z" transform="translate(-7.649 -46.387)"/>
        <path id="Trazado_733599" data-name="Trazado 733599" d="M12.1,161.114h1.042v1.467H12.1q0-.734,0-1.468" transform="translate(-7.649 -101.818)"/>
        <path id="Trazado_733600" data-name="Trazado 733600" d="M21.77,154.829l-.718.735-.528-.923,1.245.188" transform="translate(-12.971 -97.727)" fill="#010101"/>
        <path id="Trazado_733601" data-name="Trazado 733601" d="M21.771,230.584l-.718.735-.528-.923,1.246.189" transform="translate(-12.971 -145.601)" fill="#010101"/>
        <path id="Trazado_733602" data-name="Trazado 733602" d="M98.06,118.618l-1.479-.271,1.479.271" transform="translate(-61.036 -74.791)" fill="#010101"/>
        <path id="Trazado_733603" data-name="Trazado 733603" d="M131.641,221.894l.315.287-.315-.287" transform="translate(-83.192 -140.229)" fill="#d1a945"/>
        <path id="Trazado_733604" data-name="Trazado 733604" d="M178.593,221.916a.461.461,0,0,1,.017.346.419.419,0,0,1-.314-.076l.3-.271" transform="translate(-112.676 -140.243)" fill="#d1a945"/>
        <path id="Trazado_733605" data-name="Trazado 733605" d="M102.593,222.156l.3-.288-.3.288" transform="translate(-64.835 -140.212)" fill="#d1a945"/>
        <path id="Trazado_733606" data-name="Trazado 733606" d="M40,221.893l.314.287L40,221.893" transform="translate(-25.281 -140.228)" fill="#d1a945"/>
        <path id="Trazado_733607" data-name="Trazado 733607" d="M198.231,234.182l.3-.292-.3.292" transform="translate(-125.275 -147.81)" fill="#4b535c"/>
        <path id="Trazado_733608" data-name="Trazado 733608" d="M32.076,184.532l.286-.287-.286.287" transform="translate(-20.271 -116.436)" fill="#010101"/>
        <path id="Trazado_733609" data-name="Trazado 733609" d="M40,146.14l.315.288L40,146.14" transform="translate(-25.278 -92.355)" fill="#d1a945"/>
        <path id="Trazado_733610" data-name="Trazado 733610" d="M8.166,245.866l.282.291-.282-.291" transform="translate(-5.161 -155.378)" fill="#626a75"/>
        <path id="Trazado_733611" data-name="Trazado 733611" d="M198.231,158.429l.3-.292-.3.292" transform="translate(-125.275 -99.937)" fill="#4b535c"/>
      </g>
    </g>
  </g>
</svg>
