<svg xmlns="http://www.w3.org/2000/svg" xmlns:xlink="http://www.w3.org/1999/xlink" width="118" height="118" viewBox="0 0 118 118">
  <defs>
    <clipPath id="clip-path">
      <rect id="Rectángulo_349864" data-name="Rectángulo 349864" width="97.924" height="100.39" fill="none"/>
    </clipPath>
  </defs>
  <g id="Grupo_998202" data-name="Grupo 998202" transform="translate(-11398 10678)">
    <circle id="Elipse_5966" data-name="Elipse 5966" cx="59" cy="59" r="59" transform="translate(11398 -10678)" fill="#b20d0d"/>
    <g id="Grupo_997492" data-name="Grupo 997492" transform="translate(11418.076 -10668.822)">
      <g id="Grupo_997491" data-name="Grupo 997491" clip-path="url(#clip-path)">
        <path id="Trazado_733698" data-name="Trazado 733698" d="M10.62,41.926l-2.249-.158c0-4.763.013-9.45,0-14.138-.015-4.174-.351-8.371-.012-12.514A15.828,15.828,0,0,1,13.943,4.134,16.774,16.774,0,0,1,24.316.026,15.8,15.8,0,0,1,34.535,2.973,16.107,16.107,0,0,1,41.6,16.643c.022,12.447.247,24.893.2,37.339a6.322,6.322,0,0,0,2.011,4.684A22.094,22.094,0,0,1,49.695,72.02a26.919,26.919,0,0,1-.792,9.707,25.234,25.234,0,0,1-4.322,8.817,27.439,27.439,0,0,1-7.85,6.709,23.636,23.636,0,0,1-15.044,2.9c-2.062-.291-3.947-1.8-6.012-2.125a10.658,10.658,0,0,1-5.364-2.512C6.83,92.591,3.677,89.5,2.073,84.944a28.6,28.6,0,0,1-2-12.026A17.5,17.5,0,0,1,.81,69.833c.392-1.43.829-2.848,1.23-4.276A18.065,18.065,0,0,1,6.7,58.037a19.847,19.847,0,0,0,2.05-3.165l-.417-.388,2.286-.154,1.8.146c.724,2.628-.414,4.34-2.178,6.042A20.111,20.111,0,0,0,7.587,86.7c4.2,6.049,9.983,9.5,17.537,9.549a33.543,33.543,0,0,0,4.327-.558A21.267,21.267,0,0,0,44.027,83.569c3.5-7.417,1.855-16.766-3.627-22.236-1.921-1.917-3.267-3.747-2.767-6.538.016-.09-.119-.208-.212-.357H27.281V50.022H37.548V46.233H33.353c-.846-.022-1.691-.06-2.536-.061-3.933-.007-3.935,0-3.689-3.925a.288.288,0,0,1,.128-.184l6.15-.594h4.135V37.614H27.287V33.236H37.546V29.364H33.369l-8.248-.041H18.853v2.357c0,9.321.039,18.642-.057,27.962a5.018,5.018,0,0,1-1.279,2.96c-1.144,1.3-2.818,2.152-3.854,3.509C10.934,69.687,9.1,73.6,10.694,78.277c.247.787.449,1.593.75,2.359,2.257,5.758,8.543,9.556,13.7,9.352a14.257,14.257,0,0,0,7.2-2.24A13.245,13.245,0,0,0,39.157,78.3c1.469-1.53.992-3.856.617-5.1-1.21-4.008-2.73-8.115-6.948-10.269a2.925,2.925,0,0,1-1.37-1.909,34.038,34.038,0,0,1-.064-4.6l1.96-.13,1.875.153-.436.323c.59,1.253.859,2.894,1.825,3.692a18.241,18.241,0,0,1,6.938,13.876v1.649a14.24,14.24,0,0,1-.126,2.911C41.2,87.812,34.376,93.7,25.125,94.039l-5.57-1.173-1.1-.386c-2.041-1.09-4.383-1.84-6.063-3.334A17.841,17.841,0,0,1,6.321,73.875a17.409,17.409,0,0,1,6.837-13.257,3.553,3.553,0,0,0,1.42-2.3c.085-13.576.055-27.153.066-40.73a14.487,14.487,0,0,1,.2-3.228C16.1,8.945,19.869,6.6,25.125,6.143a8,8,0,0,0,1.426.442,9.759,9.759,0,0,1,7.991,5.852c.708,1.435.307,2.008-1.183,2.079L31.2,15.2c-1.149-2.72-2.783-4.777-6.072-4.623-3.749-.284-5.908,2.053-6.182,4.665a93.835,93.835,0,0,0-.079,9.7H37.548V21.16H27.193V16.972l6.168-.541h4.188C35.939,8.377,31.39,4.016,25.125,4.313c-1.072.109-2.162.128-3.213.343-5.028,1.03-9.241,5.622-9.3,10.794-.1,8.087-.057,16.175,0,24.263.011,1.5-.265,2.426-1.991,2.213" transform="translate(0 0.001)"/>
        <path id="Trazado_733699" data-name="Trazado 733699" d="M31.191,12.8c-5.256.452-9.023,2.8-10.278,8.218a14.487,14.487,0,0,0-.2,3.228c-.011,13.576.019,27.153-.066,40.73a3.556,3.556,0,0,1-1.42,2.3,17.408,17.408,0,0,0-6.837,13.257,17.84,17.84,0,0,0,6.076,15.271c1.68,1.495,4.023,2.245,6.063,3.334l1.1.386,5.57,1.173q0,1.106,0,2.213c-7.554-.045-13.338-3.5-17.537-9.549A20.111,20.111,0,0,1,16.3,67.177c1.764-1.7,2.9-3.414,2.178-6.042l-1.8-.146q0-2.088,0-4.177l1.842-.136V52.871l-1.842-.109q0-2.088,0-4.177c1.726.213,2-.71,1.991-2.213-.059-8.087-.1-16.176,0-24.263.061-5.173,4.274-9.764,9.3-10.794a32.29,32.29,0,0,1,3.213-.343V12.8" transform="translate(-6.066 -6.66)" fill="#e9edf5"/>
        <path id="Trazado_733700" data-name="Trazado 733700" d="M185.514,64.844c1.677,1.148.184,2.616.4,3.912-2.24-.025-2.068,1.778-2.416,3.188-.68.217-1.356.452-2.042.65-7.41,2.139-15.317-2.866-15.946-10.089,1.467-2.658,4.024-3.589,6.756-3.826,5.207-.45,8.9,1.959,11.146,6.627l2.106-.462" transform="translate(-100.448 -35.581)" fill="#ffd747"/>
        <path id="Trazado_733701" data-name="Trazado 733701" d="M175.269,58.289l-2.106.462c-2.247-4.668-5.94-7.077-11.146-6.627-2.732.237-5.289,1.168-6.756,3.826-.77,1.533-2.074,3.033-2.176,4.61-.131,2.009-1,2.213-2.5,2.163l-1.921-.11a13.06,13.06,0,0,1,4.313-10.7,13.84,13.84,0,0,1,9.522-4.089c5.414-.054,9.918,1.976,13.013,6.624.176.265.352.531.55.779,1.715,2.14,1.689,2.244-.792,3.061" transform="translate(-90.203 -29.025)" fill="#010101"/>
        <path id="Trazado_733702" data-name="Trazado 733702" d="M153.609,75.268c1.5.05,2.37-.154,2.5-2.163.1-1.577,1.406-3.077,2.176-4.61.628,7.223,8.535,12.228,15.945,10.089.686-.2,1.361-.432,2.042-.65a25.607,25.607,0,0,1-1.809,3.309,10.107,10.107,0,0,1-17-.882c-.8-1.376-1.529-1.991-3.027-1.306l-.831-3.786" transform="translate(-93.228 -41.571)" fill="#feb13b"/>
        <path id="Trazado_733703" data-name="Trazado 733703" d="M152.789,88.7c1.5-.684,2.23-.069,3.027,1.307a10.107,10.107,0,0,0,17,.882,25.527,25.527,0,0,0,1.808-3.309c.348-1.409.176-3.212,2.416-3.188l2.086.659a14.106,14.106,0,0,1-4.766,10.471,14.532,14.532,0,0,1-8.1,3.766,13.773,13.773,0,0,1-9.436-2.3,14.137,14.137,0,0,1-5.932-7.413l1.9-.877" transform="translate(-91.576 -51.221)" fill="#010100"/>
        <path id="Trazado_733704" data-name="Trazado 733704" d="M214.909,45.449l-2.9-2.973c1.706-1.683,3.417-3.432,5.222-5.078.248-.225,1.069-.09,1.448.153a25.652,25.652,0,0,1,2.366,1.891l-6.138,6.007" transform="translate(-128.673 -22.627)" fill="#050505"/>
        <path id="Trazado_733705" data-name="Trazado 733705" d="M146.078,115.087l-5.721,5.786c-.094-.035-.244-.046-.323-.126-3.364-3.417-3.133-2.3-.068-5.511.045-.047.093-.092.139-.138,3.082-3.081,3.082-3.081,5.973-.012" transform="translate(-83.505 -68.452)" fill="#040404"/>
        <path id="Trazado_733706" data-name="Trazado 733706" d="M146.335,42.482,143.262,45.4c-1.549-1.582-3.112-3.315-4.824-4.885-1.488-1.364-.149-1.943.55-2.779.806-.963,1.493-1.245,2.5-.132,1.525,1.688,3.2,3.237,4.849,4.879" transform="translate(-83.611 -22.385)" fill="#020202"/>
        <rect id="Rectángulo_349860" data-name="Rectángulo 349860" width="8.082" height="4.026" transform="translate(89.842 31.424)"/>
        <rect id="Rectángulo_349861" data-name="Rectángulo 349861" width="4.095" height="8.072" transform="translate(71.07 50.134)"/>
        <path id="Trazado_733707" data-name="Trazado 733707" d="M220.423,117.855l-2.689,2.9-6.353-6.453a7.2,7.2,0,0,0,1.671-.816c1.1-.872,1.965-1.193,3.072.079,1.322,1.519,2.848,2.86,4.3,4.292" transform="translate(-128.29 -68.41)" fill="#010101"/>
        <rect id="Rectángulo_349862" data-name="Rectángulo 349862" width="4.076" height="7.822" transform="translate(71.063 8.614)"/>
        <rect id="Rectángulo_349863" data-name="Rectángulo 349863" width="8.466" height="3.695" transform="translate(47.917 31.365)"/>
        <path id="Trazado_733708" data-name="Trazado 733708" d="M23.582,117.284l1.842.109V121.2l-1.842.136-2.226-.11v-3.81l2.226-.131" transform="translate(-12.961 -71.181)"/>
        <path id="Trazado_733709" data-name="Trazado 733709" d="M26.293,123.552c-1.591-4.682.24-8.59,2.969-12.166,1.036-1.358,2.71-2.213,3.854-3.509a5.014,5.014,0,0,0,1.279-2.96c.1-9.32.057-18.64.057-27.961V74.6H40.72q-.007,28.211-.014,56.421a19.045,19.045,0,0,1-10.828-4.1c-1.257-1.049-2.394-2.243-3.586-3.371" transform="translate(-15.599 -45.275)" fill="#d1093a"/>
        <path id="Trazado_733710" data-name="Trazado 733710" d="M63.872,131.019q.007-28.211.014-56.422l8.248.042q.017,1.936.033,3.872H66.052v4.378h6.066l.053,3.855-6.15.594a.288.288,0,0,0-.128.184c-.246,3.922-.244,3.918,3.689,3.925.845,0,1.691.04,2.536.061q0,1.9,0,3.79H66.046v4.415h6.087l-.017,1.854-1.96.13a34.037,34.037,0,0,0,.064,4.6,2.925,2.925,0,0,0,1.37,1.909c4.218,2.155,5.739,6.261,6.948,10.269.375,1.242.852,3.568-.617,5.1A17.924,17.924,0,0,1,67.4,130.588l-.377.013-3.1.388ZM67.418,118.8c-.013,2.343,2.611,5.133,4.84,5.147,1.914.013,3.365-1.136,3.412-2.7.08-2.682-2.867-5.568-5.662-5.544-1.779.015-2.579.972-2.59,3.1m5.052-6.95a9.776,9.776,0,0,0-1.062,1.071,18.263,18.263,0,0,0,2.671,2.726c.066.055,1.46-.96,1.472-1.495.033-1.43-.741-2.454-3.081-2.3" transform="translate(-38.765 -45.274)" fill="#ff636e"/>
        <path id="Trazado_733711" data-name="Trazado 733711" d="M72.144,140.343l.017-1.854h4.052c.093.15.228.267.212.357-.5,2.791.846,4.621,2.767,6.538,5.482,5.47,7.13,14.819,3.627,22.236a21.265,21.265,0,0,1-14.576,12.125,33.529,33.529,0,0,1-4.326.558q0-1.107,0-2.213c9.251-.335,16.078-6.227,18.3-15.144a14.269,14.269,0,0,0,.125-2.911q0-.824,0-1.649a18.241,18.241,0,0,0-6.938-13.876c-.966-.8-1.235-2.439-1.825-3.692l.437-.323-1.875-.153" transform="translate(-38.792 -84.051)" fill="#f6f9fe"/>
        <path id="Trazado_733712" data-name="Trazado 733712" d="M54.108,41.251H47.847a93.716,93.716,0,0,1,.08-9.7c.273-2.612,2.433-4.95,6.181-4.665V41.251" transform="translate(-28.983 -16.303)" fill="#cdd2e1"/>
        <path id="Trazado_733713" data-name="Trazado 733713" d="M63.918,41.275V26.909c3.289-.154,4.923,1.9,6.072,4.623l2.16-.689,0,1.916-6.168.542v4.187h6.164v3.789H63.918" transform="translate(-38.793 -16.327)" fill="#dce1eb"/>
        <path id="Trazado_733714" data-name="Trazado 733714" d="M27.206,199.136c1.192,1.128,2.328,2.322,3.586,3.371a19.045,19.045,0,0,0,10.828,4.1l.049-.029q-.005,2.137-.01,4.273c-5.159.2-11.445-3.594-13.7-9.352-.3-.767-.5-1.572-.75-2.359" transform="translate(-16.512 -120.859)" fill="#a50235"/>
        <path id="Trazado_733715" data-name="Trazado 733715" d="M63.971,210.885q0-2.137.01-4.273l3.105-.388.188.007.188-.021A17.922,17.922,0,0,0,77.982,199.2a13.246,13.246,0,0,1-6.811,9.447,14.25,14.25,0,0,1-7.2,2.24" transform="translate(-38.825 -120.896)" fill="#ef3049"/>
        <path id="Trazado_733716" data-name="Trazado 733716" d="M72.152,23.069l0-1.916c1.489-.07,1.89-.643,1.183-2.078a9.759,9.759,0,0,0-7.991-5.852,8.038,8.038,0,0,1-1.426-.443v-1.83c6.266-.3,10.815,4.064,12.424,12.118Z" transform="translate(-38.792 -6.638)" fill="#f6f9fe"/>
        <path id="Trazado_733717" data-name="Trazado 733717" d="M84.848,121.406v-3.789h4.195v3.789Z" transform="translate(-51.496 -71.383)" fill="#f7faff"/>
        <path id="Trazado_733718" data-name="Trazado 733718" d="M84.9,99.545l-.053-3.855h4.188v3.855Z" transform="translate(-51.496 -58.076)" fill="#f7faff"/>
        <path id="Trazado_733719" data-name="Trazado 733719" d="M84.923,78.576q-.017-1.936-.033-3.871h4.177v3.871Z" transform="translate(-51.521 -45.339)" fill="#f7faff"/>
        <path id="Trazado_733720" data-name="Trazado 733720" d="M84.858,57.619V53.831h4.191v3.788Z" transform="translate(-51.502 -32.671)" fill="#f7faff"/>
        <path id="Trazado_733721" data-name="Trazado 733721" d="M110.8,189.109q0,.824,0,1.649,0-.824,0-1.649" transform="translate(-67.244 -114.773)" fill="#010100"/>
        <path id="Trazado_733722" data-name="Trazado 733722" d="M48.056,235.654l-1.1-.386,1.1.386" transform="translate(-28.501 -142.788)" fill="#e8ecf4"/>
        <path id="Trazado_733723" data-name="Trazado 733723" d="M72.894,182.279c.011-2.126.812-3.082,2.59-3.1,2.795-.024,5.742,2.862,5.662,5.544-.047,1.564-1.5,2.713-3.412,2.7-2.23-.014-4.853-2.8-4.84-5.147" transform="translate(-44.24 -108.748)" fill="#f6f9fc"/>
        <path id="Trazado_733724" data-name="Trazado 733724" d="M84.1,169.358c2.34-.152,3.114.872,3.081,2.3-.012.535-1.405,1.549-1.472,1.495a18.263,18.263,0,0,1-2.671-2.726,9.776,9.776,0,0,1,1.062-1.071" transform="translate(-50.399 -102.777)" fill="#f6f9fc"/>
        <path id="Trazado_733725" data-name="Trazado 733725" d="M72.272,217.036l-.188.022-.189-.008.377-.014" transform="translate(-43.634 -131.722)" fill="#fe636f"/>
      </g>
    </g>
  </g>
</svg>
