<svg xmlns="http://www.w3.org/2000/svg" xmlns:xlink="http://www.w3.org/1999/xlink" width="118" height="118" viewBox="0 0 118 118">
  <defs>
    <clipPath id="clip-path">
      <rect id="Rectángulo_349859" data-name="Rectángulo 349859" width="88.58" height="92.658" fill="none"/>
    </clipPath>
  </defs>
  <g id="Grupo_998201" data-name="Grupo 998201" transform="translate(-11051 10678)">
    <circle id="Elipse_5965" data-name="Elipse 5965" cx="59" cy="59" r="59" transform="translate(11051 -10678)" fill="#ffc403"/>
    <g id="Grupo_997490" data-name="Grupo 997490" transform="translate(11065.777 -10664.957)">
      <g id="Grupo_997489" data-name="Grupo 997489" clip-path="url(#clip-path)">
        <path id="Trazado_733663" data-name="Trazado 733663" d="M76.283,6.8A43.05,43.05,0,0,1,89.615,3.856,2.276,2.276,0,0,0,92.258,5.68a22.436,22.436,0,0,1,6.192.587,40.317,40.317,0,0,1,7.284,2.322A49.476,49.476,0,0,1,112.7,11.93a38.413,38.413,0,0,1,12.388,12.89c.762,1.246,1.505,1.285,2.6.585,1.186-.76,2.393-1.491,3.622-2.179a1.971,1.971,0,0,1,2.326.317,1.608,1.608,0,0,1,.323,1.919,18,18,0,0,0-.435,3.512c-.721,5.09-1.24,10.209-1.869,15.313a3.41,3.41,0,0,1-4.431,2.926c-2.2-.806-4.283-1.905-6.418-2.876a21.692,21.692,0,0,0-.02-2.332c-.075-.683.475-1.638-.694-1.941a34.664,34.664,0,0,0-.357-6.879c.182-.094.495-.16.522-.287.082-.38-.269-.383-.528-.436-.112-2.1-.974-3.771-3.1-4.312a15.664,15.664,0,0,1-7.047-4.016c.075-.809-.295-1.165-1.1-1.079a10.559,10.559,0,0,1-1.234-.734,20.929,20.929,0,0,0-12.508-4.35c-1.01-1.408-1.409-1.409-2.171-.007H90.4c-1.257-1.412-2.083-1.412-2.895,0a16.291,16.291,0,0,1-5.66-2.082c-1.048-.532-2.037-1.3-3.329-1.164-.117-2.38-.432-4.692-2.24-6.487L76.283,6.8m53.568,27.009a5.42,5.42,0,0,1,0-.721,2.323,2.323,0,0,0-1.717-2.634c-1.292-.328-2.872-.718-4,.655-.917,1.115-.34,2.078.239,3.118a4.258,4.258,0,0,1,.627,3.6c-.269.761-.526,1.618.334,2.09.762.418,1.521-.052,2.115-.567a6.893,6.893,0,0,0,2.4-5.543" transform="translate(-48.555 -2.455)" fill="#ff6d7a"/>
        <path id="Trazado_733664" data-name="Trazado 733664" d="M23.649,87.067A31.663,31.663,0,0,1,12.842,74.7c.692-.847.3-1.633-.076-2.471-2.357-5.3-4.116-10.736-3.893-16.644A59.891,59.891,0,0,1,9.2,48.964a36.685,36.685,0,0,1,4.479-13.233c.9-1.537.449-2.289-.763-3.017-1.1-.664-2.268-1.229-3.4-1.85a1.845,1.845,0,0,1-1.027-1.913A1.738,1.738,0,0,1,9.6,27.284c5.545-2.363,11.075-4.762,16.641-7.076,1.718-.714,3.527-1.161,5.039.548l.463,1.435c.4.548.233,1.209.368,1.81l.257.715c-.4.116-.321.425-.286.716-1.62,1-1.877,2.816-2.582,4.362-.524.043-.97.236-1.016.817-.055.689.41.934,1.016.993l.015,1.444c-.592.588-.423.935.347,1.09a4.425,4.425,0,0,1-.366,2.534q-1.538-.1-1.437,1.436a2.468,2.468,0,0,1-1.442.385,1.173,1.173,0,0,0-1.815.71c-5.175,1.823-7.847,5.734-9.056,10.864-.769.155-.938.5-.347,1.09l0,5.782c-.6.587-.431.935.343,1.092q.01.54.02,1.079c-.559.559-.128.653.342.731.728,3.841,2.443,7.32,3.993,10.858-.548.58-.1.655.365.723a3.807,3.807,0,0,1,1.444,2.167c-.084.8.274,1.171,1.081,1.095A5.659,5.659,0,0,1,24.8,76.5c-.074.8.294,1.161,1.094,1.079l2.169,1.443a1.114,1.114,0,0,0,.76,1.111,4.1,4.1,0,0,1-1.275,1.125,7.823,7.823,0,0,0-3.9,5.81M25.525,29.6c0-1.9-1.684-2.916-4.461-2.7-1.855.147-2.791,1.422-2.367,3.45a5.216,5.216,0,0,1-.225,3.967c-.6,1.083.61,1.515,1.375,1.511,1.9-.011,5.679-4.278,5.678-6.232" transform="translate(-5.401 -12.46)" fill="#befa91"/>
        <path id="Trazado_733665" data-name="Trazado 733665" d="M120.223,126.106a40.592,40.592,0,0,1-3.209,11.97c-.26.594-.506,1.195-.758,1.793l-.286.374c-.038.129-.076.258-.114.387a2.4,2.4,0,0,0-2.678,1.3,38.919,38.919,0,0,1-15.9,14.526,35.193,35.193,0,0,1-16.424,4.091c-2.2-.03-2.473.322-2.5,2.464-.015,1.386.047,2.777-.051,4.156a1.691,1.691,0,0,1-2.8,1.282c-2.963-2.164-5.946-4.3-8.893-6.486-2.222-1.647-4.444-3.3-6.581-5.051-1.078-.883-2.3-1.876-1.334-3.59,1.127-.971,2.416-1.8,2.9-3.329l3.339-2.49c4.024-.185,7.886-.241,10.682,3.608,2.236,3.078,5.676,3.467,9.237,3.059a24.857,24.857,0,0,0,10.287-4.09c4.793-2.985,9.153-6.413,11.441-11.83,1.89-4.474,1.688-9.264,2.092-13.962a25.277,25.277,0,0,1,2.739,1.058c2.835,1.2,5.707,2.482,8.811.761M70.567,159.449c3.35.033,4.89-2.482,3.432-5.228a9.675,9.675,0,0,0-2.536-3.209,3.357,3.357,0,0,0-3.8-.664c-1.532.793-2.461,2.115-2.03,3.8a8.7,8.7,0,0,0,4.094,5.17,1.818,1.818,0,0,0,.845.127" transform="translate(-37.14 -79.119)" fill="#ffe773"/>
        <path id="Trazado_733666" data-name="Trazado 733666" d="M155.006,46.987c-3.1,1.721-5.976.441-8.811-.761a25.273,25.273,0,0,0-2.739-1.057,14.767,14.767,0,0,0-3.994-1.713q-4.245-2-8.491-3.993a4.462,4.462,0,0,1-2.666-4.213,4.515,4.515,0,0,1,2.67-4.215c.625-.3,1.18-.76,1.814-1.038,1.139-.5.884-1.139.274-1.851a23.681,23.681,0,0,0-16.931-8.606c-1.321-.09-2.02-.5-2.063-1.841a1.537,1.537,0,0,1,1.743-1.116c1.179.108,2.348.158,3.532.354a25.259,25.259,0,0,1,17.618,11.647c.831,1.264.507,2.176-.771,2.863-1.137.612-2.285,1.207-3.39,1.874-1.679,1.013-1.85,2.93-.19,3.691,3.556,1.631,7.219,3.03,10.839,4.524l.72.346c2.135.971,4.223,2.071,6.418,2.876a3.409,3.409,0,0,0,4.43-2.926c.629-5.1,1.149-10.223,1.87-15.313a17.95,17.95,0,0,1,.435-3.512A1.609,1.609,0,0,0,157,21.088a1.972,1.972,0,0,0-2.327-.317c-1.229.688-2.435,1.419-3.621,2.179-1.093.7-1.836.661-2.6-.584a38.407,38.407,0,0,0-12.388-12.89A49.477,49.477,0,0,0,129.1,6.135a40.345,40.345,0,0,0-7.284-2.322,22.437,22.437,0,0,0-6.192-.587A2.276,2.276,0,0,1,112.983,1.4,1.506,1.506,0,0,1,114.721.009c4.654.446,9.315.75,13.789,2.432,7.134,2.683,13.368,6.574,18.217,12.534.379.466.883.833,1.241,1.312.84,1.128,1.411,2.829,2.505,3.269.791.318,2.2-1.132,3.417-1.585a4.687,4.687,0,0,1,4.682.577,5.015,5.015,0,0,1,1.871,4.911c-.24,1.824-.915,3.561-.435,5.515.236.962-.591,2.044-.7,3.2-.315,3.45-.967,6.867-1.36,10.312a6.243,6.243,0,0,1-2.566,4.245c-.242-.081-.323.05-.342.261Z" transform="translate(-71.923 0)" fill="#010101"/>
        <path id="Trazado_733667" data-name="Trazado 733667" d="M53.515,168.541c-.961,1.714.256,2.707,1.334,3.59,2.138,1.752,4.36,3.4,6.581,5.051,2.947,2.185,5.93,4.322,8.893,6.486a1.691,1.691,0,0,0,2.8-1.282c.1-1.38.036-2.77.051-4.156.023-2.142.3-2.494,2.5-2.464A35.2,35.2,0,0,0,92.1,171.675,38.918,38.918,0,0,0,108,157.15a2.4,2.4,0,0,1,2.678-1.3,1.772,1.772,0,0,1,.148,2.313,42.171,42.171,0,0,1-15.353,15.1,51.7,51.7,0,0,1-11.756,4.743c-2.231.612-4.543.517-6.8.951-.792.153-.938.349-.967,1.076-.057,1.409.319,2.847-.388,4.224a4.774,4.774,0,0,1-7.315,1.683c-4.775-3.6-9.594-7.139-14.355-10.755-2.053-1.559-3.673-3.445-3.687-6.243a7.822,7.822,0,0,1,3.9-5.809,4.1,4.1,0,0,0,1.275-1.125,1.056,1.056,0,0,0,1.081-.724l5.419-3.959c2.143-1.624,4.247-3.305,6.443-4.854a4.564,4.564,0,0,1,4.957-.51,4.42,4.42,0,0,1,2.7,4.354c-.048.718-.016,1.443-.006,2.165.022,1.666.471,2.04,2.061,1.551.41-.126.808-.136,1.2-.223,6.271-1.377,11.4-4.482,14.8-10.05a2.661,2.661,0,0,1,2.888-1.528c.3.705,1.068,1.338.386,2.2-1.918,2.433-3.7,4.973-6.211,6.892a26.315,26.315,0,0,1-9.136,4.543,28.6,28.6,0,0,1-7.043,1.225c-1.273.032-1.739-.582-1.748-1.729-.011-1.325-.007-2.65-.009-3.976,0-1.066.105-2.137-1.1-2.77a2.842,2.842,0,0,0-3.233.765c-2.941,2.561-6.383,4.5-9.088,7.334l-3.339,2.49c-1.374.755-2.912,1.366-2.9,3.329" transform="translate(-31.963 -94.34)"/>
        <path id="Trazado_733668" data-name="Trazado 733668" d="M26.713,18.925c-.136-.6.029-1.263-.369-1.81,1.185-.91.348-1.168-.463-1.435-1.511-1.709-3.32-1.263-5.038-.549-5.565,2.314-11.1,4.714-16.641,7.076A1.738,1.738,0,0,0,3.09,23.874a1.845,1.845,0,0,0,1.027,1.913c1.131.621,2.295,1.187,3.4,1.851,1.212.728,1.658,1.48.763,3.017A36.69,36.69,0,0,0,3.8,43.887a60.069,60.069,0,0,0-.329,6.619C3.248,56.413,5.007,61.853,7.365,67.15c.373.838.768,1.624.076,2.471-1.174.693-1.946.38-2.541-.849A45.4,45.4,0,0,1,.929,56.519,40.372,40.372,0,0,1,4.886,30.725c.32-.625.361-.962-.486-1.4C2.623,28.4.739,27.538.176,25.2c-.532-2.211.124-4.386,2.177-5.322,3.755-1.711,7.566-3.3,11.362-4.919,2.086-.89,4.2-1.719,6.281-2.617a7.773,7.773,0,0,1,6.641.012l1.082.808c1.808,1.8,2.124,4.107,2.24,6.487A27.339,27.339,0,0,1,30.3,22.6c.336,1.812.182,3.726,1.044,5.434-.113.2-.35.424-.322.6.341,2.209.32,4.492.794,6.639.495,2.239.094,3.977-1.545,5.34-1.934,1.61-3.985,1.581-6.123.083-1.785-1.251-2.235-1.019-2.92,1.026C19.093,48.1,19.1,54.354,22.27,60.438a2.259,2.259,0,0,1,.009,2.643c-1.493.95-1.964-.265-2.538-1.215a21.1,21.1,0,0,1-2.806-8.96,27.166,27.166,0,0,1,2.815-15.261c.788-1.538,1.776-1.709,3.139-1,1.141.59,2.254,1.235,3.39,1.836.634.335,1.314.72,1.942.023a2.6,2.6,0,0,0,.773-2.3c-.283-2.623-1.141-5.191-.889-7.87.522-.621.007-.65-.417-.731a17.707,17.707,0,0,0-1-7.245c-.035-.291-.118-.6.286-.716.577-.476.219-.617-.257-.715" transform="translate(0 -7.383)"/>
        <path id="Trazado_733669" data-name="Trazado 733669" d="M74.38,13.392,73.3,12.584l1.09-.618-.009,1.426" transform="translate(-46.66 -7.617)" fill="#ff6c79"/>
        <path id="Trazado_733670" data-name="Trazado 733670" d="M228.717,128.8c.019-.211.1-.342.342-.261l-.342.261" transform="translate(-145.597 -81.812)" fill="#f6f8f9"/>
        <path id="Trazado_733671" data-name="Trazado 733671" d="M216.916,167.535l.286-.374-.286.374" transform="translate(-138.085 -106.412)" fill="#f6f8f9"/>
        <path id="Trazado_733672" data-name="Trazado 733672" d="M83.826,42.1c-.863-1.709-.708-3.622-1.044-5.434a27.226,27.226,0,0,0-.342-2.952c1.292-.14,2.281.632,3.329,1.164a16.291,16.291,0,0,0,5.66,2.082h5.067l2.171.007a20.929,20.929,0,0,1,12.508,4.35,10.559,10.559,0,0,0,1.234.734,2.366,2.366,0,0,0,1.1,1.078,15.665,15.665,0,0,0,7.047,4.016c2.123.541,2.985,2.211,3.1,4.312q0,.362.006.724a34.636,34.636,0,0,1,.357,6.879q0,1.964-.006,3.928c-3.619-1.494-7.282-2.894-10.838-4.524-1.66-.761-1.489-2.678.19-3.691,1.1-.667,2.252-1.263,3.39-1.874,1.277-.687,1.6-1.6.77-2.863A25.256,25.256,0,0,0,99.9,38.386c-1.184-.2-2.353-.246-3.531-.354a1.536,1.536,0,0,0-1.743,1.116c-3.666.743-7.378,1.315-10.8,2.948" transform="translate(-52.479 -21.449)" fill="#fd4f60"/>
        <path id="Trazado_733673" data-name="Trazado 733673" d="M212.85,79.858a6.892,6.892,0,0,1-2.4,5.543c-.594.515-1.353.985-2.115.567-.86-.472-.6-1.329-.334-2.09a4.258,4.258,0,0,0-.627-3.6c-.579-1.04-1.156-2-.239-3.118,1.13-1.373,2.71-.983,4-.655a2.323,2.323,0,0,1,1.717,2.634,5.42,5.42,0,0,0,0,.721" transform="translate(-131.554 -48.501)" fill="#fffffe"/>
        <path id="Trazado_733674" data-name="Trazado 733674" d="M196.819,107.413q0-1.964.006-3.928c1.169.3.62,1.259.694,1.941a21.783,21.783,0,0,1,.02,2.332l-.72-.346" transform="translate(-125.292 -65.877)" fill="#ff6c79"/>
        <path id="Trazado_733675" data-name="Trazado 733675" d="M110.068,40.816h-2.895c.811-1.412,1.638-1.412,2.895,0" transform="translate(-68.224 -25.309)" fill="#ff6c79"/>
        <path id="Trazado_733676" data-name="Trazado 733676" d="M123.287,40.839l-2.171-.007c.761-1.4,1.161-1.4,2.171.007" transform="translate(-77.1 -25.324)" fill="#ff6c79"/>
        <path id="Trazado_733677" data-name="Trazado 733677" d="M166,57.735a2.367,2.367,0,0,1-1.1-1.079c.8-.086,1.173.27,1.1,1.079" transform="translate(-104.976 -36.058)" fill="#ff6c79"/>
        <path id="Trazado_733678" data-name="Trazado 733678" d="M195.845,83.288q0-.362-.006-.724c.259.053.61.056.528.436-.027.127-.34.193-.522.287" transform="translate(-124.668 -52.559)" fill="#ff6c79"/>
        <path id="Trazado_733679" data-name="Trazado 733679" d="M44.2,35.7a17.7,17.7,0,0,1,1,7.245c-.455.583.2.532.417.731-.253,2.679.605,5.247.888,7.87a2.6,2.6,0,0,1-.773,2.3c-.628.7-1.308.312-1.942-.023-1.136-.6-2.248-1.246-3.39-1.836-1.364-.705-2.351-.534-3.139,1a27.161,27.161,0,0,0-2.815,15.262,21.1,21.1,0,0,0,2.806,8.96c.574.95,1.044,2.165,2.538,1.215.2.289.406.58.612.868,1.887,2.642,3.881,5.167,7.034,6.423l-5.419,3.959-1.842-.388-2.168-1.443a2.309,2.309,0,0,0-1.094-1.079,5.657,5.657,0,0,0-1.809-1.814,2.346,2.346,0,0,0-1.081-1.095,3.807,3.807,0,0,0-1.444-2.167.776.776,0,0,0-.365-.723c-1.551-3.539-3.265-7.017-3.993-10.858a.758.758,0,0,0-.342-.731q-.01-.54-.02-1.079c0-.4.064-.82-.343-1.092q0-2.891,0-5.782c.408-.27.347-.69.347-1.09,1.209-5.13,3.881-9.041,9.056-10.864a3.636,3.636,0,0,0,1.815-.71,2.472,2.472,0,0,0,1.442-.384,3.488,3.488,0,0,0,1.437-1.437,4.428,4.428,0,0,0,.365-2.534c0-.4.063-.82-.346-1.09q-.008-.722-.016-1.444v-1.81c.705-1.546.962-3.358,2.582-4.362" transform="translate(-17.518 -22.723)" fill="#d0ffad"/>
        <path id="Trazado_733680" data-name="Trazado 733680" d="M42.737,42.378c0,1.954-3.775,6.221-5.678,6.232-.765,0-1.975-.427-1.375-1.511a5.216,5.216,0,0,0,.225-3.967c-.423-2.028.513-3.3,2.367-3.45,2.777-.22,4.46.8,4.461,2.7" transform="translate(-22.613 -25.242)" fill="#fffffe"/>
        <path id="Trazado_733681" data-name="Trazado 733681" d="M64.533,47.7v1.81c-.605-.06-1.07-.3-1.015-.993.046-.581.491-.774,1.015-.817" transform="translate(-40.431 -30.364)" fill="#befa92"/>
        <path id="Trazado_733682" data-name="Trazado 733682" d="M62.364,183.153l1.841.387a1.056,1.056,0,0,1-1.081.724,1.114,1.114,0,0,1-.76-1.111" transform="translate(-39.7 -116.592)" fill="#befa92"/>
        <path id="Trazado_733683" data-name="Trazado 733683" d="M55.207,71.309a3.637,3.637,0,0,1-1.815.711,1.173,1.173,0,0,1,1.815-.711" transform="translate(-33.988 -45.275)" fill="#befa92"/>
        <path id="Trazado_733684" data-name="Trazado 733684" d="M63.78,66.613a3.482,3.482,0,0,1-1.437,1.436q-.1-1.541,1.437-1.436" transform="translate(-39.682 -42.4)" fill="#befa92"/>
        <path id="Trazado_733685" data-name="Trazado 733685" d="M71.218,22.831c.811.266,1.647.524.463,1.435l-.463-1.435" transform="translate(-45.336 -14.534)" fill="#010101"/>
        <path id="Trazado_733686" data-name="Trazado 733686" d="M27.243,103.483c0,.4.061.82-.347,1.09-.592-.589-.423-.935.347-1.09" transform="translate(-16.895 -65.875)" fill="#befa92"/>
        <path id="Trazado_733687" data-name="Trazado 733687" d="M26.9,122.393c.407.272.342.693.343,1.092-.774-.157-.939-.5-.343-1.092" transform="translate(-16.895 -77.913)" fill="#befa92"/>
        <path id="Trazado_733688" data-name="Trazado 733688" d="M65.738,56.652c.409.27.346.69.347,1.09-.77-.156-.939-.5-.347-1.09" transform="translate(-41.621 -36.064)" fill="#befa92"/>
        <path id="Trazado_733689" data-name="Trazado 733689" d="M45.414,168.21A2.346,2.346,0,0,1,46.5,169.3c-.806.076-1.164-.292-1.081-1.095" transform="translate(-28.902 -107.08)" fill="#befa92"/>
        <path id="Trazado_733690" data-name="Trazado 733690" d="M53.372,176.214a2.308,2.308,0,0,1,1.094,1.079c-.8.082-1.168-.274-1.094-1.079" transform="translate(-33.97 -112.175)" fill="#befa92"/>
        <path id="Trazado_733691" data-name="Trazado 733691" d="M28.066,128.368a.758.758,0,0,1,.342.731c-.47-.077-.9-.172-.342-.731" transform="translate(-17.698 -81.717)" fill="#befa92"/>
        <path id="Trazado_733692" data-name="Trazado 733692" d="M40.016,160.258a.777.777,0,0,1,.365.723c-.463-.069-.913-.144-.365-.723" transform="translate(-25.313 -102.017)" fill="#befa92"/>
        <path id="Trazado_733693" data-name="Trazado 733693" d="M73.5,31.759c.475.1.833.239.257.715l-.257-.715" transform="translate(-46.792 -20.217)" fill="#010101"/>
        <path id="Trazado_733694" data-name="Trazado 733694" d="M76.48,144.5c2.706-2.838,6.148-4.773,9.088-7.334A2.842,2.842,0,0,1,88.8,136.4c1.2.633,1.1,1.7,1.1,2.77,0,1.325,0,2.651.009,3.976.01,1.147.475,1.761,1.748,1.729a28.6,28.6,0,0,0,7.043-1.225,26.309,26.309,0,0,0,9.136-4.543c2.506-1.92,4.293-4.459,6.211-6.892.682-.866-.086-1.5-.386-2.2a28.706,28.706,0,0,0,2.565-10.44,14.771,14.771,0,0,1,3.994,1.713c-.4,4.7-.2,9.487-2.093,13.962-2.289,5.417-6.648,8.845-11.441,11.831a24.864,24.864,0,0,1-10.287,4.09c-3.561.408-7,.019-9.237-3.059-2.8-3.848-6.659-3.793-10.682-3.608" transform="translate(-48.686 -76.118)" fill="#f4da6e"/>
        <path id="Trazado_733695" data-name="Trazado 733695" d="M83.146,204.491a1.818,1.818,0,0,1-.845-.127,8.7,8.7,0,0,1-4.094-5.17c-.43-1.69.5-3.011,2.03-3.8a3.357,3.357,0,0,1,3.8.664,9.675,9.675,0,0,1,2.536,3.209c1.458,2.747-.082,5.262-3.432,5.228" transform="translate(-49.718 -124.161)" fill="#fffffe"/>
        <path id="Trazado_733696" data-name="Trazado 733696" d="M59.3,198.348c-.009-1.962,1.529-2.574,2.9-3.329-.488,1.528-1.776,2.358-2.9,3.329" transform="translate(-37.751 -124.146)" fill="#befa91"/>
        <path id="Trazado_733697" data-name="Trazado 733697" d="M76.329,56.363c-.218-.2-.872-.149-.417-.731.424.081.939.11.417.731" transform="translate(-48.224 -35.414)" fill="#010101"/>
      </g>
    </g>
  </g>
</svg>
