<svg xmlns="http://www.w3.org/2000/svg" xmlns:xlink="http://www.w3.org/1999/xlink" width="147.086" height="118" viewBox="0 0 147.086 118">
  <defs>
    <clipPath id="clip-path">
      <rect id="Rectángulo_349867" data-name="Rectángulo 349867" width="147.086" height="85.238" fill="none"/>
    </clipPath>
  </defs>
  <g id="Grupo_998205" data-name="Grupo 998205" transform="translate(-11383.457 10239)">
    <circle id="Elipse_5969" data-name="Elipse 5969" cx="59" cy="59" r="59" transform="translate(11398 -10239)" fill="#b20d0d"/>
    <g id="Grupo_997498" data-name="Grupo 997498" transform="translate(11383.457 -10221.568)">
      <g id="Grupo_997497" data-name="Grupo 997497" clip-path="url(#clip-path)">
        <path id="Trazado_733773" data-name="Trazado 733773" d="M70.846,83.307a3.167,3.167,0,0,1-3.355,1.848,51.23,51.23,0,0,0-8.041,0c-2.968.273-4.875-.9-6.367-4.158-1.689,4.957-5.495,4.188-9.031,4.183-8.528-.013-17.06-.118-25.585.053a5.106,5.106,0,0,1-5.52-4.5A126.259,126.259,0,0,1,11.163,65.7c-.148-2.839-.98-3.981-3.812-3.583a15,15,0,0,1-2.872.012,5.173,5.173,0,0,1-4.338-4.28C-.467,49.606.608,48.428,8.8,48.35c.464,0,.928,0,.813,0,1.287-6.34,2.493-12.426,3.78-18.5a7.4,7.4,0,0,1,1.361-3.561c.579-.592,2.081-.283,3.172-.376a13.456,13.456,0,0,1,.159,3.129c-.889,4.909-1.9,9.8-2.868,14.693l-.947,4.453H51.187c-.536-4.253-.712-8.319-1.615-12.218-1.47-6.342-3.425-12.57-7.988-17.557-.378-.532-.719-1.1-1.141-1.591-2.326-2.733-7.238-5.7-11.237-2.948-1.8,1.235-3.277,2.915-5,4.261-1.285,1-1.815,3.8-4.4,2.039-.019-1.2-.548-2.792.026-3.545C23.361,11.986,27.382,7.961,34,8.716c.284.032.642-.107.852.02,3.859,2.347,5.141-.634,7.289-3,7.19-7.92,16.128-7.716,23.48,1.736,1.459,1.875,2.444,2.117,4.709,1.673C73.318,8.559,76.508,9,79.771,9c2.229-2.08,4.6-5.172,7.717-7.022C94.334-2.09,100.507.433,105.712,6.633c1.821,2.169,2.724,3.389,6.045,2.312,3.9-1.266,7.868.185,11.157,3.113,6.489,5.777,9.844,13.266,11.788,21.426,1.164,4.888,1.616,9.946,2.466,15.44,1.41,0,3.47-.032,5.527.008,3.114.059,3.85,1.006,3.718,4.247-.035.868.779,1.8.66,2.629-.592,4.135-3.279,6.284-7.511,6.345-1.362.02-2.72.258-3.608.349-.249,3.9-.388,7.317-.714,10.714-.2,2.125-.8,4.213-1.025,6.338-.42,3.972-2.145,5.62-6.2,5.624-9.109.009-18.219-.073-27.326.045-3.008.039-5.424-.532-6.649-4.28-1.653,3.827-4.307,4.512-7.588,4.21a55.282,55.282,0,0,0-7.473-.018c-1.726.076-2.492-.587-2.39-2.286.788-.588,1.536-1.6,2.374-1.683a42.9,42.9,0,0,1,7.154-.042c2.136.15,3.4-.484,3.839-2.693.429-2.177,1.881-3.655,4.086-3.575a3.941,3.941,0,0,1,3.862,3.819c.2,2.015,1.2,2.348,2.993,2.33,8.023-.079,16.047-.029,24.07-.025.476.034.955.038,1.425.108,2.727.4,4-.417,3.862-3.506-.109-2.388.677-4.807.955-7.224.306-2.663.485-5.34.731-8.134H126.7c-1.243-.053-2.485-.152-3.728-.152Q70.536,62.061,18.1,62.067H14.916L17.5,80.484l.507.462c9.285.009,18.57-.024,27.855.058,1.965.017,3.188-.24,3.415-2.6a3.634,3.634,0,0,1,3.995-3.555c2.043.143,3.709,1.056,3.89,3.621.124,1.757,1.109,2.836,3.235,2.663,2.473-.2,4.975,0,7.462-.063,1.645-.041,2.774.449,2.989,2.237M82.43,18.453l.019.017-.587-.626a18.635,18.635,0,0,0-1.91-2.081c-3.875-3.146-6.79-4.2-10.564-1.576a25.664,25.664,0,0,0-6.771,7.283c-4.263,6.758-6.11,14.414-7.149,22.27v4.469H91.761c-.335-10.671-2.752-20.458-8.877-29.15Zm19.578-9.221C97.789,2.893,89.8,3.32,86.394,8.666l-3.4,3.769c5.671,5.546,8.511,12.273,11,19.932,2.373-7.846,5.4-14.51,10.807-19.956l-2.795-3.179M45.555,8.655c-3.377,3.1-3.325,3.26-.615,6.665a30.571,30.571,0,0,1,3.482,5.442c1.745,3.533,3.26,7.178,4.592,10.153L63.177,12.05l.827.237L61.753,9.832c-.289-.685-.38-1.64-.9-2.015-4.913-3.576-10.628-5.36-15.3.838m77.786,10.374-.639-1.168a19.31,19.31,0,0,0-2.531-2.685c-4.079-2.962-7.753-3.478-11.424-.214-8.566,7.618-11.243,17.91-12.43,28.779v4.652c6.314,0,12.418.027,18.521-.017,1.7-.012,3.022.324,3.342,2.252-.374,2.457-2.258,2.159-3.968,2.159q-53.2,0-106.391.009c-1.2,0-2.4.11-3.538.165v4.694H8.042q55.928,0,111.855.017c6.1.005,12.207.225,18.311.346,4.973.257,5.245-.063,4.248-5.088H138.22c-3.527-.048-7.064.046-10.576-.21-1.468-.107-2.884-.954-4.323-1.464,2.271-3.377,5.951-1.986,9.074-2.428.515-6.723-1.087-12.917-3.261-18.876-1.4-3.849-3.85-7.321-5.829-10.962Z" transform="translate(0 0)"/>
        <path id="Trazado_733774" data-name="Trazado 733774" d="M28.423,125.945c-.844-6.02-1.687-12.041-2.581-18.417h3.183q52.436,0,104.872.007c1.243,0,2.486.1,3.728.152q0,.816,0,1.631l-.55,1.731q-.012,1.432-.025,2.864l-.549,1.731-.026,2.864-.549,1.731q-.013,1.432-.025,2.864l-1.034.992,1.023.73q0,.81,0,1.62c-8.024,0-16.048-.055-24.071.024-1.79.018-2.793-.315-2.992-2.33a3.941,3.941,0,0,0-3.862-3.819c-2.2-.08-3.657,1.4-4.085,3.575-.435,2.209-1.7,2.843-3.84,2.692a42.841,42.841,0,0,0-7.154.042c-.838.082-1.585,1.094-2.374,1.682l-5.746.458c-.215-1.788-1.344-2.278-2.989-2.237-2.487.062-4.99-.138-7.462.063-2.126.173-3.111-.907-3.235-2.663-.181-2.565-1.847-3.478-3.89-3.621a3.634,3.634,0,0,0-3.995,3.555c-.227,2.36-1.45,2.617-3.415,2.6-9.284-.081-18.57-.05-27.854-.058l-.508-.462" transform="translate(-10.925 -45.46)" fill="#b78b7a"/>
        <path id="Trazado_733775" data-name="Trazado 733775" d="M26.361,53.1c.967-4.9,1.978-9.783,2.868-14.693a13.449,13.449,0,0,0-.159-3.128q.936-2.871,1.874-5.742c2.589,1.767,3.119-1.036,4.4-2.038,1.726-1.347,3.208-3.026,5-4.261,4-2.752,8.911.215,11.237,2.948.422.5.763,1.059,1.141,1.591,1.72,6.915,3.417,13.819,2.89,21.059-.235,3.23-1.075,4.263-4.318,4.269q-12.471.021-24.941-.006" transform="translate(-11.145 -9.36)" fill="#f1d0a5"/>
        <path id="Trazado_733776" data-name="Trazado 733776" d="M166.864,53.063c1.187-10.869,3.864-21.16,12.43-28.779,3.67-3.264,7.345-2.748,11.423.215a19.31,19.31,0,0,1,2.531,2.685l.639,1.167-.035-.038c.187,1.115.4,2.227.556,3.346.765,5.435,1.762,10.854,2.191,16.315.316,4.022-1.053,5.091-5.058,5.095q-12.338.012-24.677-.006" transform="translate(-70.546 -9.321)" fill="#f1d0a5"/>
        <path id="Trazado_733777" data-name="Trazado 733777" d="M96.1,53.043c1.038-7.857,2.886-15.512,7.149-22.27a25.681,25.681,0,0,1,6.771-7.283c3.774-2.628,6.688-1.571,10.564,1.575a18.691,18.691,0,0,1,1.911,2.081l.587.627-.02-.017c-.007.2-.014.4-.021.606q1.447,8.041,2.894,16.082,0,2.3,0,4.594c-.3,3.159-1.165,4-4.28,4.009q-12.777.022-25.554,0" transform="translate(-40.627 -9.302)" fill="#f1d0a5"/>
        <path id="Trazado_733778" data-name="Trazado 733778" d="M126.459,88.339c1.44.51,2.854,1.357,4.323,1.464,3.511.256,7.048.163,10.575.21q-.006,2.544-.013,5.088c-6.1-.121-12.207-.341-18.311-.346q-55.927-.049-111.854-.017H7.421V90.044c1.138-.055,2.338-.165,3.537-.165q53.2-.014,106.391-.009c1.711,0,3.595.3,3.968-2.159l5.141.628" transform="translate(-3.137 -37.082)" fill="#c19d8e"/>
        <path id="Trazado_733779" data-name="Trazado 733779" d="M193.868,65.167l-5.141-.628c-.32-1.928-1.643-2.264-3.342-2.252-6.1.043-12.207.017-18.521.017V57.651q12.339,0,24.677.005c4.005,0,5.373-1.073,5.058-5.094-.428-5.462-1.426-10.88-2.191-16.315-.158-1.119-.369-2.231-.556-3.346,1.979,3.641,4.424,7.112,5.829,10.961,2.174,5.959,3.777,12.153,3.261,18.876-3.123.443-6.8-.949-9.075,2.428" transform="translate(-70.546 -13.91)" fill="#f1b986"/>
        <path id="Trazado_733780" data-name="Trazado 733780" d="M25.668,57.227q12.471.006,24.941.006c3.242-.006,4.083-1.039,4.318-4.269.527-7.24-1.171-14.144-2.89-21.059,4.563,4.987,6.518,11.215,7.988,17.557.9,3.9,1.079,7.965,1.615,12.218H24.721c.339-1.594.642-3.023.947-4.453" transform="translate(-10.451 -13.489)" fill="#f1b986"/>
        <path id="Trazado_733781" data-name="Trazado 733781" d="M96.1,57.7q12.777,0,25.554,0c3.115-.006,3.983-.85,4.28-4.009.569-.718,1.625-1.466,1.583-2.146-.053-.846-1.014-1.634-1.582-2.447q-1.447-8.041-2.894-16.082h.476c6.126,8.691,8.542,18.479,8.877,29.15H96.1Z" transform="translate(-40.627 -13.96)" fill="#f1b986"/>
        <path id="Trazado_733782" data-name="Trazado 733782" d="M93.219,16.172l2.251,2.455-.827-.236L84.479,37.254c-1.332-2.974-2.847-6.62-4.592-10.153a30.535,30.535,0,0,0-3.482-5.442c-2.711-3.4-2.762-3.568.615-6.665l8.029,11.412a15.365,15.365,0,0,1,1.257-2.181c2.276-2.709,4.6-5.373,6.913-8.053" transform="translate(-31.465 -6.339)" fill="#e29442"/>
        <path id="Trazado_733783" data-name="Trazado 733783" d="M162.795,15.581l2.795,3.179c-5.4,5.446-8.435,12.11-10.808,19.956-2.492-7.66-5.333-14.387-11-19.932l3.4-3.769,7.582,11.1,8.031-10.533" transform="translate(-60.786 -6.348)" fill="#e29442"/>
        <path id="Trazado_733784" data-name="Trazado 733784" d="M95.12,13.174c-2.309,2.68-4.637,5.344-6.913,8.053a15.365,15.365,0,0,0-1.257,2.181L78.921,12c4.674-6.2,10.39-4.413,15.3-.838.515.375.607,1.329.9,2.015" transform="translate(-33.366 -3.342)" fill="#e7a561"/>
        <path id="Trazado_733785" data-name="Trazado 733785" d="M165.287,12.578l-8.031,10.533-7.582-11.1c3.406-5.346,11.4-5.773,15.614.566" transform="translate(-63.278 -3.346)" fill="#e7a561"/>
        <path id="Trazado_733786" data-name="Trazado 733786" d="M216.5,126.559q0-.81,0-1.619l.01-1.722q.013-1.432.025-2.864l.55-1.73q.012-1.432.025-2.864.274-.866.549-1.731.013-1.432.025-2.864.275-.865.55-1.731,0-.816,0-1.631h5.243c-.245,2.794-.425,5.471-.731,8.134-.278,2.417-1.063,4.836-.955,7.224.14,3.089-1.135,3.908-3.862,3.506-.47-.07-.95-.074-1.425-.108" transform="translate(-91.529 -45.577)" fill="#aa7a63"/>
        <path id="Trazado_733787" data-name="Trazado 733787" d="M239.436,96.787q.006-2.544.013-5.088h4.235c1,5.025.726,5.345-4.248,5.088" transform="translate(-101.228 -38.768)" fill="#b78b7a"/>
        <path id="Trazado_733788" data-name="Trazado 733788" d="M213.213,32.111l-.639-1.168.639,1.168" transform="translate(-89.872 -13.082)" fill="#f1b986"/>
        <path id="Trazado_733789" data-name="Trazado 733789" d="M142.409,31.541l-.587-.627.587.627" transform="translate(-59.959 -13.07)" fill="#f1ba87"/>
        <path id="Trazado_733790" data-name="Trazado 733790" d="M143.244,32.576h-.476c.007-.2.014-.4.022-.6l.454.606" transform="translate(-60.359 -13.516)" fill="#f1ba87"/>
        <path id="Trazado_733791" data-name="Trazado 733791" d="M30.313,139.434l.508.462-.508-.462" transform="translate(-12.816 -58.95)" fill="#806155"/>
        <path id="Trazado_733792" data-name="Trazado 733792" d="M219.1,110.629l-.55,1.731.55-1.731" transform="translate(-92.398 -46.772)" fill="#b78b79"/>
        <path id="Trazado_733793" data-name="Trazado 733793" d="M218.1,118.589l-.55,1.73.55-1.73" transform="translate(-91.977 -50.137)" fill="#b78b79"/>
        <path id="Trazado_733794" data-name="Trazado 733794" d="M217.107,126.549q-.276.865-.55,1.73.274-.865.55-1.73" transform="translate(-91.556 -53.502)" fill="#b78b79"/>
        <path id="Trazado_733795" data-name="Trazado 733795" d="M215.755,134.509q-.005.861-.01,1.722l-1.024-.73,1.034-.992" transform="translate(-90.779 -56.867)" fill="#b78b79"/>
        <path id="Trazado_733796" data-name="Trazado 733796" d="M147.782,60.879c.569.813,1.53,1.6,1.582,2.447.043.68-1.014,1.429-1.583,2.147q0-2.3,0-4.594" transform="translate(-62.479 -25.738)" fill="#f1b987"/>
      </g>
    </g>
  </g>
</svg>
