<svg xmlns="http://www.w3.org/2000/svg" xmlns:xlink="http://www.w3.org/1999/xlink" width="118" height="118" viewBox="0 0 118 118">
  <defs>
    <clipPath id="clip-path">
      <rect id="Rectángulo_349865" data-name="Rectángulo 349865" width="93.483" height="93.4" fill="none"/>
    </clipPath>
  </defs>
  <g id="Grupo_998203" data-name="Grupo 998203" transform="translate(-11753 10678)">
    <circle id="Elipse_5967" data-name="Elipse 5967" cx="59" cy="59" r="59" transform="translate(11753 -10678)" fill="#06d1d1"/>
    <g id="Grupo_997494" data-name="Grupo 997494" transform="translate(11765.258 -10664.957)">
      <g id="Grupo_997493" data-name="Grupo 997493" clip-path="url(#clip-path)">
        <path id="Trazado_733726" data-name="Trazado 733726" d="M85.424,130.8l.7.7.434.867c-1.921,1.984-2.015,2.8-.329,5.175,3.32,4.671,4.354,10.069,5.063,15.577.1.756.058,1.394-1.081,1.39-9.786-.037-19.573-.021-29.55-.021a10.81,10.81,0,0,1,7.074-7.279c2.181-.714,4.45-.387,6.684-.465a3.221,3.221,0,0,0,3.364-2.865c.01-1.8-1.254-2.934-3.351-2.971-1.156-.02-2.312.015-3.468,0a16.265,16.265,0,0,0-15.9,12.231,1.584,1.584,0,0,1-1.85,1.384c-11.195-.05-22.39-.027-33.585-.042-.438,0-.973.226-1.377-.383a44.176,44.176,0,0,1,9.392-12.451,4.639,4.639,0,0,0,1.553-3.687c-.018-1.989,0-3.979,0-6.081a5.719,5.719,0,0,1,3.767,2.558c.99,1.555,2.083,1.69,3.638.85,2.624-1.416,5.32-2.7,7.989-4.034,2.281-1.138,2.718-2.336,1.74-4.818a28,28,0,0,0,7.017-2.278c1.819,1.541,4.087.957,6.1,1.041,5.748.239,11.512.109,17.27.123a1.546,1.546,0,0,0,1.423.627l5.1,2.986a4.838,4.838,0,0,0,2.189,1.871M38.689,144.865c.015-2.561-1.31-3.9-3.855-3.89a3.832,3.832,0,0,0-3.818,3.688,3.96,3.96,0,0,0,3.8,3.979,3.647,3.647,0,0,0,3.871-3.777" transform="translate(-11.557 -78.623)" fill="#607d8b"/>
        <path id="Trazado_733727" data-name="Trazado 733727" d="M34.767,128.4c.978,2.482.54,3.68-1.74,4.818-2.669,1.332-5.365,2.617-7.989,4.034-1.555.839-2.648.7-3.638-.85a5.719,5.719,0,0,0-3.767-2.558c0,2.1-.014,4.092,0,6.081a4.641,4.641,0,0,1-1.554,3.687,44.177,44.177,0,0,0-9.392,12.451c.4.609.94.382,1.377.383,11.2.015,22.39-.008,33.585.042a1.584,1.584,0,0,0,1.85-1.384,16.266,16.266,0,0,1,15.9-12.231c1.156.018,2.312-.017,3.468,0,2.1.037,3.361,1.168,3.351,2.971a3.22,3.22,0,0,1-3.364,2.865c-2.234.079-4.5-.248-6.684.465A10.81,10.81,0,0,0,49.1,156.46c9.978,0,19.764-.015,29.551.021,1.139,0,1.178-.634,1.081-1.39-.709-5.508-1.743-10.906-5.063-15.577-1.686-2.372-1.592-3.191.329-5.175l.713-.229c2.317-.239,3.376,1.395,4.458,3,.241.547.312,1.205.969,1.479l1.214,2.538c-.062.3-.156.613.263.744a47.7,47.7,0,0,1,2.948,13.771c.043.7.228,1.068,1.009,1.209a7.792,7.792,0,0,1,6.537,5.971,8.433,8.433,0,0,1-2.756,9.094A8.18,8.18,0,0,1,85.033,174c-13.759-.011-27.517.016-41.276-.035-1.481-.006-3.162.226-4.247-1.29-.5-.694-1-1.426-.537-2.286a2.993,2.993,0,0,1,2.147-1.919,27.2,27.2,0,0,1,5.015-.315q19.085-.008,38.171,0a3.362,3.362,0,0,0,3.408-2.737c.151-1.248-1.077-2.67-2.714-3.031a8.55,8.55,0,0,0-1.816-.072c-26.117,0-52.234-.056-78.35.057A4.921,4.921,0,0,1,.464,155.4a50.573,50.573,0,0,1,10.308-14.873A3.1,3.1,0,0,0,11.813,138c-.073-2.615-.03-5.234-.019-7.851a2.7,2.7,0,0,1,3.071-2.859c3.281.426,6.506,1.069,9.2,3.21.093.074.341-.047.517-.078,1.6.062,2.739-.98,4.022-1.678.808-.281,1.642-.506,2.419-.854a3.516,3.516,0,0,1,3.742.51" transform="translate(0 -80.596)"/>
        <path id="Trazado_733728" data-name="Trazado 733728" d="M132.473,46.694c-5.758-.015-11.522.116-17.271-.124-2.016-.084-4.284.5-6.1-1.04-.994-1.163-2.2-2.172-2.6-3.756-.676-2.668.458-4.832,1.805-6.99,2.607-4.177,5.15-8.395,7.72-12.6.523-.372.593-1,.853-1.518a.185.185,0,0,0,.168-.171,2.421,2.421,0,0,0,.821-1.592c.67-.261.744-.96,1.08-1.468.523-.372.594-1,.853-1.518a.185.185,0,0,0,.168-.171,2.417,2.417,0,0,0,.821-1.592c.67-.261.745-.96,1.08-1.468.523-.373.6-1,.859-1.52a.185.185,0,0,0,.162-.168,2.408,2.408,0,0,0,.821-1.592c.67-.261.744-.96,1.08-1.468.525-.371.594-1,.858-1.52a.185.185,0,0,0,.162-.168,2.413,2.413,0,0,0,.821-1.592c.9-.644,1.22-1.7,1.823-2.558L130.283.65a8.434,8.434,0,0,1,5.073-.443l1.461.483a10.362,10.362,0,0,1,2.994,3.23,6.109,6.109,0,0,0,1.377,2.222,7.434,7.434,0,0,0,1.545,2.526,6.1,6.1,0,0,0,1.377,2.221,7.385,7.385,0,0,0,1.547,2.526,6.076,6.076,0,0,0,1.375,2.221,7.393,7.393,0,0,0,1.547,2.526,6.068,6.068,0,0,0,1.375,2.221,1.019,1.019,0,0,0,.7,1.081,15.45,15.45,0,0,0,2.219,3.667,1.016,1.016,0,0,0,.705,1.08,15.349,15.349,0,0,0,2.217,3.667,1.016,1.016,0,0,0,.705,1.08,15.36,15.36,0,0,0,2.217,3.667l1.092,1.84c.513.34.151,1.114.711,1.432a8.068,8.068,0,0,1-.711,5.789l-.865.831a.182.182,0,0,0-.156.155l-.44.475a6.531,6.531,0,0,1-4.409,1.519c-6.683-.021-13.366.024-20.049.044l-1.423-.016m.879-5.889c6.693,0,13.387.01,20.08-.007,1.689,0,1.937-.41,1.115-1.746q-9.6-15.619-19.232-31.221c-1.694-2.736-1.9-2.676-3.583.066-6.317,10.323-12.669,20.625-18.95,30.969-.26.428-1.1.781-.635,1.52.4.636,1.091.411,1.672.412q9.766.017,19.533.007" transform="translate(-67.315 0.001)" fill="#010000"/>
        <path id="Trazado_733729" data-name="Trazado 733729" d="M60.734,173.913a3.647,3.647,0,0,1-3.871,3.777,3.96,3.96,0,0,1-3.8-3.979,3.832,3.832,0,0,1,3.818-3.688c2.545-.007,3.869,1.329,3.855,3.89" transform="translate(-33.602 -107.671)" fill="#010101"/>
        <path id="Trazado_733730" data-name="Trazado 733730" d="M143.216,50.84q-9.766,0-19.532-.007c-.581,0-1.27.224-1.672-.412-.467-.739.376-1.092.635-1.52,6.282-10.344,12.634-20.646,18.95-30.969,1.678-2.742,1.889-2.8,3.583-.066q9.65,15.59,19.232,31.221c.822,1.336.574,1.742-1.115,1.746-6.693.016-13.387.007-20.08.007m3.173-18.429c0-1.337.069-2.678-.017-4.009a2.868,2.868,0,0,0-3.151-2.762c-1.6.007-2.588.959-2.638,2.775q-.108,3.917,0,7.838c.052,1.9,1.07,2.886,2.759,2.894a2.868,2.868,0,0,0,3.039-2.909c.072-1.272.014-2.552.009-3.828m-.067,13.571a2.835,2.835,0,0,0-3.218-2.816,2.78,2.78,0,0,0-2.631,2.818A3.422,3.422,0,0,0,143.5,49.01a3.558,3.558,0,0,0,2.821-3.028" transform="translate(-77.179 -10.034)" fill="#f34336"/>
        <path id="Trazado_733731" data-name="Trazado 733731" d="M178.608,49.326c0,1.276.058,2.556-.014,3.828a2.868,2.868,0,0,1-3.039,2.909c-1.689-.008-2.707-.99-2.759-2.894q-.107-3.917,0-7.838c.05-1.817,1.039-2.768,2.638-2.775a2.867,2.867,0,0,1,3.151,2.762c.085,1.331.017,2.673.022,4.009" transform="translate(-109.394 -26.949)" fill="#010000"/>
        <path id="Trazado_733732" data-name="Trazado 733732" d="M178.439,93.159a3.558,3.558,0,0,1-2.82,3.028,3.422,3.422,0,0,1-3.028-3.026,2.78,2.78,0,0,1,2.631-2.818,2.835,2.835,0,0,1,3.218,2.816" transform="translate(-109.296 -57.211)" fill="#010000"/>
      </g>
    </g>
  </g>
</svg>
