<svg xmlns="http://www.w3.org/2000/svg" xmlns:xlink="http://www.w3.org/1999/xlink" width="107" height="107" viewBox="0 0 107 107">
  <defs>
    <clipPath id="clip-path">
      <rect id="Rectángulo_349883" data-name="Rectángulo 349883" width="95.601" height="95.612" fill="none"/>
    </clipPath>
  </defs>
  <g id="Grupo_998207" data-name="Grupo 998207" transform="translate(-266 -999)">
    <circle id="Elipse_5970" data-name="Elipse 5970" cx="53.5" cy="53.5" r="53.5" transform="translate(266 999)" fill="#b20d0d"/>
    <g id="Grupo_997501" data-name="Grupo 997501" transform="translate(271.699 1004.761)">
      <g id="Grupo_997500" data-name="Grupo 997500" clip-path="url(#clip-path)">
        <path id="Trazado_733797" data-name="Trazado 733797" d="M4.626,46.267V38.1q0-10.02,0-20.039c0-2.257.357-2.631,2.645-2.633q15.029-.013,30.057,0h1.219V13.364c0-3.661.076-7.324-.032-10.982C38.462.587,39.3.008,40.877.006h.578Q63.034.006,84.613,0c2.665,0,3.282.595,3.281,3.237-.009,14.256,0,28.512,0,43.03,1.614,0,3.188-.013,4.763,0,2.175.022,2.942.786,2.944,2.981q.01,21.677,0,43.354c0,2.576-.469,3.006-3.081,3.006q-44.988,0-89.977,0C.006,95.611,0,95.608,0,93.1Q0,71.326,0,49.553C0,46.3,0,46.3,3.348,46.267c.37,0,.741,0,1.278,0m33.858-3.088V18.631H29.436a1.386,1.386,0,0,0-.108.291c-.012,3.016-.006,6.032-.037,9.048-.022,2.13-.765,2.868-2.816,2.875-1.989.006-3.978,0-5.968,0-3.181,0-3.546-.356-3.546-3.455,0-2.927,0-5.855,0-8.818H7.83v27.58H38.484Zm46.257,0V3.209H69.386c0,4.155.009,8.191,0,12.227-.007,2.373-.7,3.07-3.007,3.074-1.8,0-3.6-.083-5.391.019-3.411.193-4.076-.578-3.964-3.86.13-3.822.031-7.652.031-11.514h-15.3v43H84.741ZM7.714,49.415H3.2v43H46.194V49.464H30.838c0,4.339-.034,8.565.016,12.79.021,1.76-.726,2.554-2.479,2.525-2.245-.036-4.492-.008-6.738-.009-3.133,0-3.134,0-3.135-3.077,0-4.081,0-8.163,0-12.279Zm46.257,0H49.462v43H92.451V49.473H77.1c0,4.095,0,8.068,0,12.041,0,2.169-1.1,3.25-3.3,3.256-1.862,0-3.723,0-5.586,0-2.651,0-3.446-.794-3.447-3.452,0-3.956,0-7.911,0-11.9ZM21.7,61.575h5.949V49.4H21.7Zm46.2,0h6.01V49.46H67.9ZM66.19,3.2H60.247V15.379H66.19ZM20.177,27.629h5.9V18.576h-5.9Z" transform="translate(0 0)"/>
        <path id="Trazado_733798" data-name="Trazado 733798" d="M139.5,127.721h10.789c0,3.993,0,7.949,0,11.9,0,2.658.8,3.452,3.447,3.452,1.862,0,3.724,0,5.586,0,2.2-.005,3.3-1.087,3.3-3.255.005-3.973,0-7.947,0-12.042h15.355v39.967l-3.428-.393a21.323,21.323,0,0,0,.39-2.8c.043-4.041.019-8.083.018-12.124,0-2.854-.326-3.182-3.135-3.187l-32.325-.061V127.721" transform="translate(-85.527 -78.306)" fill="#f3c05f"/>
        <path id="Trazado_733799" data-name="Trazado 733799" d="M19.938,127.721H30.727c0,4.116,0,8.2,0,12.279,0,3.076,0,3.076,3.134,3.077,2.246,0,4.493-.027,6.738.009,1.752.028,2.5-.766,2.479-2.526-.05-4.225-.016-8.451-.016-12.79H58.418v39.975l-3.428-.393a21.323,21.323,0,0,0,.39-2.8c.043-4.041.019-8.083.018-12.124,0-2.854-.326-3.182-3.135-3.187l-32.325-.061V127.721" transform="translate(-12.224 -78.306)" fill="#f3c05f"/>
        <path id="Trazado_733800" data-name="Trazado 733800" d="M119.571,8.152H130.36c0,3.863.1,7.693-.03,11.515-.112,3.281.553,4.053,3.964,3.859,1.791-.1,3.594-.016,5.391-.018,2.3,0,3-.7,3.007-3.074.012-4.036,0-8.073,0-12.227h15.355v39.97l-3.428-.393a21.332,21.332,0,0,0,.39-2.8c.043-4.041.019-8.083.018-12.124,0-2.854-.326-3.181-3.136-3.187l-30.785-.064c.077-1.105-.14-1.967-1.533-1.863q0-9.8-.005-19.6" transform="translate(-73.309 -4.998)" fill="#f3c05f"/>
        <path id="Trazado_733801" data-name="Trazado 733801" d="M27.9,48.008h6.164v8.818c0,3.1.366,3.454,3.546,3.454,1.989,0,3.978.005,5.967,0,2.051-.006,2.794-.745,2.815-2.875.031-3.015.025-6.031.037-9.047a1.366,1.366,0,0,1,.108-.291h9.048V72.613q-6.633,0-13.266,0A14.6,14.6,0,0,1,27.9,58.2q0-5.1,0-10.19" transform="translate(-17.104 -29.434)" fill="#f3c05f"/>
        <path id="Trazado_733802" data-name="Trazado 733802" d="M112.425,8.152q0,9.8.005,19.6,0,.931-.005,1.863c-1.258.436-1.608,1.291-1.581,2.623.092,4.429.033,8.86.036,13.291,0,2.481.168,2.653,2.6,2.653q15.7,0,31.4-.016a17.878,17.878,0,0,0,2.6-.38l3.428.393v2.975H107.916v-43Z" transform="translate(-66.164 -4.998)" fill="#f5ac41"/>
        <path id="Trazado_733803" data-name="Trazado 733803" d="M12.792,127.721v21.463c-1.29.192-1.567,1.04-1.559,2.2.032,4.562.01,9.124.014,13.686,0,2.584.1,2.674,2.774,2.674q15.516,0,31.031-.017a20.57,20.57,0,0,0,2.792-.38l3.428.393v2.975H8.283v-43Z" transform="translate(-5.078 -78.306)" fill="#f5ac41"/>
        <path id="Trazado_733804" data-name="Trazado 733804" d="M132.352,127.721v21.463c-1.29.192-1.567,1.041-1.559,2.2.032,4.562.01,9.124.014,13.686,0,2.584.1,2.674,2.774,2.674q15.516,0,31.031-.017a20.562,20.562,0,0,0,2.792-.38l3.428.393v2.975H127.843v-43Z" transform="translate(-78.381 -78.306)" fill="#f5ac41"/>
        <path id="Trazado_733805" data-name="Trazado 733805" d="M23.207,48.008q0,5.1,0,10.19A14.6,14.6,0,0,0,37.628,72.616q6.633,0,13.266,0v2.975H20.24V48.008Z" transform="translate(-12.409 -29.434)" fill="#f5ac41"/>
        <rect id="Rectángulo_349873" data-name="Rectángulo 349873" width="5.949" height="12.175" transform="translate(21.697 49.401)" fill="#f9e1b2"/>
        <rect id="Rectángulo_349874" data-name="Rectángulo 349874" width="6.01" height="12.118" transform="translate(67.895 49.46)" fill="#f9e1b2"/>
        <rect id="Rectángulo_349875" data-name="Rectángulo 349875" width="5.943" height="12.175" transform="translate(60.248 3.205)" fill="#f9e1b2"/>
        <rect id="Rectángulo_349876" data-name="Rectángulo 349876" width="5.903" height="9.053" transform="translate(20.177 18.576)" fill="#f9e1b2"/>
        <path id="Trazado_733806" data-name="Trazado 733806" d="M172.08,201.365a20.5,20.5,0,0,1-2.792.38q-15.516.041-31.031.017c-2.677,0-2.772-.091-2.774-2.674,0-4.562.018-9.124-.014-13.686-.008-1.164.269-2.013,1.559-2.2l32.324.061c2.809.005,3.134.333,3.135,3.187,0,4.042.025,8.083-.018,12.124a21.256,21.256,0,0,1-.39,2.8M145.126,198.6H169.29v-12.15H138.641V198.6Z" transform="translate(-83.056 -112.319)"/>
        <path id="Trazado_733807" data-name="Trazado 733807" d="M52.519,201.366a20.558,20.558,0,0,1-2.792.381q-15.516.041-31.031.016c-2.677,0-2.772-.091-2.774-2.674,0-4.562.018-9.124-.014-13.685-.008-1.165.269-2.014,1.559-2.2l32.324.061c2.809.005,3.134.333,3.135,3.187,0,4.041.025,8.083-.018,12.124a21.248,21.248,0,0,1-.39,2.8M19.08,191.733V198.6H49.729v-12.15H19.08Z" transform="translate(-9.753 -112.319)"/>
        <path id="Trazado_733808" data-name="Trazado 733808" d="M152.116,81.791a17.876,17.876,0,0,1-2.6.38q-15.7.04-31.4.016c-2.436,0-2.6-.172-2.6-2.654,0-4.43.056-8.862-.036-13.291-.028-1.332.323-2.187,1.58-2.623H118.6l30.786.064c2.81.006,3.135.333,3.136,3.187,0,4.042.025,8.083-.018,12.124a21.262,21.262,0,0,1-.39,2.8m-26.953-2.762h24.179V66.852H118.456c.169,2.346.332,4.6.495,6.844l-.475,5.333Z" transform="translate(-70.802 -39.006)"/>
        <path id="Trazado_733809" data-name="Trazado 733809" d="M121.109,60.653h-1.538q0-.931.005-1.863c1.392-.1,1.61.758,1.533,1.863" transform="translate(-73.309 -36.039)" fill="#f3c05f"/>
        <path id="Trazado_733810" data-name="Trazado 733810" d="M143.669,196.891v-5.279h30.649v12.15H150.154a12.389,12.389,0,0,0-.889-1.127c-1.457-1.474-2.941-2.92-4.4-4.391-.423-.426-.8-.9-1.195-1.353m3.056,2.205h18.333v-2.854H146.725Zm21.68-.026h2.8V196.2h-2.8Z" transform="translate(-88.084 -117.478)" fill="#e1e1e1"/>
        <path id="Trazado_733811" data-name="Trazado 733811" d="M143.669,205.257c.4.453.772.927,1.2,1.354,1.46,1.471,2.944,2.917,4.4,4.39a12.391,12.391,0,0,1,.889,1.127h-6.485Z" transform="translate(-88.084 -125.844)" fill="#cecece"/>
        <path id="Trazado_733812" data-name="Trazado 733812" d="M24.108,196.891v-5.279h30.65v12.15H30.593a12.383,12.383,0,0,0-.889-1.127c-1.457-1.474-2.941-2.92-4.4-4.391-.423-.426-.8-.9-1.2-1.353m21.437-.683H27.2v2.923H45.545Zm3.214,2.906h2.93v-2.888h-2.93Z" transform="translate(-14.781 -117.478)" fill="#e1e1e1"/>
        <path id="Trazado_733813" data-name="Trazado 733813" d="M24.108,205.257c.4.453.772.927,1.2,1.354,1.46,1.471,2.944,2.917,4.4,4.39a12.389,12.389,0,0,1,.889,1.127H24.108v-6.871" transform="translate(-14.781 -125.844)" fill="#cecece"/>
        <path id="Trazado_733814" data-name="Trazado 733814" d="M123.664,78.818c-.163-2.249-.325-4.5-.495-6.845h30.886V84.15H129.876c-.133-.276-.193-.643-.409-.814-1.919-1.526-3.865-3.017-5.8-4.518m21.174-2.174h-18.3v2.827h18.3ZM151,76.6h-2.93v2.907H151Z" transform="translate(-75.515 -44.127)" fill="#e1e1e1"/>
        <path id="Trazado_733815" data-name="Trazado 733815" d="M123.7,89.664c1.938,1.5,3.884,2.993,5.8,4.518.216.172.277.538.409.814h-6.686c.16-1.8.317-3.564.474-5.333" transform="translate(-75.548 -54.973)" fill="#cecece"/>
        <rect id="Rectángulo_349877" data-name="Rectángulo 349877" width="18.333" height="2.854" transform="translate(58.642 78.765)"/>
        <rect id="Rectángulo_349878" data-name="Rectángulo 349878" width="2.801" height="2.869" transform="translate(80.321 78.723)"/>
        <rect id="Rectángulo_349879" data-name="Rectángulo 349879" width="18.347" height="2.923" transform="translate(12.417 78.73)"/>
        <rect id="Rectángulo_349880" data-name="Rectángulo 349880" width="2.93" height="2.888" transform="translate(33.978 78.748)"/>
        <rect id="Rectángulo_349881" data-name="Rectángulo 349881" width="18.303" height="2.827" transform="translate(51.02 32.517)"/>
        <rect id="Rectángulo_349882" data-name="Rectángulo 349882" width="2.93" height="2.907" transform="translate(72.559 32.477)"/>
      </g>
    </g>
  </g>
</svg>
