<svg xmlns="http://www.w3.org/2000/svg" xmlns:xlink="http://www.w3.org/1999/xlink" width="1133.887" height="398.176" viewBox="0 0 1133.887 398.176">
  <defs>
    <clipPath id="clip-path">
      <rect id="Rectángulo_345009" data-name="Rectángulo 345009" width="134.427" height="183.064" fill="none"/>
    </clipPath>
    <clipPath id="clip-path-2">
      <rect id="Rectángulo_345009-2" data-name="Rectángulo 345009" width="158.009" height="215.178" fill="none"/>
    </clipPath>
    <clipPath id="clip-path-3">
      <rect id="Rectángulo_345009-3" data-name="Rectángulo 345009" width="170.898" height="232.73" fill="none"/>
    </clipPath>
    <clipPath id="clip-path-4">
      <rect id="Rectángulo_345009-4" data-name="Rectángulo 345009" width="191.52" height="260.814" fill="none"/>
    </clipPath>
    <clipPath id="clip-path-5">
      <rect id="Rectángulo_345009-5" data-name="Rectángulo 345009" width="201.582" height="274.517" fill="none"/>
    </clipPath>
    <clipPath id="clip-path-6">
      <rect id="Rectángulo_345009-6" data-name="Rectángulo 345009" width="221.165" height="301.185" fill="none"/>
    </clipPath>
  </defs>
  <g id="Grupo_998197" data-name="Grupo 998197" transform="translate(-227.057 -1749)">
    <g id="Grupo_984323" data-name="Grupo 984323" transform="translate(227.057 1867.121)">
      <g id="Grupo_984294" data-name="Grupo 984294" transform="translate(0 0)" clip-path="url(#clip-path)">
        <path id="Trazado_725359" data-name="Trazado 725359" d="M67.214,0c37.122,0,67.213,78.729,67.213,115.851A67.214,67.214,0,1,1,0,115.851C0,78.729,30.093,0,67.214,0" fill="#e5a471" fill-rule="evenodd"/>
        <path id="Trazado_725360" data-name="Trazado 725360" d="M99.809,38.487c20.645,25.861,34.618,70.463,34.618,95.756A67.214,67.214,0,1,1,0,134.243c0-27.271,16.242-77,39.579-101.469-.039.059-33,48.807-32.322,93.364.675,44.584,54.716,56.068,84.439,37.491s42.543-54.765,8.113-125.142" transform="translate(0 -18.392)" fill="#d69766" fill-rule="evenodd"/>
        <path id="Trazado_725361" data-name="Trazado 725361" d="M113.682,91.757l.069.131c.489.96,1.942,3.831,4.037,8.116,10.881,23.316,17.515,49.912,17.515,67.341a67.215,67.215,0,0,1-133.741,9.6c9.005,45.963,72.79,72.79,110.261,28.9,36.249-42.454,4.034-109.684,1.858-114.093" transform="translate(-0.877 -51.493)" fill="#c58b5c" fill-rule="evenodd"/>
        <path id="Trazado_725362" data-name="Trazado 725362" d="M46.368,132.412c-6.417-2.7-16.512-18.883-8.781-52.353s31.518-66.642,49.65-66.2,41.206,41.543,37.153,81.4S75.077,66.212,46.368,132.412" transform="translate(-19.526 -7.775)" fill="#f1ae78" fill-rule="evenodd"/>
        <path id="Trazado_725363" data-name="Trazado 725363" d="M78.554,53.9s11.653-25.332,23.812-24.657-4.39,16.381-10.808,25.332-20.266,16.044-13-.675" transform="translate(-42.932 -16.402)" fill="#facaa1" fill-rule="evenodd"/>
        <path id="Trazado_725364" data-name="Trazado 725364" d="M57.788,121.6c-2.2,0-11.315,12.5-6.249,16.888s16.212-20.266,6.249-16.888" transform="translate(-28.075 -68.063)" fill="#facaa1" fill-rule="evenodd"/>
        <path id="Trazado_725365" data-name="Trazado 725365" d="M184.809,318c.338-.76.845-1.773,1.436-1.014s1.52.76.76,1.436-.591,1.52-1.351,1.435S183.543,318,184.809,318" transform="translate(-103.421 -177.737)" fill="#d69766" fill-rule="evenodd"/>
        <path id="Trazado_725366" data-name="Trazado 725366" d="M194.038,303.087c2.786-1.014,2.872-1.52,3.378-.169s2.955,2.871,2.955,1.267.676-2.955-.338-3.884-.254-2.617-2.533-1.52-4.391,3.546-3.462,4.306" transform="translate(-108.767 -167.472)" fill="#d69766" fill-rule="evenodd"/>
        <path id="Trazado_725367" data-name="Trazado 725367" d="M199.8,317.924c-.169,1.1.506,2.534,1.1,1.858s1.858-1.436,1.351-2.112-3.546-1.1-2.448.254" transform="translate(-111.99 -177.917)" fill="#d69766" fill-rule="evenodd"/>
        <path id="Trazado_725368" data-name="Trazado 725368" d="M216.035,302.895c1.013,1.689,2.281,3.21.929,3.124s-1.6.422-2.111-.76-.929-1.857-.423-1.942,1.6-.423,1.6-.423" transform="translate(-120.208 -169.982)" fill="#d69766" fill-rule="evenodd"/>
        <path id="Trazado_725369" data-name="Trazado 725369" d="M222.488,293.657c1.182.423,3.715-.675,2.871-1.773s-.929-2.111-2.026-1.773-2.7,2.871-.844,3.546" transform="translate(-124.381 -162.77)" fill="#d69766" fill-rule="evenodd"/>
        <path id="Trazado_725370" data-name="Trazado 725370" d="M210.115,289.981c-.929-.76-1.351-2.533-.169-2.871s1.689-1.183,2.2,0,.76,1.857.084,2.448-1.6,1.6-2.111.423" transform="translate(-117.414 -160.781)" fill="#d69766" fill-rule="evenodd"/>
        <path id="Trazado_725371" data-name="Trazado 725371" d="M240.012,281.822c1.773.169,2.7-.676,1.943-1.267a5.644,5.644,0,0,0-2.7-1.182c-1.1-.169-1.6-1.689-1.857,0s1.6,4.644,2.617,2.449" transform="translate(-133.211 -156.338)" fill="#d69766" fill-rule="evenodd"/>
        <path id="Trazado_725372" data-name="Trazado 725372" d="M223.029,274.328c-.76.76-1.6,1.943-.929,2.7a3.748,3.748,0,0,0,2.027.929s1.436-.592,1.182-1.52-.676-2.533-2.28-2.111" transform="translate(-124.502 -153.911)" fill="#d69766" fill-rule="evenodd"/>
        <path id="Trazado_725373" data-name="Trazado 725373" d="M242.127,263.614c.76-.929,2.2-1.351,2.7-.337s1.6,2.533.423,2.7-4.222-.845-3.124-2.364" transform="translate(-135.748 -147.419)" fill="#d69766" fill-rule="evenodd"/>
        <path id="Trazado_725374" data-name="Trazado 725374" d="M239.152,247.051c-.845.591-2.111,1.013-1.183,1.52s1.774,2.027,2.449.929,1.52-1.6.929-2.2-1.689-1.182-2.2-.253" transform="translate(-133.363 -138.371)" fill="#d69766" fill-rule="evenodd"/>
        <path id="Trazado_725375" data-name="Trazado 725375" d="M254,232.615c0,1.6,1.689,2.533,2.28,1.182s1.52-1.013.845-1.942-.253-2.28-1.435-1.689-2.2,1.435-1.689,2.449" transform="translate(-142.465 -129.086)" fill="#d69766" fill-rule="evenodd"/>
      </g>
    </g>
    <g id="Grupo_984324" data-name="Grupo 984324" transform="translate(372.741 1835.007)">
      <g id="Grupo_984294-2" data-name="Grupo 984294" transform="translate(0 0)" clip-path="url(#clip-path-2)">
        <path id="Trazado_725359-2" data-name="Trazado 725359" d="M79,0c43.633,0,79,92.54,79,136.173A79,79,0,1,1,0,136.173C0,92.54,35.372,0,79,0" fill="#e5a471" fill-rule="evenodd"/>
        <path id="Trazado_725360-2" data-name="Trazado 725360" d="M117.318,39.49c24.267,30.4,40.69,82.824,40.69,112.553A79,79,0,1,1,0,152.043C0,119.988,19.091,61.537,46.522,32.774c-.046.069-38.786,57.368-37.992,109.742.794,52.406,64.315,65.9,99.252,44.068s50.006-64.372,9.536-147.095" transform="translate(0 -15.87)" fill="#d69766" fill-rule="evenodd"/>
        <path id="Trazado_725361-2" data-name="Trazado 725361" d="M133.351,91.757l.081.154c.575,1.129,2.282,4.5,4.746,9.539,12.79,27.406,20.588,58.668,20.588,79.154A79.007,79.007,0,0,1,1.563,191.89c10.585,54.026,85.559,85.559,129.6,33.974,42.608-49.9,4.741-128.925,2.184-134.107" transform="translate(-0.757 -44.43)" fill="#c58b5c" fill-rule="evenodd"/>
        <path id="Trazado_725362-2" data-name="Trazado 725362" d="M48.4,153.21c-7.542-3.176-19.409-22.2-10.321-61.537S75.123,13.34,96.437,13.86s48.434,48.831,43.671,95.678S82.144,75.4,48.4,153.21" transform="translate(-16.847 -6.709)" fill="#f1ae78" fill-rule="evenodd"/>
        <path id="Trazado_725363-2" data-name="Trazado 725363" d="M78.914,58.225S92.61,28.45,106.9,29.243,101.742,48.5,94.2,59.019s-23.821,18.858-15.285-.793" transform="translate(-37.043 -14.152)" fill="#facaa1" fill-rule="evenodd"/>
        <path id="Trazado_725364-2" data-name="Trazado 725364" d="M59.149,121.658c-2.581,0-13.3,14.689-7.345,19.851s19.056-23.821,7.345-19.851" transform="translate(-24.224 -58.727)" fill="#facaa1" fill-rule="evenodd"/>
        <path id="Trazado_725365-2" data-name="Trazado 725365" d="M184.9,318.222c.4-.893.993-2.084,1.688-1.191s1.787.894.893,1.688-.695,1.787-1.588,1.687-2.481-2.183-.993-2.183" transform="translate(-89.235 -153.357)" fill="#d69766" fill-rule="evenodd"/>
        <path id="Trazado_725366-2" data-name="Trazado 725366" d="M194.078,303.906c3.275-1.191,3.375-1.787,3.971-.2s3.474,3.375,3.474,1.489.794-3.474-.4-4.566-.3-3.076-2.978-1.786-5.161,4.168-4.07,5.062" transform="translate(-93.847 -144.5)" fill="#d69766" fill-rule="evenodd"/>
        <path id="Trazado_725367-2" data-name="Trazado 725367" d="M199.838,318.079c-.2,1.29.595,2.978,1.289,2.184s2.184-1.688,1.588-2.482-4.169-1.289-2.877.3" transform="translate(-96.629 -153.513)" fill="#d69766" fill-rule="evenodd"/>
        <path id="Trazado_725368-2" data-name="Trazado 725368" d="M216.356,302.895c1.191,1.985,2.681,3.773,1.092,3.672s-1.886.5-2.481-.893-1.092-2.183-.5-2.282,1.886-.5,1.886-.5" transform="translate(-103.719 -146.666)" fill="#d69766" fill-rule="evenodd"/>
        <path id="Trazado_725369-2" data-name="Trazado 725369" d="M222.637,294.291c1.389.5,4.367-.793,3.374-2.084s-1.091-2.481-2.382-2.084-3.176,3.375-.992,4.169" transform="translate(-107.32 -140.443)" fill="#d69766" fill-rule="evenodd"/>
        <path id="Trazado_725370-2" data-name="Trazado 725370" d="M210.271,290.591c-1.092-.893-1.588-2.978-.2-3.374s1.986-1.39,2.581,0,.893,2.183.1,2.878-1.886,1.886-2.481.5" transform="translate(-101.309 -138.727)" fill="#d69766" fill-rule="evenodd"/>
        <path id="Trazado_725371-2" data-name="Trazado 725371" d="M240.475,282.39c2.084.2,3.177-.794,2.283-1.489a6.634,6.634,0,0,0-3.177-1.389c-1.29-.2-1.886-1.985-2.183,0s1.886,5.459,3.076,2.879" transform="translate(-114.938 -134.894)" fill="#d69766" fill-rule="evenodd"/>
        <path id="Trazado_725372-2" data-name="Trazado 725372" d="M223.235,274.34c-.893.893-1.885,2.283-1.092,3.177a4.4,4.4,0,0,0,2.382,1.092s1.688-.7,1.389-1.787-.794-2.978-2.68-2.481" transform="translate(-107.424 -132.8)" fill="#d69766" fill-rule="evenodd"/>
        <path id="Trazado_725373-2" data-name="Trazado 725373" d="M242.169,263.776c.893-1.092,2.581-1.588,3.176-.4s1.886,2.977.5,3.176-4.963-.993-3.672-2.779" transform="translate(-117.128 -127.198)" fill="#d69766" fill-rule="evenodd"/>
        <path id="Trazado_725374-2" data-name="Trazado 725374" d="M239.417,247.136c-.993.695-2.481,1.191-1.39,1.787s2.085,2.382,2.879,1.092,1.786-1.886,1.092-2.581-1.985-1.39-2.58-.3" transform="translate(-115.07 -119.391)" fill="#d69766" fill-rule="evenodd"/>
        <path id="Trazado_725375-2" data-name="Trazado 725375" d="M254.019,233.07c0,1.886,1.985,2.977,2.68,1.389s1.787-1.19.993-2.282-.3-2.68-1.687-1.985-2.581,1.687-1.985,2.879" transform="translate(-122.923 -111.379)" fill="#d69766" fill-rule="evenodd"/>
      </g>
    </g>
    <g id="Grupo_984325" data-name="Grupo 984325" transform="translate(542.007 1817.455)">
      <g id="Grupo_984294-3" data-name="Grupo 984294" transform="translate(0 0)" clip-path="url(#clip-path-3)">
        <path id="Trazado_725359-3" data-name="Trazado 725359" d="M85.449,0C132.642,0,170.9,100.088,170.9,147.281a85.449,85.449,0,1,1-170.9,0C0,100.088,38.257,0,85.449,0" fill="#e5a471" fill-rule="evenodd"/>
        <path id="Trazado_725360-3" data-name="Trazado 725360" d="M126.888,40.037c26.246,32.877,44.01,89.58,44.01,121.735a85.449,85.449,0,1,1-170.9,0c0-34.669,20.648-97.888,50.317-129-.05.075-41.949,62.048-41.091,118.694.859,56.68,69.561,71.28,107.348,47.663s54.085-69.623,10.314-159.093" transform="translate(0 -14.491)" fill="#d69766" fill-rule="evenodd"/>
        <path id="Trazado_725361-3" data-name="Trazado 725361" d="M144.1,91.757l.088.166c.621,1.221,2.469,4.871,5.133,10.318,13.833,29.641,22.267,63.453,22.267,85.61A85.451,85.451,0,0,1,1.563,200.058C13.011,258.491,94.1,292.6,141.738,236.8c46.083-53.972,5.128-139.442,2.363-145.046" transform="translate(-0.691 -40.569)" fill="#c58b5c" fill-rule="evenodd"/>
        <path id="Trazado_725362-3" data-name="Trazado 725362" d="M49.508,164.577c-8.158-3.435-20.992-24.006-11.163-66.557S78.413,13.3,101.465,13.861,153.85,66.675,148.7,117.344s-62.692-36.928-99.19,47.233" transform="translate(-15.383 -6.126)" fill="#f1ae78" fill-rule="evenodd"/>
        <path id="Trazado_725363-3" data-name="Trazado 725363" d="M79.11,60.591s14.814-32.2,30.272-31.346-5.581,20.825-13.74,32.2-25.764,20.4-16.532-.858" transform="translate(-33.824 -12.923)" fill="#facaa1" fill-rule="evenodd"/>
        <path id="Trazado_725364-3" data-name="Trazado 725364" d="M59.893,121.689c-2.792,0-14.385,15.887-7.944,21.47s20.611-25.764,7.944-21.47" transform="translate(-22.119 -53.624)" fill="#facaa1" fill-rule="evenodd"/>
        <path id="Trazado_725365-3" data-name="Trazado 725365" d="M184.95,318.345c.43-.966,1.074-2.254,1.825-1.289s1.932.967.966,1.825-.751,1.932-1.718,1.825-2.683-2.361-1.074-2.361" transform="translate(-81.482 -140.032)" fill="#d69766" fill-rule="evenodd"/>
        <path id="Trazado_725366-3" data-name="Trazado 725366" d="M194.1,304.353c3.542-1.289,3.651-1.933,4.294-.215s3.757,3.65,3.757,1.611.859-3.757-.43-4.938-.322-3.327-3.221-1.932-5.582,4.508-4.4,5.475" transform="translate(-85.693 -131.945)" fill="#d69766" fill-rule="evenodd"/>
        <path id="Trazado_725367-3" data-name="Trazado 725367" d="M199.861,318.164c-.215,1.4.643,3.221,1.395,2.362s2.362-1.825,1.717-2.684-4.509-1.395-3.112.322" transform="translate(-88.233 -140.174)" fill="#d69766" fill-rule="evenodd"/>
        <path id="Trazado_725368-3" data-name="Trazado 725368" d="M216.532,302.895c1.288,2.147,2.9,4.08,1.181,3.972s-2.04.537-2.683-.966-1.182-2.361-.537-2.469,2.04-.537,2.04-.537" transform="translate(-94.707 -133.922)" fill="#d69766" fill-rule="evenodd"/>
        <path id="Trazado_725369-3" data-name="Trazado 725369" d="M222.719,294.637c1.5.537,4.723-.858,3.65-2.254s-1.18-2.684-2.576-2.254-3.435,3.65-1.073,4.509" transform="translate(-97.995 -128.24)" fill="#d69766" fill-rule="evenodd"/>
        <path id="Trazado_725370-3" data-name="Trazado 725370" d="M210.357,290.925c-1.181-.966-1.718-3.221-.215-3.65s2.148-1.5,2.791,0,.966,2.361.107,3.112-2.04,2.04-2.683.537" transform="translate(-92.506 -126.673)" fill="#d69766" fill-rule="evenodd"/>
        <path id="Trazado_725371-3" data-name="Trazado 725371" d="M240.728,282.7c2.254.214,3.436-.859,2.47-1.611a7.175,7.175,0,0,0-3.436-1.5c-1.4-.215-2.04-2.147-2.361,0s2.04,5.9,3.327,3.113" transform="translate(-104.951 -123.173)" fill="#d69766" fill-rule="evenodd"/>
        <path id="Trazado_725372-3" data-name="Trazado 725372" d="M223.348,274.347c-.966.966-2.039,2.47-1.181,3.436a4.764,4.764,0,0,0,2.577,1.181s1.825-.752,1.5-1.933-.859-3.221-2.9-2.684" transform="translate(-98.09 -121.261)" fill="#d69766" fill-rule="evenodd"/>
        <path id="Trazado_725373-3" data-name="Trazado 725373" d="M242.191,263.865c.966-1.181,2.792-1.718,3.435-.429s2.04,3.22.537,3.435-5.368-1.074-3.972-3.006" transform="translate(-106.95 -116.146)" fill="#d69766" fill-rule="evenodd"/>
        <path id="Trazado_725374-3" data-name="Trazado 725374" d="M239.561,247.182c-1.074.751-2.684,1.288-1.5,1.932s2.255,2.577,3.113,1.181,1.932-2.04,1.181-2.792-2.147-1.5-2.791-.322" transform="translate(-105.072 -109.017)" fill="#d69766" fill-rule="evenodd"/>
        <path id="Trazado_725375-3" data-name="Trazado 725375" d="M254.032,233.319c0,2.04,2.147,3.22,2.9,1.5s1.933-1.288,1.074-2.469-.322-2.9-1.825-2.147-2.792,1.825-2.147,3.113" transform="translate(-112.243 -101.702)" fill="#d69766" fill-rule="evenodd"/>
      </g>
    </g>
    <g id="Grupo_984326" data-name="Grupo 984326" transform="translate(724.162 1789.371)">
      <g id="Grupo_984294-4" data-name="Grupo 984294" transform="translate(0 0)" clip-path="url(#clip-path-4)">
        <path id="Trazado_725359-4" data-name="Trazado 725359" d="M95.76,0c52.887,0,95.76,112.166,95.76,165.054a95.76,95.76,0,1,1-191.52,0C0,112.166,42.874,0,95.76,0" fill="#e5a471" fill-rule="evenodd"/>
        <path id="Trazado_725360-4" data-name="Trazado 725360" d="M142.2,40.914c29.413,36.844,49.32,100.39,49.32,136.424a95.76,95.76,0,1,1-191.52,0c0-38.853,23.14-109.7,56.389-144.564-.056.084-47.011,69.535-46.05,133.017.962,63.52,77.955,79.882,120.3,53.415S191.252,141.18,142.2,40.914" transform="translate(0 -12.284)" fill="#d69766" fill-rule="evenodd"/>
        <path id="Trazado_725361-4" data-name="Trazado 725361" d="M161.3,91.757l.1.186c.7,1.368,2.766,5.458,5.752,11.563,15.5,33.218,24.954,71.11,24.954,95.941A95.763,95.763,0,0,1,1.563,213.126c12.83,65.484,103.7,103.705,157.09,41.18C210.3,193.822,164.4,98.038,161.3,91.757" transform="translate(-0.586 -34.393)" fill="#c58b5c" fill-rule="evenodd"/>
        <path id="Trazado_725362-4" data-name="Trazado 725362" d="M51.283,182.765c-9.142-3.85-23.525-26.9-12.51-74.588s44.9-94.946,70.738-94.316,58.707,59.187,52.932,115.97S92.186,88.448,51.283,182.765" transform="translate(-13.041 -5.193)" fill="#f1ae78" fill-rule="evenodd"/>
        <path id="Trazado_725363-4" data-name="Trazado 725363" d="M79.425,64.375s16.6-36.091,33.925-35.129-6.255,23.339-15.4,36.09S69.08,88.195,79.425,64.375" transform="translate(-28.674 -10.955)" fill="#facaa1" fill-rule="evenodd"/>
        <path id="Trazado_725364-4" data-name="Trazado 725364" d="M61.083,121.738c-3.128,0-16.121,17.8-8.9,24.061s23.1-28.873,8.9-24.061" transform="translate(-18.752 -45.46)" fill="#facaa1" fill-rule="evenodd"/>
        <path id="Trazado_725365-4" data-name="Trazado 725365" d="M185.029,318.541c.482-1.083,1.2-2.526,2.046-1.444s2.166,1.083,1.083,2.046-.842,2.166-1.925,2.045-3.007-2.646-1.2-2.646" transform="translate(-69.076 -118.712)" fill="#d69766" fill-rule="evenodd"/>
        <path id="Trazado_725366-4" data-name="Trazado 725366" d="M194.133,305.068c3.97-1.444,4.091-2.166,4.813-.241s4.211,4.09,4.211,1.8.963-4.211-.481-5.534-.361-3.729-3.609-2.165-6.256,5.052-4.933,6.135" transform="translate(-72.646 -111.855)" fill="#d69766" fill-rule="evenodd"/>
        <path id="Trazado_725367-4" data-name="Trazado 725367" d="M199.9,318.3c-.241,1.564.721,3.61,1.563,2.647s2.647-2.046,1.924-3.008-5.053-1.563-3.487.361" transform="translate(-74.799 -118.832)" fill="#d69766" fill-rule="evenodd"/>
        <path id="Trazado_725368-4" data-name="Trazado 725368" d="M216.813,302.895c1.444,2.406,3.249,4.573,1.324,4.451s-2.286.6-3.007-1.083-1.324-2.646-.6-2.766,2.286-.6,2.286-.6" transform="translate(-80.288 -113.532)" fill="#d69766" fill-rule="evenodd"/>
        <path id="Trazado_725369-4" data-name="Trazado 725369" d="M222.849,295.191c1.684.6,5.293-.962,4.09-2.526s-1.323-3.008-2.887-2.526-3.85,4.091-1.2,5.053" transform="translate(-83.075 -108.715)" fill="#d69766" fill-rule="evenodd"/>
        <path id="Trazado_725370-4" data-name="Trazado 725370" d="M210.494,291.459c-1.324-1.083-1.925-3.609-.241-4.09s2.407-1.685,3.128,0,1.082,2.646.12,3.488-2.286,2.286-3.007.6" transform="translate(-78.422 -107.387)" fill="#d69766" fill-rule="evenodd"/>
        <path id="Trazado_725371-4" data-name="Trazado 725371" d="M241.133,283.2c2.526.24,3.85-.963,2.768-1.8a8.042,8.042,0,0,0-3.85-1.684c-1.564-.241-2.286-2.406-2.646,0s2.286,6.617,3.729,3.489" transform="translate(-88.972 -104.419)" fill="#d69766" fill-rule="evenodd"/>
        <path id="Trazado_725372-4" data-name="Trazado 725372" d="M223.528,274.358c-1.083,1.083-2.285,2.768-1.324,3.85a5.339,5.339,0,0,0,2.888,1.323s2.046-.843,1.684-2.166-.963-3.609-3.248-3.008" transform="translate(-83.156 -102.798)" fill="#d69766" fill-rule="evenodd"/>
        <path id="Trazado_725373-4" data-name="Trazado 725373" d="M242.227,264.007c1.083-1.324,3.128-1.925,3.849-.481s2.286,3.608.6,3.849-6.015-1.2-4.451-3.368" transform="translate(-90.667 -98.462)" fill="#d69766" fill-rule="evenodd"/>
        <path id="Trazado_725374-4" data-name="Trazado 725374" d="M239.793,247.257c-1.2.842-3.008,1.444-1.685,2.166s2.527,2.888,3.489,1.324,2.165-2.286,1.324-3.128-2.406-1.684-3.128-.361" transform="translate(-89.074 -92.419)" fill="#d69766" fill-rule="evenodd"/>
        <path id="Trazado_725375-4" data-name="Trazado 725375" d="M254.053,233.717c0,2.286,2.406,3.608,3.248,1.684s2.166-1.443,1.2-2.766-.361-3.248-2.045-2.406-3.128,2.045-2.406,3.489" transform="translate(-95.153 -86.217)" fill="#d69766" fill-rule="evenodd"/>
      </g>
    </g>
    <g id="Grupo_984327" data-name="Grupo 984327" transform="translate(926.938 1775.668)">
      <g id="Grupo_984294-5" data-name="Grupo 984294" transform="translate(0 0)" clip-path="url(#clip-path-5)">
        <path id="Trazado_725359-5" data-name="Trazado 725359" d="M100.791,0c55.666,0,100.791,118.059,100.791,173.725A100.791,100.791,0,1,1,0,173.725C0,118.059,45.127,0,100.791,0" fill="#e5a471" fill-rule="evenodd"/>
        <path id="Trazado_725360-5" data-name="Trazado 725360" d="M149.671,41.341c30.959,38.78,51.911,105.664,51.911,143.592A100.791,100.791,0,1,1,0,184.933C0,144.039,24.355,69.469,59.352,32.774c-.059.088-49.481,73.189-48.469,140C11.9,239.636,92.933,256.857,137.5,229s63.8-82.124,12.166-187.658" transform="translate(0 -11.208)" fill="#d69766" fill-rule="evenodd"/>
        <path id="Trazado_725361-5" data-name="Trazado 725361" d="M169.693,91.757l.1.2c.733,1.44,2.912,5.745,6.054,12.17,16.317,34.963,26.265,74.846,26.265,100.982A100.794,100.794,0,0,1,1.563,219.5c13.5,68.925,109.153,109.154,165.343,43.343,54.357-63.662,6.049-164.478,2.787-171.089" transform="translate(-0.535 -31.379)" fill="#c58b5c" fill-rule="evenodd"/>
        <path id="Trazado_725362-5" data-name="Trazado 725362" d="M52.15,191.639c-9.622-4.052-24.761-28.316-13.168-78.507S86.245,13.2,113.436,13.862s61.791,62.3,55.713,122.063S95.2,92.367,52.15,191.639" transform="translate(-11.898 -4.738)" fill="#f1ae78" fill-rule="evenodd"/>
        <path id="Trazado_725363-5" data-name="Trazado 725363" d="M79.579,66.222s17.474-37.987,35.708-36.974S108.7,53.812,99.079,67.234s-30.389,24.059-19.5-1.012" transform="translate(-26.162 -9.995)" fill="#facaa1" fill-rule="evenodd"/>
        <path id="Trazado_725364-5" data-name="Trazado 725364" d="M61.664,121.761c-3.293,0-16.968,18.74-9.37,25.325S76.6,116.7,61.664,121.761" transform="translate(-17.109 -41.476)" fill="#facaa1" fill-rule="evenodd"/>
        <path id="Trazado_725365-5" data-name="Trazado 725365" d="M185.068,318.637c.507-1.14,1.267-2.659,2.153-1.52s2.279,1.14,1.14,2.153-.886,2.279-2.026,2.152-3.165-2.785-1.267-2.785" transform="translate(-63.023 -108.309)" fill="#d69766" fill-rule="evenodd"/>
        <path id="Trazado_725366-5" data-name="Trazado 725366" d="M194.15,305.418c4.178-1.52,4.306-2.28,5.065-.254s4.432,4.305,4.432,1.9,1.013-4.432-.507-5.825-.38-3.924-3.8-2.279-6.584,5.317-5.192,6.458" transform="translate(-66.28 -102.054)" fill="#d69766" fill-rule="evenodd"/>
        <path id="Trazado_725367-5" data-name="Trazado 725367" d="M199.915,318.367c-.254,1.646.759,3.8,1.645,2.786s2.786-2.153,2.025-3.166-5.318-1.645-3.67.38" transform="translate(-68.244 -108.419)" fill="#d69766" fill-rule="evenodd"/>
        <path id="Trazado_725368-5" data-name="Trazado 725368" d="M216.95,302.895c1.519,2.533,3.42,4.813,1.393,4.685s-2.406.633-3.165-1.14-1.394-2.785-.634-2.912,2.406-.634,2.406-.634" transform="translate(-73.252 -103.583)" fill="#d69766" fill-rule="evenodd"/>
        <path id="Trazado_725369-5" data-name="Trazado 725369" d="M222.913,295.462c1.772.634,5.571-1.012,4.3-2.659s-1.392-3.166-3.039-2.659-4.052,4.305-1.266,5.318" transform="translate(-75.795 -99.188)" fill="#d69766" fill-rule="evenodd"/>
        <path id="Trazado_725370-5" data-name="Trazado 725370" d="M210.56,291.719c-1.393-1.14-2.026-3.8-.253-4.3s2.533-1.773,3.292,0,1.139,2.785.126,3.671-2.406,2.406-3.165.634" transform="translate(-71.55 -97.977)" fill="#d69766" fill-rule="evenodd"/>
        <path id="Trazado_725371-5" data-name="Trazado 725371" d="M241.331,283.44c2.659.253,4.053-1.013,2.913-1.9a8.464,8.464,0,0,0-4.053-1.773c-1.646-.253-2.406-2.533-2.785,0s2.406,6.965,3.924,3.672" transform="translate(-81.176 -95.269)" fill="#d69766" fill-rule="evenodd"/>
        <path id="Trazado_725372-5" data-name="Trazado 725372" d="M223.616,274.363c-1.14,1.14-2.405,2.913-1.393,4.053a5.619,5.619,0,0,0,3.039,1.393s2.153-.887,1.773-2.28-1.013-3.8-3.419-3.166" transform="translate(-75.869 -93.79)" fill="#d69766" fill-rule="evenodd"/>
        <path id="Trazado_725373-5" data-name="Trazado 725373" d="M242.245,264.076c1.14-1.393,3.293-2.026,4.051-.506s2.406,3.8.634,4.051-6.331-1.267-4.685-3.545" transform="translate(-82.722 -89.834)" fill="#d69766" fill-rule="evenodd"/>
        <path id="Trazado_725374-5" data-name="Trazado 725374" d="M239.906,247.293c-1.267.886-3.166,1.519-1.773,2.279s2.66,3.039,3.672,1.393,2.279-2.406,1.393-3.293-2.532-1.773-3.292-.38" transform="translate(-81.269 -84.32)" fill="#d69766" fill-rule="evenodd"/>
        <path id="Trazado_725375-5" data-name="Trazado 725375" d="M254.063,233.911c0,2.406,2.533,3.8,3.418,1.772s2.28-1.519,1.267-2.912-.38-3.418-2.152-2.533-3.293,2.152-2.533,3.672" transform="translate(-86.815 -78.662)" fill="#d69766" fill-rule="evenodd"/>
      </g>
    </g>
    <g id="Grupo_984328" data-name="Grupo 984328" transform="translate(1139.779 1749)">
      <g id="Grupo_984294-6" data-name="Grupo 984294" transform="translate(0 0)" clip-path="url(#clip-path-6)">
        <path id="Trazado_725359-6" data-name="Trazado 725359" d="M110.583,0c61.074,0,110.582,129.528,110.582,190.6A110.582,110.582,0,1,1,0,190.6C0,129.528,49.51,0,110.583,0" fill="#e5a471" fill-rule="evenodd"/>
        <path id="Trazado_725360-6" data-name="Trazado 725360" d="M164.21,42.174c33.966,42.547,56.954,115.929,56.954,157.541A110.582,110.582,0,1,1,0,199.715C0,154.848,26.721,73.034,65.117,32.774c-.064.1-54.288,80.3-53.178,153.606,1.111,73.352,90.022,92.246,138.923,61.682s69.993-90.1,13.348-205.888" transform="translate(0 -9.113)" fill="#d69766" fill-rule="evenodd"/>
        <path id="Trazado_725361-6" data-name="Trazado 725361" d="M186.026,91.757l.114.215c.8,1.58,3.195,6.3,6.643,13.352,17.9,38.36,28.816,82.117,28.816,110.791a110.585,110.585,0,0,1-220.036,15.8c14.816,75.62,119.756,119.757,181.406,47.554,59.638-69.847,6.636-180.456,3.057-187.71" transform="translate(-0.435 -25.513)" fill="#c58b5c" fill-rule="evenodd"/>
        <path id="Trazado_725362-6" data-name="Trazado 725362" d="M53.836,208.91c-10.557-4.446-27.166-31.067-14.447-86.133S91.243,13.134,121.076,13.862,188.869,82.211,182.2,147.783,101.07,99.994,53.836,208.91" transform="translate(-9.674 -3.852)" fill="#f1ae78" fill-rule="evenodd"/>
        <path id="Trazado_725363-6" data-name="Trazado 725363" d="M79.878,69.816S99.049,28.138,119.054,29.25,111.831,56.2,101.273,70.926s-33.342,26.4-21.395-1.11" transform="translate(-21.272 -8.127)" fill="#facaa1" fill-rule="evenodd"/>
        <path id="Trazado_725364-6" data-name="Trazado 725364" d="M62.794,121.808c-3.613,0-18.616,20.56-10.281,27.785s26.673-33.342,10.281-27.785" transform="translate(-13.911 -33.723)" fill="#facaa1" fill-rule="evenodd"/>
        <path id="Trazado_725365-6" data-name="Trazado 725365" d="M185.144,318.824c.557-1.25,1.39-2.917,2.362-1.668s2.5,1.251,1.25,2.362-.972,2.5-2.223,2.361-3.473-3.056-1.39-3.056" transform="translate(-51.242 -88.063)" fill="#d69766" fill-rule="evenodd"/>
        <path id="Trazado_725366-6" data-name="Trazado 725366" d="M194.183,306.1c4.584-1.668,4.724-2.5,5.558-.279s4.862,4.724,4.862,2.084,1.112-4.862-.556-6.391-.417-4.306-4.168-2.5-7.224,5.834-5.7,7.085" transform="translate(-53.891 -82.977)" fill="#d69766" fill-rule="evenodd"/>
        <path id="Trazado_725367-6" data-name="Trazado 725367" d="M199.949,318.5c-.279,1.806.832,4.169,1.8,3.057s3.057-2.362,2.222-3.474-5.835-1.8-4.027.417" transform="translate(-55.488 -88.153)" fill="#d69766" fill-rule="evenodd"/>
        <path id="Trazado_725368-6" data-name="Trazado 725368" d="M217.217,302.895c1.667,2.779,3.752,5.28,1.528,5.14s-2.64.694-3.473-1.25-1.529-3.055-.7-3.195,2.639-.7,2.639-.7" transform="translate(-59.56 -84.221)" fill="#d69766" fill-rule="evenodd"/>
        <path id="Trazado_725369-6" data-name="Trazado 725369" d="M223.037,295.988c1.944.7,6.112-1.11,4.723-2.917s-1.528-3.473-3.334-2.917-4.446,4.724-1.389,5.835" transform="translate(-61.627 -80.648)" fill="#d69766" fill-rule="evenodd"/>
        <path id="Trazado_725370-6" data-name="Trazado 725370" d="M210.69,292.226c-1.528-1.25-2.223-4.168-.278-4.723s2.78-1.946,3.612,0,1.25,3.055.139,4.028-2.639,2.639-3.473.7" transform="translate(-58.175 -79.662)" fill="#d69766" fill-rule="evenodd"/>
        <path id="Trazado_725371-6" data-name="Trazado 725371" d="M241.716,283.912c2.917.277,4.446-1.112,3.2-2.084a9.286,9.286,0,0,0-4.446-1.945c-1.806-.278-2.639-2.779-3.055,0s2.639,7.641,4.306,4.029" transform="translate(-66.002 -77.461)" fill="#d69766" fill-rule="evenodd"/>
        <path id="Trazado_725372-6" data-name="Trazado 725372" d="M223.787,274.373c-1.25,1.25-2.639,3.2-1.528,4.446a6.166,6.166,0,0,0,3.335,1.528s2.362-.973,1.945-2.5-1.112-4.168-3.751-3.473" transform="translate(-61.687 -76.259)" fill="#d69766" fill-rule="evenodd"/>
        <path id="Trazado_725373-6" data-name="Trazado 725373" d="M242.279,264.21c1.25-1.528,3.613-2.223,4.445-.555s2.639,4.167.7,4.445-6.947-1.39-5.14-3.89" transform="translate(-67.259 -73.042)" fill="#d69766" fill-rule="evenodd"/>
        <path id="Trazado_725374-6" data-name="Trazado 725374" d="M240.125,247.363c-1.39.972-3.473,1.667-1.946,2.5s2.918,3.335,4.029,1.528,2.5-2.64,1.528-3.613-2.778-1.945-3.612-.417" transform="translate(-66.078 -68.559)" fill="#d69766" fill-rule="evenodd"/>
        <path id="Trazado_725375-6" data-name="Trazado 725375" d="M254.082,234.289c0,2.639,2.779,4.167,3.75,1.944s2.5-1.666,1.39-3.195-.417-3.751-2.361-2.779-3.613,2.361-2.779,4.029" transform="translate(-70.587 -63.958)" fill="#d69766" fill-rule="evenodd"/>
      </g>
    </g>
    <path id="Trazado_733996" data-name="Trazado 733996" d="M27.784,17H24.716V11.656H20.172V17H17.087V4.2h3.085v5.08h4.544V4.2h3.067Zm7.479-1.028a3.054,3.054,0,0,1-2.54,1.2,3,3,0,0,1-2.369-.91,3.826,3.826,0,0,1-.8-2.615V7.49h2.962v6.179A1.065,1.065,0,0,0,33.7,14.891a1.548,1.548,0,0,0,1.45-.729V7.49h2.979V17H35.351Zm9.088,1.2a4.889,4.889,0,0,1-3.542-1.305,4.507,4.507,0,0,1-1.354-3.4v-.246A5.84,5.84,0,0,1,40,9.652a3.955,3.955,0,0,1,1.578-1.727,4.763,4.763,0,0,1,2.461-.611A4.117,4.117,0,0,1,47.2,8.558a4.887,4.887,0,0,1,1.16,3.467v1.151H42.47a2.135,2.135,0,0,0,.694,1.257,2.066,2.066,0,0,0,1.389.457,2.662,2.662,0,0,0,2.2-.984l1.354,1.6a3.784,3.784,0,0,1-1.569,1.217A5.3,5.3,0,0,1,44.351,17.176ZM44.017,9.6q-1.3,0-1.547,1.723h2.988v-.229a1.467,1.467,0,0,0-.36-1.1A1.434,1.434,0,0,0,44.017,9.6Zm9.211,3.876,1.5-5.985h3.12L54.749,17H51.725l-3.1-9.51h3.129Zm5-1.318a5.613,5.613,0,0,1,.554-2.536,3.96,3.96,0,0,1,1.591-1.709,4.791,4.791,0,0,1,2.435-.6,4.373,4.373,0,0,1,3.366,1.323,5.076,5.076,0,0,1,1.23,3.6v.105a4.925,4.925,0,0,1-1.235,3.529,4.384,4.384,0,0,1-3.344,1.305,4.434,4.434,0,0,1-3.261-1.217,4.761,4.761,0,0,1-1.327-3.3Zm2.962.185a3.538,3.538,0,0,0,.413,1.934,1.376,1.376,0,0,0,1.222.615q1.582,0,1.617-2.435v-.3q0-2.558-1.635-2.558-1.485,0-1.608,2.206ZM26.6,31.585H22.756V42H19.671V31.585H15.9V29.2H26.6ZM30.886,42H27.916V32.49h2.971ZM27.74,30.038A1.322,1.322,0,0,1,28.2,29a1.943,1.943,0,0,1,2.373,0,1.405,1.405,0,0,1,0,2.074,1.943,1.943,0,0,1-2.373,0A1.322,1.322,0,0,1,27.74,30.038Zm13.8,7.277a5.735,5.735,0,0,1-1,3.538,3.2,3.2,0,0,1-2.694,1.323,2.742,2.742,0,0,1-2.153-.958v4.438H32.732V32.49H35.5l.088.879a2.742,2.742,0,0,1,2.241-1.055,3.224,3.224,0,0,1,2.733,1.3,5.805,5.805,0,0,1,.976,3.564Zm-2.962-.185q0-2.531-1.477-2.531a1.394,1.394,0,0,0-1.406.756V39.1a1.439,1.439,0,0,0,1.424.791q1.415,0,1.459-2.443Zm3.894.026a5.613,5.613,0,0,1,.554-2.536,3.96,3.96,0,0,1,1.591-1.709,4.791,4.791,0,0,1,2.435-.6,4.373,4.373,0,0,1,3.366,1.323,5.076,5.076,0,0,1,1.23,3.6v.105a4.925,4.925,0,0,1-1.235,3.529,4.384,4.384,0,0,1-3.344,1.305,4.434,4.434,0,0,1-3.261-1.217,4.761,4.761,0,0,1-1.327-3.3Zm2.962.185a3.538,3.538,0,0,0,.413,1.934,1.376,1.376,0,0,0,1.222.615q1.582,0,1.617-2.435v-.3q0-2.558-1.635-2.558-1.485,0-1.608,2.206Zm22.491.325a4.673,4.673,0,0,1-.721,2.36,4.35,4.35,0,0,1-1.85,1.586,6.3,6.3,0,0,1-2.72.563,5.025,5.025,0,0,1-3.973-1.644,6.786,6.786,0,0,1-1.45-4.641v-.633a7.746,7.746,0,0,1,.655-3.292,4.961,4.961,0,0,1,1.885-2.18,5.26,5.26,0,0,1,2.848-.769,5.516,5.516,0,0,1,3.744,1.226,4.844,4.844,0,0,1,1.608,3.379H64.874a2.292,2.292,0,0,0-.589-1.679,2.422,2.422,0,0,0-1.687-.51,1.843,1.843,0,0,0-1.687.861,5.536,5.536,0,0,0-.562,2.751v.905a6.126,6.126,0,0,0,.514,2.927,1.882,1.882,0,0,0,1.771.879,2.369,2.369,0,0,0,1.626-.5,2.126,2.126,0,0,0,.6-1.591Z" transform="translate(252.271 1933.819)" fill="#12263f"/>
    <path id="Trazado_733997" data-name="Trazado 733997" d="M27.784,17H24.716V11.656H20.172V17H17.087V4.2h3.085v5.08h4.544V4.2h3.067Zm7.479-1.028a3.054,3.054,0,0,1-2.54,1.2,3,3,0,0,1-2.369-.91,3.826,3.826,0,0,1-.8-2.615V7.49h2.962v6.179A1.065,1.065,0,0,0,33.7,14.891a1.548,1.548,0,0,0,1.45-.729V7.49h2.979V17H35.351Zm9.088,1.2a4.889,4.889,0,0,1-3.542-1.305,4.507,4.507,0,0,1-1.354-3.4v-.246A5.84,5.84,0,0,1,40,9.652a3.955,3.955,0,0,1,1.578-1.727,4.763,4.763,0,0,1,2.461-.611A4.117,4.117,0,0,1,47.2,8.558a4.887,4.887,0,0,1,1.16,3.467v1.151H42.47a2.135,2.135,0,0,0,.694,1.257,2.066,2.066,0,0,0,1.389.457,2.662,2.662,0,0,0,2.2-.984l1.354,1.6a3.784,3.784,0,0,1-1.569,1.217A5.3,5.3,0,0,1,44.351,17.176ZM44.017,9.6q-1.3,0-1.547,1.723h2.988v-.229a1.467,1.467,0,0,0-.36-1.1A1.434,1.434,0,0,0,44.017,9.6Zm9.211,3.876,1.5-5.985h3.12L54.749,17H51.725l-3.1-9.51h3.129Zm5-1.318a5.613,5.613,0,0,1,.554-2.536,3.96,3.96,0,0,1,1.591-1.709,4.791,4.791,0,0,1,2.435-.6,4.373,4.373,0,0,1,3.366,1.323,5.076,5.076,0,0,1,1.23,3.6v.105a4.925,4.925,0,0,1-1.235,3.529,4.384,4.384,0,0,1-3.344,1.305,4.434,4.434,0,0,1-3.261-1.217,4.761,4.761,0,0,1-1.327-3.3Zm2.962.185a3.538,3.538,0,0,0,.413,1.934,1.376,1.376,0,0,0,1.222.615q1.582,0,1.617-2.435v-.3q0-2.558-1.635-2.558-1.485,0-1.608,2.206ZM26.7,31.585H22.857V42H19.772V31.585H16V29.2H26.7ZM30.987,42H28.017V32.49h2.971ZM27.841,30.038A1.322,1.322,0,0,1,28.3,29a1.943,1.943,0,0,1,2.373,0,1.405,1.405,0,0,1,0,2.074,1.943,1.943,0,0,1-2.373,0A1.322,1.322,0,0,1,27.841,30.038Zm13.8,7.277a5.735,5.735,0,0,1-1,3.538,3.2,3.2,0,0,1-2.694,1.323,2.742,2.742,0,0,1-2.153-.958v4.438H32.833V32.49H35.6l.088.879a2.742,2.742,0,0,1,2.241-1.055,3.224,3.224,0,0,1,2.733,1.3,5.805,5.805,0,0,1,.976,3.564Zm-2.962-.185q0-2.531-1.477-2.531a1.394,1.394,0,0,0-1.406.756V39.1a1.439,1.439,0,0,0,1.424.791q1.415,0,1.459-2.443Zm3.894.026a5.613,5.613,0,0,1,.554-2.536,3.96,3.96,0,0,1,1.591-1.709,4.791,4.791,0,0,1,2.435-.6,4.373,4.373,0,0,1,3.366,1.323,5.076,5.076,0,0,1,1.23,3.6v.105a4.925,4.925,0,0,1-1.235,3.529,4.384,4.384,0,0,1-3.344,1.305,4.434,4.434,0,0,1-3.261-1.217,4.761,4.761,0,0,1-1.327-3.3Zm2.962.185a3.538,3.538,0,0,0,.413,1.934,1.376,1.376,0,0,0,1.222.615q1.582,0,1.617-2.435v-.3q0-2.558-1.635-2.558-1.485,0-1.608,2.206ZM57.671,42V29.2h4.6a6.509,6.509,0,0,1,3.757.905,3.012,3.012,0,0,1,1.288,2.628,3.045,3.045,0,0,1-.457,1.7,2.663,2.663,0,0,1-1.345,1.037,2.7,2.7,0,0,1,1.538.984,2.862,2.862,0,0,1,.536,1.758,3.388,3.388,0,0,1-1.191,2.826A5.667,5.667,0,0,1,62.865,42Zm3.085-5.44v3.067h2.021a1.923,1.923,0,0,0,1.283-.382,1.338,1.338,0,0,0,.448-1.077,1.419,1.419,0,0,0-1.591-1.608Zm0-2.021h1.608a2.285,2.285,0,0,0,1.441-.37,1.314,1.314,0,0,0,.431-1.067,1.379,1.379,0,0,0-.466-1.168,2.493,2.493,0,0,0-1.5-.357H60.756Z" transform="translate(409.745 1933.819)" fill="#12263f"/>
    <path id="Trazado_733998" data-name="Trazado 733998" d="M27.784,17H24.716V11.656H20.172V17H17.087V4.2h3.085v5.08h4.544V4.2h3.067Zm7.479-1.028a3.054,3.054,0,0,1-2.54,1.2,3,3,0,0,1-2.369-.91,3.826,3.826,0,0,1-.8-2.615V7.49h2.962v6.179A1.065,1.065,0,0,0,33.7,14.891a1.548,1.548,0,0,0,1.45-.729V7.49h2.979V17H35.351Zm9.088,1.2a4.889,4.889,0,0,1-3.542-1.305,4.507,4.507,0,0,1-1.354-3.4v-.246A5.84,5.84,0,0,1,40,9.652a3.955,3.955,0,0,1,1.578-1.727,4.763,4.763,0,0,1,2.461-.611A4.117,4.117,0,0,1,47.2,8.558a4.887,4.887,0,0,1,1.16,3.467v1.151H42.47a2.135,2.135,0,0,0,.694,1.257,2.066,2.066,0,0,0,1.389.457,2.662,2.662,0,0,0,2.2-.984l1.354,1.6a3.784,3.784,0,0,1-1.569,1.217A5.3,5.3,0,0,1,44.351,17.176ZM44.017,9.6q-1.3,0-1.547,1.723h2.988v-.229a1.467,1.467,0,0,0-.36-1.1A1.434,1.434,0,0,0,44.017,9.6Zm9.211,3.876,1.5-5.985h3.12L54.749,17H51.725l-3.1-9.51h3.129Zm5-1.318a5.613,5.613,0,0,1,.554-2.536,3.96,3.96,0,0,1,1.591-1.709,4.791,4.791,0,0,1,2.435-.6,4.373,4.373,0,0,1,3.366,1.323,5.076,5.076,0,0,1,1.23,3.6v.105a4.925,4.925,0,0,1-1.235,3.529,4.384,4.384,0,0,1-3.344,1.305,4.434,4.434,0,0,1-3.261-1.217,4.761,4.761,0,0,1-1.327-3.3Zm2.962.185a3.538,3.538,0,0,0,.413,1.934,1.376,1.376,0,0,0,1.222.615q1.582,0,1.617-2.435v-.3q0-2.558-1.635-2.558-1.485,0-1.608,2.206ZM26.373,31.585H22.532V42H19.447V31.585H15.677V29.2h10.7ZM30.662,42H27.691V32.49h2.971ZM27.516,30.038A1.322,1.322,0,0,1,27.973,29a1.943,1.943,0,0,1,2.373,0,1.405,1.405,0,0,1,0,2.074,1.943,1.943,0,0,1-2.373,0A1.322,1.322,0,0,1,27.516,30.038Zm13.8,7.277a5.735,5.735,0,0,1-1,3.538,3.2,3.2,0,0,1-2.694,1.323,2.742,2.742,0,0,1-2.153-.958v4.438H32.508V32.49h2.769l.088.879a2.742,2.742,0,0,1,2.241-1.055,3.224,3.224,0,0,1,2.733,1.3,5.805,5.805,0,0,1,.976,3.564Zm-2.962-.185q0-2.531-1.477-2.531a1.394,1.394,0,0,0-1.406.756V39.1a1.439,1.439,0,0,0,1.424.791q1.415,0,1.459-2.443Zm3.894.026a5.613,5.613,0,0,1,.554-2.536,3.96,3.96,0,0,1,1.591-1.709,4.791,4.791,0,0,1,2.435-.6,4.373,4.373,0,0,1,3.366,1.323,5.076,5.076,0,0,1,1.23,3.6v.105a4.925,4.925,0,0,1-1.235,3.529,4.384,4.384,0,0,1-3.344,1.305,4.434,4.434,0,0,1-3.261-1.217,4.761,4.761,0,0,1-1.327-3.3Zm2.962.185a3.538,3.538,0,0,0,.413,1.934,1.376,1.376,0,0,0,1.222.615q1.582,0,1.617-2.435v-.3q0-2.558-1.635-2.558-1.485,0-1.608,2.206Zm19.406,2.268H60.387L59.648,42h-3.3l4.693-12.8h2.9L68.675,42H65.361Zm-3.489-2.382h2.751L62.5,32.789Z" transform="translate(585.456 1933.819)" fill="#12263f"/>
    <path id="Trazado_733999" data-name="Trazado 733999" d="M27.784,17H24.716V11.656H20.172V17H17.087V4.2h3.085v5.08h4.544V4.2h3.067Zm7.479-1.028a3.054,3.054,0,0,1-2.54,1.2,3,3,0,0,1-2.369-.91,3.826,3.826,0,0,1-.8-2.615V7.49h2.962v6.179A1.065,1.065,0,0,0,33.7,14.891a1.548,1.548,0,0,0,1.45-.729V7.49h2.979V17H35.351Zm9.088,1.2a4.889,4.889,0,0,1-3.542-1.305,4.507,4.507,0,0,1-1.354-3.4v-.246A5.84,5.84,0,0,1,40,9.652a3.955,3.955,0,0,1,1.578-1.727,4.763,4.763,0,0,1,2.461-.611A4.117,4.117,0,0,1,47.2,8.558a4.887,4.887,0,0,1,1.16,3.467v1.151H42.47a2.135,2.135,0,0,0,.694,1.257,2.066,2.066,0,0,0,1.389.457,2.662,2.662,0,0,0,2.2-.984l1.354,1.6a3.784,3.784,0,0,1-1.569,1.217A5.3,5.3,0,0,1,44.351,17.176ZM44.017,9.6q-1.3,0-1.547,1.723h2.988v-.229a1.467,1.467,0,0,0-.36-1.1A1.434,1.434,0,0,0,44.017,9.6Zm9.211,3.876,1.5-5.985h3.12L54.749,17H51.725l-3.1-9.51h3.129Zm5-1.318a5.613,5.613,0,0,1,.554-2.536,3.96,3.96,0,0,1,1.591-1.709,4.791,4.791,0,0,1,2.435-.6,4.373,4.373,0,0,1,3.366,1.323,5.076,5.076,0,0,1,1.23,3.6v.105a4.925,4.925,0,0,1-1.235,3.529,4.384,4.384,0,0,1-3.344,1.305,4.434,4.434,0,0,1-3.261-1.217,4.761,4.761,0,0,1-1.327-3.3Zm2.962.185a3.538,3.538,0,0,0,.413,1.934,1.376,1.376,0,0,0,1.222.615q1.582,0,1.617-2.435v-.3q0-2.558-1.635-2.558-1.485,0-1.608,2.206ZM20.243,31.585H16.4V42H13.317V31.585H9.546V29.2h10.7ZM24.532,42H21.561V32.49h2.971ZM21.385,30.038A1.322,1.322,0,0,1,21.842,29a1.943,1.943,0,0,1,2.373,0,1.405,1.405,0,0,1,0,2.074,1.943,1.943,0,0,1-2.373,0A1.322,1.322,0,0,1,21.385,30.038Zm13.8,7.277a5.735,5.735,0,0,1-1,3.538,3.2,3.2,0,0,1-2.694,1.323,2.742,2.742,0,0,1-2.153-.958v4.438H26.377V32.49h2.769l.088.879a2.742,2.742,0,0,1,2.241-1.055,3.224,3.224,0,0,1,2.733,1.3,5.805,5.805,0,0,1,.976,3.564Zm-2.962-.185q0-2.531-1.477-2.531a1.394,1.394,0,0,0-1.406.756V39.1a1.439,1.439,0,0,0,1.424.791q1.415,0,1.459-2.443Zm3.894.026a5.613,5.613,0,0,1,.554-2.536,3.96,3.96,0,0,1,1.591-1.709,4.791,4.791,0,0,1,2.435-.6,4.373,4.373,0,0,1,3.366,1.323,5.076,5.076,0,0,1,1.23,3.6v.105a4.925,4.925,0,0,1-1.235,3.529,4.384,4.384,0,0,1-3.344,1.305,4.434,4.434,0,0,1-3.261-1.217,4.761,4.761,0,0,1-1.327-3.3Zm2.962.185a3.538,3.538,0,0,0,.413,1.934,1.376,1.376,0,0,0,1.222.615q1.582,0,1.617-2.435v-.3q0-2.558-1.635-2.558-1.485,0-1.608,2.206Zm19.406,2.268H54.256L53.518,42h-3.3l4.693-12.8h2.9L62.544,42H59.231Zm-3.489-2.382h2.751l-1.38-4.438Zm15.75,2.382H66.517L65.779,42h-3.3l4.693-12.8h2.9L74.805,42H71.492Zm-3.489-2.382h2.751l-1.38-4.438Z" transform="translate(777.922 1933.819)" fill="#12263f"/>
    <path id="Trazado_734000" data-name="Trazado 734000" d="M27.784,17H24.716V11.656H20.172V17H17.087V4.2h3.085v5.08h4.544V4.2h3.067Zm7.479-1.028a3.054,3.054,0,0,1-2.54,1.2,3,3,0,0,1-2.369-.91,3.826,3.826,0,0,1-.8-2.615V7.49h2.962v6.179A1.065,1.065,0,0,0,33.7,14.891a1.548,1.548,0,0,0,1.45-.729V7.49h2.979V17H35.351Zm9.088,1.2a4.889,4.889,0,0,1-3.542-1.305,4.507,4.507,0,0,1-1.354-3.4v-.246A5.84,5.84,0,0,1,40,9.652a3.955,3.955,0,0,1,1.578-1.727,4.763,4.763,0,0,1,2.461-.611A4.117,4.117,0,0,1,47.2,8.558a4.887,4.887,0,0,1,1.16,3.467v1.151H42.47a2.135,2.135,0,0,0,.694,1.257,2.066,2.066,0,0,0,1.389.457,2.662,2.662,0,0,0,2.2-.984l1.354,1.6a3.784,3.784,0,0,1-1.569,1.217A5.3,5.3,0,0,1,44.351,17.176ZM44.017,9.6q-1.3,0-1.547,1.723h2.988v-.229a1.467,1.467,0,0,0-.36-1.1A1.434,1.434,0,0,0,44.017,9.6Zm9.211,3.876,1.5-5.985h3.12L54.749,17H51.725l-3.1-9.51h3.129Zm5-1.318a5.613,5.613,0,0,1,.554-2.536,3.96,3.96,0,0,1,1.591-1.709,4.791,4.791,0,0,1,2.435-.6,4.373,4.373,0,0,1,3.366,1.323,5.076,5.076,0,0,1,1.23,3.6v.105a4.925,4.925,0,0,1-1.235,3.529,4.384,4.384,0,0,1-3.344,1.305,4.434,4.434,0,0,1-3.261-1.217,4.761,4.761,0,0,1-1.327-3.3Zm2.962.185a3.538,3.538,0,0,0,.413,1.934,1.376,1.376,0,0,0,1.222.615q1.582,0,1.617-2.435v-.3q0-2.558-1.635-2.558-1.485,0-1.608,2.206ZM14.112,31.585H10.271V42H7.187V31.585H3.416V29.2h10.7ZM18.4,42H15.431V32.49H18.4ZM15.255,30.038A1.322,1.322,0,0,1,15.712,29a1.943,1.943,0,0,1,2.373,0,1.405,1.405,0,0,1,0,2.074,1.943,1.943,0,0,1-2.373,0A1.322,1.322,0,0,1,15.255,30.038Zm13.8,7.277a5.735,5.735,0,0,1-1,3.538,3.2,3.2,0,0,1-2.694,1.323,2.742,2.742,0,0,1-2.153-.958v4.438H20.247V32.49h2.769l.088.879a2.742,2.742,0,0,1,2.241-1.055,3.224,3.224,0,0,1,2.733,1.3,5.805,5.805,0,0,1,.976,3.564Zm-2.962-.185q0-2.531-1.477-2.531a1.394,1.394,0,0,0-1.406.756V39.1a1.439,1.439,0,0,0,1.424.791q1.415,0,1.459-2.443Zm3.894.026a5.613,5.613,0,0,1,.554-2.536,3.96,3.96,0,0,1,1.591-1.709,4.791,4.791,0,0,1,2.435-.6,4.373,4.373,0,0,1,3.366,1.323,5.076,5.076,0,0,1,1.23,3.6v.105a4.925,4.925,0,0,1-1.235,3.529,4.384,4.384,0,0,1-3.344,1.305,4.434,4.434,0,0,1-3.261-1.217,4.761,4.761,0,0,1-1.327-3.3Zm2.962.185a3.538,3.538,0,0,0,.413,1.934,1.376,1.376,0,0,0,1.222.615q1.582,0,1.617-2.435v-.3q0-2.558-1.635-2.558-1.485,0-1.608,2.206Zm19.406,2.268H48.126L47.388,42h-3.3l4.693-12.8h2.9L56.414,42H53.1Zm-3.489-2.382h2.751l-1.38-4.438Zm15.75,2.382H60.387L59.648,42h-3.3l4.693-12.8h2.9L68.675,42H65.361Zm-3.489-2.382h2.751L62.5,32.789Zm15.75,2.382H72.647L71.909,42h-3.3l4.693-12.8h2.9L80.936,42H77.622Zm-3.489-2.382h2.751l-1.38-4.438Z" transform="translate(985.729 1933.819)" fill="#12263f"/>
    <path id="Trazado_734001" data-name="Trazado 734001" d="M27.784,17H24.716V11.656H20.172V17H17.087V4.2h3.085v5.08h4.544V4.2h3.067Zm7.479-1.028a3.054,3.054,0,0,1-2.54,1.2,3,3,0,0,1-2.369-.91,3.826,3.826,0,0,1-.8-2.615V7.49h2.962v6.179A1.065,1.065,0,0,0,33.7,14.891a1.548,1.548,0,0,0,1.45-.729V7.49h2.979V17H35.351Zm9.088,1.2a4.889,4.889,0,0,1-3.542-1.305,4.507,4.507,0,0,1-1.354-3.4v-.246A5.84,5.84,0,0,1,40,9.652a3.955,3.955,0,0,1,1.578-1.727,4.763,4.763,0,0,1,2.461-.611A4.117,4.117,0,0,1,47.2,8.558a4.887,4.887,0,0,1,1.16,3.467v1.151H42.47a2.135,2.135,0,0,0,.694,1.257,2.066,2.066,0,0,0,1.389.457,2.662,2.662,0,0,0,2.2-.984l1.354,1.6a3.784,3.784,0,0,1-1.569,1.217A5.3,5.3,0,0,1,44.351,17.176ZM44.017,9.6q-1.3,0-1.547,1.723h2.988v-.229a1.467,1.467,0,0,0-.36-1.1A1.434,1.434,0,0,0,44.017,9.6Zm9.211,3.876,1.5-5.985h3.12L54.749,17H51.725l-3.1-9.51h3.129Zm5-1.318a5.613,5.613,0,0,1,.554-2.536,3.96,3.96,0,0,1,1.591-1.709,4.791,4.791,0,0,1,2.435-.6,4.373,4.373,0,0,1,3.366,1.323,5.076,5.076,0,0,1,1.23,3.6v.105a4.925,4.925,0,0,1-1.235,3.529,4.384,4.384,0,0,1-3.344,1.305,4.434,4.434,0,0,1-3.261-1.217,4.761,4.761,0,0,1-1.327-3.3Zm2.962.185a3.538,3.538,0,0,0,.413,1.934,1.376,1.376,0,0,0,1.222.615q1.582,0,1.617-2.435v-.3q0-2.558-1.635-2.558-1.485,0-1.608,2.206ZM34.745,31.585H30.9V42H27.819V31.585H24.048V29.2h10.7ZM39.034,42H36.063V32.49h2.971ZM35.887,30.038A1.322,1.322,0,0,1,36.344,29a1.943,1.943,0,0,1,2.373,0,1.405,1.405,0,0,1,0,2.074,1.943,1.943,0,0,1-2.373,0A1.322,1.322,0,0,1,35.887,30.038Zm13.8,7.277a5.735,5.735,0,0,1-1,3.538,3.2,3.2,0,0,1-2.694,1.323,2.742,2.742,0,0,1-2.153-.958v4.438H40.879V32.49h2.769l.088.879a2.742,2.742,0,0,1,2.241-1.055,3.224,3.224,0,0,1,2.733,1.3,5.805,5.805,0,0,1,.976,3.564Zm-2.962-.185q0-2.531-1.477-2.531a1.394,1.394,0,0,0-1.406.756V39.1a1.439,1.439,0,0,0,1.424.791q1.415,0,1.459-2.443Zm3.894.026a5.613,5.613,0,0,1,.554-2.536,3.96,3.96,0,0,1,1.591-1.709,4.791,4.791,0,0,1,2.435-.6,4.373,4.373,0,0,1,3.366,1.323,5.076,5.076,0,0,1,1.23,3.6v.105a4.925,4.925,0,0,1-1.235,3.529,4.384,4.384,0,0,1-3.344,1.305,4.434,4.434,0,0,1-3.261-1.217,4.761,4.761,0,0,1-1.327-3.3Zm2.962.185a3.538,3.538,0,0,0,.413,1.934,1.376,1.376,0,0,0,1.222.615q1.582,0,1.617-2.435v-.3q0-2.558-1.635-2.558-1.485,0-1.608,2.206ZM17.118,54.2h3.076v8.78a4.2,4.2,0,0,1-.567,2.18,3.87,3.87,0,0,1-1.582,1.485,4.835,4.835,0,0,1-2.263.527,4.661,4.661,0,0,1-3.252-1.055,3.833,3.833,0,0,1-1.16-2.988h3.094a2.113,2.113,0,0,0,.3,1.274,1.2,1.2,0,0,0,1.015.4,1.148,1.148,0,0,0,.989-.479,2.251,2.251,0,0,0,.347-1.34Zm15.056,0v8.376a4.814,4.814,0,0,1-.606,2.465,3.929,3.929,0,0,1-1.74,1.586,6.131,6.131,0,0,1-2.681.545,5.3,5.3,0,0,1-3.683-1.213,4.326,4.326,0,0,1-1.371-3.322V54.2h3.1v8.5q.053,2.1,1.951,2.1a1.889,1.889,0,0,0,1.45-.527,2.465,2.465,0,0,0,.492-1.714V54.2Zm5.977,0,2.856,8.9,2.848-8.9h4.061V67H44.821V64.012l.3-6.117L42.026,67H39.987l-3.1-9.114.3,6.126V67H34.1V54.2ZM49.875,67V54.2h4.6a6.509,6.509,0,0,1,3.757.905,3.012,3.012,0,0,1,1.288,2.628,3.045,3.045,0,0,1-.457,1.7,2.663,2.663,0,0,1-1.345,1.037,2.7,2.7,0,0,1,1.538.984,2.862,2.862,0,0,1,.536,1.758A3.388,3.388,0,0,1,58.6,66.038,5.667,5.667,0,0,1,55.069,67Zm3.085-5.44v3.067h2.021a1.923,1.923,0,0,0,1.283-.382,1.338,1.338,0,0,0,.448-1.077,1.419,1.419,0,0,0-1.591-1.608Zm0-2.021h1.608a2.285,2.285,0,0,0,1.441-.37A1.314,1.314,0,0,0,56.44,58.1a1.379,1.379,0,0,0-.466-1.168,2.493,2.493,0,0,0-1.5-.357H52.96Zm19.362,1.327a7.546,7.546,0,0,1-.694,3.313A5.132,5.132,0,0,1,69.655,66.4a5.494,5.494,0,0,1-2.914.778,5.572,5.572,0,0,1-2.9-.751,5.123,5.123,0,0,1-1.973-2.149,7.329,7.329,0,0,1-.743-3.208v-.721a7.58,7.58,0,0,1,.69-3.318,5.119,5.119,0,0,1,1.978-2.219,5.854,5.854,0,0,1,5.832-.009A5.211,5.211,0,0,1,71.606,57a7.362,7.362,0,0,1,.716,3.274Zm-3.138-.536a5.381,5.381,0,0,0-.637-2.9,2.044,2.044,0,0,0-1.824-.989q-2.32,0-2.452,3.48l-.009.94a5.535,5.535,0,0,0,.624,2.892,2.041,2.041,0,0,0,1.854,1.011,2.016,2.016,0,0,0,1.8-.993,5.383,5.383,0,0,0,.642-2.856Z" transform="translate(1208.361 1912.928)" fill="#12263f"/>
    <path id="Trazado_734002" data-name="Trazado 734002" d="M6.211,9.922,1.047,7.9V6.414L7.719,9.367v1.141L1.047,13.469v-1.5Zm14.4-5.484L15.9,15H14.383l4.7-10.187H12.922V3.625h7.688Zm8.539,2.156A2.641,2.641,0,0,1,28.7,8.109a3.057,3.057,0,0,1-1.215,1.039,3.26,3.26,0,0,1,1.41,1.117,2.811,2.811,0,0,1,.52,1.664,2.972,2.972,0,0,1-1,2.352,3.827,3.827,0,0,1-2.621.875,3.81,3.81,0,0,1-2.629-.879,2.986,2.986,0,0,1-.988-2.348,2.9,2.9,0,0,1,.5-1.664,3.136,3.136,0,0,1,1.395-1.125,2.981,2.981,0,0,1-1.2-1.039,2.679,2.679,0,0,1-.437-1.508,2.94,2.94,0,0,1,.922-2.281,3.458,3.458,0,0,1,2.43-.844,3.461,3.461,0,0,1,2.426.844A2.934,2.934,0,0,1,29.148,6.594Zm-1.18,5.3a2.1,2.1,0,0,0-.605-1.555,2.147,2.147,0,0,0-1.582-.6A2.034,2.034,0,0,0,23.625,11.9a2.019,2.019,0,0,0,.574,1.523,2.565,2.565,0,0,0,3.191,0A2.014,2.014,0,0,0,27.969,11.9ZM25.8,4.656a1.865,1.865,0,0,0-1.379.527,1.937,1.937,0,0,0-.527,1.434,1.928,1.928,0,0,0,.52,1.4,2.064,2.064,0,0,0,2.773,0,1.928,1.928,0,0,0,.52-1.4A1.929,1.929,0,0,0,27.164,5.2,1.839,1.839,0,0,0,25.8,4.656Zm5.617,9.586a.905.905,0,0,1,.223-.625.848.848,0,0,1,.668-.25.874.874,0,0,1,.676.25.887.887,0,0,1,.23.625.839.839,0,0,1-.23.6.89.89,0,0,1-.676.242.8.8,0,0,1-.891-.844Zm11.164-4.094a6.61,6.61,0,0,1-.867,3.773A3.084,3.084,0,0,1,39,15.156a3.107,3.107,0,0,1-2.7-1.207,6.274,6.274,0,0,1-.906-3.605V8.414a6.463,6.463,0,0,1,.867-3.727,3.108,3.108,0,0,1,2.719-1.219,3.136,3.136,0,0,1,2.7,1.176,6.237,6.237,0,0,1,.891,3.629ZM41.133,8.172A5.3,5.3,0,0,0,40.617,5.5a1.775,1.775,0,0,0-1.633-.84,1.751,1.751,0,0,0-1.617.836,5.171,5.171,0,0,0-.523,2.57v2.313a5.381,5.381,0,0,0,.535,2.723A1.771,1.771,0,0,0,39,13.977a1.747,1.747,0,0,0,1.59-.828,5.186,5.186,0,0,0,.543-2.609ZM48.2,10.7a4.968,4.968,0,0,1,.914-3.145,3.151,3.151,0,0,1,4.836-.074l.07-.937h1.32V14.8a3.439,3.439,0,0,1-.973,2.586,3.589,3.589,0,0,1-2.613.945,4.348,4.348,0,0,1-1.789-.391,3.08,3.08,0,0,1-1.336-1.07l.75-.867a2.826,2.826,0,0,0,2.273,1.148,2.214,2.214,0,0,0,1.645-.594,2.269,2.269,0,0,0,.59-1.672v-.727a2.971,2.971,0,0,1-2.367,1,2.887,2.887,0,0,1-2.4-1.2A5.224,5.224,0,0,1,48.2,10.7Zm1.453.164a3.79,3.79,0,0,0,.586,2.246,1.9,1.9,0,0,0,1.641.816,2.117,2.117,0,0,0,2.008-1.242V8.828a2.142,2.142,0,0,0-1.992-1.211,1.921,1.921,0,0,0-1.648.82A4.128,4.128,0,0,0,49.648,10.867ZM61.6,7.844a4.331,4.331,0,0,0-.711-.055A1.9,1.9,0,0,0,58.961,9v6H57.516V6.547h1.406l.023.977a2.251,2.251,0,0,1,2.016-1.133A1.477,1.477,0,0,1,61.6,6.5Zm.4,6.4a.905.905,0,0,1,.223-.625.848.848,0,0,1,.668-.25.874.874,0,0,1,.676.25.887.887,0,0,1,.23.625.839.839,0,0,1-.23.6.89.89,0,0,1-.676.242A.8.8,0,0,1,62,14.242Z" transform="translate(1214.861 2061.676)" fill="#12263f"/>
    <path id="Trazado_734003" data-name="Trazado 734003" d="M29.941,3.617V4.844h-.266a3.805,3.805,0,0,0-2.687,1A4.161,4.161,0,0,0,25.832,8.57a3.085,3.085,0,0,1,2.453-1.031,2.95,2.95,0,0,1,2.371,1.047,4.038,4.038,0,0,1,.887,2.7,4.025,4.025,0,0,1-.957,2.813,3.3,3.3,0,0,1-2.566,1.055A3.247,3.247,0,0,1,25.371,13.9a4.97,4.97,0,0,1-1.016-3.23v-.555a7.488,7.488,0,0,1,1.34-4.8,4.921,4.921,0,0,1,3.988-1.7Zm-1.9,5.125A2.429,2.429,0,0,0,25.809,10.3v.531a3.731,3.731,0,0,0,.633,2.266,1.9,1.9,0,0,0,1.578.859,1.838,1.838,0,0,0,1.535-.719,2.982,2.982,0,0,0,.559-1.883,2.983,2.983,0,0,0-.566-1.895A1.816,1.816,0,0,0,28.043,8.742Zm12.344,1.406a6.61,6.61,0,0,1-.867,3.773,3.084,3.084,0,0,1-2.711,1.234,3.107,3.107,0,0,1-2.7-1.207,6.274,6.274,0,0,1-.906-3.605V8.414a6.463,6.463,0,0,1,.867-3.727,3.108,3.108,0,0,1,2.719-1.219,3.136,3.136,0,0,1,2.7,1.176,6.237,6.237,0,0,1,.891,3.629ZM38.941,8.172A5.3,5.3,0,0,0,38.426,5.5a1.775,1.775,0,0,0-1.633-.84,1.751,1.751,0,0,0-1.617.836,5.171,5.171,0,0,0-.523,2.57v2.313a5.381,5.381,0,0,0,.535,2.723,1.771,1.771,0,0,0,1.621.879,1.747,1.747,0,0,0,1.59-.828,5.186,5.186,0,0,0,.543-2.609Zm3.477,6.07a.905.905,0,0,1,.223-.625.848.848,0,0,1,.668-.25.874.874,0,0,1,.676.25.887.887,0,0,1,.23.625.839.839,0,0,1-.23.6.89.89,0,0,1-.676.242.8.8,0,0,1-.891-.844Zm11.164-4.094a6.61,6.61,0,0,1-.867,3.773,3.6,3.6,0,0,1-5.406.027,6.274,6.274,0,0,1-.906-3.605V8.414a6.463,6.463,0,0,1,.867-3.727,3.668,3.668,0,0,1,5.422-.043,6.237,6.237,0,0,1,.891,3.629ZM52.137,8.172A5.3,5.3,0,0,0,51.621,5.5a1.775,1.775,0,0,0-1.633-.84,1.751,1.751,0,0,0-1.617.836,5.171,5.171,0,0,0-.523,2.57v2.313a5.381,5.381,0,0,0,.535,2.723A1.771,1.771,0,0,0,50,13.977a1.747,1.747,0,0,0,1.59-.828,5.186,5.186,0,0,0,.543-2.609Zm15.4,1.742H59.712V8.734H67.54Zm11.987-6.3V4.844h-.266a3.805,3.805,0,0,0-2.687,1A4.161,4.161,0,0,0,75.418,8.57a3.085,3.085,0,0,1,2.453-1.031,2.95,2.95,0,0,1,2.371,1.047,4.038,4.038,0,0,1,.887,2.7,4.025,4.025,0,0,1-.957,2.813,3.3,3.3,0,0,1-2.566,1.055A3.247,3.247,0,0,1,74.957,13.9a4.97,4.97,0,0,1-1.016-3.23v-.555a7.488,7.488,0,0,1,1.34-4.8,4.921,4.921,0,0,1,3.988-1.7Zm-1.9,5.125A2.429,2.429,0,0,0,75.395,10.3v.531a3.731,3.731,0,0,0,.633,2.266,1.9,1.9,0,0,0,1.578.859,1.838,1.838,0,0,0,1.535-.719,2.982,2.982,0,0,0,.559-1.883,2.983,2.983,0,0,0-.566-1.895A1.816,1.816,0,0,0,77.629,8.742ZM88.512,3.617V4.844h-.266a3.805,3.805,0,0,0-2.687,1A4.161,4.161,0,0,0,84.4,8.57a3.085,3.085,0,0,1,2.453-1.031,2.95,2.95,0,0,1,2.371,1.047,4.038,4.038,0,0,1,.887,2.7,4.025,4.025,0,0,1-.957,2.813,3.3,3.3,0,0,1-2.566,1.055A3.247,3.247,0,0,1,83.941,13.9a4.97,4.97,0,0,1-1.016-3.23v-.555a7.488,7.488,0,0,1,1.34-4.8,4.921,4.921,0,0,1,3.988-1.7Zm-1.9,5.125A2.429,2.429,0,0,0,84.379,10.3v.531a3.731,3.731,0,0,0,.633,2.266,1.9,1.9,0,0,0,1.578.859,1.838,1.838,0,0,0,1.535-.719,2.982,2.982,0,0,0,.559-1.883,2.983,2.983,0,0,0-.566-1.895A1.816,1.816,0,0,0,86.613,8.742ZM92,14.242a.905.905,0,0,1,.223-.625.848.848,0,0,1,.668-.25.874.874,0,0,1,.676.25.887.887,0,0,1,.23.625.839.839,0,0,1-.23.6.89.89,0,0,1-.676.242A.8.8,0,0,1,92,14.242ZM101.574,10a3.536,3.536,0,0,1-1.082.867,2.936,2.936,0,0,1-1.379.328,3.031,3.031,0,0,1-1.715-.484A3.149,3.149,0,0,1,96.27,9.348a4.648,4.648,0,0,1-.4-1.941A4.735,4.735,0,0,1,96.3,5.352a3.185,3.185,0,0,1,1.23-1.4,3.509,3.509,0,0,1,1.859-.484,3.177,3.177,0,0,1,2.66,1.262,5.5,5.5,0,0,1,.973,3.441v.422q0,3.32-1.312,4.848a5.043,5.043,0,0,1-3.961,1.566h-.281V13.781h.3a3.979,3.979,0,0,0,2.75-.932A4,4,0,0,0,101.574,10Zm-2.227,0a2.232,2.232,0,0,0,1.34-.445,2.625,2.625,0,0,0,.895-1.1V7.875a3.977,3.977,0,0,0-.617-2.312,1.887,1.887,0,0,0-3.094-.16,3.013,3.013,0,0,0-.578,1.926,3.136,3.136,0,0,0,.559,1.918A1.769,1.769,0,0,0,99.348,10Zm9.438.7a4.968,4.968,0,0,1,.914-3.145,3.151,3.151,0,0,1,4.836-.074l.07-.937h1.32V14.8a3.439,3.439,0,0,1-.973,2.586,3.589,3.589,0,0,1-2.613.945,4.348,4.348,0,0,1-1.789-.391,3.08,3.08,0,0,1-1.336-1.07l.75-.867a2.826,2.826,0,0,0,2.273,1.148,2.214,2.214,0,0,0,1.645-.594,2.269,2.269,0,0,0,.59-1.672v-.727a2.971,2.971,0,0,1-2.367,1,2.887,2.887,0,0,1-2.4-1.2A5.224,5.224,0,0,1,108.785,10.7Zm1.453.164a3.79,3.79,0,0,0,.586,2.246,1.9,1.9,0,0,0,1.641.816,2.117,2.117,0,0,0,2.008-1.242V8.828a2.142,2.142,0,0,0-1.992-1.211,1.921,1.921,0,0,0-1.648.82A4.128,4.128,0,0,0,110.238,10.867Zm11.953-3.023a4.331,4.331,0,0,0-.711-.055A1.9,1.9,0,0,0,119.551,9v6h-1.445V6.547h1.406l.023.977a2.251,2.251,0,0,1,2.016-1.133,1.477,1.477,0,0,1,.641.109Zm.4,6.4a.905.905,0,0,1,.223-.625.848.848,0,0,1,.668-.25.874.874,0,0,1,.676.25.887.887,0,0,1,.23.625.839.839,0,0,1-.23.6.89.89,0,0,1-.676.242.8.8,0,0,1-.891-.844Z" transform="translate(745.422 2061.676)" fill="#12263f"/>
    <path id="Trazado_734004" data-name="Trazado 734004" d="M30.371,11.18h1.578v1.18H30.371V15H28.918V12.359h-5.18v-.852l5.094-7.883h1.539Zm-4.992,0h3.539V5.6l-.172.313ZM38.926,3.617V4.844H38.66a3.805,3.805,0,0,0-2.687,1A4.161,4.161,0,0,0,34.816,8.57,3.085,3.085,0,0,1,37.27,7.539a2.95,2.95,0,0,1,2.371,1.047,4.038,4.038,0,0,1,.887,2.7A4.025,4.025,0,0,1,39.57,14.1,3.3,3.3,0,0,1,37,15.156,3.247,3.247,0,0,1,34.355,13.9a4.97,4.97,0,0,1-1.016-3.23v-.555a7.488,7.488,0,0,1,1.34-4.8,4.921,4.921,0,0,1,3.988-1.7Zm-1.9,5.125A2.429,2.429,0,0,0,34.793,10.3v.531a3.731,3.731,0,0,0,.633,2.266A1.9,1.9,0,0,0,37,13.961a1.838,1.838,0,0,0,1.535-.719,2.982,2.982,0,0,0,.559-1.883,2.983,2.983,0,0,0-.566-1.895A1.816,1.816,0,0,0,37.027,8.742Zm5.391,5.5a.905.905,0,0,1,.223-.625.848.848,0,0,1,.668-.25.874.874,0,0,1,.676.25.887.887,0,0,1,.23.625.839.839,0,0,1-.23.6.89.89,0,0,1-.676.242.8.8,0,0,1-.891-.844Zm11.164-4.094a6.61,6.61,0,0,1-.867,3.773,3.6,3.6,0,0,1-5.406.027,6.274,6.274,0,0,1-.906-3.605V8.414a6.463,6.463,0,0,1,.867-3.727,3.668,3.668,0,0,1,5.422-.043,6.237,6.237,0,0,1,.891,3.629ZM52.137,8.172A5.3,5.3,0,0,0,51.621,5.5a1.775,1.775,0,0,0-1.633-.84,1.751,1.751,0,0,0-1.617.836,5.171,5.171,0,0,0-.523,2.57v2.313a5.381,5.381,0,0,0,.535,2.723A1.771,1.771,0,0,0,50,13.977a1.747,1.747,0,0,0,1.59-.828,5.186,5.186,0,0,0,.543-2.609Zm15.4,1.742H59.712V8.734H67.54ZM74.52,9.3,75.1,3.625h5.828V4.961h-4.6l-.344,3.1a3.671,3.671,0,0,1,1.9-.492A3.138,3.138,0,0,1,80.348,8.6a4.026,4.026,0,0,1,.914,2.777,3.886,3.886,0,0,1-.949,2.77,3.46,3.46,0,0,1-2.652,1.012A3.6,3.6,0,0,1,75.2,14.32a3.337,3.337,0,0,1-1.086-2.312H75.48a2.3,2.3,0,0,0,.7,1.473,2.162,2.162,0,0,0,1.484.5,1.95,1.95,0,0,0,1.582-.687,2.874,2.874,0,0,0,.574-1.9A2.638,2.638,0,0,0,79.2,9.559a2.113,2.113,0,0,0-1.652-.691,2.383,2.383,0,0,0-1.484.414l-.383.313ZM90.293,15H82.84V13.961l3.938-4.375a9.354,9.354,0,0,0,1.207-1.613,2.693,2.693,0,0,0,.332-1.285,2.041,2.041,0,0,0-.539-1.461,1.885,1.885,0,0,0-1.437-.57,2.232,2.232,0,0,0-1.676.613,2.343,2.343,0,0,0-.6,1.707H82.621a3.355,3.355,0,0,1,1.012-2.539,3.751,3.751,0,0,1,2.707-.969,3.6,3.6,0,0,1,2.508.832,2.838,2.838,0,0,1,.922,2.215q0,1.68-2.141,4l-3.047,3.3h5.711ZM92,14.242a.905.905,0,0,1,.223-.625.848.848,0,0,1,.668-.25.874.874,0,0,1,.676.25.887.887,0,0,1,.23.625.839.839,0,0,1-.23.6.89.89,0,0,1-.676.242A.8.8,0,0,1,92,14.242ZM101.574,10a3.536,3.536,0,0,1-1.082.867,2.936,2.936,0,0,1-1.379.328,3.031,3.031,0,0,1-1.715-.484A3.149,3.149,0,0,1,96.27,9.348a4.648,4.648,0,0,1-.4-1.941A4.735,4.735,0,0,1,96.3,5.352a3.185,3.185,0,0,1,1.23-1.4,3.509,3.509,0,0,1,1.859-.484,3.177,3.177,0,0,1,2.66,1.262,5.5,5.5,0,0,1,.973,3.441v.422q0,3.32-1.312,4.848a5.043,5.043,0,0,1-3.961,1.566h-.281V13.781h.3a3.979,3.979,0,0,0,2.75-.932A4,4,0,0,0,101.574,10Zm-2.227,0a2.232,2.232,0,0,0,1.34-.445,2.625,2.625,0,0,0,.895-1.1V7.875a3.977,3.977,0,0,0-.617-2.312,1.887,1.887,0,0,0-3.094-.16,3.013,3.013,0,0,0-.578,1.926,3.136,3.136,0,0,0,.559,1.918A1.769,1.769,0,0,0,99.348,10Zm9.438.7a4.968,4.968,0,0,1,.914-3.145,3.151,3.151,0,0,1,4.836-.074l.07-.937h1.32V14.8a3.439,3.439,0,0,1-.973,2.586,3.589,3.589,0,0,1-2.613.945,4.348,4.348,0,0,1-1.789-.391,3.08,3.08,0,0,1-1.336-1.07l.75-.867a2.826,2.826,0,0,0,2.273,1.148,2.214,2.214,0,0,0,1.645-.594,2.269,2.269,0,0,0,.59-1.672v-.727a2.971,2.971,0,0,1-2.367,1,2.887,2.887,0,0,1-2.4-1.2A5.224,5.224,0,0,1,108.785,10.7Zm1.453.164a3.79,3.79,0,0,0,.586,2.246,1.9,1.9,0,0,0,1.641.816,2.117,2.117,0,0,0,2.008-1.242V8.828a2.142,2.142,0,0,0-1.992-1.211,1.921,1.921,0,0,0-1.648.82A4.128,4.128,0,0,0,110.238,10.867Zm11.953-3.023a4.331,4.331,0,0,0-.711-.055A1.9,1.9,0,0,0,119.551,9v6h-1.445V6.547h1.406l.023.977a2.251,2.251,0,0,1,2.016-1.133,1.477,1.477,0,0,1,.641.109Zm.4,6.4a.905.905,0,0,1,.223-.625.848.848,0,0,1,.668-.25.874.874,0,0,1,.676.25.887.887,0,0,1,.23.625.839.839,0,0,1-.23.6.89.89,0,0,1-.676.242.8.8,0,0,1-.891-.844Z" transform="translate(372.741 2061.676)" fill="#12263f"/>
    <path id="Trazado_734005" data-name="Trazado 734005" d="M17.941,3.617V4.844h-.266a3.805,3.805,0,0,0-2.687,1A4.161,4.161,0,0,0,13.832,8.57a3.085,3.085,0,0,1,2.453-1.031,2.95,2.95,0,0,1,2.371,1.047,4.038,4.038,0,0,1,.887,2.7,4.025,4.025,0,0,1-.957,2.813,3.3,3.3,0,0,1-2.566,1.055A3.247,3.247,0,0,1,13.371,13.9a4.97,4.97,0,0,1-1.016-3.23v-.555a7.488,7.488,0,0,1,1.34-4.8,4.921,4.921,0,0,1,3.988-1.7Zm-1.9,5.125A2.429,2.429,0,0,0,13.809,10.3v.531a3.731,3.731,0,0,0,.633,2.266,1.9,1.9,0,0,0,1.578.859,1.838,1.838,0,0,0,1.535-.719,2.982,2.982,0,0,0,.559-1.883,2.983,2.983,0,0,0-.566-1.895A1.816,1.816,0,0,0,16.043,8.742ZM28.6,4.438,23.887,15H22.371l4.7-10.187H20.91V3.625H28.6Zm1.82,9.8a.905.905,0,0,1,.223-.625.848.848,0,0,1,.668-.25.874.874,0,0,1,.676.25.887.887,0,0,1,.23.625.839.839,0,0,1-.23.6.89.89,0,0,1-.676.242.8.8,0,0,1-.891-.844Zm11.164-4.094a6.61,6.61,0,0,1-.867,3.773A3.084,3.084,0,0,1,38,15.156a3.107,3.107,0,0,1-2.7-1.207,6.274,6.274,0,0,1-.906-3.605V8.414a6.463,6.463,0,0,1,.867-3.727,3.108,3.108,0,0,1,2.719-1.219,3.136,3.136,0,0,1,2.7,1.176,6.237,6.237,0,0,1,.891,3.629ZM40.137,8.172A5.3,5.3,0,0,0,39.621,5.5a1.775,1.775,0,0,0-1.633-.84,1.751,1.751,0,0,0-1.617.836,5.171,5.171,0,0,0-.523,2.57v2.313a5.381,5.381,0,0,0,.535,2.723A1.771,1.771,0,0,0,38,13.977a1.747,1.747,0,0,0,1.59-.828,5.186,5.186,0,0,0,.543-2.609Zm15.4,1.742H47.712V8.734H55.54ZM69.2,4.438,64.488,15H62.973l4.7-10.187H61.512V3.625H69.2Zm8.984,0L73.473,15H71.957l4.7-10.187H70.5V3.625h7.688Zm1.82,9.8a.905.905,0,0,1,.223-.625.848.848,0,0,1,.668-.25.874.874,0,0,1,.676.25.887.887,0,0,1,.23.625.839.839,0,0,1-.23.6.89.89,0,0,1-.676.242A.8.8,0,0,1,80,14.242ZM89.574,10a3.536,3.536,0,0,1-1.082.867,2.936,2.936,0,0,1-1.379.328,3.031,3.031,0,0,1-1.715-.484A3.149,3.149,0,0,1,84.27,9.348a4.648,4.648,0,0,1-.4-1.941A4.735,4.735,0,0,1,84.3,5.352a3.185,3.185,0,0,1,1.23-1.4,3.509,3.509,0,0,1,1.859-.484,3.177,3.177,0,0,1,2.66,1.262,5.5,5.5,0,0,1,.973,3.441v.422q0,3.32-1.312,4.848a5.043,5.043,0,0,1-3.961,1.566h-.281V13.781h.3a3.979,3.979,0,0,0,2.75-.932A4,4,0,0,0,89.574,10Zm-2.227,0a2.232,2.232,0,0,0,1.34-.445,2.625,2.625,0,0,0,.895-1.1V7.875a3.977,3.977,0,0,0-.617-2.312,1.887,1.887,0,0,0-3.094-.16,3.013,3.013,0,0,0-.578,1.926,3.136,3.136,0,0,0,.559,1.918A1.769,1.769,0,0,0,87.348,10Zm9.438.7A4.968,4.968,0,0,1,97.7,7.559a3.151,3.151,0,0,1,4.836-.074l.07-.937h1.32V14.8a3.439,3.439,0,0,1-.973,2.586,3.589,3.589,0,0,1-2.613.945,4.348,4.348,0,0,1-1.789-.391,3.08,3.08,0,0,1-1.336-1.07l.75-.867a2.826,2.826,0,0,0,2.273,1.148,2.214,2.214,0,0,0,1.645-.594,2.269,2.269,0,0,0,.59-1.672v-.727a2.971,2.971,0,0,1-2.367,1,2.887,2.887,0,0,1-2.4-1.2A5.224,5.224,0,0,1,96.785,10.7Zm1.453.164a3.79,3.79,0,0,0,.586,2.246,1.9,1.9,0,0,0,1.641.816,2.117,2.117,0,0,0,2.008-1.242V8.828a2.142,2.142,0,0,0-1.992-1.211,1.921,1.921,0,0,0-1.648.82A4.128,4.128,0,0,0,98.238,10.867Zm11.953-3.023a4.331,4.331,0,0,0-.711-.055A1.9,1.9,0,0,0,107.551,9v6h-1.445V6.547h1.406l.023.977a2.251,2.251,0,0,1,2.016-1.133,1.477,1.477,0,0,1,.641.109Zm.4,6.4a.905.905,0,0,1,.223-.625.848.848,0,0,1,.668-.25.874.874,0,0,1,.676.25.887.887,0,0,1,.23.625.839.839,0,0,1-.23.6.89.89,0,0,1-.676.242.8.8,0,0,1-.891-.844Z" transform="translate(965.229 2061.676)" fill="#12263f"/>
    <path id="Trazado_734006" data-name="Trazado 734006" d="M19.531,9.3l.578-5.672h5.828V4.961h-4.6l-.344,3.1a3.671,3.671,0,0,1,1.9-.492A3.138,3.138,0,0,1,25.359,8.6a4.026,4.026,0,0,1,.914,2.777,3.886,3.886,0,0,1-.949,2.77,3.46,3.46,0,0,1-2.652,1.012,3.6,3.6,0,0,1-2.461-.836,3.337,3.337,0,0,1-1.086-2.312h1.367a2.3,2.3,0,0,0,.7,1.473,2.162,2.162,0,0,0,1.484.5,1.95,1.95,0,0,0,1.582-.687,2.874,2.874,0,0,0,.574-1.9,2.638,2.638,0,0,0-.621-1.832,2.113,2.113,0,0,0-1.652-.691,2.383,2.383,0,0,0-1.484.414l-.383.313Zm10.422-.687h1.086a2.387,2.387,0,0,0,1.609-.539,1.8,1.8,0,0,0,.586-1.414,1.764,1.764,0,0,0-1.992-2,2.072,2.072,0,0,0-1.5.535,1.873,1.873,0,0,0-.559,1.418H27.742a2.9,2.9,0,0,1,.988-2.246,3.6,3.6,0,0,1,2.512-.895,3.558,3.558,0,0,1,2.523.852,3.076,3.076,0,0,1,.914,2.367,2.5,2.5,0,0,1-.48,1.438,2.9,2.9,0,0,1-1.309,1.039,2.8,2.8,0,0,1,1.449.984,2.734,2.734,0,0,1,.512,1.68,3.1,3.1,0,0,1-1,2.43,3.745,3.745,0,0,1-2.6.9,3.844,3.844,0,0,1-2.605-.867,2.877,2.877,0,0,1-1-2.289h1.453a1.859,1.859,0,0,0,.586,1.438,2.229,2.229,0,0,0,1.57.539,2.187,2.187,0,0,0,1.6-.547,2.108,2.108,0,0,0,.555-1.57,1.912,1.912,0,0,0-.609-1.523,2.655,2.655,0,0,0-1.758-.547H29.953Zm18.989,1.3H41.114V8.734h7.828Zm6.98-.617L56.5,3.625h5.828V4.961h-4.6l-.344,3.1a3.671,3.671,0,0,1,1.9-.492A3.138,3.138,0,0,1,61.75,8.6a4.026,4.026,0,0,1,.914,2.777,3.886,3.886,0,0,1-.949,2.77,3.46,3.46,0,0,1-2.652,1.012A3.6,3.6,0,0,1,56.6,14.32a3.337,3.337,0,0,1-1.086-2.312h1.367a2.3,2.3,0,0,0,.7,1.473,2.162,2.162,0,0,0,1.484.5,1.95,1.95,0,0,0,1.582-.687,2.874,2.874,0,0,0,.574-1.9A2.638,2.638,0,0,0,60.6,9.559a2.113,2.113,0,0,0-1.652-.691,2.383,2.383,0,0,0-1.484.414l-.383.313Zm13.859.7a3.536,3.536,0,0,1-1.082.867,2.936,2.936,0,0,1-1.379.328,3.031,3.031,0,0,1-1.715-.484,3.149,3.149,0,0,1-1.129-1.363,4.648,4.648,0,0,1-.4-1.941,4.735,4.735,0,0,1,.434-2.055,3.185,3.185,0,0,1,1.23-1.4A3.509,3.509,0,0,1,67.6,3.469a3.177,3.177,0,0,1,2.66,1.262,5.5,5.5,0,0,1,.973,3.441v.422q0,3.32-1.312,4.848a5.043,5.043,0,0,1-3.961,1.566H65.68V13.781h.3a3.979,3.979,0,0,0,2.75-.932A4,4,0,0,0,69.781,10Zm-2.227,0a2.232,2.232,0,0,0,1.34-.445,2.625,2.625,0,0,0,.895-1.1V7.875a3.977,3.977,0,0,0-.617-2.312,1.887,1.887,0,0,0-3.094-.16A3.013,3.013,0,0,0,65.5,7.328a3.136,3.136,0,0,0,.559,1.918A1.769,1.769,0,0,0,67.555,10Zm5.852,4.242a.905.905,0,0,1,.223-.625.848.848,0,0,1,.668-.25.874.874,0,0,1,.676.25.887.887,0,0,1,.23.625.839.839,0,0,1-.23.6.89.89,0,0,1-.676.242.8.8,0,0,1-.891-.844ZM82.977,10a3.536,3.536,0,0,1-1.082.867,2.936,2.936,0,0,1-1.379.328,3.031,3.031,0,0,1-1.715-.484,3.149,3.149,0,0,1-1.129-1.363,4.648,4.648,0,0,1-.4-1.941,4.735,4.735,0,0,1,.434-2.055,3.185,3.185,0,0,1,1.23-1.4A3.509,3.509,0,0,1,80.8,3.469a3.177,3.177,0,0,1,2.66,1.262,5.5,5.5,0,0,1,.973,3.441v.422q0,3.32-1.312,4.848a5.043,5.043,0,0,1-3.961,1.566h-.281V13.781h.3a3.979,3.979,0,0,0,2.75-.932A4,4,0,0,0,82.977,10ZM80.75,10a2.232,2.232,0,0,0,1.34-.445,2.625,2.625,0,0,0,.895-1.1V7.875a3.977,3.977,0,0,0-.617-2.312,1.887,1.887,0,0,0-3.094-.16A3.013,3.013,0,0,0,78.7,7.328a3.136,3.136,0,0,0,.559,1.918A1.769,1.769,0,0,0,80.75,10Zm9.438.7A4.968,4.968,0,0,1,91.1,7.559a3.151,3.151,0,0,1,4.836-.074l.07-.937h1.32V14.8a3.439,3.439,0,0,1-.973,2.586,3.589,3.589,0,0,1-2.613.945,4.348,4.348,0,0,1-1.789-.391,3.08,3.08,0,0,1-1.336-1.07l.75-.867a2.826,2.826,0,0,0,2.273,1.148,2.214,2.214,0,0,0,1.645-.594,2.269,2.269,0,0,0,.59-1.672v-.727a2.971,2.971,0,0,1-2.367,1,2.887,2.887,0,0,1-2.4-1.2A5.224,5.224,0,0,1,90.188,10.7Zm1.453.164a3.79,3.79,0,0,0,.586,2.246,1.9,1.9,0,0,0,1.641.816,2.117,2.117,0,0,0,2.008-1.242V8.828a2.142,2.142,0,0,0-1.992-1.211,1.921,1.921,0,0,0-1.648.82A4.128,4.128,0,0,0,91.641,10.867Zm11.953-3.023a4.331,4.331,0,0,0-.711-.055A1.9,1.9,0,0,0,100.953,9v6H99.508V6.547h1.406l.023.977a2.251,2.251,0,0,1,2.016-1.133,1.477,1.477,0,0,1,.641.109Zm.4,6.4a.905.905,0,0,1,.223-.625.848.848,0,0,1,.668-.25.874.874,0,0,1,.676.25.887.887,0,0,1,.23.625.839.839,0,0,1-.23.6.89.89,0,0,1-.676.242.8.8,0,0,1-.891-.844Z" transform="translate(564.956 2061.676)" fill="#12263f"/>
    <path id="Trazado_734007" data-name="Trazado 734007" d="M32.133,9.969l4.891,1.977v1.531l-6.391-2.961V9.375l6.391-2.953V7.953ZM49.211,11.18h1.578v1.18H49.211V15H47.758V12.359h-5.18v-.852l5.094-7.883h1.539Zm-4.992,0h3.539V5.6l-.172.313ZM57.766,3.617V4.844H57.5a3.805,3.805,0,0,0-2.687,1A4.161,4.161,0,0,0,53.656,8.57a3.085,3.085,0,0,1,2.453-1.031A2.95,2.95,0,0,1,58.48,8.586a4.038,4.038,0,0,1,.887,2.7A4.025,4.025,0,0,1,58.41,14.1a3.3,3.3,0,0,1-2.566,1.055A3.247,3.247,0,0,1,53.2,13.9a4.97,4.97,0,0,1-1.016-3.23v-.555a7.488,7.488,0,0,1,1.34-4.8,4.921,4.921,0,0,1,3.988-1.7Zm-1.9,5.125A2.429,2.429,0,0,0,53.633,10.3v.531a3.731,3.731,0,0,0,.633,2.266,1.9,1.9,0,0,0,1.578.859,1.838,1.838,0,0,0,1.535-.719,2.982,2.982,0,0,0,.559-1.883,2.983,2.983,0,0,0-.566-1.895A1.816,1.816,0,0,0,55.867,8.742Zm5.391,5.5a.905.905,0,0,1,.223-.625.848.848,0,0,1,.668-.25.874.874,0,0,1,.676.25.887.887,0,0,1,.23.625.839.839,0,0,1-.23.6.89.89,0,0,1-.676.242.8.8,0,0,1-.891-.844Zm11.164-4.094a6.61,6.61,0,0,1-.867,3.773,3.6,3.6,0,0,1-5.406.027,6.274,6.274,0,0,1-.906-3.605V8.414a6.463,6.463,0,0,1,.867-3.727,3.668,3.668,0,0,1,5.422-.043,6.237,6.237,0,0,1,.891,3.629ZM70.977,8.172A5.3,5.3,0,0,0,70.461,5.5a1.775,1.775,0,0,0-1.633-.84,1.751,1.751,0,0,0-1.617.836,5.171,5.171,0,0,0-.523,2.57v2.313a5.381,5.381,0,0,0,.535,2.723,1.771,1.771,0,0,0,1.621.879,1.747,1.747,0,0,0,1.59-.828,5.186,5.186,0,0,0,.543-2.609ZM78.039,10.7a4.968,4.968,0,0,1,.914-3.145,3.151,3.151,0,0,1,4.836-.074l.07-.937h1.32V14.8a3.439,3.439,0,0,1-.973,2.586,3.589,3.589,0,0,1-2.613.945,4.348,4.348,0,0,1-1.789-.391,3.08,3.08,0,0,1-1.336-1.07l.75-.867a2.826,2.826,0,0,0,2.273,1.148,2.214,2.214,0,0,0,1.645-.594,2.269,2.269,0,0,0,.59-1.672v-.727a2.971,2.971,0,0,1-2.367,1,2.887,2.887,0,0,1-2.4-1.2A5.224,5.224,0,0,1,78.039,10.7Zm1.453.164a3.79,3.79,0,0,0,.586,2.246,1.9,1.9,0,0,0,1.641.816,2.117,2.117,0,0,0,2.008-1.242V8.828a2.142,2.142,0,0,0-1.992-1.211,1.921,1.921,0,0,0-1.648.82A4.128,4.128,0,0,0,79.492,10.867ZM91.445,7.844a4.331,4.331,0,0,0-.711-.055A1.9,1.9,0,0,0,88.8,9v6H87.359V6.547h1.406l.023.977A2.251,2.251,0,0,1,90.8,6.391a1.477,1.477,0,0,1,.641.109Zm.4,6.4a.905.905,0,0,1,.223-.625.848.848,0,0,1,.668-.25.874.874,0,0,1,.676.25.887.887,0,0,1,.23.625.839.839,0,0,1-.23.6.89.89,0,0,1-.676.242.8.8,0,0,1-.891-.844Z" transform="translate(227.057 2061.676)" fill="#12263f"/>
    <path id="Trazado_725379" data-name="Trazado 725379" d="M0,0H303.693V47.574H0Z" transform="translate(227.057 2099.602)" fill="#06d1d1"/>
    <path id="Trazado_725380" data-name="Trazado 725380" d="M0,0H170.9V47.574H0Z" transform="translate(542.007 2099.602)" fill="#ffc403"/>
    <path id="Trazado_725381" data-name="Trazado 725381" d="M0,0H191.52V47.574H0Z" transform="translate(724.162 2099.602)" fill="#b20d0d"/>
    <path id="Trazado_725382" data-name="Trazado 725382" d="M0,0H434V47.574H0Z" transform="translate(926.938 2099.602)" fill="#06d1d1"/>
    <path id="Trazado_734008" data-name="Trazado 734008" d="M21.988,15V3.625h3.984a5.232,5.232,0,0,1,3.141.793,2.712,2.712,0,0,1,1.07,2.324,2.57,2.57,0,0,1-.43,1.473,2.482,2.482,0,0,1-1.2.934,2.4,2.4,0,0,1,1.379.883,2.61,2.61,0,0,1,.5,1.625,3,3,0,0,1-1.047,2.484A4.713,4.713,0,0,1,26.41,15Zm2.344-4.953v3.07H26.34a1.938,1.938,0,0,0,1.293-.395,1.353,1.353,0,0,0,.465-1.09,1.428,1.428,0,0,0-1.617-1.586Zm0-1.656h1.734q1.773-.031,1.773-1.414a1.307,1.307,0,0,0-.449-1.113,2.363,2.363,0,0,0-1.418-.34H24.332ZM36.949,15a2.507,2.507,0,0,1-.227-.758,2.732,2.732,0,0,1-2.133.914,3,3,0,0,1-2.059-.719,2.312,2.312,0,0,1-.816-1.812,2.389,2.389,0,0,1,1-2.062,4.915,4.915,0,0,1,2.879-.727h1.039V9.352a1.393,1.393,0,0,0-.3-.937,1.183,1.183,0,0,0-.949-.352,1.345,1.345,0,0,0-.895.273.929.929,0,0,0-.324.75H31.9a2.268,2.268,0,0,1,.453-1.359,3,3,0,0,1,1.281-.98A4.669,4.669,0,0,1,35.5,6.391a3.689,3.689,0,0,1,2.48.785,2.747,2.747,0,0,1,.918,2.207v3.664a4.041,4.041,0,0,0,.336,1.82V15Zm-1.867-1.57A1.945,1.945,0,0,0,36,13.207a1.462,1.462,0,0,0,.625-.6V11.156h-.844q-1.7,0-1.8,1.172l-.008.133a.9.9,0,0,0,.3.7A1.153,1.153,0,0,0,35.082,13.43Zm7.625-6.883.07.977a2.951,2.951,0,0,1,2.43-1.133,2.453,2.453,0,0,1,2,.789,3.682,3.682,0,0,1,.672,2.359V15H45.621V9.594a1.465,1.465,0,0,0-.312-1.043,1.4,1.4,0,0,0-1.039-.324,1.553,1.553,0,0,0-1.43.813V15H40.582V6.547Zm6.531,4.164a5.094,5.094,0,0,1,.887-3.148,2.877,2.877,0,0,1,2.426-1.172,2.589,2.589,0,0,1,2.039.922V3h2.266V15H54.816l-.109-.9a2.657,2.657,0,0,1-2.172,1.055,2.869,2.869,0,0,1-2.395-1.176A5.258,5.258,0,0,1,49.238,10.711Zm2.258.168A3.337,3.337,0,0,0,51.91,12.7a1.349,1.349,0,0,0,1.2.634,1.511,1.511,0,0,0,1.477-.884V9.111a1.489,1.489,0,0,0-1.461-.884Q51.5,8.227,51.5,10.879Zm11,4.277a4.15,4.15,0,0,1-3.027-1.141A4.054,4.054,0,0,1,58.3,10.977v-.219a5.106,5.106,0,0,1,.492-2.277,3.612,3.612,0,0,1,1.395-1.547,3.914,3.914,0,0,1,2.059-.543,3.508,3.508,0,0,1,2.73,1.094,4.444,4.444,0,0,1,1,3.1v.922H60.59a2.1,2.1,0,0,0,.66,1.328,2,2,0,0,0,1.395.5,2.437,2.437,0,0,0,2.039-.945l1.109,1.242a3.389,3.389,0,0,1-1.375,1.121A4.511,4.511,0,0,1,62.5,15.156Zm-.258-6.945a1.411,1.411,0,0,0-1.09.455,2.357,2.357,0,0,0-.535,1.3h3.141V9.788a1.681,1.681,0,0,0-.406-1.165A1.456,1.456,0,0,0,62.238,8.211Zm7.406-1.664v8.914a3.024,3.024,0,0,1-.742,2.176,2.821,2.821,0,0,1-2.141.777,4.591,4.591,0,0,1-1.117-.133V16.492a4.238,4.238,0,0,0,.711.07q1.023,0,1.023-1.086V6.547ZM67.2,4.359a1.112,1.112,0,0,1,.34-.836,1.47,1.47,0,0,1,1.852,0,1.112,1.112,0,0,1,.34.836,1.108,1.108,0,0,1-.348.844,1.448,1.448,0,0,1-1.836,0A1.108,1.108,0,0,1,67.2,4.359ZM76.309,15a2.507,2.507,0,0,1-.227-.758,2.732,2.732,0,0,1-2.133.914,3,3,0,0,1-2.059-.719,2.312,2.312,0,0,1-.816-1.812,2.389,2.389,0,0,1,1-2.062,4.915,4.915,0,0,1,2.879-.727h1.039V9.352a1.393,1.393,0,0,0-.3-.937,1.183,1.183,0,0,0-.949-.352,1.345,1.345,0,0,0-.895.273.929.929,0,0,0-.324.75H71.262a2.268,2.268,0,0,1,.453-1.359A3,3,0,0,1,73,6.746a4.669,4.669,0,0,1,1.859-.355,3.689,3.689,0,0,1,2.48.785,2.747,2.747,0,0,1,.918,2.207v3.664a4.041,4.041,0,0,0,.336,1.82V15Zm-1.867-1.57a1.945,1.945,0,0,0,.922-.223,1.462,1.462,0,0,0,.625-.6V11.156h-.844q-1.7,0-1.8,1.172l-.008.133a.9.9,0,0,0,.3.7A1.153,1.153,0,0,0,74.441,13.43ZM92.215,5.523H88.73V15H86.387V5.523H82.949v-1.9h9.266ZM95.785,15H93.52V6.547h2.266Zm-2.4-10.641a1.112,1.112,0,0,1,.34-.836,1.465,1.465,0,0,1,1.848,0,1.105,1.105,0,0,1,.344.836,1.108,1.108,0,0,1-.348.844,1.448,1.448,0,0,1-1.836,0A1.108,1.108,0,0,1,93.387,4.359Zm11.867,6.492a5.07,5.07,0,0,1-.887,3.129,2.843,2.843,0,0,1-2.395,1.176,2.633,2.633,0,0,1-2.07-.891V18.25H97.645V6.547h2.094l.078.828a2.654,2.654,0,0,1,2.141-.984,2.862,2.862,0,0,1,2.43,1.156,5.207,5.207,0,0,1,.867,3.188ZM103,10.688a3.327,3.327,0,0,0-.418-1.82,1.361,1.361,0,0,0-1.215-.641,1.478,1.478,0,0,0-1.461.813V12.5a1.5,1.5,0,0,0,1.477.836Q103,13.336,103,10.688Zm3.3.008a5.013,5.013,0,0,1,.484-2.242A3.546,3.546,0,0,1,108.18,6.93a4.069,4.069,0,0,1,2.113-.539,3.849,3.849,0,0,1,2.793,1.047,4.2,4.2,0,0,1,1.207,2.844l.016.578a4.418,4.418,0,0,1-1.086,3.121,4.209,4.209,0,0,1-5.832,0A4.5,4.5,0,0,1,106.3,10.8Zm2.258.16a3.16,3.16,0,0,0,.453,1.843,1.628,1.628,0,0,0,2.578.008,3.457,3.457,0,0,0,.461-2.015,3.128,3.128,0,0,0-.461-1.831,1.5,1.5,0,0,0-1.3-.649,1.474,1.474,0,0,0-1.281.646A3.516,3.516,0,0,0,108.559,10.856ZM119.832,15V3.625h3.984a5.232,5.232,0,0,1,3.141.793,2.712,2.712,0,0,1,1.07,2.324,2.57,2.57,0,0,1-.43,1.473,2.482,2.482,0,0,1-1.2.934,2.4,2.4,0,0,1,1.379.883,2.61,2.61,0,0,1,.5,1.625,3,3,0,0,1-1.047,2.484,4.713,4.713,0,0,1-2.984.859Zm2.344-4.953v3.07h2.008a1.938,1.938,0,0,0,1.293-.395,1.353,1.353,0,0,0,.465-1.09,1.428,1.428,0,0,0-1.617-1.586Zm0-1.656h1.734q1.773-.031,1.773-1.414a1.307,1.307,0,0,0-.449-1.113,2.363,2.363,0,0,0-1.418-.34h-1.641Z" transform="translate(297.741 2113.889)"/>
    <path id="Trazado_734009" data-name="Trazado 734009" d="M21.711,15V3.625H25.7a5.232,5.232,0,0,1,3.141.793,2.712,2.712,0,0,1,1.07,2.324,2.57,2.57,0,0,1-.43,1.473,2.482,2.482,0,0,1-1.2.934,2.4,2.4,0,0,1,1.379.883,2.61,2.61,0,0,1,.5,1.625,3,3,0,0,1-1.047,2.484A4.713,4.713,0,0,1,26.133,15Zm2.344-4.953v3.07h2.008a1.938,1.938,0,0,0,1.293-.395,1.353,1.353,0,0,0,.465-1.09A1.428,1.428,0,0,0,26.2,10.047Zm0-1.656h1.734q1.773-.031,1.773-1.414a1.307,1.307,0,0,0-.449-1.113,2.363,2.363,0,0,0-1.418-.34H24.055ZM36.672,15a2.507,2.507,0,0,1-.227-.758,2.732,2.732,0,0,1-2.133.914,3,3,0,0,1-2.059-.719,2.312,2.312,0,0,1-.816-1.812,2.389,2.389,0,0,1,1-2.062,4.915,4.915,0,0,1,2.879-.727h1.039V9.352a1.393,1.393,0,0,0-.3-.937,1.183,1.183,0,0,0-.949-.352,1.345,1.345,0,0,0-.895.273.929.929,0,0,0-.324.75H31.625a2.268,2.268,0,0,1,.453-1.359,3,3,0,0,1,1.281-.98,4.669,4.669,0,0,1,1.859-.355,3.689,3.689,0,0,1,2.48.785,2.747,2.747,0,0,1,.918,2.207v3.664a4.041,4.041,0,0,0,.336,1.82V15ZM34.8,13.43a1.945,1.945,0,0,0,.922-.223,1.462,1.462,0,0,0,.625-.6V11.156h-.844q-1.7,0-1.8,1.172l-.008.133a.9.9,0,0,0,.3.7A1.153,1.153,0,0,0,34.8,13.43ZM42.43,6.547l.07.977a2.951,2.951,0,0,1,2.43-1.133,2.453,2.453,0,0,1,2,.789A3.682,3.682,0,0,1,47.6,9.539V15H45.344V9.594a1.465,1.465,0,0,0-.312-1.043,1.4,1.4,0,0,0-1.039-.324,1.553,1.553,0,0,0-1.43.813V15H40.3V6.547Zm6.531,4.164a5.094,5.094,0,0,1,.887-3.148,2.877,2.877,0,0,1,2.426-1.172,2.589,2.589,0,0,1,2.039.922V3h2.266V15H54.539l-.109-.9a2.657,2.657,0,0,1-2.172,1.055,2.869,2.869,0,0,1-2.395-1.176A5.258,5.258,0,0,1,48.961,10.711Zm2.258.168a3.337,3.337,0,0,0,.414,1.823,1.349,1.349,0,0,0,1.2.634,1.511,1.511,0,0,0,1.477-.884V9.111a1.489,1.489,0,0,0-1.461-.884Q51.219,8.227,51.219,10.879Zm11,4.277a4.15,4.15,0,0,1-3.027-1.141,4.054,4.054,0,0,1-1.168-3.039v-.219a5.106,5.106,0,0,1,.492-2.277A3.612,3.612,0,0,1,59.91,6.934a3.914,3.914,0,0,1,2.059-.543A3.508,3.508,0,0,1,64.7,7.484a4.444,4.444,0,0,1,1,3.1v.922H60.313a2.1,2.1,0,0,0,.66,1.328,2,2,0,0,0,1.395.5,2.437,2.437,0,0,0,2.039-.945l1.109,1.242a3.389,3.389,0,0,1-1.375,1.121A4.511,4.511,0,0,1,62.219,15.156Zm-.258-6.945a1.411,1.411,0,0,0-1.09.455,2.357,2.357,0,0,0-.535,1.3h3.141V9.788a1.681,1.681,0,0,0-.406-1.165A1.456,1.456,0,0,0,61.961,8.211Zm7.406-1.664v8.914a3.024,3.024,0,0,1-.742,2.176,2.821,2.821,0,0,1-2.141.777,4.591,4.591,0,0,1-1.117-.133V16.492a4.238,4.238,0,0,0,.711.07q1.023,0,1.023-1.086V6.547ZM66.922,4.359a1.112,1.112,0,0,1,.34-.836,1.47,1.47,0,0,1,1.852,0,1.112,1.112,0,0,1,.34.836,1.108,1.108,0,0,1-.348.844,1.448,1.448,0,0,1-1.836,0A1.108,1.108,0,0,1,66.922,4.359ZM76.031,15a2.507,2.507,0,0,1-.227-.758,2.732,2.732,0,0,1-2.133.914,3,3,0,0,1-2.059-.719,2.312,2.312,0,0,1-.816-1.812,2.389,2.389,0,0,1,1-2.062,4.915,4.915,0,0,1,2.879-.727h1.039V9.352a1.393,1.393,0,0,0-.3-.937,1.183,1.183,0,0,0-.949-.352,1.345,1.345,0,0,0-.895.273.929.929,0,0,0-.324.75H70.984a2.268,2.268,0,0,1,.453-1.359,3,3,0,0,1,1.281-.98,4.669,4.669,0,0,1,1.859-.355,3.689,3.689,0,0,1,2.48.785,2.747,2.747,0,0,1,.918,2.207v3.664a4.041,4.041,0,0,0,.336,1.82V15Zm-1.867-1.57a1.945,1.945,0,0,0,.922-.223,1.462,1.462,0,0,0,.625-.6V11.156h-.844q-1.7,0-1.8,1.172l-.008.133a.9.9,0,0,0,.3.7A1.153,1.153,0,0,0,74.164,13.43ZM91.938,5.523H88.453V15H86.109V5.523H82.672v-1.9h9.266ZM95.508,15H93.242V6.547h2.266Zm-2.4-10.641a1.112,1.112,0,0,1,.34-.836,1.465,1.465,0,0,1,1.848,0,1.105,1.105,0,0,1,.344.836,1.108,1.108,0,0,1-.348.844,1.448,1.448,0,0,1-1.836,0A1.108,1.108,0,0,1,93.109,4.359Zm11.867,6.492a5.07,5.07,0,0,1-.887,3.129,2.843,2.843,0,0,1-2.395,1.176,2.633,2.633,0,0,1-2.07-.891V18.25H97.367V6.547h2.094l.078.828a2.654,2.654,0,0,1,2.141-.984,2.862,2.862,0,0,1,2.43,1.156,5.207,5.207,0,0,1,.867,3.188Zm-2.258-.164a3.327,3.327,0,0,0-.418-1.82,1.361,1.361,0,0,0-1.215-.641,1.478,1.478,0,0,0-1.461.813V12.5a1.5,1.5,0,0,0,1.477.836Q102.719,13.336,102.719,10.688Zm3.3.008a5.013,5.013,0,0,1,.484-2.242A3.546,3.546,0,0,1,107.9,6.93a4.069,4.069,0,0,1,2.113-.539,3.849,3.849,0,0,1,2.793,1.047,4.2,4.2,0,0,1,1.207,2.844l.016.578a4.418,4.418,0,0,1-1.086,3.121,4.209,4.209,0,0,1-5.832,0,4.5,4.5,0,0,1-1.09-3.187Zm2.258.16a3.16,3.16,0,0,0,.453,1.843,1.628,1.628,0,0,0,2.578.008,3.457,3.457,0,0,0,.461-2.015,3.128,3.128,0,0,0-.461-1.831,1.5,1.5,0,0,0-1.3-.649,1.474,1.474,0,0,0-1.281.646A3.516,3.516,0,0,0,108.281,10.856Zm17.7,1.8h-4.109L121.086,15h-2.492l4.234-11.375H125L129.258,15h-2.492Zm-3.477-1.9h2.844L123.914,6.5Z" transform="translate(552.456 2113.889)"/>
    <path id="Trazado_734010" data-name="Trazado 734010" d="M16.328,15V3.625h3.984a5.232,5.232,0,0,1,3.141.793,2.712,2.712,0,0,1,1.07,2.324,2.57,2.57,0,0,1-.43,1.473,2.482,2.482,0,0,1-1.2.934,2.4,2.4,0,0,1,1.379.883,2.61,2.61,0,0,1,.5,1.625,3,3,0,0,1-1.047,2.484A4.713,4.713,0,0,1,20.75,15Zm2.344-4.953v3.07H20.68a1.938,1.938,0,0,0,1.293-.395,1.353,1.353,0,0,0,.465-1.09,1.428,1.428,0,0,0-1.617-1.586Zm0-1.656h1.734q1.773-.031,1.773-1.414a1.307,1.307,0,0,0-.449-1.113,2.363,2.363,0,0,0-1.418-.34H18.672ZM31.289,15a2.507,2.507,0,0,1-.227-.758,2.732,2.732,0,0,1-2.133.914,3,3,0,0,1-2.059-.719,2.312,2.312,0,0,1-.816-1.812,2.389,2.389,0,0,1,1-2.062,4.915,4.915,0,0,1,2.879-.727h1.039V9.352a1.393,1.393,0,0,0-.3-.937,1.183,1.183,0,0,0-.949-.352,1.345,1.345,0,0,0-.895.273.929.929,0,0,0-.324.75H26.242A2.268,2.268,0,0,1,26.7,7.727a3,3,0,0,1,1.281-.98,4.669,4.669,0,0,1,1.859-.355,3.689,3.689,0,0,1,2.48.785,2.747,2.747,0,0,1,.918,2.207v3.664a4.041,4.041,0,0,0,.336,1.82V15Zm-1.867-1.57a1.945,1.945,0,0,0,.922-.223,1.462,1.462,0,0,0,.625-.6V11.156h-.844q-1.7,0-1.8,1.172l-.008.133a.9.9,0,0,0,.3.7A1.153,1.153,0,0,0,29.422,13.43Zm7.625-6.883.07.977a2.951,2.951,0,0,1,2.43-1.133,2.453,2.453,0,0,1,2,.789,3.682,3.682,0,0,1,.672,2.359V15H39.961V9.594a1.465,1.465,0,0,0-.312-1.043,1.4,1.4,0,0,0-1.039-.324,1.553,1.553,0,0,0-1.43.813V15H34.922V6.547Zm6.531,4.164a5.094,5.094,0,0,1,.887-3.148,2.877,2.877,0,0,1,2.426-1.172,2.589,2.589,0,0,1,2.039.922V3H51.2V15H49.156l-.109-.9a2.657,2.657,0,0,1-2.172,1.055A2.869,2.869,0,0,1,44.48,13.98,5.258,5.258,0,0,1,43.578,10.711Zm2.258.168A3.337,3.337,0,0,0,46.25,12.7a1.349,1.349,0,0,0,1.2.634,1.511,1.511,0,0,0,1.477-.884V9.111a1.489,1.489,0,0,0-1.461-.884Q45.836,8.227,45.836,10.879Zm11,4.277a4.15,4.15,0,0,1-3.027-1.141,4.054,4.054,0,0,1-1.168-3.039v-.219a5.106,5.106,0,0,1,.492-2.277,3.612,3.612,0,0,1,1.395-1.547,3.914,3.914,0,0,1,2.059-.543,3.508,3.508,0,0,1,2.73,1.094,4.444,4.444,0,0,1,1,3.1v.922H54.93a2.1,2.1,0,0,0,.66,1.328,2,2,0,0,0,1.395.5,2.437,2.437,0,0,0,2.039-.945l1.109,1.242a3.389,3.389,0,0,1-1.375,1.121A4.511,4.511,0,0,1,56.836,15.156Zm-.258-6.945a1.411,1.411,0,0,0-1.09.455,2.357,2.357,0,0,0-.535,1.3h3.141V9.788a1.681,1.681,0,0,0-.406-1.165A1.456,1.456,0,0,0,56.578,8.211Zm7.406-1.664v8.914a3.024,3.024,0,0,1-.742,2.176,2.821,2.821,0,0,1-2.141.777,4.591,4.591,0,0,1-1.117-.133V16.492a4.238,4.238,0,0,0,.711.07q1.023,0,1.023-1.086V6.547ZM61.539,4.359a1.112,1.112,0,0,1,.34-.836,1.47,1.47,0,0,1,1.852,0,1.112,1.112,0,0,1,.34.836,1.108,1.108,0,0,1-.348.844,1.448,1.448,0,0,1-1.836,0A1.108,1.108,0,0,1,61.539,4.359ZM70.648,15a2.507,2.507,0,0,1-.227-.758,2.732,2.732,0,0,1-2.133.914,3,3,0,0,1-2.059-.719,2.312,2.312,0,0,1-.816-1.812,2.389,2.389,0,0,1,1-2.062,4.915,4.915,0,0,1,2.879-.727h1.039V9.352a1.393,1.393,0,0,0-.3-.937,1.183,1.183,0,0,0-.949-.352,1.345,1.345,0,0,0-.895.273.929.929,0,0,0-.324.75H65.6a2.268,2.268,0,0,1,.453-1.359,3,3,0,0,1,1.281-.98A4.669,4.669,0,0,1,69.2,6.391a3.689,3.689,0,0,1,2.48.785,2.747,2.747,0,0,1,.918,2.207v3.664a4.041,4.041,0,0,0,.336,1.82V15Zm-1.867-1.57a1.945,1.945,0,0,0,.922-.223,1.462,1.462,0,0,0,.625-.6V11.156h-.844q-1.7,0-1.8,1.172l-.008.133a.9.9,0,0,0,.3.7A1.153,1.153,0,0,0,68.781,13.43ZM86.555,5.523H83.07V15H80.727V5.523H77.289v-1.9h9.266ZM90.125,15H87.859V6.547h2.266Zm-2.4-10.641a1.112,1.112,0,0,1,.34-.836,1.465,1.465,0,0,1,1.848,0,1.105,1.105,0,0,1,.344.836,1.108,1.108,0,0,1-.348.844,1.448,1.448,0,0,1-1.836,0A1.108,1.108,0,0,1,87.727,4.359Zm11.867,6.492a5.07,5.07,0,0,1-.887,3.129,2.843,2.843,0,0,1-2.395,1.176,2.633,2.633,0,0,1-2.07-.891V18.25H91.984V6.547h2.094l.078.828A2.654,2.654,0,0,1,96.3,6.391a2.862,2.862,0,0,1,2.43,1.156,5.207,5.207,0,0,1,.867,3.188Zm-2.258-.164a3.327,3.327,0,0,0-.418-1.82A1.361,1.361,0,0,0,95.7,8.227a1.478,1.478,0,0,0-1.461.813V12.5a1.5,1.5,0,0,0,1.477.836Q97.336,13.336,97.336,10.688Zm3.3.008a5.013,5.013,0,0,1,.484-2.242A3.546,3.546,0,0,1,102.52,6.93a4.069,4.069,0,0,1,2.113-.539,3.849,3.849,0,0,1,2.793,1.047,4.2,4.2,0,0,1,1.207,2.844l.016.578a4.418,4.418,0,0,1-1.086,3.121,4.209,4.209,0,0,1-5.832,0,4.5,4.5,0,0,1-1.09-3.187Zm2.258.16a3.16,3.16,0,0,0,.453,1.843,1.628,1.628,0,0,0,2.578.008,3.457,3.457,0,0,0,.461-2.015,3.128,3.128,0,0,0-.461-1.831,1.5,1.5,0,0,0-1.3-.649,1.474,1.474,0,0,0-1.281.646A3.516,3.516,0,0,0,102.9,10.856Zm17.7,1.8h-4.109L115.7,15h-2.492l4.234-11.375h2.172L123.875,15h-2.492Zm-3.477-1.9h2.844L118.531,6.5Zm14.242,1.9H127.25L126.469,15h-2.492l4.234-11.375h2.172L134.641,15h-2.492Zm-3.477-1.9h2.844L129.3,6.5Z" transform="translate(745.422 2113.889)" fill="#fff"/>
    <path id="Trazado_734011" data-name="Trazado 734011" d="M10.945,15V3.625H14.93a5.232,5.232,0,0,1,3.141.793,2.712,2.712,0,0,1,1.07,2.324,2.57,2.57,0,0,1-.43,1.473,2.482,2.482,0,0,1-1.2.934,2.4,2.4,0,0,1,1.379.883,2.61,2.61,0,0,1,.5,1.625,3,3,0,0,1-1.047,2.484A4.713,4.713,0,0,1,15.367,15Zm2.344-4.953v3.07H15.3a1.938,1.938,0,0,0,1.293-.395,1.353,1.353,0,0,0,.465-1.09,1.428,1.428,0,0,0-1.617-1.586Zm0-1.656h1.734Q16.8,8.359,16.8,6.977a1.307,1.307,0,0,0-.449-1.113,2.363,2.363,0,0,0-1.418-.34H13.289ZM25.906,15a2.507,2.507,0,0,1-.227-.758,2.732,2.732,0,0,1-2.133.914,3,3,0,0,1-2.059-.719,2.312,2.312,0,0,1-.816-1.812,2.389,2.389,0,0,1,1-2.062,4.915,4.915,0,0,1,2.879-.727h1.039V9.352a1.393,1.393,0,0,0-.3-.937,1.183,1.183,0,0,0-.949-.352,1.345,1.345,0,0,0-.895.273.929.929,0,0,0-.324.75H20.859a2.268,2.268,0,0,1,.453-1.359,3,3,0,0,1,1.281-.98,4.669,4.669,0,0,1,1.859-.355,3.689,3.689,0,0,1,2.48.785,2.747,2.747,0,0,1,.918,2.207v3.664a4.041,4.041,0,0,0,.336,1.82V15Zm-1.867-1.57a1.945,1.945,0,0,0,.922-.223,1.462,1.462,0,0,0,.625-.6V11.156h-.844q-1.7,0-1.8,1.172l-.008.133a.9.9,0,0,0,.3.7A1.153,1.153,0,0,0,24.039,13.43Zm7.625-6.883.07.977a2.951,2.951,0,0,1,2.43-1.133,2.453,2.453,0,0,1,2,.789,3.682,3.682,0,0,1,.672,2.359V15H34.578V9.594a1.465,1.465,0,0,0-.312-1.043,1.4,1.4,0,0,0-1.039-.324,1.553,1.553,0,0,0-1.43.813V15H29.539V6.547ZM38.2,10.711a5.094,5.094,0,0,1,.887-3.148,2.877,2.877,0,0,1,2.426-1.172,2.589,2.589,0,0,1,2.039.922V3h2.266V15H43.773l-.109-.9a2.657,2.657,0,0,1-2.172,1.055A2.869,2.869,0,0,1,39.1,13.98,5.258,5.258,0,0,1,38.2,10.711Zm2.258.168a3.337,3.337,0,0,0,.414,1.823,1.349,1.349,0,0,0,1.2.634,1.511,1.511,0,0,0,1.477-.884V9.111a1.489,1.489,0,0,0-1.461-.884Q40.453,8.227,40.453,10.879Zm11,4.277a4.15,4.15,0,0,1-3.027-1.141,4.054,4.054,0,0,1-1.168-3.039v-.219A5.106,5.106,0,0,1,47.75,8.48a3.612,3.612,0,0,1,1.395-1.547A3.914,3.914,0,0,1,51.2,6.391a3.508,3.508,0,0,1,2.73,1.094,4.444,4.444,0,0,1,1,3.1v.922H49.547a2.1,2.1,0,0,0,.66,1.328,2,2,0,0,0,1.395.5,2.437,2.437,0,0,0,2.039-.945l1.109,1.242a3.389,3.389,0,0,1-1.375,1.121A4.511,4.511,0,0,1,51.453,15.156ZM51.2,8.211a1.411,1.411,0,0,0-1.09.455,2.357,2.357,0,0,0-.535,1.3h3.141V9.788A1.681,1.681,0,0,0,52.3,8.623,1.456,1.456,0,0,0,51.2,8.211ZM58.6,6.547v8.914a3.024,3.024,0,0,1-.742,2.176,2.821,2.821,0,0,1-2.141.777,4.591,4.591,0,0,1-1.117-.133V16.492a4.238,4.238,0,0,0,.711.07q1.023,0,1.023-1.086V6.547ZM56.156,4.359a1.112,1.112,0,0,1,.34-.836,1.47,1.47,0,0,1,1.852,0,1.112,1.112,0,0,1,.34.836,1.108,1.108,0,0,1-.348.844,1.448,1.448,0,0,1-1.836,0A1.108,1.108,0,0,1,56.156,4.359ZM65.266,15a2.507,2.507,0,0,1-.227-.758,2.732,2.732,0,0,1-2.133.914,3,3,0,0,1-2.059-.719,2.312,2.312,0,0,1-.816-1.812,2.389,2.389,0,0,1,1-2.062,4.915,4.915,0,0,1,2.879-.727h1.039V9.352a1.393,1.393,0,0,0-.3-.937,1.183,1.183,0,0,0-.949-.352,1.345,1.345,0,0,0-.895.273.929.929,0,0,0-.324.75H60.219a2.268,2.268,0,0,1,.453-1.359,3,3,0,0,1,1.281-.98,4.669,4.669,0,0,1,1.859-.355,3.689,3.689,0,0,1,2.48.785,2.747,2.747,0,0,1,.918,2.207v3.664a4.041,4.041,0,0,0,.336,1.82V15ZM63.4,13.43a1.945,1.945,0,0,0,.922-.223,1.462,1.462,0,0,0,.625-.6V11.156H64.1q-1.7,0-1.8,1.172l-.008.133a.9.9,0,0,0,.3.7A1.153,1.153,0,0,0,63.4,13.43ZM81.172,5.523H77.688V15H75.344V5.523H71.906v-1.9h9.266ZM84.742,15H82.477V6.547h2.266Zm-2.4-10.641a1.112,1.112,0,0,1,.34-.836,1.465,1.465,0,0,1,1.848,0,1.105,1.105,0,0,1,.344.836,1.108,1.108,0,0,1-.348.844,1.448,1.448,0,0,1-1.836,0A1.108,1.108,0,0,1,82.344,4.359Zm11.867,6.492a5.07,5.07,0,0,1-.887,3.129,2.843,2.843,0,0,1-2.395,1.176,2.633,2.633,0,0,1-2.07-.891V18.25H86.6V6.547H88.7l.078.828a2.654,2.654,0,0,1,2.141-.984,2.862,2.862,0,0,1,2.43,1.156,5.207,5.207,0,0,1,.867,3.188Zm-2.258-.164a3.327,3.327,0,0,0-.418-1.82,1.361,1.361,0,0,0-1.215-.641,1.478,1.478,0,0,0-1.461.813V12.5a1.5,1.5,0,0,0,1.477.836Q91.953,13.336,91.953,10.688Zm3.3.008a5.013,5.013,0,0,1,.484-2.242A3.546,3.546,0,0,1,97.137,6.93a4.069,4.069,0,0,1,2.113-.539,3.849,3.849,0,0,1,2.793,1.047,4.2,4.2,0,0,1,1.207,2.844l.016.578a4.418,4.418,0,0,1-1.086,3.121,4.209,4.209,0,0,1-5.832,0,4.5,4.5,0,0,1-1.09-3.187Zm2.258.16a3.16,3.16,0,0,0,.453,1.843,1.628,1.628,0,0,0,2.578.008,3.457,3.457,0,0,0,.461-2.015,3.128,3.128,0,0,0-.461-1.831,1.5,1.5,0,0,0-1.3-.649,1.474,1.474,0,0,0-1.281.646A3.516,3.516,0,0,0,97.516,10.856Zm17.7,1.8H111.1L110.32,15h-2.492l4.234-11.375h2.172L118.492,15H116Zm-3.477-1.9h2.844L113.148,6.5Zm14.242,1.9h-4.109L121.086,15h-2.492l4.234-11.375H125L129.258,15h-2.492Zm-3.477-1.9h2.844L123.914,6.5Zm14.242,1.9h-4.109L131.852,15h-2.492l4.234-11.375h2.172L140.023,15h-2.492Zm-3.477-1.9h2.844L134.68,6.5Z" transform="translate(1058.361 2113.889)"/>
  </g>
</svg>
