<svg xmlns="http://www.w3.org/2000/svg" xmlns:xlink="http://www.w3.org/1999/xlink" width="118" height="118" viewBox="0 0 118 118">
  <defs>
    <clipPath id="clip-path">
      <rect id="Rectángulo_349803" data-name="Rectángulo 349803" width="95.414" height="56.602" fill="none"/>
    </clipPath>
  </defs>
  <g id="Grupo_998187" data-name="Grupo 998187" transform="translate(-1096 -2490.867)">
    <circle id="Elipse_5896" data-name="Elipse 5896" cx="59" cy="59" r="59" transform="translate(1096 2490.867)" fill="#06d1d1"/>
    <g id="Grupo_997437" data-name="Grupo 997437" transform="translate(1106.386 2524.626)">
      <g id="Grupo_997436" data-name="Grupo 997436" clip-path="url(#clip-path)">
        <path id="Trazado_733390" data-name="Trazado 733390" d="M47.679,56.585c-6.4,0-12.79.012-19.185,0A28.34,28.34,0,0,1,.02,28.26C0,24.539.051,20.818,0,17.1c-.022-1.587.632-2.278,2.221-2.217,1.174.045,2.541.326,3.479-.16,1.022-.53.66-2.118,1.037-3.211A19.123,19.123,0,0,1,12.46,2.746C16.916-.963,22.128-.916,26.5,2.9a18.584,18.584,0,0,1,5.98,10.466c.139.653-.054,1.584,1.138,1.535,1.069-.043.871-.892.993-1.483A18.7,18.7,0,0,1,40.28,3.177c4.582-4.237,10.3-4.222,14.877.021a18.914,18.914,0,0,1,5.624,10.065c.14.634-.138,1.6,1.048,1.631s.966-.929,1.1-1.57A18.692,18.692,0,0,1,68.659,3.116c4.567-4.16,10.186-4.148,14.738.021a17.91,17.91,0,0,1,5.658,10.228c.228,1.26.719,1.585,1.934,1.553,4.733-.124,4.479-.216,4.392,4.446-.094,5.009.4,10.036-.682,15.015A28.338,28.338,0,0,1,67.609,56.564c-6.643.077-13.286.013-19.93.013ZM19.285,14.893c3.038,0,6.077-.03,9.114.018.973.015,1.346-.206,1.083-1.245-.993-3.916-2.865-7.254-6.325-9.5a6.523,6.523,0,0,0-7.68.09A15.213,15.213,0,0,0,9.3,13.65c-.253,1,.046,1.282,1.058,1.263,2.975-.055,5.952-.02,8.928-.02m28.4,0c2.976,0,5.952-.039,8.927.021,1.054.021,1.46-.212,1.169-1.332a15.378,15.378,0,0,0-5.915-9.155,6.711,6.711,0,0,0-8.452.085,15.458,15.458,0,0,0-5.784,9.036c-.272,1.049,0,1.4,1.127,1.369,2.974-.071,5.951-.024,8.927-.024m28.22,0c3.038,0,6.076-.029,9.114.017.964.015,1.354-.191,1.088-1.241-.992-3.917-2.864-7.255-6.322-9.5a6.524,6.524,0,0,0-7.68.086,15.205,15.205,0,0,0-6.18,9.39c-.251.994.03,1.287,1.052,1.268,2.975-.057,5.952-.02,8.928-.02M11.415,47.048c2.259,1.847,4.12,3.591,7.2,3.616A37.477,37.477,0,0,0,56.074,19.847c.391-2.03.295-2.035-1.744-2.005-1.466.022-1.12,1.123-1.259,1.815-3.691,18.365-19.628,29.886-38.3,27.685a8.691,8.691,0,0,0-3.356-.3m-6.19-8.885c.839,1.825,1.184,3.809,3.412,4.631a31.3,31.3,0,0,0,41.4-23.057c.344-1.711-.081-1.934-1.619-1.906-1.507.028-1.26,1.106-1.437,1.9A28.277,28.277,0,0,1,15.636,41.436,37.478,37.478,0,0,1,5.225,38.162m39.082-20.09c-2.844-.437-2.844-.437-3.609,1.993A22.361,22.361,0,0,1,4.346,29.939c-.348-.313-.583-.822-1.365-.849.362,1.6-.326,3.433,1.293,4.583,7.524,5.345,15.7,6.621,24.325,3.263s13.7-9.866,15.709-18.864M25.976,53.09q0,.256.005.512c2.022,0,4.053-.122,6.063.031a12.043,12.043,0,0,0,6.743-1.621q19.62-10.46,23.327-32.349c.1-.593.8-1.728-.709-1.776-1.08-.034-1.965-.25-2.269,1.491-2.618,14.951-11.024,25.4-24.983,31.374a41.612,41.612,0,0,1-8.177,2.337M3.257,17.883c-1.09,4.37.3,7.6,3.634,10.36A19.476,19.476,0,0,0,37.639,19.9c.726-2.054.594-2.138-1.581-2.058-1.21.044-1.138.932-1.411,1.6a16.414,16.414,0,0,1-30.467.083c-.223-.541-.227-1.21-.921-1.647M42.851,53.451c1.91-.166,3.908.832,5.625-.45a48.3,48.3,0,0,0,19.672-33.43c.087-.636.636-1.735-.855-1.7-1.015.027-1.941-.277-2.147,1.416A45.091,45.091,0,0,1,56.018,41.5,51.981,51.981,0,0,1,42.851,53.451M31.764,18.027A3.372,3.372,0,0,0,27.64,19.62a10.259,10.259,0,0,1-16.686-.137,10.633,10.633,0,0,0-.706-1.087c-.9-.977-2.154-.663-3.071-.331-.557.2.168,1.189.471,1.728A13.318,13.318,0,0,0,17.669,26.7c6.029.933,12.775-3.239,14.1-8.675M91.31,34.716c-8.674,1.9-14.2,1.207-21.762-2.64-.386-.2-.748-.748-1.3-.235a1.873,1.873,0,0,0,.418,3.117,30.986,30.986,0,0,0,19.448,3.4c2.583-.38,2.9-.672,3.2-3.643m.978-6.686a22.711,22.711,0,0,1-22.023-2.5c-1.225,3.6-1.075,2.927,1.546,4.322a24.463,24.463,0,0,0,17.828,2.141c2.856-.7,2.866-.717,2.649-3.96M88.512,41.391a6.458,6.458,0,0,0-.778,0,33.127,33.127,0,0,1-20.485-3.844c-1.025-.55-1.41-.412-1.948.569-.572,1.043-.524,1.544.606,2.131a40.571,40.571,0,0,0,17.878,4.456c2.577.074,3.871-1.046,4.729-3.317M92.286,21.4c-7.689,4.009-14.6,3.039-20.894-2.687-.676,3.651-.7,3.689,2.293,5.4a18.789,18.789,0,0,0,15.95,1.643c2.952-.993,2.95-1,2.651-4.352M83.12,47.685a40.175,40.175,0,0,1-19-5.065c-1.634-.93-1.718.484-2.272,1.153-.908,1.1.365,1.208.858,1.482a47.975,47.975,0,0,0,13.753,4.826c2.739.566,4.6-.395,6.656-2.4m-9.567,5.006c-2.379-.777-4.558-1.427-6.691-2.2a29.781,29.781,0,0,1-6.327-3.052c-1.57-1.042-1.977.4-2.549,1.107-.881,1.093.524,1.137.978,1.41,1.48.885,3.086,1.557,4.582,2.417,3.222,1.85,6.485,1.244,10.007.322M75.4,17.923c4.47,4.121,13.114,3.52,15.895,0ZM13.8,17.976c2.34,3.963,9.39,3.6,11.1,0ZM58.733,53.57c-3.371-2.636-4.084-2.614-5.524,0Z" transform="translate(0 0)"/>
      </g>
    </g>
  </g>
</svg>
