<svg xmlns="http://www.w3.org/2000/svg" xmlns:xlink="http://www.w3.org/1999/xlink" width="118" height="118" viewBox="0 0 118 118">
  <defs>
    <clipPath id="clip-path">
      <rect id="Rectángulo_349811" data-name="Rectángulo 349811" width="83.505" height="109.182" fill="none"/>
    </clipPath>
  </defs>
  <g id="Grupo_998192" data-name="Grupo 998192" transform="translate(-487 8785.133)">
    <g id="Grupo_998191" data-name="Grupo 998191">
      <circle id="Elipse_5957" data-name="Elipse 5957" cx="59" cy="59" r="59" transform="translate(487 -8785.133)" fill="#ffc403"/>
      <g id="Grupo_997448" data-name="Grupo 997448" transform="translate(504.55 -8785.133)">
        <g id="Grupo_997447" data-name="Grupo 997447" clip-path="url(#clip-path)">
          <path id="Trazado_733421" data-name="Trazado 733421" d="M41.824,109.14c-6.725,0-13.451-.066-20.174.041-2,.032-2.57-.7-2.537-2.59.084-4.784-.109-4.04,4.137-4.155,1.235-.033,2.831.619,3.633-.489a21.24,21.24,0,0,0,2.662-5.279c.436-1.215-.947-1.179-1.67-1.385A29.109,29.109,0,0,1,10.125,81.375a26.16,26.16,0,0,1-3.159-8.746c-.249-1.454-.9-1.834-2.257-1.83-5.11.014-4.67.691-4.683-4.854C.016,61.767.079,57.587,0,53.41c-.033-1.757.643-2.5,2.372-2.325a5.888,5.888,0,0,0,.637,0c3.384-.02,3.279-.025,3.427-3.51.6-14.033,4.964-26.689,14.386-37.265C26.594,3.834,33.657-.35,42.737.023c8.518.35,15.05,4.617,20.4,10.816A56.739,56.739,0,0,1,76.784,44.046a34.3,34.3,0,0,1,.276,5.08c-.1,1.491.571,2,2.008,1.973,4.757-.083,4.4-.469,4.407,4.5.006,4.25-.059,8.5.028,12.748.037,1.812-.567,2.519-2.44,2.506-3.935-.026-3.876.074-5.01,3.907q-4.6,15.544-20.09,20.4c-2.508.781-2.512.766-1.356,3.145a1.284,1.284,0,0,1,.089.193c.908,3.182,2.86,4.606,6.265,4.016,1.011-.175,2.612-.606,3.091.6a8.4,8.4,0,0,1,.029,5.421c-.264.894-1.339.6-2.081.6-6.724.019-13.449.011-20.174.012M36.77,7.753a19.044,19.044,0,0,0-7.481,3.96C18.19,21.767,13.606,34.587,13.382,49.268c-.028,1.826,1.06,1.825,2.357,1.825q26.023-.018,52.046.021c1.725,0,2.365-.517,2.35-2.3a51.423,51.423,0,0,0-10.766-31.8,26.9,26.9,0,0,0-11.751-9.16c-1.386-.525-2.413-.457-3.242.935a51.673,51.673,0,0,1-2.946,4.418c-.866,1.162-.66,1.8.633,2.407,2.944,1.392,5.806,2.958,8.761,4.323,1.536.71,1.714,1.5.941,2.955-1.73,3.25-3.27,6.6-4.971,9.866-2.5,4.806-1.171,4.573-6.51,2.044-1.371-.649-1.527-1.379-.835-2.65,1.117-2.051,2.031-4.214,3.172-6.25.771-1.375.562-2.11-.893-2.788-3.143-1.465-6.185-3.149-9.333-4.6-1.68-.776-1.824-1.585-.778-3.046,1.754-2.448,3.355-5.005,5.152-7.714m5.2,63.058q-12.955,0-25.91.006c-2.284,0-2.555.329-1.872,2.479,2.724,8.568,8.415,14.008,17.3,15.639,5.59,1.026,11.3.381,16.952.367A21.793,21.793,0,0,0,69.269,73.51c.71-2.42.52-2.693-2.03-2.7q-12.636-.015-25.273,0m-.221-6.974q16.127,0,32.254-.014c.8,0,1.929.368,2.273-.623a6.924,6.924,0,0,0,.032-4.383c-.432-1.3-1.848-.724-2.825-.726q-27.374-.048-54.747-.023c-3.254,0-6.507-.005-9.761.009-.62,0-1.481-.161-1.708.528a7.093,7.093,0,0,0-.022,4.579c.409,1.136,1.748.632,2.674.635,10.61.031,21.219.02,31.83.019m-.1,38.619h4.027c3.358,0,3.388-.017,1.824-3.062-.533-1.038-.69-2.637-1.955-2.866a19.068,19.068,0,0,0-7.57.025c-1.507.345-1.556,2.379-2.354,3.594-.116.176-.175.388-.282.57-.7,1.188-.541,1.81,1.014,1.752,1.763-.065,3.531-.015,5.3-.013" transform="translate(0 0)"/>
        </g>
      </g>
    </g>
  </g>
</svg>
