<svg xmlns="http://www.w3.org/2000/svg" xmlns:xlink="http://www.w3.org/1999/xlink" width="118" height="118" viewBox="0 0 118 118">
  <defs>
    <clipPath id="clip-path">
      <rect id="Rectángulo_349808" data-name="Rectángulo 349808" width="97.073" height="97.054" fill="#fff"/>
    </clipPath>
  </defs>
  <g id="Grupo_998189" data-name="Grupo 998189" transform="translate(-834 9227.133)">
    <circle id="Elipse_5955" data-name="Elipse 5955" cx="59" cy="59" r="59" transform="translate(834 -9227.133)" fill="#b20d0d"/>
    <g id="Grupo_997444" data-name="Grupo 997444" transform="translate(844.464 -9216.66)">
      <g id="Grupo_997443" data-name="Grupo 997443" clip-path="url(#clip-path)">
        <path id="Trazado_733394" data-name="Trazado 733394" d="M112.365,87.648c-.033,13.344-11.412,24.848-24.671,24.553a24.553,24.553,0,0,1-24.5-24.69c-.1-13.353,11.265-24.465,24.531-24.489a25,25,0,0,1,24.643,24.626m-7.261,0a17.356,17.356,0,1,0-17.324,17.338A16.979,16.979,0,0,0,105.1,87.649" transform="translate(-39.212 -39.107)" fill="#fff"/>
        <path id="Trazado_733395" data-name="Trazado 733395" d="M37.8,34.884a3.519,3.519,0,0,1,2.7,1.142c2.231,2.214,4.483,4.407,6.66,6.674,1.591,1.656,1.6,3.584.166,5.037A3.408,3.408,0,0,1,42.41,47.7c-2.429-2.275-4.769-4.651-7.065-7.061a3.229,3.229,0,0,1-.571-3.853A3.305,3.305,0,0,1,37.8,34.884" transform="translate(-21.335 -21.645)" fill="#fff"/>
        <path id="Trazado_733396" data-name="Trazado 733396" d="M188.061,48.648A3.266,3.266,0,0,1,185,46.879a2.937,2.937,0,0,1,.159-3.542,79.6,79.6,0,0,1,7.849-7.864,3.291,3.291,0,0,1,4.47.328,3.194,3.194,0,0,1,.37,4.305,66.445,66.445,0,0,1-7.982,7.987,2.57,2.57,0,0,1-1.807.554" transform="translate(-114.481 -21.559)" fill="#fff"/>
        <path id="Trazado_733397" data-name="Trazado 733397" d="M37.76,198.125a3.324,3.324,0,0,1-3.014-1.923,3.083,3.083,0,0,1,.369-3.551,70.759,70.759,0,0,1,7.749-7.7,3.4,3.4,0,0,1,4.624,4.931c-2.4,2.569-4.941,5.011-7.459,7.469a2.923,2.923,0,0,1-2.269.769" transform="translate(-21.318 -114.312)" fill="#fff"/>
        <path id="Trazado_733398" data-name="Trazado 733398" d="M8.382,125.6c-1.57,0-3.141.038-4.71-.009C1.387,125.522.027,124.222,0,122.164a3.438,3.438,0,0,1,3.558-3.576q4.8-.1,9.608,0a3.586,3.586,0,0,1,3.665,3.531,3.669,3.669,0,0,1-3.738,3.477c-.125.007-.251.007-.376.007q-2.167,0-4.333,0" transform="translate(0.001 -73.557)" fill="#fff"/>
        <path id="Trazado_733399" data-name="Trazado 733399" d="M125.621,8.438c0,1.575.053,3.153-.013,4.725a3.616,3.616,0,0,1-3.556,3.664,3.568,3.568,0,0,1-3.432-3.588c-.076-3.274-.081-6.553,0-9.827A3.4,3.4,0,0,1,122.165,0a3.46,3.46,0,0,1,3.443,3.524c.068,1.635.013,3.276.013,4.914" transform="translate(-73.572 0)" fill="#fff"/>
        <path id="Trazado_733400" data-name="Trazado 733400" d="M219.96,125.6c-1.576,0-3.152.044-4.726-.011a3.642,3.642,0,0,1-3.768-3.457,3.587,3.587,0,0,1,3.673-3.542q4.818-.1,9.641,0a3.427,3.427,0,0,1,3.515,3.446,3.473,3.473,0,0,1-3.609,3.551c-1.573.059-3.15.011-4.726.013" transform="translate(-131.222 -73.557)" fill="#fff"/>
        <path id="Trazado_733401" data-name="Trazado 733401" d="M125.624,219.976c0,1.575.052,3.152-.013,4.725a3.5,3.5,0,1,1-7-.031q-.1-4.818.006-9.639a3.5,3.5,0,1,1,6.988.031c.07,1.635.014,3.276.016,4.914" transform="translate(-73.574 -131.194)" fill="#fff"/>
        <path id="Trazado_733402" data-name="Trazado 733402" d="M188.164,184.354a3.153,3.153,0,0,1,2.192,1.114c2.216,2.221,4.466,4.41,6.647,6.666,1.554,1.607,1.629,3.661.3,5.049-1.379,1.441-3.515,1.393-5.185-.224-2.254-2.183-4.458-4.418-6.655-6.658a3.362,3.362,0,0,1-.773-3.978c.6-1.336,1.71-1.946,3.472-1.97" transform="translate(-114.395 -114.398)" fill="#fff"/>
      </g>
    </g>
  </g>
</svg>
