<svg xmlns="http://www.w3.org/2000/svg" xmlns:xlink="http://www.w3.org/1999/xlink" width="118" height="118" viewBox="0 0 118 118">
  <defs>
    <clipPath id="clip-path">
      <rect id="Rectángulo_349809" data-name="Rectángulo 349809" width="96.563" height="96.61" fill="none"/>
    </clipPath>
  </defs>
  <g id="Grupo_998190" data-name="Grupo 998190" transform="translate(-1189 9227.133)">
    <circle id="Elipse_5956" data-name="Elipse 5956" cx="59" cy="59" r="59" transform="translate(1189 -9227.133)" fill="#06d1d1"/>
    <g id="Grupo_997446" data-name="Grupo 997446" transform="translate(1198.812 -9219.893)">
      <g id="Grupo_997445" data-name="Grupo 997445" clip-path="url(#clip-path)">
        <path id="Trazado_733403" data-name="Trazado 733403" d="M48.264,32.288q20.541,0,41.081,0c3.231,0,4.176-.93,4.179-4.108,0-4.333-.04-8.668.02-13,.028-1.985-.528-3.445-2.617-3.989a1.407,1.407,0,0,1-1.153-1.839c.273-1.076,1.135-1.226,2.09-1.056a6.047,6.047,0,0,1,4.656,5.7q.1,7.724,0,15.449a5.425,5.425,0,0,1-3.25,5.122,2.254,2.254,0,0,0-1.432,2.112,43.391,43.391,0,0,1-4.008,13.462,2.758,2.758,0,0,1-2.925,1.787c-4.333-.085-8.669-.076-13,0a2.5,2.5,0,0,1-2.772-1.7c-.308-.82-.69-1.614-1.074-2.4-.543-1.114-.581-3-1.578-3.25-1.894-.472-3.982-.188-5.989-.181-.664,0-.677.653-.866,1.082-.708,1.606-1.41,3.215-2.073,4.84a2.313,2.313,0,0,1-2.444,1.612c-4.585-.057-9.171-.042-13.756-.008a2.092,2.092,0,0,1-2.207-1.372c-.7-1.677-1.514-3.311-2.138-5.015a1.546,1.546,0,0,0-1.792-1.184c-1.691.083-3.639-.456-5.012.218-1.4.69-1.6,2.853-2.148,4.409-.818,2.32-2.154,3.133-4.633,2.991-3.944-.227-7.912-.113-11.868-.033a2.646,2.646,0,0,1-2.78-1.718A43.115,43.115,0,0,1,4.72,36.565a2.126,2.126,0,0,0-1.356-1.955A5.7,5.7,0,0,1,.033,29.141C.013,24.179,0,19.217.039,14.256A6.111,6.111,0,0,1,4.457,8.364C5.47,8.1,6.422,8.152,6.769,9.3c.307,1.013-.244,1.651-1.26,1.937-1.869.526-2.5,1.852-2.477,3.711.049,4.459.011,8.918.017,13.377,0,2.952,1.005,3.962,3.945,3.963q20.635.008,41.269,0m.075,3.022h-6.4c-10.861,0-21.722.023-32.584-.028-1.4-.007-1.811.234-1.561,1.755a45.656,45.656,0,0,0,3.126,10.608A1.782,1.782,0,0,0,12.886,48.9q5.178-.1,10.358,0a1.821,1.821,0,0,0,2.1-1.333c.552-1.6,1.26-3.139,1.864-4.719a2.094,2.094,0,0,1,2.27-1.532c2.446.074,4.9.08,7.344,0a2.186,2.186,0,0,1,2.414,1.6c.611,1.644,1.325,3.249,1.942,4.891a1.516,1.516,0,0,0,1.689,1.089q5.367-.075,10.735,0a1.617,1.617,0,0,0,1.83-1.165c.6-1.647,1.312-3.254,1.939-4.892a2.1,2.1,0,0,1,2.275-1.526c2.446.074,4.9.081,7.344,0a2.185,2.185,0,0,1,2.41,1.61c.611,1.644,1.326,3.249,1.943,4.891a1.516,1.516,0,0,0,1.693,1.082c3.578-.05,7.158-.074,10.735.011a1.779,1.779,0,0,0,1.912-1.338,44.08,44.08,0,0,0,3.081-10.425c.254-1.55-.121-1.87-1.623-1.863-12.933.054-25.866.031-38.8.031" transform="translate(-0.008 -5.12)"/>
        <path id="Trazado_733404" data-name="Trazado 733404" d="M48.3,163.862q20.541,0,41.081,0c3.195,0,4.128-.942,4.131-4.156,0-4.4-.03-8.793.016-13.188.019-1.855-.6-3.189-2.48-3.707-1.018-.281-1.57-.909-1.27-1.929.34-1.156,1.294-1.2,2.3-.949a6.044,6.044,0,0,1,4.431,5.686c.059,5.149.066,10.3-.009,15.449a5.484,5.484,0,0,1-3.285,5.107,2.115,2.115,0,0,0-1.38,1.94A42.671,42.671,0,0,1,87.8,181.755a2.645,2.645,0,0,1-2.759,1.744q-6.594-.118-13.19,0A2.532,2.532,0,0,1,69.1,181.75c-.625-1.572-1.358-3.1-1.963-4.682-.306-.8-.675-1.214-1.617-1.159-1.752.1-3.768-.457-5.2.24-1.374.67-1.575,2.863-2.135,4.422-.794,2.208-2.021,3.1-4.462,2.96-4.007-.225-8.038-.115-12.056-.032a2.531,2.531,0,0,1-2.739-1.762c-.627-1.572-1.358-3.1-1.96-4.683a1.521,1.521,0,0,0-1.626-1.151c-5.236-.148-5.364-.23-7.245,4.51-.929,2.341-2.173,3.27-4.738,3.117-3.88-.232-7.787-.133-11.679-.025a2.85,2.85,0,0,1-3.022-1.938,43.606,43.606,0,0,1-3.939-13.289,2.25,2.25,0,0,0-1.407-2.129,5.521,5.521,0,0,1-3.287-5.293q-.06-7.536,0-15.072a6.117,6.117,0,0,1,4.464-5.86c.944-.233,1.853-.183,2.223.819.4,1.088-.161,1.764-1.265,2.083-1.766.51-2.441,1.762-2.426,3.556.037,4.584,0,9.169.016,13.754.008,2.673,1.079,3.723,3.8,3.724q20.729.011,41.457,0m-.022,3.022H32.462c-7.66,0-15.319.051-22.978-.04-1.684-.02-1.937.431-1.664,2a44.237,44.237,0,0,0,2.39,8.681c1.153,2.925,1.163,2.921,4.222,2.921,1.381,0,2.762.012,4.144,0,2.005-.021,4.378.594,5.915-.271,1.639-.922,1.791-3.56,2.6-5.443.05-.115.085-.236.126-.355a2.034,2.034,0,0,1,2.3-1.487c1.566.081,3.139,0,4.708.024,5,.087,4-.817,5.953,4.08,1.377,3.455,1.376,3.455,4.988,3.455,1.193,0,2.386.011,3.578,0,2.005-.023,4.381.593,5.914-.274,1.634-.925,1.79-3.562,2.6-5.447.05-.115.085-.236.126-.355a2.061,2.061,0,0,1,2.3-1.482c2.446.072,4.9.082,7.344,0a2.18,2.18,0,0,1,2.377,1.656c.59,1.585,1.286,3.13,1.874,4.716a1.62,1.62,0,0,0,1.8,1.215q5.366-.091,10.735,0a1.676,1.676,0,0,0,1.811-1.2,49.258,49.258,0,0,0,3.1-10.226c.388-2.007-.266-2.208-2.016-2.2-12.807.07-25.615.037-38.422.037" transform="translate(0 -86.937)"/>
        <path id="Trazado_733405" data-name="Trazado 733405" d="M28.344,24.21a18.628,18.628,0,0,1-11.093-3.588,2.436,2.436,0,0,1-1.215-2.536c.266-1.607.477-3.224.786-4.823.182-.939.7-1.689,1.809-1.482,1.237.231,1.3,1.176,1.13,2.191-.032.185-.077.368-.116.552-.847,3.96-.688,4.281,3.185,5.685A14.9,14.9,0,0,0,35.863,19a1.868,1.868,0,0,0,1.041-2.28,25.347,25.347,0,0,0-3.666-9.987C30.854,3.128,29.116,2.618,25.1,4.228a1.462,1.462,0,0,1-1.979-.5c-.584-.868-.18-1.522.511-2.112a6.932,6.932,0,0,1,8.095-.487,13.922,13.922,0,0,1,4.707,5.036,28.375,28.375,0,0,1,3.656,11.563,2.915,2.915,0,0,1-1.377,3.025A18.667,18.667,0,0,1,28.344,24.21" transform="translate(-9.947 -0.039)"/>
        <path id="Trazado_733406" data-name="Trazado 733406" d="M107.538,24.17a18.622,18.622,0,0,1-10.4-3.447A2.78,2.78,0,0,1,95.777,17.7c.264-1.48.471-2.97.762-4.445.187-.947.7-1.695,1.8-1.489,1.212.227,1.324,1.166,1.144,2.19-.033.185-.087.366-.127.549-.847,3.9-.7,4.189,3.035,5.6a14.929,14.929,0,0,0,12.88-.952,2.149,2.149,0,0,0,1.332-2.668,24.153,24.153,0,0,0-4.2-10.547C110.129,2.959,108.374,2.56,105,4.11a1.515,1.515,0,0,1-2.149-.427c-.583-.868-.17-1.522.521-2.109a6.986,6.986,0,0,1,8.87.034c3.827,2.943,5.573,7.151,6.8,11.63a22.524,22.524,0,0,1,.508,2.771c.542,3.778.459,3.948-2.849,5.8a18.412,18.412,0,0,1-9.16,2.357" transform="translate(-59.521 -0.002)"/>
        <path id="Trazado_733407" data-name="Trazado 733407" d="M186.389,24.159a17.79,17.79,0,0,1-9.645-3.569,2.435,2.435,0,0,1-1.221-2.531c.266-1.606.48-3.222.784-4.82.18-.949.719-1.687,1.811-1.471,1.21.239,1.307,1.183,1.127,2.2-.022.123-.053.245-.078.368-.872,4.235-.747,4.5,3.351,5.915a14.779,14.779,0,0,0,12.843-1.319c.659-.387,1.262-.721,1.108-1.717a24.015,24.015,0,0,0-4.311-11.291c-2.276-2.973-3.993-3.357-7.412-1.81a1.511,1.511,0,0,1-2.144-.449c-.574-.875-.149-1.523.543-2.1a6.982,6.982,0,0,1,8.87.053c3.822,2.948,5.565,7.156,6.793,11.636a20.671,20.671,0,0,1,.483,2.584c.569,4.041.492,4.178-3.18,6.151a19.508,19.508,0,0,1-9.721,2.172" transform="translate(-109.122 0)"/>
        <path id="Trazado_733408" data-name="Trazado 733408" d="M28.133,155.747a18.461,18.461,0,0,1-10.887-3.59,2.438,2.438,0,0,1-1.21-2.54c.267-1.608.473-3.227.79-4.825.187-.945.754-1.671,1.844-1.432s1.276,1.088,1.1,2.061c-.066.37-.18.731-.258,1.1-.688,3.276-.526,3.656,2.53,4.931a15.07,15.07,0,0,0,13.43-.669,2.24,2.24,0,0,0,1.387-2.817c-.744-3.874-1.9-7.555-4.374-10.683-2.2-2.773-3.97-3.143-7.161-1.631-.923.438-1.716.44-2.261-.518-.521-.916.01-1.527.7-2.072a6.934,6.934,0,0,1,8.725.127c3.791,2.886,5.547,7.027,6.784,11.444a22.114,22.114,0,0,1,.527,2.77c.585,4,.5,4.15-3,6.081a18.308,18.308,0,0,1-8.666,2.265" transform="translate(-9.947 -81.821)"/>
        <path id="Trazado_733409" data-name="Trazado 733409" d="M107.911,155.768a18.737,18.737,0,0,1-10.836-3.5,2.667,2.667,0,0,1-1.3-2.865c.27-1.542.477-3.1.788-4.63.194-.958.779-1.647,1.86-1.4s1.249,1.111,1.079,2.073c-.065.369-.189.728-.266,1.1-.686,3.3-.544,3.641,2.529,4.926a15.037,15.037,0,0,0,13.416-.659,2.244,2.244,0,0,0,1.413-2.8,24.7,24.7,0,0,0-4-10.237c-2.319-3.186-4.027-3.6-7.663-2.03a1.489,1.489,0,0,1-2.121-.527c-.542-.9-.069-1.526.626-2.089a6.9,6.9,0,0,1,7.934-.5,13.872,13.872,0,0,1,4.832,5.162,28.662,28.662,0,0,1,3.626,11.568,2.9,2.9,0,0,1-1.442,2.99,18.6,18.6,0,0,1-10.469,3.419" transform="translate(-59.522 -81.84)"/>
        <path id="Trazado_733410" data-name="Trazado 733410" d="M187.656,155.771a18.716,18.716,0,0,1-10.82-3.5,2.667,2.667,0,0,1-1.308-2.863c.27-1.543.476-3.1.787-4.631.194-.957.774-1.65,1.857-1.406s1.256,1.106,1.084,2.069c-.1.554-.262,1.1-.355,1.653-.491,2.915-.5,2.941,2.278,4.2a14.937,14.937,0,0,0,13.75-.484,2.239,2.239,0,0,0,1.419-2.8,24.723,24.723,0,0,0-4-10.237c-2.32-3.19-4.037-3.611-7.662-2.036a1.492,1.492,0,0,1-2.123-.52c-.545-.9-.076-1.526.619-2.09a6.916,6.916,0,0,1,7.934-.5,13.037,13.037,0,0,1,4.338,4.363,27.814,27.814,0,0,1,4.133,12.555,2.688,2.688,0,0,1-1.295,2.692,18.5,18.5,0,0,1-10.637,3.533" transform="translate(-109.118 -81.843)"/>
        <path id="Trazado_733411" data-name="Trazado 733411" d="M80.361,11.054c-.937,0-1.875.018-2.812,0a1.448,1.448,0,0,1-1.607-1.464,1.408,1.408,0,0,1,1.537-1.524c1.937-.038,3.875-.026,5.812-.008a1.431,1.431,0,0,1,1.6,1.462c.011,1.067-.7,1.53-1.723,1.54-.937.009-1.875,0-2.812,0" transform="translate(-47.223 -4.998)"/>
        <path id="Trazado_733412" data-name="Trazado 733412" d="M160.18,11.046c-1,0-2,.044-3-.013a1.415,1.415,0,0,1-1.488-1.571,1.39,1.39,0,0,1,1.473-1.4c2-.039,4-.048,6,0a1.4,1.4,0,0,1,1.488,1.567,1.408,1.408,0,0,1-1.473,1.4c-1,.046-2,.011-3,.012" transform="translate(-96.814 -4.995)"/>
        <path id="Trazado_733413" data-name="Trazado 733413" d="M80.494,142.629c-1,0-2,.03-3-.009a1.5,1.5,0,1,1,.042-2.988c1.937-.023,3.875-.029,5.812,0a1.414,1.414,0,0,1,1.551,1.511,1.442,1.442,0,0,1-1.593,1.477c-.936.026-1.875.006-2.812,0" transform="translate(-47.224 -86.817)"/>
        <path id="Trazado_733414" data-name="Trazado 733414" d="M160.166,142.622c-1,0-2,.035-3-.011a1.484,1.484,0,0,1,.011-2.969c2-.05,4-.04,6,0a1.392,1.392,0,0,1,1.474,1.4,1.415,1.415,0,0,1-1.487,1.573c-1,.058-2,.013-3,.012" transform="translate(-96.813 -86.814)"/>
        <path id="Trazado_733415" data-name="Trazado 733415" d="M27.055,17.621c-.141.907-.639,1.5-1.6,1.445a1.357,1.357,0,0,1-1.369-1.472,1.376,1.376,0,0,1,1.564-1.461,1.46,1.46,0,0,1,1.4,1.487" transform="translate(-14.978 -10.03)"/>
        <path id="Trazado_733416" data-name="Trazado 733416" d="M106.815,17.586c-.119.914-.605,1.515-1.565,1.483a1.356,1.356,0,0,1-1.4-1.438,1.375,1.375,0,0,1,1.529-1.5c.864.02,1.312.6,1.44,1.451" transform="translate(-64.575 -10.033)"/>
        <path id="Trazado_733417" data-name="Trazado 733417" d="M186.566,17.646c-.158.9-.668,1.494-1.625,1.417a1.359,1.359,0,0,1-1.343-1.5,1.377,1.377,0,0,1,1.591-1.432,1.46,1.46,0,0,1,1.376,1.514" transform="translate(-114.167 -10.028)"/>
        <path id="Trazado_733418" data-name="Trazado 733418" d="M27.053,149.213c-.151.9-.654,1.5-1.612,1.428a1.357,1.357,0,0,1-1.355-1.486,1.377,1.377,0,0,1,1.579-1.446,1.459,1.459,0,0,1,1.388,1.5" transform="translate(-14.977 -91.849)"/>
        <path id="Trazado_733419" data-name="Trazado 733419" d="M106.826,149.133c-.182,1-.7,1.589-1.653,1.5a1.359,1.359,0,0,1-1.333-1.507,1.384,1.384,0,0,1,1.6-1.424,1.5,1.5,0,0,1,1.383,1.427" transform="translate(-64.57 -91.845)"/>
        <path id="Trazado_733420" data-name="Trazado 733420" d="M186.586,149.03c-.12,1.026-.6,1.633-1.559,1.614a1.355,1.355,0,0,1-1.423-1.418,1.379,1.379,0,0,1,1.509-1.518,1.511,1.511,0,0,1,1.473,1.322" transform="translate(-114.172 -91.85)"/>
      </g>
    </g>
  </g>
</svg>
