<svg id="Grupo_997398" data-name="Grupo 997398" xmlns="http://www.w3.org/2000/svg" xmlns:xlink="http://www.w3.org/1999/xlink" width="367.027" height="404.761" viewBox="0 0 367.027 404.761">
  <defs>
    <clipPath id="clip-path">
      <rect id="Rectángulo_349781" data-name="Rectángulo 349781" width="367.027" height="404.761" fill="none"/>
    </clipPath>
    <clipPath id="clip-path-3">
      <rect id="Rectángulo_349777" data-name="Rectángulo 349777" width="54.416" height="68.207" fill="none"/>
    </clipPath>
    <clipPath id="clip-path-5">
      <rect id="Rectángulo_349779" data-name="Rectángulo 349779" width="54.416" height="68.206" fill="none"/>
    </clipPath>
  </defs>
  <g id="Grupo_997397" data-name="Grupo 997397" clip-path="url(#clip-path)">
    <path id="Trazado_733129" data-name="Trazado 733129" d="M49.1,0V148.493l257.42,148.622V148.622Z" transform="translate(45.643 0)" fill="#824030"/>
    <path id="Trazado_733130" data-name="Trazado 733130" d="M.869,166.186,258.29,314.808V187.668L.869,39.046Z" transform="translate(0.808 36.299)" fill="#b75f25"/>
    <path id="Trazado_733131" data-name="Trazado 733131" d="M2.863,42.659V160.208l.019.012L104.419,101.6Z" transform="translate(2.662 39.657)" fill="#a8551d"/>
    <path id="Trazado_733132" data-name="Trazado 733132" d="M252.168,158.953,104.41,73.2,2.873,131.826,252.168,276.5Z" transform="translate(2.671 68.051)" fill="#c46d2c"/>
    <path id="Trazado_733133" data-name="Trazado 733133" d="M40.641,64.2V183.5l3.913,2.931,7.157-4.153,2.24-1.3,9.121-5.291,1.65-.957,13.372-7.759,1.634-.947,12.6-7.313,1.725-1,10.991-6.376,1.575-.915,11.89-6.9,1.671-.969,9.621-5.582,1.5-.868,5.162-2.995V64.2Z" transform="translate(37.781 59.681)" fill="#a8551d"/>
    <path id="Trazado_733134" data-name="Trazado 733134" d="M87.056,89.966v121.21l3.913,2.931,9.4-5.451,38.382-22.27,1.725-1,10.991-6.377,1.575-.915,11.89-6.9,1.671-.971,7.307-4.239V89.966Z" transform="translate(80.93 83.635)" fill="#a8551d"/>
    <g id="Grupo_997396" data-name="Grupo 997396">
      <g id="Grupo_997395" data-name="Grupo 997395" clip-path="url(#clip-path)">
        <path id="Trazado_733135" data-name="Trazado 733135" d="M72.35,80.758c15.443-2.522-.5-21.577-5.692-27.144C56.2,42.406,43.238,34.574,30.294,26.7l-8.6,6.958c6.144,2.37,12.805,4.16,17.152,9.187,4.691,5.424,5.779,11.381,13.291,14.059,3.786,1.351,9.812,3.2,11.117,7.761.917,3.209.156,4.633-2.088,4.926-5.274.691-16.8-5.455-18.185-6.1a278.5,278.5,0,0,1-34.172-19.4L.869,50.522l51.683,29.84c6.661.778,13.368,1.445,19.8.4" transform="translate(0.808 24.822)" fill="#c46d2c"/>
        <path id="Trazado_733136" data-name="Trazado 733136" d="M122.114,55.566c11.4,10.65,25.952,17.019,39.658,24.113q20.967,10.851,41.937,21.7a258.027,258.027,0,0,1,36.879,22.882q3.1,2.336,6.2,4.668l10.667-8.637L101.88,30.473c5.968,8.992,12.352,17.728,20.234,25.093" transform="translate(94.711 28.329)" fill="#c46d2c"/>
        <path id="Trazado_733137" data-name="Trazado 733137" d="M168.613,155.852c-6.289-6.472-8.407-15.028-11.614-23.186-7.192-18.289-23.181-30.232-37.568-42.666C103.419,76.162,90.369,59.652,72.954,47.386,63.433,40.678,53.691,34.27,44.044,27.74c-4.664-3.157-9.486-6.835-14.65-9.538l-5.77,4.674c13.477,8.845,26.239,19,39.494,28.155,6.451,4.454,13,8.8,19.009,13.855A169.6,169.6,0,0,1,99.739,82.638c10.958,12.392,21.357,25.33,31.032,38.749,6.48,8.986,13.677,19.279,9.444,29.7l96.921,55.959,8.878-7.188c-18.268-8.726-36.123-18.366-53.709-28.358-8.087-4.593-17.129-8.9-23.692-15.649" transform="translate(21.962 16.921)" fill="#c46d2c"/>
        <path id="Trazado_733138" data-name="Trazado 733138" d="M51.51,63.155a7.193,7.193,0,0,0,2.059.461c2.564.71,5.287-2.109,2.408-5.681-1.061-1.318-3.743-2.065-5.166-2.541a56.41,56.41,0,0,1-6.179-2.082c-4.021-1.889-6.078-5.332-8.284-9.006-3.6-6.005-8.28-8.926-14.773-11.3-1.816-.664-3.736-1.339-5.638-2.1l-10.4,8.421A245.6,245.6,0,0,0,33.43,55.1c5.795,2.8,11.91,6.2,18.081,8.054" transform="translate(5.145 28.73)" fill="#c46d2c"/>
        <path id="Trazado_733139" data-name="Trazado 733139" d="M138.984,128.993c-3.813-6.074-8.241-11.842-12.529-17.585A428.579,428.579,0,0,0,96.222,74.956C75.914,53.252,48.473,40.144,26,20.94L20.252,25.6c23.974,13.546,45.4,31.573,63.74,52.048A206.353,206.353,0,0,1,97.555,94.017c2.9,4,5.7,9.694,2.254,14.324-3.263,4.382-10.636,2.921-15.275,2.879q-2.941-.026-5.885-.033l63.361,36.582c2.022-6.308.785-12.7-3.026-18.775" transform="translate(18.827 19.466)" fill="#c46d2c"/>
        <path id="Trazado_733140" data-name="Trazado 733140" d="M111.54,59.427a82.263,82.263,0,0,0,10.252.249c3.4-.129,7.717.054,10.688-1.822,6.4-4.046,4.525-18.38,3.157-24.47-.1-.45-.233-.874-.351-1.312L116.021,20.95c1.009,3.516,1.959,8.033.662,10.733-1.735,3.608-7.722,5.235-11.244,5.768-12.689,1.922-23.725-5.663-33.716-12.361q-9.2-6.165-18.837-11.63c-2.813-1.59-5.7-3.066-8.556-4.594L31.5,19.252C49.485,32.825,69.74,42.788,89.907,52.917a58.22,58.22,0,0,0,21.633,6.511" transform="translate(29.282 8.241)" fill="#c46d2c"/>
        <path id="Trazado_733141" data-name="Trazado 733141" d="M77.891,28.059c3.8.714,7.358-1,7.773-5.5a13.428,13.428,0,0,0-.731-4.43L53.535,0,44.327,7.456A190.853,190.853,0,0,1,62.948,18.918c4.473,3,9.505,8.12,14.943,9.141" transform="translate(41.208)" fill="#c46d2c"/>
        <path id="Trazado_733142" data-name="Trazado 733142" d="M86.4,38.889c5.2,1.515,11.026,1.851,16.188-.014,3.9-1.407,6.5-4.344,6.019-8.633a39.522,39.522,0,0,0-1.3-6.458L92.271,15.1c.5,2.8.365,5.513-1.052,7.5-2.57,3.6-7.643,3.45-11.271,1.854-3.568-1.571-6.648-4.328-9.828-6.536q-4.721-3.274-9.6-6.312C56.465,9.071,52.195,6.84,47.969,4.544l-9.3,7.533c6.555,3.35,13.094,6.707,19.391,10.611,9.125,5.656,17.89,13.152,28.35,16.2" transform="translate(35.943 4.224)" fill="#c46d2c"/>
        <path id="Trazado_733143" data-name="Trazado 733143" d="M94.052,106.9c2.858.012,5.322.079,7.23-2.3,1.771-2.2,1.721-4.232.863-6.842-2.007-6.117-7.938-11.655-12.076-16.493q-6.075-7.106-12.62-13.793C61.073,50.74,42.645,36.36,23.094,23.567l-6.443,5.216c16.5,8.8,32.447,19.958,43.339,35.052,4.353,6.03,11.041,17.488.444,21.21-5.067,1.779-11.192.872-16.411.573q-1.158-.067-2.321-.137l36.85,21.276q2.46.029,4.922.054c3.527.031,7.053.075,10.578.089" transform="translate(15.479 21.909)" fill="#c46d2c"/>
        <path id="Trazado_733144" data-name="Trazado 733144" d="M189.48,113.185c-12.9-6.817-24.491-15.13-36.592-23.21-11.707-7.815-24.829-13.561-35.633-22.7-5.675-4.8-10.082-10.794-15.416-15.931a35.423,35.423,0,0,0-9.6-6.866,18.565,18.565,0,0,0-7.788-1.31c-2.153.23-4.1.94-3.765,4.834.639,7.35,7.329,14.181,10.742,17.87,4.851,5.247,10.156,10.053,14.945,15.36,8.952,9.918,13.9,22.027,20.844,33.267,7.205,11.668,17.38,21.027,28.69,28.645,11.42,7.69,23.866,13.625,36.352,19.343,3.871,1.773,7.827,3.5,11.782,5.268l14.177-11.477c-8.564-4.006-17.683-6.985-26.426-10.968-14.146-6.443-27.671-13.349-38.814-24.406a81.592,81.592,0,0,1-7.63-8.55c-.837-1.106-2.5-2.7-1.947-4.315,1.364-3.946,9.648-2.406,12.44-1.638,7.252,2,14.264,5.951,21.016,9.195a192.805,192.805,0,0,1,22.513,12.429c6.8,4.469,13.318,9.262,20.56,13.021,3.444,1.789,6.989,3.469,10.258,5.542l9.027-7.307c-3.925-2.466-7.948-4.828-12.139-7.059-12.4-6.6-25.178-12.469-37.6-19.034" transform="translate(74.976 40.086)" fill="#c46d2c"/>
        <path id="Trazado_733145" data-name="Trazado 733145" d="M282.29,137.869c-28.124-14.75-55.417-31.2-82.978-46.967-11.5-6.582-23.895-12.546-31.005-24.269-5.378-8.867-8.259-19.211-10.762-29.388l-16.2-9.353a46.416,46.416,0,0,1,.237,18.808c-1.212,5.961-4.963,8.189-10.729,8.843a72.594,72.594,0,0,1-23.771-1.113c-7.348-1.65-13.934-5.4-20.6-8.755-7.628-3.842-15.271-7.655-22.775-11.734C53.4,28.336,43.323,22.233,34.418,14.678l-7.159,5.795c4.438,2.435,8.624,5.542,12.627,8.253,10.848,7.35,21.843,14.526,32.5,22.15,17.052,12.2,30.021,28.63,45.856,42.216,13.417,11.51,28.261,22.829,35.661,39.411,4.347,9.737,6.194,20.14,14.605,27.486,8.16,7.126,18.719,12.047,28.117,17.309,15.526,8.693,31.337,16.826,47.195,24.877l8.239-6.671c-7.033-3.248-14.113-6.4-21.1-9.748-12.491-5.988-24.742-12.7-35.524-21.465-11.126-9.048-18.968-19.885-25.643-32.48-3.724-7.026-7.431-14.042-12.537-20.186-4.413-5.31-9.478-10.024-14.252-15-4.637-4.834-13.455-13.488-14.327-21.564-.589-2.454-.226-4.427.965-5.762,1.308-1.467,3.713-1.789,6.269-1.465,7.813.99,14.1,6.337,19.291,11.881,6.1,6.512,11.726,12.874,19.144,17.975,6.715,4.62,13.93,8.436,20.938,12.579,14.318,8.459,27.252,18.825,41.948,26.723,14.111,7.582,28.761,14.1,42.863,21.7,3.4,1.833,6.868,3.745,10.314,5.764l15.981-12.938c-.374-.253-.737-.523-1.113-.772-7.36-4.851-15.194-8.791-22.988-12.878" transform="translate(25.341 13.645)" fill="#c46d2c"/>
        <path id="Trazado_733146" data-name="Trazado 733146" d="M200.111,101.594Q178.7,90.5,157.289,79.4c-12.905-6.686-25.137-13.448-35.092-24.257a132.96,132.96,0,0,1-16.275-22.339L95.454,26.763c3.5,12.112,7.089,24.8,15.5,34.054,4.857,5.343,11.132,9.027,17.332,12.585q10.061,5.772,20.14,11.516l39.7,22.7c13.311,7.61,26.739,14.924,40.308,22.058,5.457,2.867,10.8,6.034,15.977,9.455l7.041-5.7c-3.83-2.935-7.653-5.88-11.539-8.7-12.506-9.075-26.123-16.049-39.806-23.138" transform="translate(88.737 24.88)" fill="#c46d2c"/>
        <path id="Trazado_733147" data-name="Trazado 733147" d="M165.033,96.949A196.4,196.4,0,0,0,125.5,77.479a23.657,23.657,0,0,0-7.236-1.227c-5.675-.118-3.406,3.921-2.445,5.476,1.658,2.68,4.452,5.156,6.671,7.36a93.4,93.4,0,0,0,15.968,12.728c11.892,7.5,25.323,12.944,38.419,17.928,3.715,1.414,7.556,2.867,11.29,4.558l9.494-7.686c-4.048-2.362-8.272-4.378-12.458-6.648-7.047-3.821-13.4-8.749-20.165-13.019" transform="translate(106.487 70.884)" fill="#c46d2c"/>
        <path id="Trazado_733148" data-name="Trazado 733148" d="M65.638,18.549c3.18,2.207,6.26,4.963,9.828,6.534,3.628,1.6,8.7,1.746,11.271-1.852,1.416-1.986,1.551-4.7,1.052-7.5l-2.074-1.2a13.483,13.483,0,0,1,.729,4.43c-.415,4.5-3.967,6.213-7.771,5.5-5.44-1.021-10.47-6.142-14.943-9.143A191.261,191.261,0,0,0,45.107,3.863L43.486,5.175c4.226,2.3,8.5,4.527,12.552,7.061q4.874,3.045,9.6,6.314" transform="translate(40.426 3.591)" fill="#d67b3c"/>
        <path id="Trazado_733149" data-name="Trazado 733149" d="M241.519,124.8a258.148,258.148,0,0,0-36.879-22.883q-20.962-10.866-41.939-21.7C149,73.123,134.442,66.753,123.046,56.1,115.163,48.738,108.78,40,102.811,31.01l-1.933-1.115a132.972,132.972,0,0,0,16.276,22.339c9.955,10.808,22.185,17.569,35.092,24.257l42.82,22.191c13.685,7.089,27.3,14.063,39.808,23.138,3.886,2.821,7.707,5.766,11.539,8.7l1.3-1.056q-3.1-2.327-6.2-4.666" transform="translate(93.779 27.791)" fill="#d67b3c"/>
        <path id="Trazado_733150" data-name="Trazado 733150" d="M57.345,66.241c2.244-.293,3-1.719,2.088-4.928-1.3-4.564-7.331-6.41-11.117-7.759-7.514-2.68-8.6-8.637-13.291-14.059-4.347-5.027-11.009-6.817-17.152-9.187l-1.424,1.152c1.9.762,3.825,1.438,5.64,2.1,6.493,2.375,11.167,5.3,14.771,11.3,2.207,3.676,4.264,7.118,8.286,9.008a56.262,56.262,0,0,0,6.179,2.08c1.42.477,4.1,1.223,5.166,2.541,2.879,3.572.156,6.393-2.408,5.683a7.259,7.259,0,0,1-2.059-.461c-6.171-1.858-12.286-5.26-18.081-8.056A245.6,245.6,0,0,1,6.047,39.88l-1.061.859a278.384,278.384,0,0,0,34.174,19.4c1.387.644,12.911,6.79,18.185,6.1" transform="translate(4.635 28.174)" fill="#d67b3c"/>
        <path id="Trazado_733151" data-name="Trazado 733151" d="M60.928,82.532c10.6-3.722,3.909-15.18-.442-21.21C49.593,46.228,33.647,35.069,17.145,26.27l-1.027.832c12.944,7.875,25.907,15.705,36.364,26.914,5.193,5.565,21.135,24.62,5.692,27.142-6.43,1.05-13.137.382-19.8-.4L42.2,82.968q1.164.072,2.323.137c5.22.3,11.342,1.206,16.41-.573" transform="translate(14.984 24.421)" fill="#d67b3c"/>
        <path id="Trazado_733152" data-name="Trazado 733152" d="M100.052,106.1c3.446-4.629.646-10.322-2.254-14.326A206.353,206.353,0,0,0,84.235,75.4C65.894,54.929,44.471,36.9,20.5,23.354l-.506.409c19.551,12.8,37.979,27.175,54.356,43.911q6.539,6.683,12.62,13.793C91.1,86.3,97.032,91.842,99.041,97.959c.857,2.611.907,4.639-.863,6.842-1.908,2.375-4.373,2.308-7.23,2.3-3.525-.014-7.053-.058-10.578-.089q-2.46-.023-4.922-.054l3.444,1.989c1.962.008,3.925.014,5.885.033,4.639.042,12.014,1.5,15.275-2.879" transform="translate(18.583 21.711)" fill="#d67b3c"/>
        <path id="Trazado_733153" data-name="Trazado 733153" d="M131.136,119.136C121.459,105.718,111.06,92.78,100.1,80.386A169.578,169.578,0,0,0,82.492,62.635c-6.007-5.054-12.558-9.4-19.009-13.855-13.255-9.15-26.017-19.31-39.5-28.157l-.754.612c22.469,19.2,49.91,32.312,70.215,54.016A428.236,428.236,0,0,1,123.684,111.7c4.288,5.743,8.716,11.51,12.529,17.585s5.048,12.467,3.026,18.775l1.339.774c4.236-10.422-2.962-20.715-9.442-29.7" transform="translate(21.598 19.172)" fill="#d67b3c"/>
        <path id="Trazado_733154" data-name="Trazado 733154" d="M169.11,157.2c-8.411-7.346-10.258-17.749-14.605-27.484-7.4-16.583-22.245-27.9-35.66-39.413C103.009,76.713,90.04,60.279,72.988,48.083c-10.659-7.624-21.654-14.8-32.5-22.15-4-2.711-8.189-5.818-12.627-8.251l-1.243,1.005c5.164,2.7,9.984,6.379,14.65,9.538,9.644,6.53,19.387,12.936,28.91,19.644,17.415,12.269,30.465,28.777,46.477,42.614,14.387,12.435,30.376,24.379,37.568,42.668,3.207,8.158,5.326,16.713,11.614,23.185,6.563,6.756,15.6,11.057,23.692,15.651,17.587,9.99,35.442,19.63,53.707,28.356l1.189-.961c-15.858-8.05-31.669-16.184-47.195-24.877-9.4-5.262-19.956-10.183-28.117-17.309" transform="translate(24.742 16.438)" fill="#d67b3c"/>
        <path id="Trazado_733155" data-name="Trazado 733155" d="M188.507,111.438c-14.7-7.9-27.632-18.264-41.948-26.723-7.008-4.141-14.223-7.96-20.94-12.579-7.416-5.1-13.044-11.46-19.142-17.974C101.286,48.617,95,43.27,87.186,42.28c-2.557-.322-4.961,0-6.269,1.467-1.191,1.333-1.553,3.305-.967,5.76.874,8.077,9.693,16.732,14.329,21.564,4.774,4.977,9.839,9.689,14.252,15,5.106,6.146,8.813,13.16,12.537,20.186,6.675,12.595,14.517,23.431,25.643,32.481,10.783,8.768,23.034,15.476,35.524,21.465,6.987,3.35,14.067,6.5,21.1,9.747l1.617-1.31c-3.956-1.764-7.911-3.495-11.782-5.266-12.487-5.719-24.933-11.653-36.352-19.345-11.31-7.618-21.484-16.977-28.69-28.643-6.941-11.242-11.892-23.35-20.844-33.269C102.5,76.809,97.191,72,92.34,66.757c-3.412-3.691-10.1-10.52-10.742-17.872-.338-3.892,1.611-4.6,3.765-4.834a18.64,18.64,0,0,1,7.79,1.31,35.485,35.485,0,0,1,9.6,6.866c5.335,5.139,9.741,11.13,15.416,15.931,10.8,9.143,23.925,14.887,35.633,22.7,12.1,8.077,23.69,16.392,36.592,23.208,12.421,6.565,25.2,12.436,37.6,19.036,4.191,2.231,8.214,4.592,12.139,7.057l1.555-1.258c-3.444-2.018-6.912-3.933-10.312-5.764-14.1-7.6-28.753-14.121-42.863-21.7" transform="translate(74.067 39.199)" fill="#d67b3c"/>
        <path id="Trazado_733156" data-name="Trazado 733156" d="M169.2,97.994a192.672,192.672,0,0,0-22.515-12.429c-6.75-3.244-13.764-7.2-21.016-9.195-2.79-.768-11.074-2.308-12.438,1.638-.56,1.613,1.11,3.209,1.947,4.315a81.807,81.807,0,0,0,7.63,8.552c11.142,11.055,24.666,17.961,38.815,24.4,8.741,3.983,17.861,6.962,26.424,10.968l1.451-1.173c-3.734-1.69-7.576-3.145-11.29-4.558-13.1-4.984-26.525-10.43-38.417-17.93a93.381,93.381,0,0,1-15.97-12.726c-2.217-2.2-5.013-4.679-6.669-7.362-.961-1.553-3.232-5.594,2.445-5.476a23.718,23.718,0,0,1,7.236,1.229,196.5,196.5,0,0,1,39.538,19.47c6.763,4.27,13.114,9.2,20.163,13.017,4.187,2.269,8.411,4.288,12.458,6.648l1.025-.83c-3.269-2.072-6.814-3.753-10.256-5.542-7.244-3.759-13.76-8.552-20.56-13.021" transform="translate(105.155 70.114)" fill="#d67b3c"/>
        <path id="Trazado_733157" data-name="Trazado 733157" d="M188.759,107.985l-39.7-22.7q-10.067-5.757-20.138-11.516c-6.2-3.558-12.477-7.242-17.332-12.583-8.415-9.256-12-21.944-15.5-34.056l-1.3-.753c2.5,10.177,5.384,20.522,10.762,29.388,7.111,11.723,19.5,17.687,31.005,24.267C164.106,95.8,191.4,112.247,219.523,127c7.794,4.087,15.628,8.027,22.988,12.878.378.249.739.519,1.113.772l1.418-1.15c-5.177-3.421-10.52-6.586-15.975-9.455-13.571-7.134-27-14.447-40.308-22.058" transform="translate(88.108 24.517)" fill="#d67b3c"/>
        <path id="Trazado_733158" data-name="Trazado 733158" d="M83.032,46.074c6.669,3.359,13.253,7.1,20.6,8.755A72.6,72.6,0,0,0,127.4,55.943c5.766-.654,9.519-2.883,10.731-8.843a46.45,46.45,0,0,0-.237-18.808l-2.117-1.221c.118.436.251.863.351,1.312,1.368,6.09,3.248,20.423-3.159,24.468-2.97,1.878-7.282,1.694-10.686,1.824a82.628,82.628,0,0,1-10.252-.249A58.27,58.27,0,0,1,90.4,47.913C70.235,37.785,49.98,27.822,31.992,14.249l-1.023.828c8.907,7.555,18.98,13.658,29.29,19.263,7.5,4.079,15.148,7.892,22.773,11.734" transform="translate(28.79 13.246)" fill="#d67b3c"/>
        <path id="Trazado_733159" data-name="Trazado 733159" d="M65.541,25.478c9.994,6.7,21.027,14.281,33.716,12.361,3.522-.535,9.511-2.159,11.246-5.768,1.3-2.7.347-7.219-.664-10.733l-2.049-1.183a39.441,39.441,0,0,1,1.3,6.458c.482,4.288-2.121,7.225-6.019,8.633-5.162,1.862-10.989,1.526-16.188.012-10.461-3.047-19.225-10.543-28.35-16.2-6.3-3.9-12.836-7.261-19.391-10.611l-1,.807c2.856,1.528,5.743,3,8.558,4.594q9.641,5.45,18.835,11.63" transform="translate(35.463 7.853)" fill="#d67b3c"/>
        <path id="Trazado_733160" data-name="Trazado 733160" d="M159.57,194.612c.313-7.2,1.862-14.273,2.121-21.469.81-22.536-14.067-42.3-14.9-64.43l-7.06,5.717c-.326,8.876.421,17.542,4.425,26.37,2.545,5.611,5.681,10.987,7.508,16.9,1.891,6.121,1.951,12.479,1.727,18.825-.511,14.569-.868,29.232-2.2,43.752-.546,5.978-1.306,11.923-1.511,17.917l13.54-7.855c-.924-4.845-1.793-9.7-2.454-14.592a119.011,119.011,0,0,1-1.2-21.137" transform="translate(129.836 101.063)" fill="#a04e17"/>
        <path id="Trazado_733161" data-name="Trazado 733161" d="M144.1,176.554c2.819-9.776,4.091-19.107,1.453-29.11a51.13,51.13,0,0,0-11.277-20.7V233.285l7.248-4.2c-.189-7.6-.058-15.248-.195-22.777-.183-10.206-.075-19.879,2.771-29.749" transform="translate(124.825 117.822)" fill="#a04e17"/>
        <path id="Trazado_733162" data-name="Trazado 733162" d="M178.6,150.576c.1,13.716,1.989,27.073,8.353,39.374.525,1.013,1.079,2.045,1.642,3.089V77.022L175.945,87.266c6.277,20.089,2.514,42.7,2.659,63.309" transform="translate(163.564 71.602)" fill="#a04e17"/>
        <path id="Trazado_733163" data-name="Trazado 733163" d="M167.641,196.418c-.326,2.877.191,4.656,2.346,3.938.517.027,2.746-2.655,5.2-5.725,2.387-2.989,3.853-6.607,5.581-10.019,3.566-7.039,7.317-14.135,8.6-22.005,1.337-8.186,1.447-16.651,2-24.917.569-8.483,1.53-17.081.845-25.583-.654-8.139-2.96-16.068-3.342-24.236-.006-.151-.01-.3-.015-.452l-9.752,7.9q.043.37.087.735,1.635,13.181,2.605,26.43c.619,8.483,1.212,17.037,1.21,25.544,0,5.528-.45,11.58-3.354,16.44-1.3,2.171-4.838,7.035-7.857,4.949-2.14-1.476-2.221-5.98-2.674-8.137q-1.285-6.113-2.323-12.271a310.072,310.072,0,0,1-4.143-40.372L149.01,119.68c1.31,12,4.706,23.665,8.4,35.274,4.315,13.571,11.848,27.233,10.233,41.464" transform="translate(138.524 81.267)" fill="#a04e17"/>
        <path id="Trazado_733164" data-name="Trazado 733164" d="M178.6,155.1c-2.68-7.94-8.321,1.36-9.878,3.734-2.067,3.153-2.1,6.626-1.989,10.277.044,1.424.143,2.844.247,4.264L179.02,166.4c0-.536.015-1.073.01-1.609-.031-2.833.488-6.966-.428-9.683" transform="translate(154.968 141.263)" fill="#a04e17"/>
        <path id="Trazado_733165" data-name="Trazado 733165" d="M163.4,154.756c.6,2.908,1.575,11.5,5.808,7.236a16.9,16.9,0,0,0,4.06-7.61c1.467-5.451,1.192-11.205,1-16.79q-.373-10.617-1.173-21.212-.735-9.711-1.831-19.389c-.178-1.577-.311-3.232-.467-4.909l-14.308,11.584c.741,10.337,1.818,20.661,3.334,30.9q1.5,10.142,3.581,20.19" transform="translate(145.475 85.602)" fill="#a04e17"/>
        <path id="Trazado_733166" data-name="Trazado 733166" d="M156.511,173.143c.32-7.854-.029-15.294-2.962-22.671-2.348-5.912-5.584-11.437-7.7-17.448a55.751,55.751,0,0,1-2.729-20.67l-8.849,7.165v19.669a47.628,47.628,0,0,1,13.359,43.386c-1.194,5.822-3.361,11.366-4.156,17.28a114.947,114.947,0,0,0-.48,18.005c.179,7.7.641,15.5.793,23.281l9.235-5.359c.162-6.254.633-12.527,1.21-18.885,1.322-14.524,1.683-29.182,2.277-43.752" transform="translate(124.825 104.448)" fill="#a04e17"/>
        <path id="Trazado_733167" data-name="Trazado 733167" d="M189.845,138.846c-3.346-4.264-5.206,1.385-5.548,2.022-.689,1.285-1.436,2.547-2.233,3.769a52.731,52.731,0,0,1-4.552,5.968c-4.3,4.9-10.343,8.317-13.992,13.764-3.828,5.719-4.4,12.874-3.96,19.561a97.432,97.432,0,0,0,1.449,10.488l11.13-6.457a40.573,40.573,0,0,1,.048-11.562c.646-3.726,3.468-6.877,5.6-9.876,1.279-1.8,2.865-4.189,5.368-4.025,2.221.145,3.138,2.107,3.564,4.056.861,3.95.772,8.409.749,12.516l9.741-5.652c-.892-7.784-.278-15.815-2.229-23.549-.37-1.472-2.564-7.749-5.133-11.022" transform="translate(148.214 127.607)" fill="#a04e17"/>
        <path id="Trazado_733168" data-name="Trazado 733168" d="M206.881,145.979c-.166-21.349,3.064-42.533-2.105-63.209l-9.332,7.555c.006.627.019,1.252.052,1.866.567,10.87,3.774,21.257,3.537,32.223-.206,9.639-1.146,19.292-1.793,28.91-.573,8.539-1.125,16.734-4.457,24.724a138.47,138.47,0,0,1-11.655,22.5c-1.4,2.134-7.2,11.408-9.9,5.638-1.285-2.74-.706-7.547-1.152-10.538-.6-4.062-1.449-8.087-2.437-12.072-2.119-8.552-4.863-16.927-7.473-25.338-3.365-10.845-6.553-21.969-7.5-33.275l-8.859,7.17c2.036,23.306,17.21,43.93,15.472,67.826-.542,7.464-1.939,14.8-1.959,22.3a141.636,141.636,0,0,0,2.427,24.391c.394,2.289.845,4.566,1.283,6.846l12.764-7.406c-.17-1.077-.343-2.157-.519-3.253-1.084-6.823-1.8-13.947-.139-20.744,1.843-7.553,6.729-11.937,12.409-16.836,6.337-5.469,10.686-11.917,14.341-19.439.527-1.084,1.532-2.206,3.6-.982,2.207,1.308,5.166,5.777,6.061,9.11,1.976,7.352,2.815,19.632,3.707,29.251l5.225-3.031V191.615c-2.074-4.016-4.276-8.035-6.005-12.267-4.315-10.561-5.505-22.05-5.592-33.369" transform="translate(133.685 76.945)" fill="#a04e17"/>
        <path id="Trazado_733169" data-name="Trazado 733169" d="M154.165,173.773c.224-6.347.164-12.707-1.727-18.827-1.827-5.912-4.963-11.29-7.508-16.9-4-8.83-4.751-17.494-4.427-26.37l-1.615,1.308a55.75,55.75,0,0,0,2.727,20.67c2.113,6.011,5.349,11.535,7.7,17.448,2.931,7.377,3.28,14.818,2.96,22.671-.594,14.571-.953,29.228-2.275,43.752-.579,6.358-1.05,12.631-1.212,18.885l1.671-.969c.2-5.993.965-11.939,1.511-17.917,1.328-14.52,1.683-29.184,2.2-43.752" transform="translate(129.062 103.817)" fill="#b25b20"/>
        <path id="Trazado_733170" data-name="Trazado 733170" d="M157.736,198.48c.019-7.508,1.414-14.841,1.959-22.3,1.739-23.9-13.436-44.52-15.472-67.825l-.864.7c.832,22.131,15.709,41.892,14.9,64.43-.26,7.2-1.808,14.273-2.121,21.469a119.011,119.011,0,0,0,1.2,21.137c.662,4.89,1.53,9.747,2.454,14.592l1.656-.961c-.438-2.281-.89-4.558-1.285-6.846a141.612,141.612,0,0,1-2.426-24.391" transform="translate(133.27 100.726)" fill="#b25b20"/>
        <path id="Trazado_733171" data-name="Trazado 733171" d="M163.375,179.933c.984,3.985,1.831,8.01,2.435,12.072.446,2.989-.133,7.8,1.152,10.538,2.7,5.768,8.5-3.5,9.9-5.638a138.633,138.633,0,0,0,11.657-22.5c3.331-7.991,3.884-16.188,4.456-24.724.646-9.619,1.584-19.271,1.793-28.912.235-10.964-2.97-21.351-3.537-32.221-.033-.614-.046-1.239-.052-1.866L189.429,88.1c0,.149.008.3.013.45.382,8.168,2.69,16.1,3.342,24.236.687,8.5-.274,17.1-.845,25.583-.554,8.267-.664,16.732-2,24.917-1.285,7.871-5.036,14.966-8.6,22.005-1.727,3.412-3.194,7.03-5.581,10.019-2.451,3.07-4.679,5.752-5.195,5.725-2.157.718-2.674-1.061-2.348-3.938,1.615-14.231-5.918-27.893-10.233-41.464-3.691-11.609-7.088-23.271-8.4-35.274l-1.187.959c.951,11.306,4.137,22.43,7.506,33.275,2.609,8.409,5.353,16.786,7.473,25.338" transform="translate(137.952 80.586)" fill="#b25b20"/>
        <path id="Trazado_733172" data-name="Trazado 733172" d="M162.548,157.473c.453,2.157.535,6.661,2.673,8.137,3.022,2.086,6.561-2.779,7.857-4.949,2.906-4.861,3.354-10.912,3.356-16.44,0-8.508-.59-17.062-1.21-25.544q-.967-13.245-2.605-26.43-.043-.365-.087-.735l-1.358,1.1c.156,1.677.289,3.332.467,4.909q1.1,9.676,1.831,19.389.8,10.594,1.173,21.212c.195,5.584.471,11.339-1,16.79a16.885,16.885,0,0,1-4.06,7.609c-4.234,4.266-5.212-4.328-5.808-7.234q-2.061-10.044-3.581-20.19c-1.519-10.241-2.593-20.564-3.336-30.9l-.783.635a310.4,310.4,0,0,0,4.145,40.372q1.033,6.159,2.323,12.271" transform="translate(145.097 85.071)" fill="#b25b20"/>
        <path id="Trazado_733173" data-name="Trazado 733173" d="M187.462,185.014c-6.364-12.3-8.257-25.658-8.353-39.374-.147-20.607,3.618-43.22-2.659-63.309l-1.048.847c5.169,20.676,1.939,41.861,2.105,63.209.087,11.319,1.277,22.81,5.592,33.369,1.729,4.232,3.931,8.253,6.005,12.267V188.1c-.563-1.044-1.119-2.076-1.642-3.087" transform="translate(163.059 76.537)" fill="#b25b20"/>
        <path id="Trazado_733174" data-name="Trazado 733174" d="M189.827,135.923c-2.067-1.223-3.072-.1-3.6.98-3.655,7.524-8,13.972-14.341,19.439-5.681,4.9-10.567,9.285-12.408,16.838-1.658,6.8-.947,13.918.139,20.744.174,1.1.347,2.177.517,3.253l1.746-1.013a97.051,97.051,0,0,1-1.449-10.489c-.444-6.686.131-13.841,3.96-19.559,3.649-5.449,9.687-8.867,13.992-13.764a52.906,52.906,0,0,0,4.552-5.968c.8-1.221,1.542-2.485,2.231-3.771.342-.635,2.2-6.285,5.55-2.02,2.568,3.273,4.76,9.548,5.133,11.02,1.949,7.736,1.337,15.767,2.229,23.551l1.517-.88c-.891-9.621-1.731-21.9-3.707-29.253-.9-3.332-3.853-7.8-6.061-9.108" transform="translate(147.343 125.862)" fill="#b25b20"/>
        <path id="Trazado_733175" data-name="Trazado 733175" d="M180.782,154.4c-.425-1.947-1.341-3.909-3.564-4.054-2.5-.164-4.089,2.225-5.366,4.025-2.13,3-4.951,6.15-5.6,9.876a40.507,40.507,0,0,0-.046,11.562l1.594-.924c-.1-1.42-.2-2.84-.247-4.264-.112-3.651-.077-7.124,1.989-10.277,1.555-2.375,7.2-11.674,9.878-3.734.917,2.717.4,6.85.428,9.681.006.536-.012,1.073-.012,1.609l1.692-.982c.023-4.106.112-8.566-.749-12.518" transform="translate(154.148 139.759)" fill="#b25b20"/>
        <path id="Trazado_733176" data-name="Trazado 733176" d="M143.476,186.926c.8-5.914,2.962-11.458,4.156-17.28a47.626,47.626,0,0,0-13.359-43.386v.928a51.13,51.13,0,0,1,11.277,20.7c2.638,10,1.366,19.333-1.453,29.11-2.846,9.87-2.954,19.541-2.771,29.747.135,7.531.006,15.178.193,22.779l2.269-1.316c-.152-7.776-.614-15.58-.793-23.281a114.935,114.935,0,0,1,.48-18.005" transform="translate(124.825 117.375)" fill="#b25b20"/>
        <path id="Trazado_733177" data-name="Trazado 733177" d="M34.275,63.265l188.7,109.512.361-5.289L34.275,58.333Z" transform="translate(31.863 54.228)" fill="#b75f25"/>
        <path id="Trazado_733178" data-name="Trazado 733178" d="M73.377,79.707C70.506,83,67.875,86.6,65.2,90.035c.826-6.426,2.632-17.208,3.213-20.873-3.942,1.521-10.642,11.807-11.483,18.961-2.036-7.5-1.513-19-.9-25.595-4.1,7.061-5.256,17.423-3.817,25.062C46.759,83.667,37.928,84.508,32.137,87,24.47,83.14,13.842,86.764,6.92,91.432c5.007,1.789,9.407,4.658,13.554,7.286A55.055,55.055,0,0,0,8.4,102.275c5.169,1.322,15.535.87,18.1,1.789-8.461.961-17.56,4.55-21.384,12.33-2.038,4.145,4.06,8.07,6.555,10.069,6.387,5.121,13,9.98,19.761,14.592A85.989,85.989,0,0,0,41.818,147.6c3.4,1.659,7.1,2.37,10.675,3.545a44,44,0,0,1,10.679,5.21c3,2,5.4,4.587,8.189,6.786.369.471.733.944,1.1,1.416a.96.96,0,0,0,.915.288Z" transform="translate(4.37 58.128)" fill="#ffd385"/>
        <g id="Grupo_997388" data-name="Grupo 997388" transform="translate(23.331 150.891)" opacity="0.5">
          <g id="Grupo_997387" data-name="Grupo 997387">
            <g id="Grupo_997386" data-name="Grupo 997386" clip-path="url(#clip-path-3)">
              <path id="Trazado_733179" data-name="Trazado 733179" d="M66.507,94.2c-2.719-.288-5.775.044-7.589,1.125.289-1.658,1.374-7.8,3.188-11.829-6.165.8-9.28,5.249-10.534,10.746A46.42,46.42,0,0,1,51.824,78.2c-3.232,2.952-6.79,7.333-7.178,11.917-2.827-3.732-9.253-3.56-12.641-.527-2.111-5.681-7.39-10.219-13.8-9.519,7.115,3.2,9.035,12.62,9.258,13.818-5.177-.807-14,.627-15.371,5.636,6.715-2.184,12.867.027,18.883,2.584-6.3.3-11.6,7.6-11.6,7.618,5.739-.492,14.287-1.8,21.67.546-3.67,2.8-9.8,7.784-9.154,10.661,4.874-1.152,8.8-1.756,12.263-3.06-3.057,3.435-5.582,8.51-4.812,12.658a.6.6,0,0,0,.166.8.3.3,0,0,0,.039.031c.066.21.129.421.214.623a.312.312,0,0,0,.594,0A88.033,88.033,0,0,0,58.811,142.76c1.534.687,4.922,2.873,7.7,3.643Z" transform="translate(-12.091 -78.197)" fill="#e8ac54"/>
            </g>
          </g>
        </g>
        <path id="Trazado_733180" data-name="Trazado 733180" d="M119.814,107.387c-2.871,3.288-5.5,6.893-8.172,10.327.826-6.426,2.632-17.208,3.213-20.873-3.942,1.521-10.642,11.807-11.483,18.961-2.036-7.5-1.513-19-.9-25.595-4.1,7.061-5.256,17.423-3.817,25.062-5.459-3.921-14.291-3.082-20.082-.594-7.666-3.855-18.295-.232-25.216,4.436,5.007,1.789,9.407,4.658,13.554,7.286a55.265,55.265,0,0,0-12.076,3.556c5.169,1.322,15.535.87,18.1,1.789-8.461.961-17.56,4.55-21.384,12.33-2.038,4.145,4.06,8.07,6.555,10.069,6.387,5.121,13,9.98,19.761,14.592a85.992,85.992,0,0,0,10.391,6.545c3.4,1.661,7.1,2.37,10.675,3.545a43.936,43.936,0,0,1,10.679,5.212c3,2,5.4,4.585,8.189,6.785.369.471.733.946,1.1,1.416a.96.96,0,0,0,.915.288Z" transform="translate(47.539 83.86)" fill="#ffd385"/>
        <g id="Grupo_997391" data-name="Grupo 997391" transform="translate(112.937 204.303)" opacity="0.5">
          <g id="Grupo_997390" data-name="Grupo 997390">
            <g id="Grupo_997389" data-name="Grupo 997389" clip-path="url(#clip-path-3)">
              <path id="Trazado_733181" data-name="Trazado 733181" d="M112.944,121.877c-2.719-.288-5.775.044-7.591,1.125.291-1.658,1.376-7.8,3.19-11.829-6.165.8-9.28,5.249-10.534,10.746a46.42,46.42,0,0,1,.253-16.043c-3.232,2.952-6.79,7.333-7.178,11.917-2.827-3.732-9.253-3.56-12.641-.527-2.111-5.681-7.39-10.219-13.8-9.519,7.115,3.2,9.035,12.62,9.258,13.818-5.177-.807-14,.627-15.371,5.636,6.715-2.184,12.867.027,18.883,2.584-6.3.3-11.6,7.6-11.6,7.618,5.739-.492,14.287-1.8,21.67.546-3.67,2.8-9.8,7.784-9.154,10.661,4.874-1.152,8.8-1.756,12.261-3.06-3.055,3.435-5.58,8.51-4.811,12.658a.6.6,0,0,0,.166.8.3.3,0,0,0,.039.031c.066.21.129.421.214.623a.312.312,0,0,0,.594,0,87.951,87.951,0,0,0,18.459,10.767c1.534.689,4.923,2.873,7.7,3.643Z" transform="translate(-58.528 -105.877)" fill="#e8ac54"/>
            </g>
          </g>
        </g>
        <path id="Trazado_733182" data-name="Trazado 733182" d="M165.152,133.9c-2.871,3.288-5.5,6.893-8.172,10.327.826-6.426,2.632-17.208,3.213-20.873-3.942,1.521-10.642,11.807-11.483,18.961-2.036-7.5-1.513-19-.9-25.595-4.1,7.061-5.256,17.423-3.817,25.062-5.459-3.921-14.291-3.082-20.082-.594-7.666-3.853-18.295-.232-25.216,4.436,5.007,1.789,9.407,4.658,13.556,7.286a55.249,55.249,0,0,0-12.078,3.556c5.169,1.322,15.535.87,18.1,1.789-8.461.961-17.56,4.55-21.384,12.33-2.038,4.145,4.06,8.07,6.555,10.071,6.387,5.119,13,9.978,19.761,14.59a86,86,0,0,0,10.391,6.545c3.4,1.661,7.1,2.37,10.675,3.545a43.937,43.937,0,0,1,10.679,5.212c3,2,5.4,4.587,8.189,6.785.369.471.733.945,1.1,1.416a.955.955,0,0,0,.913.288Z" transform="translate(89.687 108.51)" fill="#ffd385"/>
        <g id="Grupo_997394" data-name="Grupo 997394" transform="translate(200.423 255.47)" opacity="0.5">
          <g id="Grupo_997393" data-name="Grupo 997393">
            <g id="Grupo_997392" data-name="Grupo 997392" clip-path="url(#clip-path-5)">
              <path id="Trazado_733183" data-name="Trazado 733183" d="M158.282,148.393c-2.719-.288-5.775.044-7.589,1.125.289-1.658,1.374-7.8,3.188-11.829-6.165.8-9.28,5.249-10.532,10.746a46.353,46.353,0,0,1,.251-16.043c-3.232,2.952-6.79,7.333-7.176,11.917-2.829-3.732-9.255-3.56-12.643-.527-2.109-5.681-7.39-10.217-13.8-9.519,7.115,3.2,9.035,12.62,9.258,13.818-5.177-.807-14,.627-15.371,5.636,6.715-2.184,12.867.027,18.883,2.584-6.3.3-11.6,7.6-11.6,7.62,5.739-.494,14.287-1.8,21.67.544-3.67,2.8-9.8,7.784-9.154,10.661,4.874-1.152,8.8-1.756,12.263-3.06-3.057,3.437-5.582,8.51-4.812,12.658a.6.6,0,0,0,.166.8c.012.012.027.021.039.031.066.21.129.421.214.623a.312.312,0,0,0,.594,0,87.949,87.949,0,0,0,18.459,10.767c1.534.689,4.922,2.873,7.7,3.643Z" transform="translate(-103.866 -132.394)" fill="#e8ac54"/>
            </g>
          </g>
        </g>
        <path id="Trazado_733184" data-name="Trazado 733184" d="M44.706,66.64l-4.542-3.379V184.371l4.542,4.847Z" transform="translate(37.338 58.809)" fill="#b75f25"/>
        <path id="Trazado_733185" data-name="Trazado 733185" d="M91.271,92.989,86.729,89.61V210.721l4.542,4.845Z" transform="translate(80.626 83.304)" fill="#b75f25"/>
        <path id="Trazado_733186" data-name="Trazado 733186" d="M249.314,265.666,0,120.979V91.909L249.314,236.6Z" transform="translate(0 85.441)" fill="#ceb5b3"/>
        <path id="Trazado_733187" data-name="Trazado 733187" d="M5.525,90.267,0,93.437,249.314,238.125l5.525-3.17Z" transform="translate(0 83.915)" fill="#efdcda"/>
        <path id="Trazado_733188" data-name="Trazado 733188" d="M134.728,165.249l-5.525,3.17v29.068l5.525-3.17Z" transform="translate(120.111 153.62)" fill="#ddc6c3"/>
        <path id="Trazado_733189" data-name="Trazado 733189" d="M4.691,107.461c0,1.146-.7,1.673-1.555,1.175a3.72,3.72,0,0,1-1.557-2.972c0-1.146.7-1.673,1.557-1.175a3.724,3.724,0,0,1,1.555,2.972" transform="translate(1.468 96.962)" fill="#a58c8b"/>
        <path id="Trazado_733190" data-name="Trazado 733190" d="M4.691,97.918c0,1.146-.7,1.673-1.555,1.177a3.727,3.727,0,0,1-1.557-2.974c0-1.146.7-1.673,1.557-1.177a3.731,3.731,0,0,1,1.555,2.974" transform="translate(1.468 88.09)" fill="#a58c8b"/>
        <path id="Trazado_733191" data-name="Trazado 733191" d="M42.946,129.888c0,1.146-.7,1.673-1.555,1.177a3.727,3.727,0,0,1-1.557-2.974c0-1.146.7-1.673,1.557-1.177a3.731,3.731,0,0,1,1.555,2.974" transform="translate(37.031 117.81)" fill="#a58c8b"/>
        <path id="Trazado_733192" data-name="Trazado 733192" d="M42.946,120.345c0,1.146-.7,1.673-1.555,1.177a3.724,3.724,0,0,1-1.557-2.974c0-1.146.7-1.673,1.557-1.175a3.724,3.724,0,0,1,1.555,2.972" transform="translate(37.031 108.939)" fill="#a58c8b"/>
        <path id="Trazado_733193" data-name="Trazado 733193" d="M90.211,157.166c0,1.146-.7,1.673-1.555,1.177A3.727,3.727,0,0,1,87.1,155.37c0-1.146.7-1.673,1.557-1.177a3.731,3.731,0,0,1,1.555,2.974" transform="translate(80.97 143.169)" fill="#a58c8b"/>
        <path id="Trazado_733194" data-name="Trazado 733194" d="M90.211,147.623c0,1.146-.7,1.673-1.555,1.175a3.72,3.72,0,0,1-1.557-2.972c0-1.146.7-1.673,1.557-1.177a3.728,3.728,0,0,1,1.555,2.974" transform="translate(80.97 134.297)" fill="#a58c8b"/>
        <path id="Trazado_733195" data-name="Trazado 733195" d="M128.647,179.587c0,1.146-.7,1.673-1.555,1.175a3.72,3.72,0,0,1-1.557-2.972c0-1.146.7-1.673,1.557-1.177a3.731,3.731,0,0,1,1.555,2.974" transform="translate(116.7 164.012)" fill="#a58c8b"/>
        <path id="Trazado_733196" data-name="Trazado 733196" d="M128.647,170.044c0,1.146-.7,1.673-1.555,1.177a3.727,3.727,0,0,1-1.557-2.974c0-1.146.7-1.673,1.557-1.175a3.724,3.724,0,0,1,1.555,2.972" transform="translate(116.7 155.141)" fill="#a58c8b"/>
        <path id="Trazado_733197" data-name="Trazado 733197" d="M81.591,110.085c-5.025-2.09-11.111,2.705-12.068,5.229-1.333,3.516-1.607,5.225-.156,7.473,2.275,3.524,8.432,4.108,12.147,1.972,6.314-3.632,6.208-12.124.077-14.675" transform="translate(63.581 101.86)" fill="#fff"/>
        <path id="Trazado_733198" data-name="Trazado 733198" d="M78.444,115.652c5.025-2.09,9.718.5,12.068,5.229,1.675,3.367,1.607,5.225.156,7.473-2.275,3.523-8.432,4.108-12.147,1.972-6.314-3.632-6.21-12.124-.077-14.675" transform="translate(68.621 106.834)" fill="#fff4f3"/>
        <path id="Trazado_733199" data-name="Trazado 733199" d="M134.92,139.692c-5.027-2.09-11.113,2.705-12.07,5.229-1.333,3.516-1.607,5.225-.156,7.473,2.275,3.523,8.433,4.11,12.147,1.972,6.314-3.632,6.21-12.124.079-14.675" transform="translate(113.156 129.384)" fill="#fff"/>
        <path id="Trazado_733200" data-name="Trazado 733200" d="M125.613,132.046c-5.025-2.09-11.111,2.705-12.068,5.229-1.333,3.516-1.607,5.225-.156,7.473,2.275,3.523,8.432,4.108,12.147,1.972,6.314-3.632,6.21-12.124.077-14.675" transform="translate(104.505 122.276)" fill="#fff"/>
        <path id="Trazado_733201" data-name="Trazado 733201" d="M119.692,142.445c5.025-2.09,9.716.5,12.068,5.229,1.675,3.367,1.607,5.225.156,7.473-2.275,3.523-8.432,4.108-12.147,1.972-6.314-3.632-6.21-12.124-.077-14.675" transform="translate(106.966 131.742)" fill="#fff4f3"/>
        <path id="Trazado_733202" data-name="Trazado 733202" d="M32.711,84.957c5.025-2.09,11.111,2.705,12.068,5.229,1.333,3.516,1.607,5.225.156,7.473-2.275,3.523-8.432,4.108-12.147,1.972-6.314-3.632-6.21-12.124-.077-14.675" transform="translate(26.106 78.5)" fill="#fff"/>
        <path id="Trazado_733203" data-name="Trazado 733203" d="M33.308,87.928c-5.025-2.09-9.718.5-12.068,5.229-1.675,3.367-1.607,5.225-.156,7.473,2.275,3.524,8.432,4.11,12.147,1.972,6.314-3.632,6.208-12.124.077-14.675" transform="translate(18.583 81.061)" fill="#fff4f3"/>
        <path id="Trazado_733204" data-name="Trazado 733204" d="M33.807,92.242c5.025-2.09,9.716.5,12.068,5.229,1.675,3.367,1.607,5.225.156,7.473-2.275,3.524-8.432,4.108-12.147,1.972-6.314-3.632-6.21-12.124-.077-14.675" transform="translate(27.125 85.072)" fill="#fff4f3"/>
        <path id="Trazado_733205" data-name="Trazado 733205" d="M94.226,98.851a7.576,7.576,0,0,0-1.822,7.024c.151.423.924.556,1,0,.156-1.152.021-2.3.253-3.452s.772-2.167,1.061-3.284a.3.3,0,0,0-.492-.288" transform="translate(85.662 91.823)" fill="#964a17"/>
        <path id="Trazado_733206" data-name="Trazado 733206" d="M8.958,50.052a7.576,7.576,0,0,0-1.822,7.024c.151.423.924.556,1,0,.156-1.152.021-2.3.253-3.452s.772-2.167,1.063-3.284a.3.3,0,0,0-.494-.288" transform="translate(6.394 46.458)" fill="#964a17"/>
        <path id="Trazado_733207" data-name="Trazado 733207" d="M47.286,106.855a7.576,7.576,0,0,0-1.822,7.024c.151.423.924.556,1,0,.156-1.152.021-2.3.253-3.452s.772-2.167,1.061-3.284a.3.3,0,0,0-.492-.288" transform="translate(42.025 99.264)" fill="#964a17"/>
        <path id="Trazado_733208" data-name="Trazado 733208" d="M98.333,102.576a7.954,7.954,0,0,0-3.313-2.842.27.27,0,0,0-.3.392c.751,1.2,1.9,2.132,2.7,3.315.758,1.121,1.191,2.474,2.011,3.533.274.355.911.056.884-.367a8.156,8.156,0,0,0-1.982-4.031" transform="translate(88.021 92.704)" fill="#964a17"/>
        <path id="Trazado_733209" data-name="Trazado 733209" d="M96.975,144.049c-.654-1.206-1.889-2.047-2.632-3.232-.654-1.044-.969-2.439-1.81-3.327a.2.2,0,0,0-.336.089c-.426,1.308.442,2.991,1.1,4.1.706,1.193,1.721,2.705,3.112,3.112a.509.509,0,0,0,.569-.739" transform="translate(85.604 127.76)" fill="#964a17"/>
        <path id="Trazado_733210" data-name="Trazado 733210" d="M52.706,116.552c-.654-1.206-1.889-2.047-2.63-3.232-.656-1.044-.971-2.439-1.812-3.327a.2.2,0,0,0-.336.089c-.426,1.308.442,2.991,1.1,4.1.706,1.193,1.721,2.705,3.112,3.113a.509.509,0,0,0,.569-.739" transform="translate(44.451 102.197)" fill="#964a17"/>
        <path id="Trazado_733211" data-name="Trazado 733211" d="M7,90.063c-.195-1.358-1.059-2.576-1.345-3.944-.251-1.208-.062-2.624-.542-3.749a.2.2,0,0,0-.347-.033c-.855,1.079-.623,2.956-.394,4.222.249,1.364.675,3.134,1.837,4a.509.509,0,0,0,.791-.5" transform="translate(3.868 76.466)" fill="#964a17"/>
        <path id="Trazado_733212" data-name="Trazado 733212" d="M117.112,112.744a.32.32,0,0,0-.434.434,12.768,12.768,0,0,1,1.416,2.686c.284.932.135,1.935.434,2.837a.6.6,0,0,0,1.079.141c1.015-1.955-.679-5.187-2.5-6.1" transform="translate(108.425 104.777)" fill="#964a17"/>
        <path id="Trazado_733213" data-name="Trazado 733213" d="M10.871,52.218a.319.319,0,0,0-.434.432,12.83,12.83,0,0,1,1.416,2.688c.284.932.135,1.933.434,2.837a.6.6,0,0,0,1.079.141c1.015-1.955-.679-5.187-2.5-6.1" transform="translate(9.66 48.51)" fill="#964a17"/>
        <path id="Trazado_733214" data-name="Trazado 733214" d="M181.173,85.665c-.3-.863-.789-2.445-1.887-2.462a.045.045,0,0,0-.041.033c-.322.868.465,1.926.673,2.775.3,1.208.141,2.441.453,3.632a.459.459,0,0,0,.83.108,5.214,5.214,0,0,0-.029-4.085" transform="translate(166.56 77.348)" fill="#894415"/>
        <path id="Trazado_733215" data-name="Trazado 733215" d="M142.21,178.069c-.5-.845-1.866-.971-2.713-1.385-1.057-.519-2.03-1.187-3.084-1.712a.211.211,0,0,0-.286.286,6.844,6.844,0,0,0,2.69,2.588c.861.5,2.242,1.391,3.222.874a.482.482,0,0,0,.17-.65" transform="translate(126.523 162.636)" fill="#894415"/>
        <path id="Trazado_733216" data-name="Trazado 733216" d="M142.471,172.018a.536.536,0,0,0-.992.268,14.237,14.237,0,0,1,.087,3.4c-.179,1.148-.77,2.144-1,3.263a.624.624,0,0,0,1.034.6c1.8-1.661,1.885-5.459.868-7.535" transform="translate(130.664 159.674)" fill="#894415"/>
        <path id="Trazado_733217" data-name="Trazado 733217" d="M181.9,90.557a12.555,12.555,0,0,0-1.378,2.678,14.457,14.457,0,0,0-1.131,2.9.564.564,0,0,0,1.027.432,14.336,14.336,0,0,0,1.171-2.883,12.639,12.639,0,0,0,.839-2.91.313.313,0,0,0-.529-.218" transform="translate(166.754 84.098)" fill="#894415"/>
        <path id="Trazado_733218" data-name="Trazado 733218" d="M178,151.713a4.742,4.742,0,0,0-2.709-1.935.189.189,0,0,0-.16.282c.463.863,1.384,1.54,1.943,2.368a9.058,9.058,0,0,1,.753,1.306,8,8,0,0,0,.654,1.511.545.545,0,0,0,1.005-.272c.093-1.094-.832-2.443-1.486-3.259" transform="translate(162.788 139.237)" fill="#894415"/>
        <path id="Trazado_733219" data-name="Trazado 733219" d="M182.143,150a41.9,41.9,0,0,1-1.86,4.687c-.56,1.04-1.7,2.14-1.629,3.358a.335.335,0,0,0,.419.318c1.349-.33,2-2.179,2.487-3.342a12.935,12.935,0,0,0,1.218-4.934.325.325,0,0,0-.635-.087" transform="translate(166.08 139.236)" fill="#894415"/>
        <path id="Trazado_733220" data-name="Trazado 733220" d="M54.139,70.144C46.264,64.511,37.436,59.938,29.109,55,20.745,50.031,12.468,44.756,3.82,40.3a.1.1,0,0,0-.1.174C11.76,45.95,20.343,50.714,28.7,55.7c8.309,4.965,16.535,10.549,25.24,14.787a.2.2,0,0,0,.2-.347" transform="translate(3.413 37.448)" fill="#fff"/>
        <path id="Trazado_733221" data-name="Trazado 733221" d="M87.789,88.635c-8-5.457-16.925-9.833-25.359-14.588-8.473-4.778-16.865-9.87-25.61-14.135a.1.1,0,0,0-.1.176c8.164,5.3,16.85,9.872,25.311,14.675,8.417,4.78,16.765,10.181,25.562,14.225a.2.2,0,0,0,.195-.353" transform="translate(34.092 55.685)" fill="#fff"/>
        <path id="Trazado_733222" data-name="Trazado 733222" d="M58.939,125.157c-8-5.457-16.925-9.833-25.359-14.588-8.473-4.778-16.865-9.868-25.61-14.135a.1.1,0,0,0-.1.176c8.164,5.3,16.85,9.872,25.311,14.675,8.419,4.78,16.765,10.181,25.562,14.225a.2.2,0,0,0,.195-.353" transform="translate(7.272 89.637)" fill="#fff"/>
        <path id="Trazado_733223" data-name="Trazado 733223" d="M209.587,76.767c-9.561,6.727-18.411,14.644-27.468,22.029-9.648,7.867-20.207,15.277-29.08,24.008-.183.179.058.511.278.363,9.885-6.626,18.845-15.059,28.07-22.575,9.492-7.736,19.507-15.138,28.425-23.532.152-.143-.05-.417-.226-.293" transform="translate(142.209 71.336)" fill="#894415"/>
        <path id="Trazado_733224" data-name="Trazado 733224" d="M75.269,1.012C65.708,7.739,56.858,15.656,47.8,23.041c-9.648,7.867-20.207,15.275-29.08,24.008-.183.179.058.511.278.363,9.884-6.626,18.845-15.059,28.07-22.575C56.561,17.1,66.576,9.7,75.495,1.305c.152-.143-.05-.417-.226-.293" transform="translate(17.344 0.912)" fill="#894415"/>
        <path id="Trazado_733225" data-name="Trazado 733225" d="M212.527,153.948c-10.5,5.15-20.473,11.589-30.571,17.469-10.762,6.264-22.345,11.933-32.474,19.173-.208.149-.021.513.22.4,10.8-5,20.964-11.931,31.248-17.915,10.584-6.157,21.633-11.906,31.752-18.8.174-.118.015-.421-.176-.326" transform="translate(138.88 143.098)" fill="#894415"/>
        <path id="Trazado_733226" data-name="Trazado 733226" d="M191.892,224.365c4.959-.536,8.016-.859,10.762-4.529,1.04-4.3-.77-7.886-4.126-13.089-4.006-6.211-9.768-15.582-9.768-15.582l-11.516.062a57.946,57.946,0,0,0-.55,13.231,47.779,47.779,0,0,0,1.77,8.062c.947,1.82,2.254,4.251,3.373,6.047,2,3.221,4.1,6.441,10.055,5.8" transform="translate(164.08 177.714)" fill="#ceb5b3"/>
        <path id="Trazado_733227" data-name="Trazado 733227" d="M200.8,212.145a13.168,13.168,0,0,0,.9-2.6c-2.744,3.67-5.8,3.992-10.762,4.529-5.957.645-8.05-2.576-10.055-5.8-1.117-1.8-2.424-4.228-3.373-6.047a47.1,47.1,0,0,0,5.005,11.678c2.9,4.245,15.634,3.817,18.281-1.766" transform="translate(165.026 188.002)" fill="#4f3333"/>
        <path id="Trazado_733228" data-name="Trazado 733228" d="M145.233,206.52c8.05.178,11.271-4.189,13.365-7.246a21.422,21.422,0,0,1,3.7-4.347s5.32,1.771,8.695-.322a19.28,19.28,0,0,0,4.477-4.133c0-.343,0-.693-.01-1.05a64.178,64.178,0,0,0-1.44-10.989l-16.35-2.881s-2.088,7.832-8.552,12.5-11.9,7.07-11.971,14.459a6.623,6.623,0,0,0,.066.751,11.35,11.35,0,0,0,8.018,3.255" transform="translate(127.499 163.197)" fill="#ceb5b3"/>
        <path id="Trazado_733229" data-name="Trazado 733229" d="M154.212,199.509a22.017,22.017,0,0,0,8.373-9.606,12.4,12.4,0,0,0,9.473-.9,5.79,5.79,0,0,0,3.383-5.717,19.281,19.281,0,0,1-4.477,4.133c-3.375,2.094-8.695.322-8.695.322a21.421,21.421,0,0,0-3.7,4.347c-2.094,3.057-5.314,7.423-13.365,7.246a11.35,11.35,0,0,1-8.018-3.255c.687,6.646,11.229,6.968,17.029,3.433" transform="translate(127.529 170.385)" fill="#4f3333"/>
        <path id="Trazado_733230" data-name="Trazado 733230" d="M188.159,83.835a18.731,18.731,0,0,1-8.392,5C176,89.858,167.935,102.26,165.4,98.626c-1.084-1.555-1.908-10.715-2.316-12.568,1.1-.5,3.568-6.777,3.738-7.715.3-1.638,1.976-3.155,1.688-4.8-.4-2.287-.9-4.641-1.129-6.991,3.356-1.825,6.36-4.32,10.219-5.227,2.117-.5,5.056-6.447,7.039-7.531-1.339,5.094.332,12.35.924,15.3a17.952,17.952,0,0,0,3.612,8.334c-.847.257-.112,5.555-1.013,6.4" transform="translate(151.604 50.009)" fill="#ffb9a4"/>
        <path id="Trazado_733231" data-name="Trazado 733231" d="M152.907,124.543c3.39-6.655,9.55-10.105,11.6-17.409,2.134-7.609-.239-15.838-2.454-23.156a1.274,1.274,0,0,1,1.216-1.6c13.658-.536,25.818,4.961,38.818,8.274a.462.462,0,0,1,.195.137c.239-.176.459-.38.706-.542.372-.247.928.262.641.643-3.655,4.814-6.756,9.532-7.616,15.478.243,8.187,12.938,25.268,13.779,29.076-5.8,6.437-22.169,11.261-36.267,6.437-10-2.62-20.628-10.181-20.614-17.342" transform="translate(142.147 76.551)" fill="#fff"/>
        <path id="Trazado_733232" data-name="Trazado 733232" d="M149.667,89.694c2.219-4.8,7.263-17.276,12.016-23.993,5.117-7.236,18.164-5.16,18.164-5.16l-7.281,31.887a181.071,181.071,0,0,0-14.343,16.394c-3.687-6-6.914-12.029-8.556-19.128" transform="translate(139.135 56.024)" fill="#ff9d27"/>
        <path id="Trazado_733233" data-name="Trazado 733233" d="M163.314,120.386c2.341-9.2-3.3-22.675-3.757-26.085-.94-7.045,3.72-12.8,5.723-16.564a84.018,84.018,0,0,1,10.8-14.97c.158-.179,2.929.814,5.4,1.16-1.833,2.406-4.388,7.637-3.522,10.312,1.416,4.374,5.737,5.891,12.269,6.171,10.524.45,14.968-9.752,14.968-9.752s-.818-.562-2.119-1.378c.066-.056.139-.127.2-.168,2.767,2.665,8.977,5.55,12.323,7.564,1.453.874,2.485,3.813,2.426,4.635-.216,2.927-1.189,18.555-4.569,24.034-2.817,3.491-8.554,8.693-10.179,15.232-2.107,8.486,7.829,22.955,13.643,33.811-5.669,4.525-17.249,13.762-29.168,13.762-4.021,0-38.214-16.213-39.837-17.872,3.969-7.541,12.02-16.579,15.4-29.892" transform="translate(137.501 58.33)" fill="#feb51c"/>
        <path id="Trazado_733234" data-name="Trazado 733234" d="M175.834,80.11c-6.532-.28-10.852-1.8-12.269-6.171-.866-2.674,1.688-7.906,3.522-10.31,1.542.216,2.966.179,3.554-.562,0,2.119-7.03,10.082-.181,12.683,10.615,4.035,16.122-4.988,18.223-6.771,1.3.816,2.119,1.378,2.119,1.378s-4.444,10.2-14.968,9.752" transform="translate(151.894 58.63)" fill="#ff9d27"/>
        <path id="Trazado_733235" data-name="Trazado 733235" d="M205.74,73.8a109.536,109.536,0,0,0-10.576,14.119,63.264,63.264,0,0,0-6.433,14.146,151.344,151.344,0,0,0-4.317,21.919s-24.153-3.057-27.293-9.268-4.174-19.947-4.174-19.947,3.8-13,10.937-22.882a68.3,68.3,0,0,1,7.516-9.127l3.975,1.7A67.076,67.076,0,0,0,169.76,70.4a53.131,53.131,0,0,0-6.474,10.25L186.808,90.96s5.924-8.708,9.878-13.156a70.5,70.5,0,0,0,5.206-6.325Z" transform="translate(142.184 58.342)" fill="#ead9d6"/>
        <path id="Trazado_733236" data-name="Trazado 733236" d="M215.153,106.3s5.476,9.291,7.728,17.118c2.078,7.217,3.329,19.6,1.289,32.319s-7.132,30.054-7.132,30.054,4.556,3.865,1.549,9.231c2.042,5.368.876,10.129,3.014,19.449s3.192,32.5,3.309,39.588-3.309,10.694-3.309,10.694,3.606,4.334.206,8.28c-5.326,6.179-9.139,8.008-14.383,4.212s-3.483-8.265-3.483-8.265-5.963-2.47-8.969-22.131c-1.605-10.5-1.573-25.878-1.978-29.446s.139-16.7.139-16.7a29.034,29.034,0,0,1-4.537-9.758c-.606-2.659-5.328-37.367-5.328-37.367s-3.35,17.7-4.706,21.571S174.148,186,174.148,186a36.944,36.944,0,0,1,1.289,16.529c-.716,5.079-2.51,11.448-3.163,15.242-1.1,6.441,1.434,9.241,0,13.033a4.962,4.962,0,0,1-4.577,3.475s2.889,3.276,3.473,6.462-1.725,5.507-6.779,8.158-15.644.241-17.322-6.655-1.459-30.588-1.511-43.15c-.037-8.541-1.059-30.971.106-33.894s.754-38.44,10.229-52.521c6.316-9.386,34.525-11.227,48.079-3.7,5.6,3.109,11.18-2.684,11.18-2.684" transform="translate(134.897 96.981)" fill="#ead9d6"/>
        <path id="Trazado_733237" data-name="Trazado 733237" d="M205.236,108.505s-7.792,5-13.152,6.237c-13.245,3.055-24.551,2.391-31.219-1.742s-1.7-6.159-1.7-6.159,15.636,5.094,22.148,4.774a47.33,47.33,0,0,0,22.11-6.779Z" transform="translate(146.309 97.458)" fill="#ddc6c3"/>
        <path id="Trazado_733238" data-name="Trazado 733238" d="M158.515,60.17c.214-5.112,1.322-11.537,5.252-15.186,3.884-3.6,10.559-3.962,15.6-3.608,7.823.548,13.326,9.2,11.943,19.2-1.277,9.239-7.448,23.474-17.749,25.4-11.46,2.148-15.373-18.032-15.049-25.809" transform="translate(147.343 38.364)" fill="#ffc9b6"/>
        <path id="Trazado_733239" data-name="Trazado 733239" d="M177.384,37.238c17.594,1.4,24.892,21.4,21.73,30.137-1.9,5.247-6.86,10.588-9.812,13.34,0-6.466-5.492-18.482-9.127-20.666-4.643-2.792-15.454-3.948-20.334-2.153-7.746-9.72,7.435-21.459,17.544-20.657" transform="translate(146.617 34.581)" fill="#4f3333"/>
        <path id="Trazado_733240" data-name="Trazado 733240" d="M170.584,54.4s3.323-5.37,5.739-2.047.151,10.115-2.869,9.965-2.869-7.917-2.869-7.917" transform="translate(158.578 47.664)" fill="#ffc9b6"/>
        <path id="Trazado_733241" data-name="Trazado 733241" d="M196.725,75.631s-6.7-8.913-17.307-12.4a63.735,63.735,0,0,0-18.6-3.442s-6.532-3.487-2.46-11.6,11.454-15.08,24.829-11.117,17.3,7.786,20.138,21.332-6.6,17.234-6.6,17.234" transform="translate(145.974 33.393)" fill="#efe1df"/>
        <path id="Trazado_733242" data-name="Trazado 733242" d="M195.533,65.061s-4.17-7.6-9.5-11.416c-6.358-4.554-21.012-8.44-27.358-5.1-.917.484.162,3.882.162,3.882,1.609-.081,7.392-1.685,19.389,2.756,5.949,2.2,14.926,11.508,14.926,11.508a7.332,7.332,0,0,0,2.381-1.634" transform="translate(147.166 43.963)" fill="#ddc6c3"/>
        <path id="Trazado_733243" data-name="Trazado 733243" d="M163.674,40.9a31.58,31.58,0,0,1-1.034,5.26,41.022,41.022,0,0,1-1.824,4.079,10.15,10.15,0,0,1,.106-4.616,12,12,0,0,1,2.752-4.724" transform="translate(149.304 38.026)" fill="#ddc6c3"/>
        <path id="Trazado_733244" data-name="Trazado 733244" d="M171.341,43.8a14.331,14.331,0,0,1,0,3.757,6.8,6.8,0,0,1-1.432,3.649,15.876,15.876,0,0,1,0-4.124,7.93,7.93,0,0,1,1.432-3.282" transform="translate(157.821 40.716)" fill="#ddc6c3"/>
        <path id="Trazado_733245" data-name="Trazado 733245" d="M177.573,45.745s-.751,3.006-2.468,4.079a8.461,8.461,0,0,1-3.543,1.189s.859-.8,2.146-2.283a18.93,18.93,0,0,1,3.865-2.985" transform="translate(159.489 42.526)" fill="#ddc6c3"/>
        <path id="Trazado_733246" data-name="Trazado 733246" d="M180.424,49.75a12.211,12.211,0,0,1,0,4.959c-.291.955-2.576,2.846-2.576,2.846a41.666,41.666,0,0,1,1.073-4.733,16.382,16.382,0,0,1,1.5-3.072" transform="translate(165.333 46.249)" fill="#ddc6c3"/>
        <path id="Trazado_733247" data-name="Trazado 733247" d="M142.11,74.983a6.6,6.6,0,0,1,4.668-2.167,2.676,2.676,0,0,1,2.806,2c.423,1.712-1.812,3.929-3.221,3.743-1.883-.249-4.311-2.416-4.253-3.574" transform="translate(132.108 67.69)" fill="#feb51c"/>
        <path id="Trazado_733248" data-name="Trazado 733248" d="M145.787,74.971c-.075-.116,4.98,1.97,6.238,4.075.81,1.358,1.287,3.89-.438,4.8a5.16,5.16,0,0,1-5.195-.8,2.57,2.57,0,0,1-.465-.739c-1.631.309-3.5.044-3.491-2.26.008-2.072,1.567-3.888,3.35-5.075" transform="translate(132.414 69.691)" fill="#ff6485"/>
        <path id="Trazado_733249" data-name="Trazado 733249" d="M143.617,80.388a9.2,9.2,0,0,1,.343-5.542,9.3,9.3,0,0,1,8.824-5.224c7.95.367,10.075,6.748,11.174,9.471.162.4.34.836.531,1.295.272,5.318,3.4,13.947,3.767,16.821,3.8-.34,9.181,2.977,9.976,7.666a12.775,12.775,0,0,1,10.493,5.179c1.966,2.923,2.194,4.535,3.246,10.25a23.783,23.783,0,0,1,9.914-1.37,10.411,10.411,0,0,1,2.576,1.887,6.062,6.062,0,0,1-1.895,4.5,5.022,5.022,0,0,1-2.738,1.372,2.977,2.977,0,0,1-2.157-.623c.426-.635.884-2.121.3-2.25-1.764,3.136-6.667,3.724-8.735,1.2-.152,3.246-6.231,8.539-9.029,4.6-.731,1.586-2.995,3.875-5.391,3.541a7.875,7.875,0,0,0,.6-4.394,8.949,8.949,0,0,0-10.655-7.111,7.571,7.571,0,0,1,5.289,6.918c.168,3.84-2.109,5.5-5.328,4.266.316-.994-1.015-2.941-2.107-2.584,1.385,1.816-.405,3.745-2.078,4.367a6.043,6.043,0,0,1-3.909-.008c-2.034-.648-4.625-2.433-5.16-4.658-3.041-1.1-4.575-3.691-5.067-7.188a13.473,13.473,0,0,1,.98-7.838c-.915.26-1.438.718-2.418,2.287-2.995-6.026.172-12.454,3.96-17.525-2.121-.9-2.74-7.1-2.651-11.429a22.274,22.274,0,0,1,.565-4.492,8.75,8.75,0,0,1-3.217-3.385" transform="translate(133.266 64.715)" fill="#ead9d6"/>
        <path id="Trazado_733250" data-name="Trazado 733250" d="M181.789,115.112c-1.052-5.714-1.279-7.327-3.246-10.25a12.772,12.772,0,0,0-10.493-5.177c-.795-4.691-6.173-8.006-9.976-7.666-.365-2.875-3.495-11.5-3.767-16.823,1.285,3.089,3.126,7.286,4.276,9.953.577,1.341,1.194,2.727,1.771,4.137,4.216-.172,9.15,3.643,10.848,7.67a16.86,16.86,0,0,1,8.743,6.528c2.217,3.249,3.074,4.726,3.2,8.932,3.332.606,5.82-.048,8.554,1.328a23.782,23.782,0,0,0-9.914,1.368" transform="translate(143.448 69.904)" fill="#f4e8e6"/>
        <path id="Trazado_733251" data-name="Trazado 733251" d="M200.334,125.188c-1.957,2.466-3.718,3.662-6.871,3.832.2-1.3.039-2.292-.751-2.8a9.9,9.9,0,0,1-2.443,5.071,7.822,7.822,0,0,1-4.872,2.7,2.064,2.064,0,0,0-.183-2.651c-.26,1.306-2.285,3.67-4.073,3.956a2.059,2.059,0,0,0-.438-2.5c-1.577,1.2-4.052,2.568-6.154,2.389a5.677,5.677,0,0,0,.807-1.5c.459-1.353.185-4.787-1.318-5.82a5.788,5.788,0,0,1-1.416,4.365,9.551,9.551,0,0,1-2.422,1.409c-.039-.432-.193-1.254-1.027-1.378-1.82,3.379-5.162,4.737-8.49,3.13-3.093,1.306-5.534.392-7.865-2.119a8.377,8.377,0,0,1-2.3-5.459c-.594-.309-.666.529-.768.9-2.79-.257-4.49-3.045-5.156-5.521a9.233,9.233,0,0,1,.727-6.057c-.5-.176-1.179.573-1.411.957-1.569-2.657-.905-5.945-.756-7.157.01-.066-.083-.077-.114-.031a8.908,8.908,0,0,0-1.142,2.493,30.187,30.187,0,0,1,1.073-15.213,19.209,19.209,0,0,1,2.781-3.738c-.55-3.537.832-12.869,2.665-15.175-1.474-.392-2.482-2.092-2.929-4.068A8.7,8.7,0,0,0,148.7,78.58a22.34,22.34,0,0,0-.565,4.494c-.089,4.326.529,10.524,2.651,11.429-3.788,5.071-6.954,11.5-3.96,17.525.98-1.569,1.5-2.026,2.418-2.287a13.473,13.473,0,0,0-.98,7.838c.49,3.5,2.026,6.084,5.067,7.188.534,2.225,3.126,4.01,5.16,4.658a6.043,6.043,0,0,0,3.909.008c1.671-.621,3.464-2.551,2.078-4.367,1.092-.357,2.424,1.59,2.107,2.584,3.219,1.233,5.5-.426,5.328-4.266a7.571,7.571,0,0,0-5.289-6.918,8.95,8.95,0,0,1,10.655,7.111,7.875,7.875,0,0,1-.6,4.394c2.4.334,4.66-1.955,5.389-3.541,2.8,3.938,8.878-1.355,9.031-4.6,2.069,2.528,6.972,1.939,8.735-1.2.589.131.131,1.617-.3,2.252a2.977,2.977,0,0,0,2.157.623,5.01,5.01,0,0,0,2.736-1.372,6.056,6.056,0,0,0,1.9-4.5c.228.222.457.453.691.712,1.982,2.18.681,5.474-1.631,7.543a9.371,9.371,0,0,1-5.054,1.3" transform="translate(131.4 69.905)" fill="#ddc6c3"/>
        <path id="Trazado_733252" data-name="Trazado 733252" d="M195.827,123.236c-1.735,1.557-4.533,6.435-13.594,7.481-3.715,3.207-11.933,4.037-18.094,1.252-11.79,1.688-21.382-12.352-22.409-19.945a13.8,13.8,0,0,1,.179-4.726c-1.988-6.648-1.717-14.241,1.692-20.194a30.21,30.21,0,0,0-1.075,15.213,8.968,8.968,0,0,1,1.144-2.493c.029-.046.122-.035.114.031-.151,1.212-.812,4.5.756,7.157.23-.384.915-1.133,1.409-.957a9.253,9.253,0,0,0-.727,6.055c.666,2.478,2.368,5.266,5.156,5.523.1-.37.176-1.208.768-.9a8.387,8.387,0,0,0,2.3,5.459c2.333,2.51,4.772,3.425,7.867,2.119,3.329,1.607,6.671.249,8.488-3.13.836.124.988.946,1.028,1.378a9.585,9.585,0,0,0,2.422-1.409,5.8,5.8,0,0,0,1.416-4.365c1.5,1.032,1.777,4.467,1.316,5.82a5.624,5.624,0,0,1-.807,1.5c2.1.179,4.577-1.193,6.156-2.389a2.059,2.059,0,0,1,.438,2.5c1.787-.286,3.811-2.649,4.073-3.956a2.063,2.063,0,0,1,.181,2.651,7.818,7.818,0,0,0,4.872-2.7,9.882,9.882,0,0,0,2.445-5.071c.787.511.955,1.507.751,2.8,3.151-.172,4.913-1.366,6.871-3.832a9.365,9.365,0,0,0,5.052-1.3,8,8,0,0,1-2.613,1.59c.187,1.086-.963,4.272-7.581,8.832" transform="translate(130.765 80.976)" fill="#ceb5b3"/>
        <path id="Trazado_733253" data-name="Trazado 733253" d="M146.265,68.633a1.789,1.789,0,0,1,2.663.861c.791-1.221,2.325-2.306,3.823-1.764a2.3,2.3,0,0,1,1.544,2.02c1.661-.745,3.4.837,3.321,2.524a3.2,3.2,0,0,1,1.169,3.473.553.553,0,0,1-.809.332,13.845,13.845,0,0,0-12.94-1.594c-1.173-1.364-1.173-4.141,1.229-5.853" transform="translate(134.116 62.831)" fill="#ff6485"/>
        <path id="Trazado_733254" data-name="Trazado 733254" d="M154.281,93.48a4.786,4.786,0,0,1,1.943,3.014c2.526,1.079,4.88,3.452,5.16,5.839.037.311-.374.326-.517.141-1.131-1.467-1.843-3-3.361-4.166a19.147,19.147,0,0,0-4.452-2.182c-.116-.05-.041-.2.058-.212a5.815,5.815,0,0,1,2.155.239,4.207,4.207,0,0,0-.268-.675,5.278,5.278,0,0,0-1.148-1.44A4.942,4.942,0,0,0,152.077,93a5.764,5.764,0,0,1-1.322-.38.025.025,0,0,1,0-.042c.969-.619,2.729.309,3.525.9" transform="translate(140.136 85.872)" fill="#ddc6c3"/>
        <path id="Trazado_733255" data-name="Trazado 733255" d="M151.647,100.971c.8.434,1.966.994,2.871.5.828-.453.345-1.521.749-2.186a.145.145,0,0,1,.224-.029,1.726,1.726,0,0,1,.417,1.38,2.965,2.965,0,0,0,1.318-.619,1.315,1.315,0,0,0,.039-1.7c-.118-.127,0-.37.177-.309a1.5,1.5,0,0,1,.716,2.18,2.284,2.284,0,0,1-2.377,1.148,1.763,1.763,0,0,1-.976,1.048c-1.138.5-3.1.193-3.464-1.175a.211.211,0,0,1,.307-.235" transform="translate(140.684 91.099)" fill="#ddc6c3"/>
        <path id="Trazado_733256" data-name="Trazado 733256" d="M147.976,97.115c.467.716.984,1.463,1.937,1.482.832.015,1.353-.542,2-.961a.066.066,0,0,1,.1.056c.066,1.142-1.353,1.816-2.329,1.756a2.309,2.309,0,0,1-2.221-2.192.28.28,0,0,1,.517-.141" transform="translate(137.08 90.158)" fill="#ddc6c3"/>
        <path id="Trazado_733257" data-name="Trazado 733257" d="M147.2,95.082c.722.185,1.075.982,1.891,1.067a1.7,1.7,0,0,0,.934-.176,1.578,1.578,0,0,0,.162-.108,3.084,3.084,0,0,1-.639-1.509c-.008-.135.156-.174.245-.1.521.426,2.493,3.292,2.933,1.509a.213.213,0,0,1,.262-.147.7.7,0,0,1,.33.963,1.161,1.161,0,0,1-1.27.656,2.794,2.794,0,0,1-1.411-.841,2.425,2.425,0,0,1-1.453.577c-.834,0-2.316-.714-2.223-1.71a.19.19,0,0,1,.237-.181" transform="translate(136.615 87.589)" fill="#ddc6c3"/>
        <path id="Trazado_733258" data-name="Trazado 733258" d="M160.771,96.935a5.741,5.741,0,0,0,2.773.575,2.638,2.638,0,0,0,1.856-1.781.148.148,0,0,1,.284,0,1.643,1.643,0,0,1-.075,1.339,1.91,1.91,0,0,0,.264.079,1.73,1.73,0,0,0,1.1-.131c.359-.17,1.455-.878,1.127-1.414a.182.182,0,0,1,.2-.264c1.185.313.1,1.748-.419,2.138a2.759,2.759,0,0,1-1.76.627,1.62,1.62,0,0,1-.982-.386,2.917,2.917,0,0,1-.959.627,3.57,3.57,0,0,1-3.738-.841.342.342,0,0,1,.33-.567" transform="translate(149.066 88.623)" fill="#ddc6c3"/>
        <path id="Trazado_733259" data-name="Trazado 733259" d="M157.039,92.064a15.892,15.892,0,0,0,2.686.878,4.939,4.939,0,0,0,2.113-.587c.1-.037.17.069.156.156a1.24,1.24,0,0,1-.436.737,2.254,2.254,0,0,0,.959.255c.382,0,1.771-.32,1.659-.93a.079.079,0,0,1,.075-.1c.32-.017.436.343.374.616a1.93,1.93,0,0,1-1.181,1.108c-.749.3-2.236.272-2.748-.511a3.178,3.178,0,0,1-.7.116,4.807,4.807,0,0,1-3.269-1.206.322.322,0,0,1,.311-.533" transform="translate(145.61 85.577)" fill="#ddc6c3"/>
        <path id="Trazado_733260" data-name="Trazado 733260" d="M165.106,93.932c.562-.152,1.15-.216,1.474-.772a1.663,1.663,0,0,0-.268-1.829c-.062-.073-.006-.23.108-.185a1.725,1.725,0,0,1,.944,2.229c-.316.834-1.484,1.563-2.318,1.013a.252.252,0,0,1,.06-.455" transform="translate(153.322 84.725)" fill="#ddc6c3"/>
        <path id="Trazado_733261" data-name="Trazado 733261" d="M162.053,92.586c.535-.262,1.21-.218,1.671-.645a1.069,1.069,0,0,0,.077-1.507.181.181,0,0,1,.174-.3,1.418,1.418,0,0,1,.681,2.022,2.165,2.165,0,0,1-2.6.974.317.317,0,0,1,0-.544" transform="translate(150.506 83.782)" fill="#ddc6c3"/>
        <path id="Trazado_733262" data-name="Trazado 733262" d="M153.321,89.514a8.233,8.233,0,0,0,1.974,1.023,2.059,2.059,0,0,0,1.885-.672.169.169,0,0,1,.28.164c-.369,2.285-3.7,1.212-4.531-.123-.162-.262.149-.506.392-.392" transform="translate(142.126 83.188)" fill="#ddc6c3"/>
        <path id="Trazado_733263" data-name="Trazado 733263" d="M147.906,90.3c.577.16.915.535,1.575.469a6.6,6.6,0,0,0,1.476-.581.1.1,0,0,1,.123.093c.216,1.619-3.24,1.922-3.593.436a.343.343,0,0,1,.419-.417" transform="translate(137.099 83.837)" fill="#ddc6c3"/>
        <path id="Trazado_733264" data-name="Trazado 733264" d="M147.064,87.8a.246.246,0,0,1,.409.108c.1.509.054,1.048.523,1.4.361.268.855.189,1.179.523a.207.207,0,0,1,.031.243c-.6,1.362-3.46-.911-2.142-2.273" transform="translate(136.395 81.557)" fill="#ddc6c3"/>
        <path id="Trazado_733265" data-name="Trazado 733265" d="M151.393,86.606a3.317,3.317,0,0,0,1.692-.372,2.607,2.607,0,0,0,.965-1.519.243.243,0,0,1,.465,0c.617,1.773-1.843,3.506-3.286,2.289-.164-.139-.023-.39.164-.4" transform="translate(140.52 78.594)" fill="#ddc6c3"/>
        <path id="Trazado_733266" data-name="Trazado 733266" d="M147.371,81.48a.079.079,0,0,1,.143.019,3.162,3.162,0,0,0,1.252,1.729,1.953,1.953,0,0,0,1.042.45c.34,0,.486-.272.8-.315a.258.258,0,0,1,.276.112c.253.4-.106.795-.479.953a1.319,1.319,0,0,1-.538.091,1.742,1.742,0,0,0,.6.482,2.507,2.507,0,0,0,1.681.12.128.128,0,0,1,.124.212,1.882,1.882,0,0,1-2.113.4c-.6-.228-1.345-.824-1.293-1.53-.044-.027-.093-.046-.135-.075-.71-.459-2.067-1.71-1.355-2.649" transform="translate(136.814 75.712)" fill="#ddc6c3"/>
        <path id="Trazado_733267" data-name="Trazado 733267" d="M157.267,87.734c.492.237.814.72,1.326.94A2.04,2.04,0,0,0,160,88.625a.155.155,0,0,1,.185.187c-.133.61-.955.766-1.478.691a2.634,2.634,0,0,1-1.858-1.351.309.309,0,0,1,.419-.419" transform="translate(145.78 81.525)" fill="#ddc6c3"/>
        <path id="Trazado_733268" data-name="Trazado 733268" d="M148.185,79.657c.521.008,1,.212,1.528.191a4.844,4.844,0,0,0,1.555-.49c.166-.064.266.139.206.27-.5,1.1-2.86,1.467-3.421.257a.153.153,0,0,1,.131-.228" transform="translate(137.62 73.762)" fill="#ddc6c3"/>
        <path id="Trazado_733269" data-name="Trazado 733269" d="M192.508,69.388s12.5,2.013,14.37,13.264-4.841,19.615-7.728,29.9-6.362,17.425-10.694,22.606-14.364,6.26-16.035,2.024-3.57-18.671,1.49-29.01,9.81-28.149,18.6-38.78" transform="translate(158.631 64.505)" fill="#ff9d27"/>
        <path id="Trazado_733270" data-name="Trazado 733270" d="M187.661,113.469s6.536-2.381,4.052-8.261-10.883-14.449-18.6-12.095,14.546,20.356,14.546,20.356" transform="translate(159.423 86.19)" fill="#efe1df"/>
        <path id="Trazado_733271" data-name="Trazado 733271" d="M173.79,93.562s10.642,13.477,15.4,17.841,14.14,6.352,17.172,13.154,1.2,11.128-3.749,14.688c-6.781,4.872-12.325,3.423-19.2-1.789s-14.8-34.832-17.654-39.239c-6.078-3.269-12.521-10.964-13.822-15.759s-2.9-11.989,2.8-10.31c7.875,2.316,13.828,10.816,19.051,21.413" transform="translate(140.084 66.84)" fill="#fff"/>
        <path id="Trazado_733272" data-name="Trazado 733272" d="M171.711,109.361c4.674-2.026,7.36.054,6.516,3.093-.469,1.7-3.018,4.417-11.645,6.5-14.571,3.512-19.126-6.387-19.126-6.387s4.594,1.231,6.258-.832c1.569-1.947,5.895-4.247,7.738-5.708,1.393-1.106,4.075-.917,2.941.98a49.188,49.188,0,0,1-3.863,4.878,28.716,28.716,0,0,0,11.182-2.522" transform="translate(137.079 97.933)" fill="#efe1df"/>
        <path id="Trazado_733273" data-name="Trazado 733273" d="M184.81,147.335a10.937,10.937,0,0,0-4.67-1.127c-2.576,0-4.83.967-4.347,1.127a11.3,11.3,0,0,0,4.477,1.289,11.583,11.583,0,0,0,4.54-1.289" transform="translate(163.361 135.919)" fill="#ddc6c3"/>
        <path id="Trazado_733274" data-name="Trazado 733274" d="M184.956,152.3s-.482,3.543-2.738,4.83a10.758,10.758,0,0,1-3.7,1.449s3.354-5.961,6.441-6.279" transform="translate(165.953 141.582)" fill="#ddc6c3"/>
        <path id="Trazado_733275" data-name="Trazado 733275" d="M187.316,188.006c.645.162-1.449,2.254-3.058,2.9s-4.992-.645-4.992-.645,4.463-3.153,8.05-2.254" transform="translate(166.651 174.626)" fill="#ddc6c3"/>
        <path id="Trazado_733276" data-name="Trazado 733276" d="M176.853,189.847s4.818,1.289,6.912,1.771,4.67.774,4.67.774-3.865,1.808-6.923.6a12.333,12.333,0,0,1-4.658-3.143" transform="translate(164.408 176.487)" fill="#ddc6c3"/>
        <path id="Trazado_733277" data-name="Trazado 733277" d="M161.207,172.324s-2.094,3.058-4.508,4.025-5.636,0-5.636,0a32.655,32.655,0,0,0,5.073-1.8c2.335-1.1,5.071-2.227,5.071-2.227" transform="translate(140.433 160.197)" fill="#ddc6c3"/>
        <path id="Trazado_733278" data-name="Trazado 733278" d="M162.817,171.756a11.838,11.838,0,0,1-6.682,0,25.479,25.479,0,0,1-5.071-2.416,19.752,19.752,0,0,1,5.876,0,14.444,14.444,0,0,1,5.878,2.416" transform="translate(140.434 157.224)" fill="#ddc6c3"/>
        <path id="Trazado_733279" data-name="Trazado 733279" d="M163.205,148.086s-2.576-2.736-4.83-3.543a6.562,6.562,0,0,0-4.266,0s1.609,3.221,4.548,3.543a16.47,16.47,0,0,0,4.548,0" transform="translate(143.264 134.039)" fill="#ddc6c3"/>
      </g>
    </g>
  </g>
</svg>
