<svg xmlns="http://www.w3.org/2000/svg" xmlns:xlink="http://www.w3.org/1999/xlink" width="118" height="118" viewBox="0 0 118 118">
  <defs>
    <clipPath id="clip-path">
      <rect id="Rectángulo_349802" data-name="Rectángulo 349802" width="91.626" height="61.976" fill="#fff"/>
    </clipPath>
  </defs>
  <g id="Grupo_998186" data-name="Grupo 998186" transform="translate(-741 -2490.867)">
    <circle id="Elipse_5895" data-name="Elipse 5895" cx="59" cy="59" r="59" transform="translate(741 2490.867)" fill="#b20d0d"/>
    <g id="Grupo_997435" data-name="Grupo 997435" transform="translate(754.187 2519.252)">
      <g id="Grupo_997434" data-name="Grupo 997434" clip-path="url(#clip-path)">
        <path id="Trazado_733388" data-name="Trazado 733388" d="M66.449,56.117c-1.923,5.015-3.14,5.842-8.2,5.843h-4.41c-4.889,0-6.173-.89-7.882-5.454-.1.02-.275.012-.3.065-1.839,4.621-2.963,5.388-7.921,5.389-1.838,0-3.675.006-5.513,0-3.552-.015-5.39-1.339-6.555-4.708-.094-.273-.2-.542-.416-1.128-.352.951-.542,1.637-.85,2.264a5.748,5.748,0,0,1-5.339,3.559c-2.756.037-5.513.045-8.269,0a5.768,5.768,0,0,1-5.5-4.1c-.469-1.451-.784-2.952-1.157-4.433-.442-1.759-.813-3.369-2.625-4.543-2.021-1.31-1.968-4.458-.144-6.336a2.2,2.2,0,0,0,.549-2.766A25.339,25.339,0,0,1,.079,28.3C.217,23.411.1,18.514.118,13.621A7.336,7.336,0,0,1,7.825,5.9c2.266-.017,4.533-.04,6.8.009,1.119.025,1.629-.28,1.7-1.527.17-2.81,1.838-4.306,4.64-4.351,1.9-.031,3.8-.035,5.7,0,2.69.052,4.417,1.587,4.549,4.248.066,1.326.586,1.636,1.794,1.631q12.771-.051,25.542,0c1.273.006,1.85-.281,1.907-1.711A4.2,4.2,0,0,1,64.892.031c1.959-.045,3.92-.039,5.88,0,2.69.05,4.423,1.587,4.556,4.242.065,1.319.571,1.669,1.788,1.638,2.387-.062,4.777-.048,7.166,0a7.263,7.263,0,0,1,7.249,7.243c.049,6.728.037,13.457,0,20.186-.012,2.314-1.168,4.348-1.835,6.5a2.286,2.286,0,0,0,.522,2.619,4.428,4.428,0,0,1-.822,7.083,3,3,0,0,0-1.409,1.995c-.433,1.845-.872,3.689-1.366,5.517-.891,3.3-2.98,4.89-6.394,4.912-2.266.014-4.533.01-6.8,0-3.576-.013-5.429-1.336-6.575-4.68-.1-.279-.2-.556-.408-1.161M45.888,14.969c-11.575,0-23.149.024-34.724-.028-1.522-.007-2.02.464-1.992,1.987q.124,6.694.006,13.393a17.217,17.217,0,0,0,.989,6.1c1.646,4.7,1.6,4.718,6.594,4.718,4.07,0,4.07,0,5.164-3.841.275-.967.581-1.835,1.809-2.021,3.524-.533,4.294-.057,5.165,3.372.09.356.188.711.247,1.072.181,1.112.826,1.473,1.934,1.438,2.141-.07,4.286-.02,6.43-.02,3.917,0,3.917,0,5-3.82.272-.963.565-1.845,1.793-2.039,3.5-.553,4.317-.049,5.181,3.348.091.356.187.711.248,1.072.183,1.1.794,1.5,1.918,1.459,2.141-.073,4.286-.02,6.43-.02,3.947,0,3.946,0,5.013-3.8.27-.96.549-1.853,1.777-2.056,3.47-.573,4.339-.042,5.2,3.325.09.355.186.711.247,1.072a1.59,1.59,0,0,0,1.9,1.479c2.018-.077,4.043-.071,6.061,0a1.913,1.913,0,0,0,2.143-1.493,28,28,0,0,0,2.089-11.612c-.226-3.594-.131-7.216-.011-10.821.057-1.742-.448-2.309-2.251-2.3-11.452.076-22.9.039-34.356.039m-.113-3.2q18.654,0,37.309,0c2.227,0,2.562.347,2.578,2.562.018,2.753.057,5.507-.006,8.259-.134,5.825.827,11.767-1.825,17.337-.5,1.057.167,1.243,1.068,1.2.867-.04,1.069-.653,1.317-1.3A28.129,28.129,0,0,0,88.4,28.047c-.25-4.391-.047-8.806-.059-13.211C88.327,10.614,86.806,9.1,82.55,9.1q-36.758-.008-73.515,0c-4.141,0-5.7,1.543-5.711,5.629-.016,5.261.132,10.527-.052,15.782-.124,3.517,1.377,6.535,2.329,9.733.3,1.014,1.2,1.065,1.957.808.925-.313.329-1.086.125-1.538-1.656-3.678-1.81-7.545-1.714-11.491.107-4.4.021-8.809.026-13.214,0-2.831.209-3.041,3.023-3.042q18.379,0,36.758,0m.015,35.243H84.754c.552,0,1.1,0,1.654-.013.861-.025,1.709-.277,1.756-1.24.055-1.1-.84-1.36-1.77-1.406-.306-.015-.612-.011-.919-.011q-39.607,0-79.214.01c-1.111,0-2.731-.311-2.724,1.33S5.164,47,6.276,47q19.757.024,39.515.011M15.008,50.215c-2.2,0-4.4.021-6.6-.009-1.12-.015-1.6.342-1.248,1.534.426,1.462.775,2.947,1.127,4.429a3.051,3.051,0,0,0,3.13,2.558q3.57.1,7.145,0a2.94,2.94,0,0,0,3.009-2.448c.376-1.539.752-3.079,1.179-4.6.3-1.067-.088-1.474-1.15-1.463-2.2.022-4.4.007-6.6.005m20.546,0c-2.2,0-4.4.023-6.6-.009-1.174-.017-1.531.432-1.2,1.573.429,1.461.775,2.947,1.131,4.428a3.048,3.048,0,0,0,3.156,2.523c2.319.061,4.641.045,6.961.006a3.01,3.01,0,0,0,3.163-2.5c.358-1.481.689-2.971,1.133-4.426.4-1.315-.159-1.629-1.34-1.608-2.137.038-4.275.011-6.412.011m20.666,0c-2.137,0-4.277.054-6.412-.018-1.48-.05-1.836.487-1.391,1.864.43,1.331.717,2.709,1.037,4.073a3.12,3.12,0,0,0,3.285,2.606c2.259.042,4.519.029,6.779,0a3.085,3.085,0,0,0,3.275-2.6c.293-1.245.635-2.479.937-3.722.526-2.16.5-2.193-1.648-2.2-1.954-.009-3.909,0-5.863,0m20.679,0c-2.2,0-4.4.043-6.6-.015-1.383-.037-1.728.474-1.321,1.77.438,1.393.746,2.827,1.088,4.249a3.046,3.046,0,0,0,3.164,2.513c2.319.058,4.642.045,6.962,0a3.01,3.01,0,0,0,3.155-2.508c.357-1.481.69-2.971,1.132-4.427.4-1.331-.193-1.617-1.355-1.6-2.076.036-4.153.01-6.229.01M23.691,5.888c.974,0,1.949.011,2.923,0,.6-.009,1.31.088,1.391-.786A1.416,1.416,0,0,0,26.94,3.4a19.853,19.853,0,0,0-6.348.006,1.409,1.409,0,0,0-1.047,1.707c.094.87.81.76,1.406.77.913.017,1.827,0,2.74,0m44.095,0c.974,0,1.949.012,2.922,0,.595-.01,1.313.1,1.408-.768a1.41,1.41,0,0,0-1.045-1.708A19.872,19.872,0,0,0,64.724,3.4a1.416,1.416,0,0,0-1.068,1.7c.08.872.789.779,1.39.789.913.015,1.826,0,2.74,0" transform="translate(-0.001 0)" fill="#fff"/>
        <path id="Trazado_733389" data-name="Trazado 733389" d="M31.96,52.932a1.206,1.206,0,0,1,0-.183c.258-1.631-.851-3.769.754-4.809,1.69-1.095,3.923-.365,5.916-.361,1.092,0,.912.945.928,1.646.017.685.005,1.4-.962,1.452a1.5,1.5,0,0,0-.182.018c-1,.179-2.282-.466-2.961.411-.716.924-.191,2.243-.281,3.385-.034.424,0,.853-.006,1.28-.006,1.152.233,2.344-1.651,2.316-1.767-.026-1.546-1.141-1.553-2.228-.007-.975,0-1.951,0-2.927" transform="translate(-20.085 -29.874)" fill="#fff"/>
      </g>
    </g>
  </g>
</svg>
