<svg xmlns="http://www.w3.org/2000/svg" xmlns:xlink="http://www.w3.org/1999/xlink" width="118" height="118" viewBox="0 0 118 118">
  <defs>
    <clipPath id="clip-path">
      <rect id="Rectángulo_349807" data-name="Rectángulo 349807" width="89.651" height="89.702" fill="none"/>
    </clipPath>
  </defs>
  <g id="Grupo_998188" data-name="Grupo 998188" transform="translate(-487 9227.133)">
    <circle id="Elipse_5954" data-name="Elipse 5954" cx="59" cy="59" r="59" transform="translate(487 -9227.133)" fill="#ffc403"/>
    <g id="Grupo_997442" data-name="Grupo 997442" transform="translate(498.405 -9212.984)">
      <g id="Grupo_997441" data-name="Grupo 997441" clip-path="url(#clip-path)">
        <path id="Trazado_733391" data-name="Trazado 733391" d="M105.69,161.809c-9.887,0-19.773-.03-29.66.03-1.626.01-2.347-.417-2.226-2.146s.055-3.488.022-5.232c-.019-1.057.328-1.692,1.492-1.611,1.127.078,1.35-.585,1.346-1.538-.018-4.191-.007-8.381-.006-12.572,0-4.261.032-8.522-.016-12.783-.015-1.341.327-2.157,1.841-2.025,1.007.088,1.225-.563,1.384-1.4a15.359,15.359,0,0,1,4.3-8.4c3.769-3.677,8.753-4.139,13.009-1.078a1.888,1.888,0,0,0,2.684.038c3.866-2.826,8.063-2.755,11.951.108.749.552,1.258.8,2.1.139,5.532-4.379,11.941-2.009,15.221,2.95a15.26,15.26,0,0,1,2.422,6.113c.165,1.059.554,1.6,1.648,1.539,1.24-.069,1.632.611,1.556,1.742a80.75,80.75,0,0,0-.231,8.645c.161,3.877.059,7.756.2,11.63a46.926,46.926,0,0,0-.012,5.272c.146.992.229,1.72,1.453,1.624,1.067-.084,1.424.484,1.406,1.487-.033,1.861-.076,3.725.017,5.582.072,1.438-.451,1.922-1.895,1.908-6.281-.059-12.562-.024-18.843-.024H105.69m.089-34.559H99.852q-9.064,0-18.127.011c-.648,0-1.66-.243-1.663.751-.006,1.831-.792,3.874,1.087,5.35.637.5.913,1.147.134,1.721-1.31.965-1.357,2.293-1.323,3.733.058,2.507.018,2.511,2.456,2.511q23.269,0,46.538,0c.522,0,1.046-.007,1.568-.031.455-.021.855-.247.839-.713-.061-1.842.76-3.867-1.076-5.367-.532-.434-.966-1.043-.227-1.585,1.578-1.157,1.315-2.8,1.406-4.415.085-1.522-.438-2.011-1.981-2-7.9.067-15.8.031-23.7.03m.1,17.4q-12.023,0-24.046.013c-.643,0-1.493-.285-1.779.647a1.666,1.666,0,0,0,.588,1.883c1.3,1.007,1.438,1.97.054,3.028a1.747,1.747,0,0,0-.628,2.035c.313.9,1.176.58,1.818.58q23.785.026,47.57,0c.651,0,1.523.31,1.856-.535a1.949,1.949,0,0,0-.677-2.342c-1.006-.807-1.265-1.589-.095-2.493a1.892,1.892,0,0,0,.809-2.144c-.327-1.005-1.256-.656-1.946-.659-7.841-.024-15.682-.015-23.524-.015m-.217,13.866q12.981,0,25.962,0c.523,0,1.045-.008,1.568-.029a1,1,0,0,0,1.056-1.111,1.014,1.014,0,0,0-1.148-1.187c-.407,0-.813-.015-1.219-.015q-26.223,0-52.447,0c-.464,0-.929.008-1.392.04-.664.047-.864.485-.864,1.079,0,.567.115,1.077.785,1.153a15.625,15.625,0,0,0,1.738.068q12.981.006,25.962,0m-.023-34.575v-.006c2.326,0,4.653-.012,6.98.006,1.093.008,1.409-.439,1.2-1.524-.837-4.308-4.337-7.963-7.819-8.079-3.564-.118-7.014,3.023-8.148,7.42-.029.112-.039.23-.075.34-.432,1.305-.129,1.938,1.41,1.867,2.147-.1,4.3-.025,6.455-.025m-17.1-.008v.008c1.277,0,2.558-.06,3.829.018a1.649,1.649,0,0,0,2-1.608,12.7,12.7,0,0,1,1.569-4.585c.5-.857.24-1.357-.444-1.907a6.447,6.447,0,0,0-8.344.032,11.479,11.479,0,0,0-3.908,6.616c-.228.99.111,1.436,1.114,1.43,1.393-.009,2.786,0,4.178,0m34.124-.075c0,.027,0,.055,0,.082,1.337,0,2.677-.044,4.012.012s1.85-.509,1.494-1.791a12.418,12.418,0,0,0-2.922-5.485A6.577,6.577,0,0,0,117.46,115c-2.345,1.074-2.465,1.4-1.411,3.773.142.319.24.661.41.962.733,1.292.07,3.423,1.543,4.011,1.353.54,3.091.115,4.659.115" transform="translate(-47.949 -72.137)"/>
        <path id="Trazado_733392" data-name="Trazado 733392" d="M.027,27.526c0-3.256.049-6.512-.023-9.766-.031-1.4.406-1.99,1.877-1.963,3.719.069,7.441.062,11.16,0,1.395-.022,1.808.577,1.822,1.879.025,2.4.095,2.222,2.433,2.45a7.217,7.217,0,0,0,6.675-2.763c2.084-2.413,4.509-4.529,6.733-6.826,1.671-1.727,3.581-2.386,5.827-1.4,1.173.515,1.388-.252,1.772-.977A14.75,14.75,0,0,1,47.174.515c5.29-1.606,10.92.627,14.46,5.593a18.086,18.086,0,0,1,3.206,7.833,4.583,4.583,0,0,0,1.713,3.225,4.169,4.169,0,0,1,.07,6.457c-3.8,3.147-7.741,6.135-11.709,9.074-1.973,1.461-4.462,1.125-6.744,1.4-9.833,1.178-19.714,1.023-29.591.982-.639,0-1.282.042-1.918-.006-1.357-.1-1.837.5-1.84,1.843,0,2.433-.068,2.44-2.421,2.443-3.488.006-6.976-.041-10.463.019C.532,39.4-.034,38.934,0,37.466c.082-3.312.026-6.627.025-9.94m29.787,4.079c5.33.288,12.048-.3,18.771-.814,2.728-.21,5.223-.794,7.292-2.791a52.959,52.959,0,0,1,4.249-3.34c1.326-1.04,2.653-2.081,3.953-3.154a1.289,1.289,0,0,0,.393-1.72,1.373,1.373,0,0,0-1.85-.473,6.631,6.631,0,0,0-1.341.8c-2.092,1.473-4.2,2.931-6.253,4.452a9.536,9.536,0,0,1-5.878,1.845c-3.606,0-7.212.027-10.817-.021a11,11,0,0,1-2.922-.408,5.319,5.319,0,0,1-2.446-9c.83-.895,1.722-1.733,2.537-2.641a1.212,1.212,0,0,0,.124-1.736,1.378,1.378,0,0,0-1.892-.259,6.718,6.718,0,0,0-1.179,1.025,73.709,73.709,0,0,0-5.88,5.955c-2.584,3.231-5.654,4.807-9.793,4.044-.168-.031-.35.012-.523,0-1.15-.106-1.549.466-1.521,1.557.042,1.627.068,3.259-.007,4.884-.064,1.393.552,1.823,1.87,1.806,3.9-.05,7.792-.018,13.113-.018m28.835-13.63c-1.218-.385-2.419,0-2.562-1.369a14.552,14.552,0,0,0-1.446-4.8c-.647-1.352.819-1.59,1.5-2.124.753-.588,1.133.178,1.439.722a14.419,14.419,0,0,1,1.664,4.92c.092.588-.263,1.7.829,1.474.849-.178,1.935-.564,1.644-2a16.894,16.894,0,0,0-3.437-7.711A9.708,9.708,0,0,0,44.178,5.807c-4.1,3.409-6.129,11.105-4.309,16.177a1.532,1.532,0,0,0,1.7,1.133c2.73-.028,5.461-.014,8.192-.011a4.412,4.412,0,0,0,2.491-.678c2.066-1.383,4.087-2.834,6.4-4.452M11.543,27.64c0-2.325-.037-4.651.016-6.974.026-1.13-.4-1.57-1.53-1.535-1.742.055-3.488.043-5.23.006-1.026-.022-1.483.388-1.479,1.433q.03,7.062.005,14.124c0,.955.425,1.361,1.378,1.347,1.743-.027,3.489-.055,5.23.013,1.2.047,1.666-.39,1.63-1.613-.067-2.265-.019-4.533-.02-6.8" transform="translate(0 0)"/>
        <path id="Trazado_733393" data-name="Trazado 733393" d="M143.394,173.6c-2.381,0-4.763.035-7.143-.009a4.466,4.466,0,1,1,.018-8.93q7.056-.07,14.113,0a4.372,4.372,0,0,1,4.633,4.573c-.027,2.549-1.877,4.313-4.651,4.36-2.323.039-4.646.008-6.969.007m-.255-3.308v-.006c2.317,0,4.633.007,6.95,0,.739,0,1.45-.153,1.493-1.078.048-1.032-.686-1.229-1.51-1.23q-6.689-.008-13.379,0c-.812,0-1.583.22-1.6,1.2-.017,1.062.845,1.1,1.616,1.111,2.143.017,4.286.006,6.429.006" transform="translate(-85.567 -106.975)"/>
      </g>
    </g>
  </g>
</svg>
