<svg xmlns="http://www.w3.org/2000/svg" xmlns:xlink="http://www.w3.org/1999/xlink" width="640" height="1021" viewBox="0 0 640 1021">
  <defs>
    <clipPath id="clip-path">
      <rect id="Rect치ngulo_349852" data-name="Rect치ngulo 349852" width="640" height="1021" transform="translate(726 1227)" fill="#fff" stroke="#707070" stroke-width="1"/>
    </clipPath>
    <clipPath id="clip-path-2">
      <rect id="Rect치ngulo_349851" data-name="Rect치ngulo 349851" width="970" height="990.715" fill="none"/>
    </clipPath>
  </defs>
  <g id="Enmascarar_grupo_981496" data-name="Enmascarar grupo 981496" transform="translate(-726 -1227)" clip-path="url(#clip-path)">
    <g id="Grupo_997461" data-name="Grupo 997461" transform="translate(534 1253.823)">
      <g id="Grupo_997460" data-name="Grupo 997460" clip-path="url(#clip-path-2)">
        <path id="Trazado_733424" data-name="Trazado 733424" d="M108.407,141.14C62.442,165.7,21.98,206.022,7.194,257.986-3.844,296.778.086,338.469,4.115,378.914q13.5,135.469,26.993,270.942c4.479,44.963,9.6,91.884,33.3,129.856,38.8,62.176,115.564,83.071,185.586,91.759,166.565,20.664,336.851.534,494.94-55.664,56.792-20.188,113.255-45.762,157.212-88.366s73.962-104.981,66.8-167.8c-3.767-33.047-17.319-64.14-23.119-96.887C931.4,381.338,965.72,296.527,946.909,216.05,928.918,139.081,863.894,80.962,792.5,55.011S643.771,30.455,568.824,36.964C422.59,49.663,240.548,70.529,108.407,141.14" transform="translate(0 23.626)" fill="#fff3d9"/>
        <path id="Trazado_733425" data-name="Trazado 733425" d="M482.26,243.74c50.3,58.54,68.434,84.1,68.434,84.1,61.838,87.4-99.766,78.33-99.766,78.33l-9.07-61.014L413.826,319.6Z" transform="translate(296.636 174.716)" fill="#fcaa97"/>
        <path id="Trazado_733426" data-name="Trazado 733426" d="M164.894,250.944c-29.682,31.332-67.61,75.856-67.61,75.856-50.3,77.5,82.452,70.082,82.452,70.082l48.646-87.4Z" transform="translate(61.579 179.88)" fill="#fcaa97"/>
        <path id="Trazado_733427" data-name="Trazado 733427" d="M295.088,127.037l-5.715,36.826a16.887,16.887,0,0,1-12.481,13.771L233.25,188.875,346.208,336.463l84.924-152.534-25.541-5.94a13.6,13.6,0,0,1-10.5-12.466l-1.887-32.712Z" transform="translate(167.197 91.062)" fill="#fcaa97"/>
        <path id="Trazado_733428" data-name="Trazado 733428" d="M375.771,174.2a13.6,13.6,0,0,1-6.843-11.022l-1.887-32.714-2.747-.161-94.545,14.208c35.621,71.217,90.172,40.688,106.022,29.689" transform="translate(193.36 93.405)" fill="#c77f6d"/>
        <path id="Trazado_733429" data-name="Trazado 733429" d="M362.107,153.452c8.246,52.768,61.838,104.714,61.838,104.714,54.418-51.12,60.19-102.24,60.19-102.24,57.716,13.192,113.782,33.8,113.782,33.8,75.856,72.558,112.958,129.449,112.958,129.449-37.1,51.944-82.45,78.328-82.45,78.328l-38.752-32.156,13.192,315.787H235.958L249.15,384.315l-34.63,24.736c-51.944-28.858-93.17-84.1-93.17-84.1C146.91,287.024,254.1,181.486,254.1,181.486c28.858-15.666,108.012-28.034,108.012-28.034" transform="translate(86.985 109.997)" fill="#73c0e6"/>
        <path id="Trazado_733430" data-name="Trazado 733430" d="M258.682,168.189c-2.026-1.583-3.269-4.012-4.45-6.363q-6.005-11.964-12.014-23.931c-2.395-4.769-4.828-9.666-5.518-15.027-.778-6.057.735-12.177,2.234-18.107q5.047-19.966,10.093-39.928c1.131-4.474,2.369-9.154,5.41-12.516,3.622-4.007,9.082-5.365,13.6-8.179,10.184-6.342,14.993-19.625,25.016-26.248,4.5-2.975,9.736-4.383,14.876-5.75q18.9-5.027,37.8-10.05C351.8.479,358.285-1.12,364.144,1.068c3.394,1.267,6.273,3.712,9.587,5.19,11.82,5.271,26.137-2.69,38.172,2.028,12.741,4.992,17.666,21.9,29.553,28.818,5.892,3.428,13.247,4.227,18.121,9.111,9.858,9.88,2.889,27.715,6.848,41.461,2.519,8.74,9.619,16.1,9.346,25.259-.269,9.039-7.63,16.071-10.339,24.679-2.977,9.458.85,12.035-4.467,20.3-5.1,7.92-19.805,21.529-28.034,25.56-7.511,3.679-10.467,6.455-18.155,9.693-9.832,4.141-20.775,3.4-31.291,2.6q-37.068-2.825-74.134-5.653c-9.688-.738-21.709-1.511-29.2-8.812-3.016-2.941-3.078-6.153-7-8.644-4.29-2.726-10.193-1.121-14.476-4.465" transform="translate(169.519 0)" fill="#87cbed"/>
        <path id="Trazado_733431" data-name="Trazado 733431" d="M422.83,141.488a10.258,10.258,0,0,0-5.523-.719c8.946-56.2-16.128-104.727-67.745-108.384-56.114-3.974-81.932,37.564-83.353,94.59a10.476,10.476,0,0,0-8.072-1.969c-7.772,1.614-11.863,13.553-9.14,26.666s11.228,22.437,19,20.825a8.733,8.733,0,0,0,2.259-.814c9.9,46.5,36.209,80.888,62.161,82.337,28.29,1.579,55.194-27.63,71.766-67.8,7.573,2.51,17.582-4.62,22.768-16.442,5.382-12.263,3.538-24.932-4.12-28.291" transform="translate(177.88 23.025)" fill="#fcaa97"/>
        <path id="Trazado_733432" data-name="Trazado 733432" d="M299.565,123.875a.982.982,0,0,1-.209-.024.878.878,0,0,1-.644-1.061c.017-.069,1.655-6.842,1.489-11.432a.877.877,0,1,1,1.753-.064c.175,4.835-1.466,11.625-1.536,11.911a.877.877,0,0,1-.852.67" transform="translate(214.103 79.17)" fill="#382118"/>
        <path id="Trazado_733433" data-name="Trazado 733433" d="M304.949,127.507a14.131,14.131,0,0,1-8.958-3.1.877.877,0,1,1,1.088-1.375c6.63,5.245,14.385,1.317,14.711,1.147a.878.878,0,0,1,.814,1.555,17.909,17.909,0,0,1-7.655,1.772" transform="translate(211.931 88.056)" fill="#382118"/>
        <path id="Trazado_733434" data-name="Trazado 733434" d="M256.9,112.152a.872.872,0,0,1-.577-.216c-.069-.06-6.838-6.124-2.2-16.311a.878.878,0,0,1,1.6.726c-4.1,9.013,1.693,14.212,1.753,14.263a.877.877,0,0,1-.577,1.538" transform="translate(180.995 68.175)" fill="#382118"/>
        <path id="Trazado_733435" data-name="Trazado 733435" d="M345.151,120.4a.878.878,0,0,1-.39-1.665c.282-.139,6.9-3.55,5.964-13.128a.877.877,0,1,1,1.746-.17c1.056,10.825-6.855,14.835-6.936,14.874a.892.892,0,0,1-.385.089" transform="translate(246.779 75.012)" fill="#382118"/>
        <path id="Trazado_733436" data-name="Trazado 733436" d="M343.755,101.919c-1.173,1.822-6.981.175-12.972-3.679s-9.9-8.455-8.728-10.277,6.981-.175,12.972,3.677,9.9,8.457,8.728,10.279" transform="translate(230.705 62.521)" fill="#943c26"/>
        <path id="Trazado_733437" data-name="Trazado 733437" d="M273.841,94.238c.67,2.06,6.7,1.949,13.482-.251s11.728-5.653,11.058-7.715-6.7-1.947-13.48.252-11.729,5.653-11.06,7.714" transform="translate(196.25 60.785)" fill="#943c26"/>
        <path id="Trazado_733438" data-name="Trazado 733438" d="M288.691,133.329c16.04,2.814,36.311,3.248,36.311,3.248-20.061,19.081-36.311-3.248-36.311-3.248" transform="translate(206.938 95.572)" fill="#fff"/>
        <path id="Trazado_733439" data-name="Trazado 733439" d="M343.814,123.435c-.5,3.868-6.308,6.3-12.967,5.441s-11.655-4.7-11.154-8.565,6.307-6.3,12.969-5.441,11.654,4.7,11.152,8.565" transform="translate(229.135 82.215)" fill="#ff8382"/>
        <path id="Trazado_733440" data-name="Trazado 733440" d="M270.115,115.269c-.5,3.868,4.493,7.7,11.152,8.565s12.468-1.573,12.969-5.441-4.493-7.7-11.154-8.565-12.466,1.573-12.967,5.441" transform="translate(193.598 78.602)" fill="#ff8382"/>
        <path id="Trazado_733441" data-name="Trazado 733441" d="M346.532,103.551A92.118,92.118,0,0,1,325.5,90.374c-3.217-2.618-6.278-5.4-9.248-8.306-3.006-2.907-6.134-5.691-9.343-8.368-4.68-3.916-9.492-7.64-14.226-11.431a143.591,143.591,0,0,1,28.925,22.295c29.682,26.362,70.824,26.03,70.824,26.03C386.4,38.9,278.9,55.893,278.9,55.893a77.067,77.067,0,0,1,7.674,3.186l-.558.675c6.545,5.212,13.323,10.067,19.805,15.247q4.87,3.878,9.448,8.083c3.047,2.848,6.213,5.6,9.516,8.167a93.08,93.08,0,0,0,21.519,12.818,91.811,91.811,0,0,0,24.235,6.1,91.53,91.53,0,0,1-24.011-6.618" transform="translate(199.923 38.806)" fill="#943c26"/>
        <path id="Trazado_733442" data-name="Trazado 733442" d="M259.1,129.579c9.156-25.484,33.425-49.695,79.77-44.084,63.491,7.684,71.94,58.1,71.94,58.1,5.429-41.473,14.31-107.054-62.547-115.828C242.536,15.7,259.1,129.579,259.1,129.579" transform="translate(185.049 19.262)" fill="#87cbed"/>
        <path id="Trazado_733443" data-name="Trazado 733443" d="M258.652,108.1a43.9,43.9,0,0,1,2.843-12.44,52.639,52.639,0,0,1,6.031-11.436,53.933,53.933,0,0,1,8.768-9.679A56.8,56.8,0,0,1,287.175,67.2a74.622,74.622,0,0,1,24.962-7.6,119.307,119.307,0,0,1,25.9-.376,114.565,114.565,0,0,1,12.861,1.82,92.114,92.114,0,0,1,12.586,3.523,73.582,73.582,0,0,1,22.667,12.952,69.09,69.09,0,0,1,9.14,9.326,69.69,69.69,0,0,1,12.162,22.672,56.48,56.48,0,0,1,2.58,12.488,55.749,55.749,0,0,0-1.83-6.05q-1.046-2.972-2.345-5.829a76.26,76.26,0,0,0-6.005-10.922,71.673,71.673,0,0,0-16.7-17.934,75.89,75.89,0,0,0-21.589-11.2,90.213,90.213,0,0,0-11.849-3.077,112.232,112.232,0,0,0-12.215-1.66,127.32,127.32,0,0,0-24.667.027,77.267,77.267,0,0,0-23.562,6.11A54.817,54.817,0,0,0,269.9,86.048a53.893,53.893,0,0,0-6.862,10.3,52.5,52.5,0,0,0-2.543,5.722,42.016,42.016,0,0,0-1.844,6.033" transform="translate(185.405 42.083)" fill="#4d99bf"/>
        <path id="Trazado_733444" data-name="Trazado 733444" d="M335.809,108.249a27.939,27.939,0,0,1-15.261-4.6.877.877,0,1,1,.949-1.475,25.555,25.555,0,0,0,21.474,3.216.878.878,0,0,1,.628,1.64,23.32,23.32,0,0,1-7.791,1.221" transform="translate(229.485 73.139)" fill="#382118"/>
        <path id="Trazado_733445" data-name="Trazado 733445" d="M323.73,104.45a5.669,5.669,0,0,0-.575,2.069,5.771,5.771,0,1,0,11.509.872,5.587,5.587,0,0,0-.007-.848c-5.061-1.243-6.711-1.243-10.928-2.093" transform="translate(231.63 74.871)" fill="#382118"/>
        <path id="Trazado_733446" data-name="Trazado 733446" d="M289.487,102.934c-9.786,0-14.384-3.463-14.627-3.653a.878.878,0,1,1,1.078-1.385c.067.053,7.37,5.466,23.227,2.244a.878.878,0,0,1,.349,1.72,50.314,50.314,0,0,1-10.026,1.075" transform="translate(196.78 70.04)" fill="#382118"/>
        <path id="Trazado_733447" data-name="Trazado 733447" d="M289.736,100.791a5.7,5.7,0,0,1,.036,2.146A5.747,5.747,0,1,1,278.46,100.9a5.577,5.577,0,0,1,.218-.819c4.682.925,5.506.925,11.058.706" transform="translate(199.537 71.742)" fill="#382118"/>
        <path id="Trazado_733448" data-name="Trazado 733448" d="M892.025,666.248H52.673l58.578-213.6h722.2Z" transform="translate(37.757 324.467)" fill="#dbdbdb"/>
        <path id="Trazado_733449" data-name="Trazado 733449" d="M194.716,331.14c-.022,0-.046,0-.07,0a.879.879,0,0,1-.805-.944c.024-.314,2.481-31.905,3.3-83.221a.876.876,0,0,1,.877-.864h.014a.878.878,0,0,1,.864.891c-.815,51.377-3.276,83.018-3.3,83.331a.877.877,0,0,1-.874.809" transform="translate(138.945 176.415)" fill="#382118"/>
        <path id="Trazado_733450" data-name="Trazado 733450" d="M394.941,301.876a.879.879,0,0,1-.87-.769c-.016-.132-1.646-13.755-.831-57.015a.85.85,0,0,1,.894-.862.879.879,0,0,1,.86.894c-.814,43.137.8,56.634.819,56.767a.878.878,0,0,1-.762.979.8.8,0,0,1-.11.007" transform="translate(281.716 174.35)" fill="#382118"/>
        <path id="Trazado_733451" data-name="Trazado 733451" d="M310.537,234.635a8.387,8.387,0,1,1-8.388-8.388,8.388,8.388,0,0,1,8.388,8.388" transform="translate(210.573 162.177)" fill="#4d99bf"/>
        <path id="Trazado_733452" data-name="Trazado 733452" d="M309.577,301.391A8.387,8.387,0,1,1,301.189,293a8.388,8.388,0,0,1,8.388,8.388" transform="translate(209.885 210.029)" fill="#4d99bf"/>
        <path id="Trazado_733453" data-name="Trazado 733453" d="M311.017,362.864a8.387,8.387,0,1,1-8.388-8.388,8.388,8.388,0,0,1,8.388,8.388" transform="translate(210.917 254.093)" fill="#4d99bf"/>
        <path id="Trazado_733454" data-name="Trazado 733454" d="M323.4,261.582,322,260.425c-.477-.395-47.868-40.1-61.913-106.2l5.149-1.1c12.323,57.987,50.91,95.012,58.727,102.02,36.417-22.751,57.973-98.926,58.191-99.7l5.071,1.41c-.92,3.308-23,81.277-62.24,103.816Z" transform="translate(186.433 109.768)" fill="#4d99bf"/>
        <path id="Trazado_733455" data-name="Trazado 733455" d="M287.884,533.125a.877.877,0,0,1-.877-.877v-303l17.621-15.1a.877.877,0,0,1,1.142,1.332l-17.008,14.579V532.247a.877.877,0,0,1-.877.877" transform="translate(205.731 153.35)" fill="#382118"/>
        <path id="Trazado_733456" data-name="Trazado 733456" d="M418.671,331.256l-2.771-4.476c33.88-20.973,81.346-77.219,81.822-77.784l4.031,3.387c-1.964,2.337-48.491,57.46-83.082,78.872" transform="translate(298.123 178.485)" fill="#4d99bf"/>
        <path id="Trazado_733457" data-name="Trazado 733457" d="M189.95,325.718c-.415-.319-41.9-32.367-69.833-70.156l4.234-3.128c27.481,37.179,68.4,68.794,68.806,69.109Z" transform="translate(86.102 180.948)" fill="#4d99bf"/>
        <path id="Trazado_733458" data-name="Trazado 733458" d="M346.041,338.107c-4.865,22.289,3.681,43.087,19.091,46.45s31.845-11.978,36.711-34.269-3.681-43.087-19.091-46.45-31.845,11.98-36.711,34.269" transform="translate(247.068 217.464)" fill="#fff"/>
        <path id="Trazado_733459" data-name="Trazado 733459" d="M193.436,353.94c0,22.815,12.787,41.31,28.557,41.31s28.559-18.5,28.559-41.31-12.787-41.31-28.559-41.31-28.557,18.5-28.557,41.31" transform="translate(138.658 224.098)" fill="#fff"/>
        <path id="Trazado_733460" data-name="Trazado 733460" d="M411.818,485.471a.878.878,0,0,1-.74-1.349c1.995-3.131,3.918-6.39,5.775-9.544,2.594-4.4,5.274-8.941,8.21-13.244a.877.877,0,1,1,1.449.987c-2.9,4.256-5.569,8.776-8.146,13.147-1.866,3.166-3.8,6.438-5.806,9.6a.878.878,0,0,1-.742.405" transform="translate(294.568 330.416)" fill="#382118"/>
        <path id="Trazado_733461" data-name="Trazado 733461" d="M428.121,311.285a.878.878,0,0,1-.367-1.676c19.654-9.008,59.977-17.293,60.38-17.376a.877.877,0,1,1,.352,1.718c-.4.082-40.531,8.328-60,17.254a.9.9,0,0,1-.366.079" transform="translate(306.253 209.464)" fill="#382118"/>
        <path id="Trazado_733462" data-name="Trazado 733462" d="M480.867,300.412,449.535,311.13c-21.436-26.384-47.822-18.964-47.822-18.964a105.737,105.737,0,0,0-36.4,22.3,7.866,7.866,0,0,0,7.393,13.322c16.717-4.342,26.533-10.886,26.533-10.886,12.366-4.122,18.964,0,18.964,0a194.562,194.562,0,0,0-47.985,29.576,7.822,7.822,0,0,0,6.941,13.568c20.818-5.216,53.41-16.76,53.41-16.76-11.575,11.576-42.213,23.153-55.134,27.685a8.164,8.164,0,0,0,.252,15.484,46.038,46.038,0,0,0,5.411,1.355c-11.544,7.42.824,11.544.824,11.544,31.332,9.07,73.382-19.788,73.382-19.788l42.05-1.65c-2.474-66.786-16.49-77.5-16.49-77.5" transform="translate(260.102 208.74)" fill="#99d3f0"/>
        <path id="Trazado_733463" data-name="Trazado 733463" d="M373.758,354.262a.658.658,0,0,1-.058-1.313c27.611-2.436,54.773-13.853,55.044-13.968a.658.658,0,0,1,.513,1.212c-.273.115-27.625,11.613-55.441,14.068-.019,0-.038,0-.058,0" transform="translate(267.444 242.948)" fill="#382118"/>
        <path id="Trazado_733464" data-name="Trazado 733464" d="M421.041,362.285a.657.657,0,0,1-.573-.98c.1-.189,10.311-19.2-7.446-57.944a.658.658,0,0,1,1.2-.548c18.071,39.428,7.839,58.351,7.4,59.137a.658.658,0,0,1-.573.335" transform="translate(296.017 216.785)" fill="#382118"/>
        <path id="Trazado_733465" data-name="Trazado 733465" d="M161.449,305.082c-3.41,0-15.506-1.327-35.955-17.546a.877.877,0,0,1,1.088-1.375c23.35,18.519,35.5,17.146,35.619,17.132a.878.878,0,0,1,.232,1.741,7.95,7.95,0,0,1-.984.048" transform="translate(89.717 204.988)" fill="#382118"/>
        <path id="Trazado_733466" data-name="Trazado 733466" d="M156.447,304.249c9.894,2.474,23.91-.824,23.91-.824a97.073,97.073,0,0,1,16.6-16.732,20.712,20.712,0,0,1,21.685-2.2c32.947,16.234,54.064,54.382,54.064,54.382,6.6,20.612-14.016,17.314-14.016,17.314,2.222,4.2,3.853,7.434,5.046,9.908a11.619,11.619,0,0,1-15.584,15.479c-5.574-2.728-9.755-5.38-9.755-5.38,3.737,4.781,8.174,10.517,11.151,14.373a9.111,9.111,0,0,1-8.514,14.583,47.309,47.309,0,0,1-14.5-4.438c-4.948,13.192-45.348-19.788-45.348-19.788-12.368-10.72-40.4,0-40.4,0-28.858-43.7,15.666-76.68,15.666-76.68" transform="translate(93.939 202.429)" fill="#99d3f0"/>
        <path id="Trazado_733467" data-name="Trazado 733467" d="M225.981,345.595a.654.654,0,0,1-.561-.316c-8.905-14.571-48.1-45.686-48.495-46a.658.658,0,0,1,.817-1.032c1.621,1.282,39.773,31.574,48.8,46.345a.658.658,0,0,1-.561,1" transform="translate(126.644 213.687)" fill="#382118"/>
        <path id="Trazado_733468" data-name="Trazado 733468" d="M209.843,352.645a.653.653,0,0,1-.513-.247c-9.736-12.169-38.362-35.119-38.651-35.351a.658.658,0,1,1,.822-1.028c.288.232,29.03,23.275,38.855,35.557a.657.657,0,0,1-.513,1.07" transform="translate(122.168 226.425)" fill="#382118"/>
        <path id="Trazado_733469" data-name="Trazado 733469" d="M202.431,366.02a.655.655,0,0,1-.412-.144c-16.323-13.06-36.941-32.82-37.147-33.02a.658.658,0,0,1,.912-.949c.206.2,20.78,19.92,37.059,32.941a.659.659,0,0,1-.412,1.173" transform="translate(118.038 237.784)" fill="#382118"/>
        <path id="Trazado_733470" data-name="Trazado 733470" d="M163.333,346.026a.65.65,0,0,1-.345-.1c-.41-.254-10.093-6.339-15.067-17.113a.658.658,0,0,1,1.195-.551c4.809,10.419,14.468,16.485,14.564,16.545a.658.658,0,0,1-.347,1.217" transform="translate(105.988 235.03)" fill="#382118"/>
        <path id="Trazado_733471" data-name="Trazado 733471" d="M594.04,609.108,576.079,459.953h-5.466l-4.685,11.714-26.55.781L526.1,450.583l-14.837.781-9.372,17.961H473L460.5,448.24l-18.742.781-10.152,20.3H405.84L394.126,449.8l-17.961.781-9.913,17.92-33.818-.74L321.5,446.679l-17.18.781-10.933,19.522-25.771.781-10.933-18.742H238.723L226.23,470.886l-17.18,1.562-10.933-14.837c-3.906,31.236-22.442,151.16-22.442,151.16Z" transform="translate(125.926 320.186)" fill="#deb08e"/>
        <path id="Trazado_733472" data-name="Trazado 733472" d="M176.055,549.9c0,23.184,13.424,41.978,29.981,41.978s29.981-18.794,29.981-41.978-13.422-41.978-29.981-41.978-29.981,18.794-29.981,41.978" transform="translate(126.199 364.088)" fill="#fff"/>
        <path id="Trazado_733473" data-name="Trazado 733473" d="M216.564,551.665c0,23.184,13.424,41.978,29.981,41.978s29.982-18.794,29.982-41.978-13.424-41.978-29.982-41.978-29.981,18.794-29.981,41.978" transform="translate(155.236 365.351)" fill="#fff"/>
        <path id="Trazado_733474" data-name="Trazado 733474" d="M258.438,552.106c0,23.184,13.424,41.978,29.981,41.978S318.4,575.29,318.4,552.106s-13.424-41.978-29.982-41.978-29.981,18.794-29.981,41.978" transform="translate(185.252 365.667)" fill="#fff"/>
        <path id="Trazado_733475" data-name="Trazado 733475" d="M298.466,553.47c0,23.184,13.424,41.978,29.981,41.978s29.982-18.794,29.982-41.978-13.424-41.978-29.982-41.978-29.981,18.794-29.981,41.978" transform="translate(213.945 366.645)" fill="#fff"/>
        <path id="Trazado_733476" data-name="Trazado 733476" d="M341.223,551.2c0,23.184,13.424,41.978,29.981,41.978s29.982-18.794,29.982-41.978-13.424-41.978-29.982-41.978-29.981,18.794-29.981,41.978" transform="translate(244.593 365.015)" fill="#fff"/>
        <path id="Trazado_733477" data-name="Trazado 733477" d="M382.161,550.741c0,23.184,13.424,41.978,29.981,41.978s29.982-18.794,29.982-41.978-13.424-41.978-29.982-41.978-29.981,18.794-29.981,41.978" transform="translate(273.938 364.689)" fill="#fff"/>
        <path id="Trazado_733478" data-name="Trazado 733478" d="M595.331,542.169l-19.057,31.007a13.6,13.6,0,0,1-11.583,6.476h-8.167A13.594,13.594,0,0,1,544.9,573.1l-10.734-17.711a10.426,10.426,0,0,0-17.726-.17l-11.206,17.712a13.6,13.6,0,0,1-11.489,6.326h-8.06a13.6,13.6,0,0,1-11.8-6.838L463.56,554.4a10.423,10.423,0,0,0-17.961-.22L434.136,573.1a13.6,13.6,0,0,1-11.628,6.55H414.4a13.594,13.594,0,0,1-11.626-6.548l-10.734-17.711a10.426,10.426,0,0,0-17.726-.17l-11.206,17.712a13.6,13.6,0,0,1-11.489,6.326H343.48a13.59,13.59,0,0,1-11.738-6.738l-10.055-17.213a10.426,10.426,0,0,0-18.027.039l-10.131,17.515a13.6,13.6,0,0,1-11.767,6.787h-7.928a13.594,13.594,0,0,1-11.626-6.548l-10.734-17.711a10.426,10.426,0,0,0-17.726-.17l-11.206,17.712a13.6,13.6,0,0,1-11.489,6.326h-7.386a14.607,14.607,0,0,1-12.739-7.463l-16.511-31.193Z" transform="translate(125.025 387.515)" fill="#deb08e"/>
        <path id="Trazado_733479" data-name="Trazado 733479" d="M594.04,569.08,576.079,419.925h-5.466l-4.685,11.714-26.55.781L526.1,410.555l-14.837.781L501.892,429.3H473L460.5,408.212l-18.742.781-10.152,20.3H405.84l-11.714-19.524-17.961.781-9.913,17.92-33.818-.74L321.5,406.651l-17.18.781-10.933,19.522-25.771.781-10.933-18.742H238.723L226.23,430.858l-17.18,1.562-10.933-14.837c-3.906,31.236-22.442,151.16-22.442,151.16Z" transform="translate(125.926 291.493)" fill="#deb08e"/>
        <path id="Trazado_733480" data-name="Trazado 733480" d="M176.055,509.875c0,23.184,13.424,41.978,29.981,41.978s29.981-18.794,29.981-41.978S222.594,467.9,206.036,467.9s-29.981,18.794-29.981,41.978" transform="translate(126.199 335.395)" fill="#fff"/>
        <path id="Trazado_733481" data-name="Trazado 733481" d="M216.564,511.637c0,23.184,13.424,41.978,29.981,41.978s29.982-18.794,29.982-41.978-13.424-41.978-29.982-41.978-29.981,18.794-29.981,41.978" transform="translate(155.236 336.658)" fill="#fff"/>
        <path id="Trazado_733482" data-name="Trazado 733482" d="M258.438,512.078c0,23.184,13.424,41.978,29.981,41.978S318.4,535.262,318.4,512.078,304.977,470.1,288.419,470.1s-29.981,18.794-29.981,41.978" transform="translate(185.252 336.974)" fill="#fff"/>
        <path id="Trazado_733483" data-name="Trazado 733483" d="M298.466,513.442c0,23.184,13.424,41.978,29.981,41.978s29.982-18.794,29.982-41.978-13.424-41.978-29.982-41.978-29.981,18.794-29.981,41.978" transform="translate(213.945 337.952)" fill="#fff"/>
        <path id="Trazado_733484" data-name="Trazado 733484" d="M341.223,511.168c0,23.184,13.424,41.978,29.981,41.978s29.982-18.794,29.982-41.978S387.762,469.19,371.2,469.19s-29.981,18.794-29.981,41.978" transform="translate(244.593 336.322)" fill="#fff"/>
        <path id="Trazado_733485" data-name="Trazado 733485" d="M382.161,510.713c0,23.184,13.424,41.978,29.981,41.978s29.982-18.794,29.982-41.978-13.424-41.978-29.982-41.978-29.981,18.794-29.981,41.978" transform="translate(273.938 335.996)" fill="#fff"/>
        <path id="Trazado_733486" data-name="Trazado 733486" d="M595.331,502.141l-19.057,31.007a13.6,13.6,0,0,1-11.583,6.476h-8.167a13.594,13.594,0,0,1-11.626-6.548l-10.734-17.711a10.426,10.426,0,0,0-17.726-.17l-11.206,17.712a13.6,13.6,0,0,1-11.489,6.326h-8.06a13.6,13.6,0,0,1-11.8-6.838L463.56,514.372a10.423,10.423,0,0,0-17.961-.22l-11.463,18.923a13.6,13.6,0,0,1-11.628,6.55H414.4a13.594,13.594,0,0,1-11.626-6.548l-10.734-17.711a10.426,10.426,0,0,0-17.726-.17l-11.206,17.712a13.6,13.6,0,0,1-11.489,6.326H343.48a13.59,13.59,0,0,1-11.738-6.739l-10.055-17.213a10.426,10.426,0,0,0-18.027.039l-10.131,17.515a13.593,13.593,0,0,1-11.767,6.787h-7.928a13.594,13.594,0,0,1-11.626-6.548l-10.734-17.711a10.426,10.426,0,0,0-17.726-.17l-11.206,17.712a13.6,13.6,0,0,1-11.489,6.326h-7.386a14.607,14.607,0,0,1-12.739-7.463l-16.511-31.193Z" transform="translate(125.025 358.822)" fill="#deb08e"/>
        <path id="Trazado_733487" data-name="Trazado 733487" d="M594.04,529.052,576.079,379.9h-5.466l-4.685,11.714-26.55.781L526.1,370.527l-14.837.781-9.372,17.961H473L460.5,368.184l-18.742.781-10.152,20.3H405.84l-11.714-19.524-17.961.781-9.913,17.92-33.818-.74L321.5,366.623l-17.18.779-10.933,19.524-25.771.781-10.933-18.742H238.723L226.23,390.83l-17.18,1.562-10.933-14.837c-3.906,31.236-22.442,151.16-22.442,151.16Z" transform="translate(125.926 262.801)" fill="#deb08e"/>
        <path id="Trazado_733488" data-name="Trazado 733488" d="M535.133,405.9c-2.6,0-5.113-.108-7.506-.326l-.388-.034-.233-.312a94.516,94.516,0,0,1-5.873-9.285,77.968,77.968,0,0,0-7.8-11.753,28.135,28.135,0,0,1-6.091-.336c-4.883-.622-7.944-.779-9.233,2.228l-.077.143a133.306,133.306,0,0,0-8.189,14.746l-.175.35-.379.1c-4.653,1.269-9.37,1.057-13.934.857s-9.279-.412-14.119.8l-.211.026a7.226,7.226,0,0,1-4.744-1.906l-.081-.094a54.339,54.339,0,0,1-4.792-8.186c-2.182-4.285-4.244-8.34-8-11.252a145.39,145.39,0,0,0-18.094.762c-3.186,6.373-6.493,12.95-10.55,19.44l-.122.156a3.866,3.866,0,0,1-3.1,1.08l-.1-.005a92.634,92.634,0,0,0-21.244,0l-.1.005a7.226,7.226,0,0,1-4.744-1.906l-.1-.1-.064-.127a95.628,95.628,0,0,0-5.312-8.988,100.585,100.585,0,0,1-5.161-8.668c-1.5-.009-2.965-.058-4.385-.1-4.553-.149-8.857-.29-13.549.838-3.132,3.817-5.794,8.618-8.373,13.262-.7,1.257-1.385,2.5-2.074,3.7l-.254.443h-.508c-2.853,0-5.823.05-8.7.1-8.915.154-18.131.316-26.882-.936l-.361-.052-.218-.29c-4.182-5.578-7.137-11.607-9.994-17.439q-.7-1.432-1.392-2.826c-.853-.014-1.724-.053-2.637-.1-3.317-.156-6.745-.312-9.685.862l-.366.146-.352-.177c-3.77-1.885-5.509.793-7.927,5.425a27.717,27.717,0,0,1-2.481,4.16c-.821,1.636-1.652,3.087-2.455,4.493s-1.638,2.865-2.452,4.495l-.17.338-.362.11c-4.63,1.389-9.036,1.262-13.3,1.14a46.715,46.715,0,0,0-10.694.529l-.172.017a7.221,7.221,0,0,1-4.744-1.907c-2.822-2.822-4.589-6.378-6.3-9.817a40.151,40.151,0,0,0-4.261-7.295,38.861,38.861,0,0,0-6.611-.1,29.19,29.19,0,0,1-9.54-.673,2.1,2.1,0,0,0-1.664.5c-.889,1.42-1.777,2.8-2.656,4.17a111.746,111.746,0,0,0-8.773,15.42l-.067.149-.115.115a4.238,4.238,0,0,0-.479.6,3.177,3.177,0,0,1-2.386,1.542.869.869,0,0,1-1-.728.878.878,0,0,1,.728-1,1.47,1.47,0,0,0,1.227-.819,6.156,6.156,0,0,1,.555-.707,114.249,114.249,0,0,1,8.838-15.516c.894-1.391,1.8-2.8,2.7-4.241l.124-.156a3.86,3.86,0,0,1,3.094-1.082l.24.034a27.246,27.246,0,0,0,9.1.64,38.255,38.255,0,0,1,7.271.158l.335.048.216.259a40.213,40.213,0,0,1,4.7,7.9c1.645,3.313,3.346,6.737,5.966,9.358a5.416,5.416,0,0,0,3.42,1.391,48.654,48.654,0,0,1,11-.544c4.192.122,8.158.235,12.383-.961.778-1.533,1.564-2.907,2.325-4.237.8-1.408,1.636-2.864,2.448-4.49l.1-.156a25.138,25.138,0,0,0,2.354-3.949c2.043-3.913,4.575-8.759,9.913-6.35,3.205-1.166,6.835-1,10.054-.846,1.088.05,2.115.1,3.1.1h.542l.244.484q.814,1.633,1.636,3.322c2.773,5.655,5.636,11.5,9.606,16.866,8.507,1.176,17.522,1.018,26.243.867,2.711-.048,5.506-.1,8.215-.1.6-1.061,1.205-2.146,1.813-3.241,2.668-4.807,5.427-9.779,8.742-13.759l.184-.22.28-.069c5.039-1.262,9.544-1.114,14.308-.956,1.576.052,3.205.1,4.867.1h.543l.242.486a95.757,95.757,0,0,0,5.314,8.986,98.109,98.109,0,0,1,5.338,9.015,5.452,5.452,0,0,0,3.36,1.3,94.061,94.061,0,0,1,21.531,0,2.176,2.176,0,0,0,1.739-.5c4.074-6.531,7.4-13.187,10.62-19.625l.211-.421.465-.058a146.4,146.4,0,0,1,19.074-.831h.292l.234.177c4.223,3.168,6.519,7.676,8.737,12.035A53.726,53.726,0,0,0,457.461,400a5.448,5.448,0,0,0,3.358,1.351c5.047-1.243,9.858-1.028,14.512-.822,4.5.2,8.756.39,13.017-.7a132.131,132.131,0,0,1,8.078-14.514c1.928-4.359,6.762-3.746,11.036-3.2a24.388,24.388,0,0,0,6.1.282l.47-.067.314.359a76.688,76.688,0,0,1,8.3,12.378,95.359,95.359,0,0,0,5.526,8.8,106.082,106.082,0,0,0,27.407-1.672l.156-.016a3.117,3.117,0,0,0,1.6-2.421,9.265,9.265,0,0,1,1.473-4.678,5.95,5.95,0,0,0,1-2.768.877.877,0,0,1,1.755,0,7.446,7.446,0,0,1-1.215,3.61,7.609,7.609,0,0,0-1.258,3.835c0,2.024-1.861,4.081-3.253,4.172a117.135,117.135,0,0,1-20.7,1.976" transform="translate(140.705 271)" fill="#382118"/>
        <path id="Trazado_733489" data-name="Trazado 733489" d="M191.907,422.5,180.1,407.284a.877.877,0,1,1,1.385-1.076l11.226,14.461,17.18-1.482,13.189-21.908h19.912l11.51,18.727,26.161-.75,11.515-19.517,19.124-.826,11.537,21.119,34.607.719,10.426-17.889,19.91-.822,12.356,19.544h26.137L436.954,397.3l20.763-.821,13.177,21.1h29.436l9.86-17.936,16.631-.831,13.994,21.876,26.914-.75,4.716-11.194a.878.878,0,0,1,1.619.682l-5.156,12.234-29.036.81-13.98-21.855-14.636.731-9.887,17.987H469.921l-13.153-21.065-18.732.74-10.708,20.325H399.164l-12.328-19.5-17.937.74-10.464,17.951-36.654-.762-11.5-21.05-17.081.737-11.522,19.53-28.144.809-11.528-18.756H224.068l-13.139,21.824Z" transform="translate(128.962 283.079)" fill="#382118"/>
        <path id="Trazado_733490" data-name="Trazado 733490" d="M345.645,418.275a.881.881,0,0,1-.314-.057,20.78,20.78,0,0,0-7.449-.922c-1.052-.007-2.139-.012-3.209-.079a.878.878,0,0,1,.112-1.753c1.018.065,2.079.07,3.106.076a22.516,22.516,0,0,1,8.069,1.037.878.878,0,0,1-.314,1.7" transform="translate(239.308 297.81)" fill="#382118"/>
        <path id="Trazado_733491" data-name="Trazado 733491" d="M416.262,440.853a71.426,71.426,0,0,1-11.752-.915l-.278-.046-.2-.2c-3.24-3.238-5.214-6.972-7.121-10.583a44.422,44.422,0,0,0-5.245-8.375c-5.142-4.229-11.923-2.5-16.715-.3a.877.877,0,0,1-.735-1.593c7.556-3.473,14-3.271,18.629.589l.1.1a46.118,46.118,0,0,1,5.513,8.751c1.808,3.42,3.676,6.953,6.613,9.963,8.27,1.339,17.839,1.09,29.231-.754.2-3.094,1.633-5.683,3.02-8.193.405-.735.807-1.463,1.169-2.191a.877.877,0,1,1,1.571.779c-.373.752-.786,1.5-1.205,2.259-1.389,2.515-2.824,5.116-2.824,8.095v.742l-.735.124a116.316,116.316,0,0,1-19.043,1.739" transform="translate(267.88 298.469)" fill="#382118"/>
        <path id="Trazado_733492" data-name="Trazado 733492" d="M177.42,427.545c0,23.184,13.422,41.978,29.981,41.978s29.981-18.794,29.981-41.978-13.422-41.978-29.981-41.978-29.981,18.794-29.981,41.978" transform="translate(127.177 276.38)" fill="#fff"/>
        <path id="Trazado_733493" data-name="Trazado 733493" d="M217.928,429.307c0,23.184,13.424,41.978,29.981,41.978s29.982-18.794,29.982-41.978-13.424-41.978-29.982-41.978-29.981,18.794-29.981,41.978" transform="translate(156.214 277.643)" fill="#fff"/>
        <path id="Trazado_733494" data-name="Trazado 733494" d="M259.8,429.748c0,23.184,13.424,41.978,29.981,41.978s29.982-18.794,29.982-41.978-13.424-41.978-29.982-41.978S259.8,406.564,259.8,429.748" transform="translate(186.23 277.959)" fill="#fff"/>
        <path id="Trazado_733495" data-name="Trazado 733495" d="M299.376,428.383c0,23.184,13.424,41.978,29.981,41.978s29.982-18.794,29.982-41.978S345.915,386.4,329.357,386.4s-29.981,18.794-29.981,41.978" transform="translate(214.597 276.981)" fill="#fff"/>
        <path id="Trazado_733496" data-name="Trazado 733496" d="M176.055,446.194c0,23.184,13.424,41.978,29.981,41.978s29.981-18.794,29.981-41.978-13.422-41.978-29.981-41.978-29.981,18.794-29.981,41.978" transform="translate(126.199 289.748)" fill="#fff"/>
        <path id="Trazado_733497" data-name="Trazado 733497" d="M216.564,447.957c0,23.184,13.424,41.978,29.981,41.978s29.982-18.794,29.982-41.978-13.424-41.978-29.982-41.978-29.981,18.794-29.981,41.978" transform="translate(155.236 291.012)" fill="#fff"/>
        <path id="Trazado_733498" data-name="Trazado 733498" d="M258.438,448.4c0,23.184,13.424,41.978,29.981,41.978S318.4,471.581,318.4,448.4s-13.424-41.978-29.982-41.978-29.981,18.794-29.981,41.978" transform="translate(185.252 291.327)" fill="#fff"/>
        <path id="Trazado_733499" data-name="Trazado 733499" d="M298.466,449.762c0,23.184,13.424,41.978,29.981,41.978s29.982-18.794,29.982-41.978-13.424-41.978-29.982-41.978-29.981,18.794-29.981,41.978" transform="translate(213.945 292.305)" fill="#fff"/>
        <path id="Trazado_733500" data-name="Trazado 733500" d="M341.223,447.487c0,23.184,13.424,41.978,29.981,41.978s29.982-18.794,29.982-41.978-13.424-41.978-29.982-41.978-29.981,18.794-29.981,41.978" transform="translate(244.593 290.675)" fill="#fff"/>
        <path id="Trazado_733501" data-name="Trazado 733501" d="M176.055,469.847c0,23.184,13.424,41.978,29.981,41.978s29.981-18.794,29.981-41.978-13.422-41.978-29.981-41.978-29.981,18.794-29.981,41.978" transform="translate(126.199 306.703)" fill="#fff"/>
        <path id="Trazado_733502" data-name="Trazado 733502" d="M230,449.141a.877.877,0,0,1-.841-.628c-3.411-11.568-16.844-22.1-29.715-18.885a28.622,28.622,0,0,0-19.4,18.142.877.877,0,1,1-1.648-.6A30.362,30.362,0,0,1,199,427.93c13.82-3.458,28.2,7.755,31.838,20.085a.878.878,0,0,1-.592,1.09.911.911,0,0,1-.249.036" transform="translate(127.836 306.291)" fill="#382118"/>
        <path id="Trazado_733503" data-name="Trazado 733503" d="M232.8,433.729a.875.875,0,0,1-.852-.671c-2.812-11.64-8.229-20.173-15.666-24.677a23.391,23.391,0,0,0-17.9-2.711c-8.436,2.3-15.613,9.494-19.177,19.239a.879.879,0,0,1-1.65-.6c3.76-10.277,11.381-17.877,20.384-20.332A25.128,25.128,0,0,1,217.2,406.88c7.848,4.75,13.539,13.661,16.461,25.766a.878.878,0,0,1-.647,1.059.95.95,0,0,1-.206.024" transform="translate(127.241 289.023)" fill="#382118"/>
        <path id="Trazado_733504" data-name="Trazado 733504" d="M216.564,471.609c0,23.184,13.424,41.978,29.981,41.978s29.982-18.794,29.982-41.978-13.424-41.978-29.982-41.978-29.981,18.794-29.981,41.978" transform="translate(155.236 307.966)" fill="#fff"/>
        <path id="Trazado_733505" data-name="Trazado 733505" d="M258.438,472.05c0,23.184,13.424,41.978,29.981,41.978S318.4,495.234,318.4,472.05s-13.424-41.978-29.982-41.978-29.981,18.794-29.981,41.978" transform="translate(185.252 308.282)" fill="#fff"/>
        <path id="Trazado_733506" data-name="Trazado 733506" d="M298.466,473.415c0,23.184,13.424,41.978,29.981,41.978s29.982-18.794,29.982-41.978-13.424-41.978-29.982-41.978-29.981,18.794-29.981,41.978" transform="translate(213.945 309.26)" fill="#fff"/>
        <path id="Trazado_733507" data-name="Trazado 733507" d="M341.223,471.14c0,23.184,13.424,41.978,29.981,41.978s29.982-18.794,29.982-41.978-13.424-41.978-29.982-41.978-29.981,18.794-29.981,41.978" transform="translate(244.593 307.629)" fill="#fff"/>
        <path id="Trazado_733508" data-name="Trazado 733508" d="M382.161,470.684c0,23.184,13.424,41.978,29.981,41.978s29.982-18.794,29.982-41.978-13.424-41.976-29.982-41.976-29.981,18.792-29.981,41.976" transform="translate(273.938 307.304)" fill="#fff"/>
        <path id="Trazado_733509" data-name="Trazado 733509" d="M595.331,462.113l-19.057,31.007a13.6,13.6,0,0,1-11.583,6.476h-8.167a13.594,13.594,0,0,1-11.626-6.548l-10.734-17.711a10.426,10.426,0,0,0-17.726-.17L505.233,492.88a13.6,13.6,0,0,1-11.489,6.326h-8.06a13.591,13.591,0,0,1-11.8-6.838L463.56,474.344a10.423,10.423,0,0,0-17.961-.22l-11.463,18.923a13.6,13.6,0,0,1-11.628,6.55H414.4a13.594,13.594,0,0,1-11.626-6.548l-10.734-17.711a10.426,10.426,0,0,0-17.726-.17L363.106,492.88a13.6,13.6,0,0,1-11.489,6.326H343.48a13.592,13.592,0,0,1-11.738-6.737l-10.055-17.213a10.425,10.425,0,0,0-18.027.038L293.529,492.81a13.593,13.593,0,0,1-11.767,6.786h-7.928a13.594,13.594,0,0,1-11.626-6.548l-10.734-17.711a10.426,10.426,0,0,0-17.726-.17L222.542,492.88a13.6,13.6,0,0,1-11.489,6.326h-7.386a14.607,14.607,0,0,1-12.739-7.463l-16.511-31.193Z" transform="translate(125.025 330.129)" fill="#deb08e"/>
        <path id="Trazado_733510" data-name="Trazado 733510" d="M187.293,485.423a.879.879,0,0,1-.776-.467L174.01,461.328a.877.877,0,0,1,1.55-.821l12.507,23.628a.877.877,0,0,1-.774,1.288" transform="translate(124.659 329.763)" fill="#382118"/>
        <path id="Trazado_733511" data-name="Trazado 733511" d="M234.817,481.949a.877.877,0,0,1-.786-.486c-.194-.39-.395-.8-.6-1.227-2.671-5.461-6.7-13.707-13.314-12.833-7.231.965-11.992,10.574-13.278,13.5a.877.877,0,0,1-1.605-.709c1.767-4.016,6.735-13.472,14.651-14.528,7.858-1.056,12.231,7.89,15.122,13.8.208.422.405.829.6,1.216a.876.876,0,0,1-.785,1.269" transform="translate(147.059 333.732)" fill="#382118"/>
        <path id="Trazado_733512" data-name="Trazado 733512" d="M277.622,484.8a.875.875,0,0,1-.767-.451c-.9-1.631-1.694-3.415-2.46-5.138-2.424-5.473-4.713-10.641-10.536-11.807-7.159-1.19-12.454,3.753-16.634,15.57a.877.877,0,1,1-1.653-.584c1.634-4.629,6.611-18.706,18.6-16.711,6.744,1.348,9.327,7.181,11.825,12.821.749,1.689,1.523,3.435,2.388,5a.878.878,0,0,1-.34,1.193.889.889,0,0,1-.426.11" transform="translate(175.992 333.665)" fill="#382118"/>
        <path id="Trazado_733513" data-name="Trazado 733513" d="M287.354,483.794a.937.937,0,0,1-.263-.039.88.88,0,0,1-.575-1.1c3.209-10.237,9.07-16.282,16.5-17.027,5.1-.738,7.94,3.288,10.436,6.835.608.864,1.236,1.758,1.88,2.561a33.3,33.3,0,0,1,2.318,4.23,34.818,34.818,0,0,0,1.626,3.1.877.877,0,1,1-1.5.917,36.578,36.578,0,0,1-1.712-3.255,32.187,32.187,0,0,0-2.153-3.961c-.632-.783-1.276-1.7-1.9-2.586-2.421-3.437-4.7-6.684-8.79-6.1-9.065.906-13.312,10.294-15.039,15.81a.879.879,0,0,1-.838.615" transform="translate(205.35 333.705)" fill="#382118"/>
        <path id="Trazado_733514" data-name="Trazado 733514" d="M328.059,486.32a.879.879,0,0,1-.869-1.011c.45-2.922,2.345-5.672,4.179-8.332a41.453,41.453,0,0,0,2.273-3.542c2.532-4.677,6.557-7.669,10.77-8,9.569-.745,13.438,9.044,16.268,16.2.211.536.417,1.057.622,1.559a.878.878,0,0,1-1.629.656c-.2-.5-.41-1.03-.623-1.569-2.778-7.02-6.23-15.779-14.5-15.1-3.616.288-7.116,2.938-9.362,7.089a42.388,42.388,0,0,1-2.374,3.7c-1.72,2.5-3.5,5.08-3.887,7.6a.879.879,0,0,1-.867.743" transform="translate(234.527 333.599)" fill="#382118"/>
        <path id="Trazado_733515" data-name="Trazado 733515" d="M399.5,483.3a.88.88,0,0,1-.807-.531c-.314-.731-.632-1.514-.963-2.326-2.4-5.9-5.393-13.243-12.037-13.654-7.269-.433-12.337,9.757-13.994,13.11a.877.877,0,0,1-1.573-.776c3.1-6.272,8.1-14.545,15.674-14.085,7.745.477,11.1,8.723,13.554,14.744.326.8.64,1.573.951,2.294a.876.876,0,0,1-.807,1.224" transform="translate(265.246 333.335)" fill="#382118"/>
        <path id="Trazado_733516" data-name="Trazado 733516" d="M234.817,521.812a.876.876,0,0,1-.786-.488c-.194-.39-.395-.8-.6-1.226-2.671-5.461-6.706-13.7-13.314-12.835-7.233.965-11.992,10.576-13.278,13.5a.877.877,0,1,1-1.605-.709c1.767-4.016,6.733-13.472,14.651-14.528,7.849-1.063,12.229,7.889,15.122,13.8.206.424.405.831.6,1.217a.876.876,0,0,1-.785,1.269" transform="translate(147.059 362.305)" fill="#382118"/>
        <path id="Trazado_733517" data-name="Trazado 733517" d="M277.622,524.659a.875.875,0,0,1-.767-.452c-.9-1.631-1.694-3.413-2.46-5.138-2.424-5.473-4.713-10.641-10.536-11.806-7.159-1.188-12.454,3.753-16.634,15.57a.877.877,0,1,1-1.653-.584c1.634-4.628,6.611-18.718,18.6-16.711,6.744,1.348,9.327,7.181,11.825,12.821.749,1.689,1.523,3.435,2.388,5a.878.878,0,0,1-.34,1.193.89.89,0,0,1-.426.11" transform="translate(175.992 362.237)" fill="#382118"/>
        <path id="Trazado_733518" data-name="Trazado 733518" d="M287.354,523.655a.876.876,0,0,1-.838-1.14c3.209-10.237,9.07-16.282,16.5-17.027,5.1-.738,7.94,3.288,10.436,6.835.608.863,1.236,1.758,1.88,2.561a33.3,33.3,0,0,1,2.318,4.23,34.821,34.821,0,0,0,1.626,3.1.877.877,0,1,1-1.5.917,36.594,36.594,0,0,1-1.712-3.255,32.182,32.182,0,0,0-2.153-3.961c-.632-.783-1.276-1.7-1.9-2.586-2.421-3.439-4.7-6.69-8.79-6.1-9.065.906-13.312,10.294-15.039,15.81a.879.879,0,0,1-.838.615" transform="translate(205.35 362.278)" fill="#382118"/>
        <path id="Trazado_733519" data-name="Trazado 733519" d="M328.059,526.181a.892.892,0,0,1-.134-.01.88.88,0,0,1-.735-1c.45-2.92,2.345-5.672,4.179-8.332a41.452,41.452,0,0,0,2.273-3.542c2.532-4.677,6.557-7.669,10.77-8,9.569-.749,13.438,9.046,16.268,16.2.211.536.417,1.058.622,1.559a.878.878,0,0,1-1.629.656c-.2-.5-.41-1.03-.623-1.569-2.778-7.02-6.23-15.76-14.5-15.1-3.616.288-7.116,2.938-9.362,7.089a42.4,42.4,0,0,1-2.374,3.7c-1.72,2.5-3.5,5.08-3.887,7.6a.879.879,0,0,1-.867.743" transform="translate(234.527 362.172)" fill="#382118"/>
        <path id="Trazado_733520" data-name="Trazado 733520" d="M399.5,523.164a.881.881,0,0,1-.807-.53c-.314-.731-.632-1.514-.963-2.326-2.4-5.9-5.393-13.244-12.037-13.654-7.269-.431-12.337,9.757-13.994,13.11a.877.877,0,1,1-1.573-.776c3.1-6.27,8.1-14.557,15.674-14.085,7.745.477,11.1,8.723,13.554,14.744.326.8.64,1.573.951,2.294a.88.88,0,0,1-.46,1.154.917.917,0,0,1-.347.07" transform="translate(265.246 361.907)" fill="#382118"/>
        <path id="Trazado_733521" data-name="Trazado 733521" d="M270.817,451.062a.877.877,0,0,1-.841-.628c-3.411-11.568-16.839-22.1-29.713-18.885a28.621,28.621,0,0,0-19.4,18.142.877.877,0,0,1-1.648-.6,30.358,30.358,0,0,1,20.605-19.237c13.822-3.456,28.2,7.755,31.838,20.085a.878.878,0,0,1-.592,1.09.909.909,0,0,1-.249.036" transform="translate(157.097 307.668)" fill="#382118"/>
        <path id="Trazado_733522" data-name="Trazado 733522" d="M273.625,435.98a.875.875,0,0,1-.852-.671c-2.951-12.224-8.486-21.091-16.008-25.646a21.565,21.565,0,0,0-16.732-2.567c-8.4,2.292-16.449,10.357-20,20.063a.877.877,0,1,1-1.648-.6c3.738-10.215,12.26-18.717,21.206-21.158a23.309,23.309,0,0,1,18.085,2.762c7.93,4.8,13.74,14.047,16.8,26.736a.878.878,0,0,1-.647,1.059.938.938,0,0,1-.206.024" transform="translate(156.503 290.071)" fill="#382118"/>
        <path id="Trazado_733523" data-name="Trazado 733523" d="M312.12,451.062a.877.877,0,0,1-.841-.628c-3.411-11.568-16.844-22.1-29.713-18.885a28.621,28.621,0,0,0-19.4,18.142.877.877,0,0,1-1.648-.6,30.362,30.362,0,0,1,20.605-19.237c13.815-3.452,28.2,7.755,31.838,20.085a.878.878,0,0,1-.592,1.09.909.909,0,0,1-.249.036" transform="translate(186.704 307.669)" fill="#382118"/>
        <path id="Trazado_733524" data-name="Trazado 733524" d="M315.888,435.654a.876.876,0,0,1-.852-.671c-2.759-11.429-8.223-19.894-15.8-24.484a24.3,24.3,0,0,0-18.586-2.9c-8.1,2.21-14.62,9.044-18.351,19.239a.877.877,0,1,1-1.648-.6c3.932-10.746,10.878-17.966,19.556-20.334a26.036,26.036,0,0,1,19.937,3.1c5.573,3.374,12.974,10.55,16.6,25.574a.876.876,0,0,1-.647,1.059.937.937,0,0,1-.206.024" transform="translate(186.797 290.397)" fill="#382118"/>
        <path id="Trazado_733525" data-name="Trazado 733525" d="M352.461,452.983a.876.876,0,0,1-.841-.628c-3.413-11.568-16.84-22.1-29.713-18.885a28.617,28.617,0,0,0-19.4,18.142.878.878,0,1,1-1.648-.6,30.357,30.357,0,0,1,20.6-19.235c13.82-3.451,28.205,7.757,31.84,20.085a.878.878,0,0,1-.592,1.09.91.91,0,0,1-.249.036" transform="translate(215.621 309.046)" fill="#382118"/>
        <path id="Trazado_733526" data-name="Trazado 733526" d="M343.595,451.69a.89.89,0,0,1-.3-.053.878.878,0,0,1-.522-1.126C346.4,440.6,355.456,431.9,364.8,429.355c13.714-3.429,28.679,8.586,32.4,21.209a.878.878,0,0,1-1.684.5c-3.432-11.635-17.7-23.153-30.276-20.011-8.812,2.4-17.383,10.656-20.827,20.064a.878.878,0,0,1-.824.575" transform="translate(245.664 307.342)" fill="#382118"/>
        <path id="Trazado_733527" data-name="Trazado 733527" d="M355.269,437.575a.875.875,0,0,1-.852-.671c-2.759-11.429-8.224-19.894-15.8-24.484a24.3,24.3,0,0,0-18.586-2.9c-8.1,2.209-14.62,9.042-18.351,19.239a.877.877,0,1,1-1.648-.6c3.931-10.745,10.878-17.966,19.556-20.334a26.031,26.031,0,0,1,19.937,3.1c5.573,3.374,12.974,10.55,16.6,25.574a.876.876,0,0,1-.647,1.059.938.938,0,0,1-.206.024" transform="translate(215.026 291.774)" fill="#382118"/>
      </g>
    </g>
  </g>
</svg>
