<svg xmlns="http://www.w3.org/2000/svg" xmlns:xlink="http://www.w3.org/1999/xlink" width="118" height="118" viewBox="0 0 118 118">
  <defs>
    <clipPath id="clip-path">
      <rect id="Rectángulo_349858" data-name="Rectángulo 349858" width="116.394" height="112.764" fill="none"/>
    </clipPath>
  </defs>
  <g id="Grupo_998200" data-name="Grupo 998200" transform="translate(-1096 -1040)">
    <circle id="Elipse_5964" data-name="Elipse 5964" cx="59" cy="59" r="59" transform="translate(1096 1040)" fill="#06d1d1"/>
    <g id="Grupo_997486" data-name="Grupo 997486" transform="translate(1097.606 1040)">
      <g id="Grupo_997485" data-name="Grupo 997485" clip-path="url(#clip-path)">
        <path id="Trazado_733612" data-name="Trazado 733612" d="M16.291,102.1c-2.041-.33-2-1.881-2-3.407,0-7.329.036-14.658-.046-21.986a4.3,4.3,0,0,0-1.019-2.763c-1.6-1.6-2.108-3.677-1.109-5.275a6.683,6.683,0,0,1,4.5-2.923c6.406-.328,12.84-.214,19.26-.094a4.828,4.828,0,0,1,3.4,8.365,3.109,3.109,0,0,0-.683,1.977c-.046,8.008-.029,16.017-.029,24.486.727-.918,1.261-1.528,1.724-2.189,1.3-1.865,2.525-3.79,3.882-5.616A10.488,10.488,0,0,0,46.4,85.936c-.141-9.14-.025-18.284-.108-27.425a3.3,3.3,0,0,0-1.215-2.2c-2.009-1.581-2.967-3.706-2.409-5.959a5.255,5.255,0,0,1,4.947-3.46c6.648-.1,13.3-.119,19.947-.005a5.157,5.157,0,0,1,5.364,4.222c.469,2.314-.7,4.006-2.607,5.179-1.745,1.071-.724,2.7-.87,4.065-.153,1.431.116,2.932-1.85,3.276a9.755,9.755,0,0,1-1.753-2.642,14.941,14.941,0,0,1-.072-3.707H49.826v2.361c0,8.3.137,16.6-.076,24.889-.073,2.855.134,5.82-1.791,8.506-4.64,6.475-9.028,13.131-13.476,19.742-2.557,3.8-1.535,7.444,2.653,8.906,1.4.488,3.069.189,4.616.25q17.772.034,35.544.047a3.707,3.707,0,0,0,1.87-.491c3.481-2.166,4.331-5.546,1.439-9.688-4.267-6.11-8.616-12.166-12.727-18.38-1-1.511-1.2-3.546-1.775-5.34q0-1.626,0-3.253.026-7.731.046-15.461c0-1.089-.025-2.148,1.451-2.273a8.725,8.725,0,0,1,1.734,2.385,13.107,13.107,0,0,1,.071,3.472h7.033c1.4-4.092,4.507-6.517,8.388-8.254,0-.9-.068-1.8.015-2.7a3.751,3.751,0,0,0-1.874-3.834c-3.742-2.65-4.811-7.5-3.124-12.278,1.272-3.6,5.378-5.974,10.147-5.924,3.844.041,8.184,3.253,9.058,7.118.961,4.246.222,8.534-3.808,11.294-2.252,1.542-1.958,6.319.539,7.432,5.874,2.617,9.269,11.916,5.878,17.526a5.976,5.976,0,0,0-1.1,3.348c.2,1.761,1.638,2.564,3.424,2.735,5.2.5,8.428,3.9,8.71,9.555.244,4.884-3.459,8.6-7.471,9.908-3.224,1.055-6.051.185-8.609-1.873l-.522-.375c-3.078-3.074-4.447-6.572-2.914-10.913a5.562,5.562,0,0,0,.219-3.014c-.275-1.111-.95-1.5-2.484-1.214-4.05.748-7.592-.812-10.627-3.53l-.479-.357-3.7-4.914H69.78c-1.9,5.689,1.281,9.681,4.217,13.821,3.741,5.274,7.493,10.553,10.921,16.03,1.488,2.378,1.276,5.246-.041,7.86-.257.51-.559,1-.935,1.661h25.536c5.52,0,7.88,3.016,6.557,8.383-.805,3.269-1.951,4.09-5.781,4.09q-51.473,0-102.947-.005a27.013,27.013,0,0,1-4.369-.2C.857,134,.054,132.479.015,130.493c-.024-1.209-.013-2.418-.007-3.627.015-3.266,1.537-4.773,4.918-4.793,4.157-.025,8.314-.006,12.9-.006-4.119-3.988-3.793-8.9-3.81-13.781-.006-1.562.4-2.546,1.852-3.07a2.793,2.793,0,0,1,1.844,3.091c-.085,1.561.059,3.134-.037,4.694a7.793,7.793,0,0,0,2.374,6.352l.356.357a7.042,7.042,0,0,0,6.4,2.248l3.941-.9c-.819-2.291-.8-2.243-2.51-1.621a13.952,13.952,0,0,1-2.354.437c-4-.72-5.908-2.968-5.923-6.993-.012-3.315,0-6.63,0-9.945V89.508l3.636-.172c2.025.025,4.05.063,6.075.072,3.079.013,3.21.13,3.219,3.331q.02,7.656.018,15.313-.023.35-.046.7l.644-.8a7.638,7.638,0,0,0,1.684-5.576c-.1-8.222-.041-16.446-.041-24.67v-2.43H17.7c0,7.156.077,14.164-.05,21.168a10.752,10.752,0,0,1-1.355,5.649M76.207,78.072l-.625-1.2-.953.553.671.647.535.6.373-.6M97.082,89.031c-1.056.411-1.512.829-.607,2.01,1.243,1.622,2.158,3.492,3.341,5.166a6.728,6.728,0,0,0,1.8,1.28c.182-.484.66-1.133.5-1.425-1.279-2.294-2.664-4.529-4.07-6.75-.134-.212-.634-.193-.964-.281M22.274,71.642c4.38.027,8.76.107,13.139.032a7.036,7.036,0,0,0,2.362-1.015l-.057-.764a7.473,7.473,0,0,0-2.3-.853c-4.379-.058-8.759.013-13.139.04a50.33,50.33,0,0,0-5.4-.013c-.667.062-1.265.869-1.894,1.336.629.439,1.232,1.2,1.894,1.255a53.763,53.763,0,0,0,5.4-.019m32.2-18.236c4.458.024,8.921-.066,13.372.126,1.857.08,1.39-1.417,1.934-2.2.1-.138-.538-1.135-.831-1.133-4.819.032-9.637.162-14.456.269-2.247-.019-4.5-.14-6.738.007-.654.043-1.259.851-1.886,1.308.629.6,1.223,1.665,1.894,1.715a66.778,66.778,0,0,0,6.712-.088m44.875,47.412-2.551-3.08c-.869,4.455.872,6.906,4.826,7.93a6.452,6.452,0,0,0,6.785-3.2,6,6,0,0,0-.066-6.874c-.774-1.069-1.6-2.686-3.631-2.416,1.382,2.81,1.357,4.931.064,6.437a4.44,4.44,0,0,1-5.427,1.2m-9.037-57.24a6.305,6.305,0,0,0-2.066-.318c-3.966.777-5.92,3.514-5.649,7.747.2,3.108,3.2,5.816,6.779,6.124A23.967,23.967,0,0,0,93.041,55.8a6.659,6.659,0,0,0,3.038-7.331c-.71-2.713-3.007-4.96-5.77-4.89M23.641,92.639l-.25.463c.014,6.638-.006,13.277.066,19.916.016,1.479.054,3.107,2.287,3.168,2.277.063,3.619-.675,3.668-2.9.151-6.837.055-13.68.055-20.648ZM88.9,87.978a9.5,9.5,0,0,0,9.51-5.6c.705-1.458.355-3.394.9-4.971,1.019-2.973-1.016-4.681-2.493-6.535-1.15-1.443-2.616-1.217-3.37.167-2.091,3.839-5.558,4.114-8.124.645l-.783-2.652C80.8,70.053,78.472,75.533,79,78.7c.871,5.209,4.254,9.122,9.9,9.275M112.415,128.4v-2.889c-2.044,0-3.845,0-5.646,0q-47.95-.047-95.9-.081c-1.334,0-2.667.186-4,.285h-3.5c-.573,5.417-.573,5.417,4.478,5.417H112.415ZM88.751,60.491V70.833c1.755-1.04,2.007-3.41,1.366-10.342ZM73.223,78.453l.124-.6-3.126-1.086-.377,1.688Z" transform="translate(0 -21.777)"/>
        <path id="Trazado_733613" data-name="Trazado 733613" d="M123.565,78.017h9.521a14.941,14.941,0,0,0,.072,3.707,9.742,9.742,0,0,0,1.753,2.642q0,1.734,0,3.469c-1.476.126-1.451,1.185-1.451,2.273,0,5.153-.028,10.307-.045,15.461l-.837.075c-1.621-3.755-4.923-5.646-8.112-4.648a7.451,7.451,0,0,1-.862-2.139c-.125-1.8-.039-3.611-.037-5.418,1.522-.676,3.3-1.06,4.5-2.1a4.241,4.241,0,0,0,1.044-4.99c-1.01-2.67-3.037-3.378-5.543-3.492q0-2.417,0-4.834" transform="translate(-67.311 -42.509)" fill="#a3dcef"/>
        <path id="Trazado_733614" data-name="Trazado 733614" d="M87.989,20.466c-5.146.4-10.141-4.6-10.176-10.332A10.242,10.242,0,0,1,88.045,0c5.809.105,10.432,4.057,10.437,10.25A10.3,10.3,0,0,1,87.989,20.466m.7-3.257c4.957-1.752,6.611-3.8,6.324-7.842-.221-3.107-2.355-5.142-6.3-6.009a15.246,15.246,0,0,0-3.8.8,6.882,6.882,0,0,0-3.4,7.8c.824,2.562,3.364,5.478,7.186,5.25" transform="translate(-42.398 0)" fill="#010101"/>
        <path id="Trazado_733615" data-name="Trazado 733615" d="M45.814,164.232a7.043,7.043,0,0,1-6.4-2.248l-.356-.357a7.793,7.793,0,0,1-2.374-6.352c.1-1.559-.048-3.133.037-4.694a2.793,2.793,0,0,0-1.844-3.091q.21-1.561.42-3.121a10.749,10.749,0,0,0,1.355-5.649c.127-7,.05-14.012.05-21.168h5.887q.009,7.028.017,14.057l-3.636.172v13.425c0,3.315-.009,6.63,0,9.945.015,4.025,1.927,6.273,5.923,6.993l.924,2.085" transform="translate(-19.001 -64.051)" fill="#83d3f0"/>
        <path id="Trazado_733616" data-name="Trazado 733616" d="M31.9,52.047c-.023-3.638,3.341-7.208,6.662-7.071,3.993.165,7.343,3.365,7.346,7.019,0,3.475-3.655,7.07-7.363,7A7.136,7.136,0,0,1,31.9,52.047m6.357,3.279c2.679-.02,4.118-1.271,4.077-3.544-.042-2.333-1.207-3.223-4.073-3.115-2.028.021-2.584,1.374-2.71,3.058a3.121,3.121,0,0,0,2.707,3.6" transform="translate(-17.383 -24.504)" fill="#010101"/>
        <path id="Trazado_733617" data-name="Trazado 733617" d="M141.529,29.353a4.745,4.745,0,0,1,4.224-4.279,4.952,4.952,0,0,1,4.816,4.511c-.026,1.885-2.583,4.6-4.452,4.511a4.807,4.807,0,0,1-4.588-4.742" transform="translate(-77.115 -13.66)" fill="#010101"/>
        <path id="Trazado_733618" data-name="Trazado 733618" d="M211.12,186.453l.522.375-.522-.375" transform="translate(-115.034 -101.593)" fill="#010101"/>
        <path id="Trazado_733619" data-name="Trazado 733619" d="M175.34,144.644l.479.357-.479-.357" transform="translate(-95.538 -78.813)" fill="#010101"/>
        <path id="Trazado_733620" data-name="Trazado 733620" d="M116.146,231.066V233.8H11.579c-5.052,0-5.052,0-4.479-5.418h3.5a4.548,4.548,0,0,0,4.433,2.744q50.557-.113,101.115-.059" transform="translate(-3.731 -124.439)" fill="#aa624f"/>
        <path id="Trazado_733621" data-name="Trazado 733621" d="M114.442,145.678c.57,1.794.776,3.83,1.775,5.34,4.111,6.214,8.46,12.27,12.727,18.38,2.893,4.142,2.043,7.522-1.438,9.688a3.71,3.71,0,0,1-1.871.491q-17.772.009-35.545-.047l-1.375-3.477c11.613-.011,23.225,0,34.837-.074,1.163-.008,3.03-.283,3.311-.958.385-.924-.147-2.538-.792-3.528-2.935-4.509-6.185-8.816-9.041-13.372a6.778,6.778,0,0,0-6.342-3.419c-3.393.01-6.785-.042-10.178-.067l2.738-4.96a6.775,6.775,0,0,0,10.034-3.135l.355-.51a.81.81,0,0,1,.086-.37l.718.017" transform="translate(-48.338 -79.367)" fill="#a3dcef"/>
        <path id="Trazado_733622" data-name="Trazado 733622" d="M94.528,112.818l-2.738,4.96-2.271.169-.815.375c-4.1,5.832-8.223,11.647-12.279,17.509a2.132,2.132,0,0,0,1.779,3.258c.6.053,1.194.072,1.791.107l1.375,3.477c-1.547-.061-3.219.238-4.616-.25-4.188-1.462-5.21-5.1-2.653-8.906,4.447-6.611,8.836-13.267,13.476-19.742,1.925-2.687,1.718-5.651,1.791-8.506.213-8.291.075-16.592.075-24.889V78.017h6.429q0,2.417,0,4.834c-3.138.643-4.542,2.353-4.536,5.522.006,2.7,1.6,4.476,4.536,5.065,0,1.807-.087,3.621.038,5.419A7.468,7.468,0,0,0,96.772,101a10.97,10.97,0,0,0-2.715,1.26c-3.361,2.881-3.126,7.185.472,10.563" transform="translate(-39.619 -42.509)" fill="#83d3f0"/>
        <path id="Trazado_733623" data-name="Trazado 733623" d="M120.637,230.725q-50.557,0-101.115.059a4.548,4.548,0,0,1-4.433-2.744c1.334-.1,2.667-.286,4-.285q47.95.023,95.9.081c1.8,0,3.6,0,5.646,0Z" transform="translate(-8.222 -124.098)" fill="#bb7a58"/>
        <path id="Trazado_733624" data-name="Trazado 733624" d="M185.932,107.513c2.566,3.469,6.034,3.194,8.124-.645.754-1.384,2.22-1.61,3.37-.167,1.477,1.854,3.513,3.562,2.493,6.535-.541,1.577-.19,3.513-.9,4.971a9.5,9.5,0,0,1-9.509,5.6c-.595-.722-1.18-1.452-1.786-2.164-3.68-4.319-3.749-9.094-1.8-14.128" transform="translate(-100.615 -57.603)" fill="#4cb8e9"/>
        <path id="Trazado_733625" data-name="Trazado 733625" d="M51.833,131.609q-.009-7.029-.017-14.057h11.57v2.43c0,8.223-.059,16.447.041,24.67a7.639,7.639,0,0,1-1.684,5.576l-.6.1q-.008-7.656-.018-15.312c-.009-3.2-.14-3.318-3.219-3.332-2.025-.009-4.05-.047-6.075-.072" transform="translate(-28.233 -64.051)" fill="#b4e3f5"/>
        <path id="Trazado_733626" data-name="Trazado 733626" d="M51.645,155.7h5.826c0,6.968.1,13.811-.055,20.648-.049,2.224-1.391,2.962-3.669,2.9-2.233-.061-2.272-1.689-2.287-3.168-.071-6.638-.052-13.277-.065-19.915l.25-.463" transform="translate(-28.004 -84.835)" fill="#ef5227"/>
        <path id="Trazado_733627" data-name="Trazado 733627" d="M194.015,47.9c2.763-.07,5.06,2.177,5.77,4.89a6.66,6.66,0,0,1-3.038,7.331,23.918,23.918,0,0,1-3.669,1.331,28.356,28.356,0,0,0-1.434-2.485c-2.51-3.515-1.258-9.448,2.371-11.068" transform="translate(-103.706 -26.098)" fill="#ef5227"/>
        <path id="Trazado_733628" data-name="Trazado 733628" d="M179.807,106.484c-1.953,5.034-1.884,9.809,1.8,14.128.607.712,1.191,1.442,1.786,2.164-5.643-.153-9.026-4.066-9.9-9.275-.53-3.17,1.8-8.651,5.532-9.67l.783,2.652" transform="translate(-94.49 -56.575)" fill="#0ba5dc"/>
        <path id="Trazado_733629" data-name="Trazado 733629" d="M218.281,164.485a4.441,4.441,0,0,0,5.428-1.2c1.293-1.506,1.317-3.627-.065-6.437,2.033-.27,2.857,1.347,3.631,2.416a6,6,0,0,1,.066,6.874,6.451,6.451,0,0,1-6.785,3.2l-2.275-4.851" transform="translate(-118.935 -85.444)" fill="#bdd548"/>
        <path id="Trazado_733630" data-name="Trazado 733630" d="M189.159,47.486c-3.628,1.62-4.881,7.552-2.371,11.068a28.356,28.356,0,0,1,1.434,2.485c-3.582-.307-6.58-3.015-6.779-6.123-.271-4.232,1.683-6.97,5.649-7.747a6.28,6.28,0,0,1,2.066.318" transform="translate(-98.85 -25.685)" fill="#e23a26"/>
        <path id="Trazado_733631" data-name="Trazado 733631" d="M119.7,62.708c4.818-.107,9.637-.237,14.456-.269.293,0,.926,1,.831,1.133-.544.786-.076,2.284-1.934,2.2-4.451-.192-8.914-.1-13.372-.126l.019-2.942" transform="translate(-65.212 -34.021)" fill="#4cb8e9"/>
        <path id="Trazado_733632" data-name="Trazado 733632" d="M48.941,103.864c4.38-.027,8.76-.1,13.139-.04a7.458,7.458,0,0,1,2.3.853l.057.763a7.032,7.032,0,0,1-2.362,1.015c-4.378.075-8.758-.005-13.139-.032q0-1.28,0-2.56" transform="translate(-26.666 -56.559)" fill="#4cb8e9"/>
        <path id="Trazado_733633" data-name="Trazado 733633" d="M109.4,62.952l-.019,2.942a66.779,66.779,0,0,1-6.712.089c-.67-.051-1.265-1.115-1.894-1.715.628-.457,1.232-1.265,1.887-1.308,2.236-.147,4.49-.026,6.738-.007" transform="translate(-54.909 -34.266)" fill="#0ba5dc"/>
        <path id="Trazado_733634" data-name="Trazado 733634" d="M40.214,103.831q0,1.28,0,2.56a53.9,53.9,0,0,1-5.4.018c-.662-.057-1.264-.816-1.893-1.255.629-.467,1.227-1.274,1.894-1.336a50.44,50.44,0,0,1,5.4.013" transform="translate(-17.94 -56.526)" fill="#0ba5dc"/>
        <path id="Trazado_733635" data-name="Trazado 733635" d="M195,85.063h1.366c.64,6.932.388,9.3-1.366,10.342Z" transform="translate(-106.252 -46.349)" fill="#adb0b7"/>
        <path id="Trazado_733636" data-name="Trazado 733636" d="M214.965,169.98l2.275,4.851c-3.954-1.024-5.7-3.476-4.826-7.931l2.551,3.08" transform="translate(-115.62 -90.939)" fill="#84c241"/>
        <path id="Trazado_733637" data-name="Trazado 733637" d="M216.538,156.227a6.735,6.735,0,0,1-1.8-1.28c-1.183-1.673-2.1-3.544-3.341-5.166-.9-1.181-.449-1.6.607-2.01.383.874.7,1.784,1.163,2.616,1.089,1.966,2.245,3.9,3.374,5.84" transform="translate(-114.92 -80.516)" fill="#999ca4"/>
        <path id="Trazado_733638" data-name="Trazado 733638" d="M217.845,156.227c-1.129-1.944-2.285-3.874-3.374-5.84-.46-.832-.78-1.742-1.163-2.616.33.088.83.069.964.281,1.406,2.22,2.791,4.456,4.07,6.75.163.292-.316.942-.5,1.425" transform="translate(-116.226 -80.516)" fill="#adb0b7"/>
        <path id="Trazado_733639" data-name="Trazado 733639" d="M57.808,216.657l-.924-2.085a14.006,14.006,0,0,0,2.354-.437c1.709-.622,1.692-.669,2.51,1.621l-3.941.9" transform="translate(-30.995 -116.476)" fill="#b4e3f5"/>
        <path id="Trazado_733640" data-name="Trazado 733640" d="M156.839,122.508h-3.38l.377-1.688,3.126,1.086-.124.6" transform="translate(-83.616 -65.832)" fill="#999ca4"/>
        <path id="Trazado_733641" data-name="Trazado 733641" d="M144.238,141.8l-.718-.017-.12-3.161.837-.075V141.8" transform="translate(-78.135 -75.493)" fill="#7aa5b3"/>
        <path id="Trazado_733642" data-name="Trazado 733642" d="M164.646,122.256l-.671-.647.953-.553.625,1.2h-.907" transform="translate(-89.346 -65.96)" fill="#010101"/>
        <path id="Trazado_733643" data-name="Trazado 733643" d="M72.259,189.444l.6-.1-.644.8q.023-.35.046-.7" transform="translate(-39.347 -103.17)" fill="#5a717a"/>
        <path id="Trazado_733644" data-name="Trazado 733644" d="M165.449,123.692h.907l-.372.6-.535-.6" transform="translate(-90.149 -67.396)" fill="#010101"/>
        <path id="Trazado_733645" data-name="Trazado 733645" d="M51.645,155.7l-.25.463.25-.463" transform="translate(-28.004 -84.835)" fill="#721d13"/>
        <path id="Trazado_733646" data-name="Trazado 733646" d="M44.059,214.392l.356.357-.356-.357" transform="translate(-24.007 -116.816)" fill="#82d2ee"/>
        <path id="Trazado_733647" data-name="Trazado 733647" d="M127.588,132.836l.12,3.161a.815.815,0,0,0-.086.37l-.356.51a6.775,6.775,0,0,1-10.034,3.134c-3.6-3.377-3.833-7.682-.472-10.562a10.972,10.972,0,0,1,2.716-1.26c3.189-1,6.491.893,8.112,4.647m-7.176-1.314c-2.188.549-3.224,2.036-2.718,3.9.5,1.827,2.409,2.647,4.548,1.947a2.638,2.638,0,0,0,2.032-3.393,2.953,2.953,0,0,0-3.862-2.456" transform="translate(-62.323 -69.702)"/>
        <path id="Trazado_733648" data-name="Trazado 733648" d="M118.171,99.225c-2.937-.589-4.53-2.368-4.536-5.065-.007-3.169,1.4-4.879,4.536-5.522,2.506.115,4.534.822,5.543,3.492a4.24,4.24,0,0,1-1.044,4.99c-1.2,1.045-2.977,1.429-4.5,2.1m.664-3.984.533.276c.485-.575,1.458-1.278,1.349-1.7-.2-.765-1.042-1.362-1.882-2.339Z" transform="translate(-61.917 -48.296)" fill="#010101"/>
        <path id="Trazado_733649" data-name="Trazado 733649" d="M98.307,7.377c3.948.868,6.082,2.9,6.3,6.009.288,4.039-1.367,6.09-6.324,7.842a39.68,39.68,0,0,1-2.673-6.078c-.791-3.035.949-5.467,2.693-7.773" transform="translate(-51.99 -4.02)" fill="#bfd749"/>
        <path id="Trazado_733650" data-name="Trazado 733650" d="M92.831,7.377c-1.744,2.306-3.484,4.738-2.693,7.773a39.679,39.679,0,0,0,2.673,6.078c-3.821.228-6.361-2.688-7.186-5.25a6.882,6.882,0,0,1,3.4-7.8,15.254,15.254,0,0,1,3.8-.8" transform="translate(-46.514 -4.02)" fill="#84c241"/>
        <path id="Trazado_733651" data-name="Trazado 733651" d="M44.868,53.08c2.866-.108,4.031.782,4.073,3.115.041,2.273-1.4,3.524-4.077,3.544-.912-2.22-1.314-4.44,0-6.659" transform="translate(-23.987 -28.917)" fill="#ef5227"/>
        <path id="Trazado_733652" data-name="Trazado 733652" d="M42.616,53.09c-1.318,2.219-.915,4.439,0,6.659a3.121,3.121,0,0,1-2.707-3.6c.126-1.684.682-3.037,2.71-3.058" transform="translate(-21.736 -28.927)" fill="#e23a26"/>
        <path id="Trazado_733653" data-name="Trazado 733653" d="M93.539,165.549l2.271-.169c3.393.025,6.785.076,10.178.067a6.777,6.777,0,0,1,6.341,3.419c2.856,4.556,6.106,8.863,9.042,13.372.644.99,1.176,2.6.792,3.528-.281.675-2.148.95-3.311.958-11.612.077-23.225.062-34.838.074-.6-.035-1.2-.054-1.791-.107a2.132,2.132,0,0,1-1.779-3.258c4.056-5.862,8.18-11.677,12.279-17.509l.815-.375m2.98,3.416a.306.306,0,0,0-.218-.177l-.5.193c-.6.263-1.444.357-1.766.816-3.053,4.351-6.017,8.764-9.114,13.317h33.129c-3.147-4.565-6.092-8.908-9.142-13.175a2.885,2.885,0,0,0-2.02-1.011c-3.464-.075-6.93.01-10.4.04Z" transform="translate(-43.638 -90.111)"/>
        <path id="Trazado_733654" data-name="Trazado 733654" d="M142.693,146.984l.355-.51-.355.51" transform="translate(-77.75 -79.81)" fill="#a2dbee"/>
        <path id="Trazado_733655" data-name="Trazado 733655" d="M108.665,165.752l-.815.375.815-.375" transform="translate(-58.765 -90.314)" fill="#010101"/>
        <path id="Trazado_733656" data-name="Trazado 733656" d="M127.119,135.676a2.953,2.953,0,0,1,3.862,2.456,2.638,2.638,0,0,1-2.032,3.393c-2.338-1.881-2.691-3.008-1.83-5.85" transform="translate(-69.03 -73.857)" fill="#bdd548"/>
        <path id="Trazado_733657" data-name="Trazado 733657" d="M124.227,135.828c-.862,2.841-.509,3.969,1.83,5.85-2.139.7-4.052-.12-4.548-1.947-.506-1.866.53-3.353,2.718-3.9" transform="translate(-66.138 -74.009)" fill="#84c241"/>
        <path id="Trazado_733658" data-name="Trazado 733658" d="M125.061,98.644v-3.76c.84.977,1.682,1.574,1.882,2.339.109.42-.864,1.122-1.349,1.7l-.533-.276" transform="translate(-68.142 -51.7)" fill="#bfd749"/>
        <path id="Trazado_733659" data-name="Trazado 733659" d="M110.9,173.181c3.465-.029,6.932-.114,10.4-.039a2.886,2.886,0,0,1,2.021,1.01c3.05,4.268,6,8.611,9.142,13.175H112.038c-.679-.291-1.345-.617-2.038-.868-3.238-1.175-4.318-3.7-2.742-6.775,1.054-2.057,2.3-4.014,3.461-6.016l.184-.488" transform="translate(-58.053 -94.324)" fill="#bfd749"/>
        <path id="Trazado_733660" data-name="Trazado 733660" d="M102.086,173.537c-1.16,2-2.407,3.96-3.461,6.016-1.576,3.077-.5,5.6,2.742,6.774.693.251,1.359.577,2.038.868H90.7c3.1-4.553,6.061-8.966,9.113-13.317.322-.459,1.165-.553,1.765-.815l.5-.193a.307.307,0,0,1,.218.177l-.214.491" transform="translate(-49.419 -94.192)" fill="#84c241"/>
        <path id="Trazado_733661" data-name="Trazado 733661" d="M115.106,172.87l-.5.193.5-.193" transform="translate(-62.444 -94.192)" fill="#5d3d2c"/>
        <path id="Trazado_733662" data-name="Trazado 733662" d="M115.718,173.749l.214-.491-.03,0-.184.488" transform="translate(-63.052 -94.404)" fill="#5d3d2c"/>
      </g>
    </g>
  </g>
</svg>
