<svg xmlns="http://www.w3.org/2000/svg" xmlns:xlink="http://www.w3.org/1999/xlink" width="118" height="118" viewBox="0 0 118 118">
  <defs>
    <clipPath id="clip-path">
      <rect id="Rectángulo_349866" data-name="Rectángulo 349866" width="102.082" height="95.552" fill="none"/>
    </clipPath>
  </defs>
  <g id="Grupo_998204" data-name="Grupo 998204" transform="translate(-11051 10239)">
    <circle id="Elipse_5968" data-name="Elipse 5968" cx="59" cy="59" r="59" transform="translate(11051 -10239)" fill="#ffc403"/>
    <g id="Grupo_997496" data-name="Grupo 997496" transform="translate(11058.959 -10227.404)">
      <g id="Grupo_997495" data-name="Grupo 997495" clip-path="url(#clip-path)">
        <path id="Trazado_733733" data-name="Trazado 733733" d="M94.478,8.978l2.534,10.216c1.457.833,3.333,1.4,4.35,2.652.794.981.52,2.826.72,4.287l-.306.428a11.568,11.568,0,0,1-5.688,5.676l-.315.065.3.314c3.846,1.358,5.547,4.361,4.42,7.8A6.059,6.059,0,0,1,93.1,44.281c-1.06,2.112-2.142,4.128-3.058,6.217a1.835,1.835,0,0,0,.454,1.642,38.425,38.425,0,0,0,3.161,2.225,1.618,1.618,0,0,1,.427,2.547,17.442,17.442,0,0,1-2.714-.719,26.784,26.784,0,0,1-2.837-1.644c-.609-.13-1.384-.561-1.795-.334a32.684,32.684,0,0,0-4.019,2.746c-.321.246-.394.816-.581,1.237-.02.662-.033,1.324-.061,1.985-.187,4.513-6.135,8.73-10.4,6.628a8.677,8.677,0,0,1-5.273-8.62,9.437,9.437,0,0,0-5.549-3.921c-3.121.913-5.171,3.069-6.879,5.721C51.5,63.83,51.162,68.07,51.229,72.46c.081,5.281.017,5.253,5.317,4.963,1.114-.061,1.542-.451,1.521-1.556-.044-2.332-.1-4.671.045-6.994.04-.644.688-1.684,1.2-1.778,1.235-.228,1.6.674,1.567,1.867-.067,2.64-.021,5.283-.021,7.933H87.68V73a23.383,23.383,0,0,1,.064-3.988c.128-.729.813-1.81,1.4-1.914,1.093-.2,1.445.738,1.364,1.833-.088,1.193-.045,2.4-.016,3.6.142,5.814-1.152,4.756,5.161,4.875.133,0,.317.055.392-.011.43-.38,1.2-.8,1.191-1.188-.087-4.711.7-9.5-1.324-14.058-.31-.7-1-1.96.586-2.416a1.952,1.952,0,0,1,2.379,1.755c.531,3.057,1.384,6.108,1.478,9.181.22,7.184.075,14.379.062,21.57a6.765,6.765,0,0,1-.2,1.954c-.428,1.386-1.3,1.519-2.549.465l-.251-.456-.147-.374V80.314H90.807V94.131c-1.04,1.095-2.079,2.18-3.137.018V80.2H61.161V94.08c-1.925,2.02-2.337,1.985-3.153-.262V80.305H51.533V94.1L49.3,95.281a10.3,10.3,0,0,1-.826-1.718,7.273,7.273,0,0,1-.028-1.754c-1.74,0-3.394-.084-5.037.016-5.332.324-5.29-1.544-6.179-5.356-.276-1.182-.613-2.349-.923-3.523l-.673.1c0,1.546-.069,3.1.013,4.639.21,3.939-3.956,7.3-6.863,7.389a7.61,7.61,0,0,1-7.935-7.353c-.153-2.186-.028-4.391-.028-6.565-.213-.055-.368-.153-.458-.111-3.352,1.569-3.352,1.571-5.982-1.059q-1.626-1.626-3.249-3.255c-1.876-1.888-2.043-3.287-.634-5.562.886-1.429,2.166-2.727,2.643-4.276,1.649-5.359-.406-10.844-6.948-12.3-.82-.182-1.662-.261-2.489-.415C.935,53.661.012,52.521,0,49.613c-.006-1.8,0-3.6,0-5.4,0-2.2,1-3.659,3.137-3.987,2.913-.448,5.724-.891,7.956-3.142.433-.437,1.637-.112,2.485-.139-.164.67-.126,1.512-.527,1.978A10.168,10.168,0,0,1,6.134,42.6C2.8,42.922,2.8,42.94,2.8,46.312a19.041,19.041,0,0,0,.052,3.182A2.073,2.073,0,0,0,3.971,50.93c2.009.559,4.075.917,6.119,1.349l.636.617,3.3,2.2.279.279c.464,1.151.868,2.331,1.4,3.447a10.939,10.939,0,0,1-.621,10.891c-2.592,4.34-2.692,4.319,1.026,7.929.576.56,1.78,1.293,2.176,1.062,1.162-.68,2.745-1.049,2.6-3.169-.243-3.467-.066-6.964-.066-10.769-1.417-1.1-3.274-2.733-2.186-5.275a5.406,5.406,0,0,1,5-3.073v-8.3q0-11.7,0-23.407c0-.989.312-2.009-1.181-2.5-.426-.139-.617-1.714-.515-2.584a2.313,2.313,0,0,0-1.068-2.67c-3.576-2.253-2.7-2.292-5.629.566a12.955,12.955,0,0,1-1.281,1.262c-1.4,1.025-1.256,2.03-.26,3.308a14.783,14.783,0,0,1,3.133,8.706A2.227,2.227,0,0,1,14.8,33.431c-.4-.621-1.187-1.286-1.123-1.855.393-3.476-1.357-6.1-3.166-8.732-1.413-2.057-1.3-3.646.412-5.4,1.209-1.238,2.5-2.4,3.661-3.679,1.717-1.9,3.6-2.04,5.7-.7.753.48,1.46,1.029,2.409,1.7.2-1.356.33-2.485.537-3.6.225-1.213.756-1.981,2.243-1.856a32.706,32.706,0,0,0,5.188,0c1.654-.125,2.452.474,2.589,2.131a17.051,17.051,0,0,0,.625,2.514C36.824,11.54,37.325,8.3,37.6,4.961l.829-1.22.38-.4.419-.308a16.24,16.24,0,0,1,2.441-.464c1.732-.072,3.468-.022,5.2-.022,3.211,0,3.614.286,4.418,3.416.319,1.244.506,2.523.754,3.785l-.292.265.294.042c.595.419.908,1.148,1.676-.157a60.647,60.647,0,0,1,4.653-6.139l.471-.332A16.185,16.185,0,0,1,68.945,0c4.816.04,9.647.167,14.434.638,1.891.186,3.735,1.295,5.477,2.216.415.219.337,1.371.486,2.093a14.326,14.326,0,0,1-3.069-.119c-1.357-.341-2.617-1.331-3.96-1.42a118.139,118.139,0,0,0-13.48-.352,15.678,15.678,0,0,0-6.949,2.007c-5.382,3.16-7.358,8.147-6.5,14.364H93.795a83.745,83.745,0,0,0-1.816-8.546c-.383-1.213-.682-2.1.15-3.113l1.552.4.8.807M48.069,29.354l-.819-.321c-2.567.12-5.146.134-7.7.4-1.257.133-2.449,1-3.7,1.071a2.456,2.456,0,0,0-2.57,2.6c-.1,7.793-.051,15.589-.051,23.338,4.983,1.467,6.027,2.333,4.062,7.488,3.425,2.008,7.12,1.37,10.772,1.1a7.5,7.5,0,0,0,.78-1.249c1.347-3.519,2.951-6.878,5.944-9.334,1.334-1.095,2.758-2.08,4.041-3.039l-3.246-7.159c-2.883.652-4.465.221-6.409-1.964a5.176,5.176,0,0,1-.829-6.321,2.93,2.93,0,0,0,.131-.979L48.467,35l4.163-2.81-4.572-2.852ZM28.415,56.52c1.655.421,1.857-.488,1.853-1.846-.033-10.233-.017-20.466-.025-30.7a13.235,13.235,0,0,0-.138-1.347H26.771V56.52Zm2.4,8.943c-1.851-.075-3.7-.226-5.55-.169a1.684,1.684,0,0,0-1.179,1.148c-.071,7.32-.1,14.641-.024,21.961.03,2.82,3.543,4.532,5.985,3.048a3.73,3.73,0,0,0,2.749-3.664c.112-6.773.09-13.549.006-20.323-.012-1.02-.3-2.36-1.985-2M47.631,88.941c.276-.395.791-.788.794-1.186q.077-9.37,0-18.74c0-.387-.519-.77-.8-1.155a7.362,7.362,0,0,1-2.05.7,16.029,16.029,0,0,1-9.49-2.184c-.139.181-.361.337-.358.489.049,3.309.107,6.618.21,9.925a2.158,2.158,0,0,0,.428,1.45c2.882,2.355,3.519,5.678,4.1,9.057a1.825,1.825,0,0,0,2.182,1.736c1.652-.132,3.319-.07,4.98-.092m-2.012-63.3c1.517.337,1.08-.533,1.076-1.454a3.887,3.887,0,0,1,.837-2.7c.993-.864,2.412-1.223,3.6-1.885.366-.2.572-.695.85-1.054a13.638,13.638,0,0,0-.464-3.818c-.98-2.3-2.631-4.312-2.692-6.994-.039-1.693-.775-2.694-2.735-2.416A15.841,15.841,0,0,1,42.5,5.33c-1.458-.13-1.891.5-2.1,1.881-.575,3.825-1.717,7.392-5.233,9.692a1.971,1.971,0,0,0-.648,1.685c.375,1.6.892,3.1-1.048,4.107-.21.109-.221.712-.226,1.087-.023,1.642-.01,3.284-.01,5.152a30.037,30.037,0,0,1,12.386-3.3m12.843,7.356c0,2.54.032,4.867-.007,7.194a14.453,14.453,0,0,0,3,9.264,15.717,15.717,0,0,0,23.9,2.035c5.49-5.174,4.9-11.865,4.624-18.493Zm15.859-10.43H62.327c-3.532,0-7.064-.021-10.6.01-1.8.015-2.8,1.069-2.446,2.485.559,2.255,4.144,4.888,6.519,4.869,5.595-.045,11.189-.053,16.784-.066,6.664-.014,13.328.032,19.99-.051a6.5,6.5,0,0,0,5.879-3.353c.471-.84.943-2.193.579-2.843s-1.771-1-2.725-1.007c-7.329-.079-14.66-.043-21.99-.043M25.986,11.913a55.056,55.056,0,0,1-.924,6.475c-.294,1.161.127,1.326.91,1.352,1.849.06,3.7.019,5.762.019l-1.382-7.487-4.366-.359M69.273,58.779c1.043,4.251,2.449,5.741,5.409,5.359,2.524-.326,4.37-1.63,4.448-5.359ZM20.68,60.465q.048.51.1,1.019a11.055,11.055,0,0,0,2.519.662c3.252.079,6.51.121,9.756-.034.748-.035,1.456-.906,2.182-1.393-.722-.424-1.43-1.181-2.169-1.214-3.115-.137-6.242-.14-9.357-.012a11.824,11.824,0,0,0-3.027.97m72.6-24.99c0,1.724.079,2.976-.02,4.214-.123,1.538.726,1.845,1.95,1.7A2.48,2.48,0,0,0,97.7,38.87c.038-.694.182-1.381.331-2.454l-4.747-.941m-38.1-.364c-1.7.781-3.272,1.089-4.1,2.045-.5.578-.226,2.539.409,3.2.772.8,2.288.887,3.69,1.35ZM53.17,11.1l-.121-.132a1.16,1.16,0,0,0-.109.246c-.006.033.068.081.106.123l.123-.237" transform="translate(0 0)"/>
        <path id="Trazado_733734" data-name="Trazado 733734" d="M172.79,140.569c-1.582.456-.9,1.718-.586,2.416,2.022,4.554,1.237,9.347,1.324,14.058.007.392-.761.808-1.191,1.188-.075.067-.259.014-.392.011-6.313-.119-5.019.939-5.161-4.875-.029-1.2-.073-2.4.016-3.6.082-1.095-.271-2.03-1.364-1.833-.582.1-1.267,1.185-1.395,1.914a23.382,23.382,0,0,0-.064,3.988v3.9H137.154c0-2.65-.047-5.292.021-7.933.03-1.193-.332-2.1-1.567-1.867-.511.094-1.159,1.134-1.2,1.778-.145,2.324-.088,4.663-.045,6.994.021,1.1-.407,1.5-1.521,1.556-5.3.29-5.237.318-5.317-4.963-.067-4.389.269-8.629,2.741-12.467,1.709-2.653,3.758-4.808,6.879-5.721l5.549,3.92a8.677,8.677,0,0,0,5.273,8.62c4.268,2.1,10.216-2.115,10.4-6.628.028-.662.041-1.324.061-1.985a15.607,15.607,0,0,0,1.972-.849c1.5-.895,2.951-1.862,4.422-2.8a26.714,26.714,0,0,0,2.837,1.644,17.44,17.44,0,0,0,2.714.719l2.412,2.814" transform="translate(-76.298 -80.842)" fill="#009af2"/>
        <path id="Trazado_733735" data-name="Trazado 733735" d="M18.914,56.259a2.227,2.227,0,0,0,2.03-2.626,14.787,14.787,0,0,0-3.133-8.706c-1-1.277-1.14-2.283.26-3.308a12.956,12.956,0,0,0,1.281-1.262c2.925-2.858,2.053-2.819,5.629-.566a2.313,2.313,0,0,1,1.068,2.67c-.1.87.089,2.445.515,2.584,1.493.486,1.18,1.507,1.181,2.495q.01,11.7,0,23.407v8.3a5.407,5.407,0,0,0-5,3.073c-1.088,2.542.769,4.178,2.186,5.275,0,3.805-.178,7.3.066,10.768.149,2.12-1.433,2.49-2.6,3.169-.4.232-1.6-.5-2.176-1.062-3.718-3.611-3.619-3.589-1.026-7.929a10.94,10.94,0,0,0,.621-10.891c-.536-1.117-.94-2.3-1.4-3.447l-.279-.279q-1.651-1.1-3.3-2.2-.319-.308-.635-.617c-2.045-.432-4.11-.79-6.119-1.349A2.073,2.073,0,0,1,6.97,72.322a19.04,19.04,0,0,1-.052-3.182c0-3.372,0-3.39,3.329-3.712a10.167,10.167,0,0,0,6.92-3.676c.4-.466.363-1.309.527-1.978q.61-1.758,1.221-3.515" transform="translate(-4.113 -22.828)" fill="#4c94c3"/>
        <path id="Trazado_733736" data-name="Trazado 733736" d="M174.346,12.2c-.832,1.013-.533,1.9-.15,3.113a83.728,83.728,0,0,1,1.816,8.546H137.607c-.862-6.217,1.114-11.2,6.5-14.364a15.681,15.681,0,0,1,6.949-2.007,118.142,118.142,0,0,1,13.48.352c1.343.09,2.6,1.08,3.96,1.42a14.3,14.3,0,0,0,3.069.118l2.786,2.82m-14.629,2.743-.624.567a4.366,4.366,0,0,0-1.126-.623c-.862-.182-1.749-.24-2.626-.349a10.27,10.27,0,0,0,.041,3.241c.317.935,6.532.5,7.082-.39a.86.86,0,0,0,.177-.349c.1-1.836.213-3.613-1.208-5.169-1.8-1.966-4.06-1.075-6.147-1.281-2.884-.284-4.419.966-4.972,4.161a9.044,9.044,0,0,0,.006,3.186c.355,1.838.764,3.914,3.017,4.265A36.623,36.623,0,0,0,160,22.47c.378-.011.969-1.056.99-1.641.012-.327-.92-.925-1.473-.987-1.316-.147-2.69.117-3.982-.112-.742-.132-1.91-.862-1.949-1.393a26.038,26.038,0,0,1,.408-4.8c.006-.054.235-.116.36-.116a24.083,24.083,0,0,1,3.982.076c.525.087.921.944,1.377,1.45" transform="translate(-82.217 -4.437)" fill="#8df4ff"/>
        <path id="Trazado_733737" data-name="Trazado 733737" d="M152.265,213.544V199.663h26.509v13.951l-26.509-.069" transform="translate(-91.104 -119.464)" fill="#8df4ff"/>
        <path id="Trazado_733738" data-name="Trazado 733738" d="M226.071,213.767V199.95h6.462v13.506l-6.462.311" transform="translate(-135.264 -119.635)" fill="#8df4ff"/>
        <path id="Trazado_733739" data-name="Trazado 733739" d="M128.3,213.727v-13.8h6.475v13.513l-6.475.285" transform="translate(-76.763 -119.623)" fill="#8df4ff"/>
        <path id="Trazado_733740" data-name="Trazado 733740" d="M93.839,9.315l-.829,1.22c-1-1.274.053-1.153.829-1.22" transform="translate(-55.405 -5.573)" fill="#010101"/>
        <path id="Trazado_733741" data-name="Trazado 733741" d="M253.38,65.488l.306-.427-.306.427" transform="translate(-151.604 -38.928)" fill="#f7f9fa"/>
        <path id="Trazado_733742" data-name="Trazado 733742" d="M145.809,8.538l-.471.332.471-.332" transform="translate(-86.96 -5.109)" fill="#010101"/>
        <path id="Trazado_733743" data-name="Trazado 733743" d="M97.047,7.556l-.419.308.419-.308" transform="translate(-57.815 -4.521)" fill="#010101"/>
        <path id="Trazado_733744" data-name="Trazado 733744" d="M242.524,234.506l.251.456-.251-.456" transform="translate(-145.109 -140.311)" fill="#223a3c"/>
        <path id="Trazado_733745" data-name="Trazado 733745" d="M97.556,108.282c-3.653.268-7.347.907-10.772-1.1,1.965-5.155.921-6.021-4.062-7.488,0-7.749-.054-15.545.051-23.338a2.456,2.456,0,0,1,2.57-2.6c1.248-.07,2.44-.938,3.7-1.071,2.551-.271,5.131-.285,7.7-.4l.818.321-.012-.012,1.788,2.922-1.379,2.74.014-.014c-.4.452-1.011.841-1.177,1.368-1.172,3.731.573,7.718,4.406,8.435,3.016.564,4.22,2.028,5.25,4.566.564,1.388.646,1.937-.639,2.839-4.467,3.136-7.466,7.3-8.251,12.837" transform="translate(-49.486 -43.246)" fill="#ffbf00"/>
        <path id="Trazado_733746" data-name="Trazado 733746" d="M145.533,82.142h31.516c.272,6.628.866,13.319-4.624,18.492a15.716,15.716,0,0,1-23.9-2.034,14.454,14.454,0,0,1-3-9.264c.039-2.326.007-4.654.007-7.194m10.8,7.388a5.733,5.733,0,0,1-.006.908c-.482,2.614,2.12,4.739,4.053,5.26,2.022.544,5.284-1,5.919-3.04a3.546,3.546,0,0,0-.684-3.156c-.885-.674-2.112-.276-2.188,1.446-.018.417-1.178,1.144-1.754,1.091-.826-.077-2.245-.688-2.283-1.16-.189-2.387-1.5-1.85-3.057-1.348M155.006,87.7c-.955-.715-1.724-1.594-2.031-1.455a2.41,2.41,0,0,0-1.339,1.717c.018.6.892,1.171,1.391,1.755l1.979-2.016m15.033-1.775-.692.017a6.283,6.283,0,0,0-.958,1.724c-.177.915.089,1.9,1.313,1.6.559-.135,1.356-.888,1.354-1.358,0-.664-.647-1.324-1.017-1.986" transform="translate(-87.07 -49.148)" fill="#ffc197"/>
        <path id="Trazado_733747" data-name="Trazado 733747" d="M147.632,56.164c7.33,0,14.661-.035,21.99.043.954.01,2.359.353,2.725,1.007s-.107,2-.578,2.843a6.5,6.5,0,0,1-5.879,3.353c-6.663.083-13.327.037-19.99.051-5.594.012-11.189.02-16.784.065-2.375.019-5.96-2.614-6.519-4.869-.351-1.415.642-2.469,2.446-2.485,3.532-.03,7.063-.009,10.6-.009h11.995" transform="translate(-73.311 -33.6)" fill="#009af2"/>
        <path id="Trazado_733748" data-name="Trazado 733748" d="M95.117,33.495a30.036,30.036,0,0,0-12.386,3.3c0-1.868-.013-3.51.01-5.152.005-.375.016-.978.226-1.087,1.94-1.005,1.424-2.507,1.048-4.107a1.97,1.97,0,0,1,.648-1.685c3.517-2.3,4.659-5.867,5.233-9.692.207-1.378.641-2.011,2.1-1.881a15.818,15.818,0,0,0,3.595-.009c1.961-.278,2.7.723,2.735,2.416.062,2.682,1.712,4.691,2.692,6.994a13.638,13.638,0,0,1,.464,3.818c-1.324.364-2.814.459-3.935,1.152-2.128,1.317-2.648,3.534-2.43,5.938" transform="translate(-49.498 -7.857)" fill="#4c94c3"/>
        <path id="Trazado_733749" data-name="Trazado 733749" d="M100.857,187.816c-1.661.022-3.328-.039-4.98.092a1.825,1.825,0,0,1-2.182-1.736c-.58-3.379-1.218-6.7-4.1-9.057a2.158,2.158,0,0,1-.428-1.45c-.1-3.308-.161-6.616-.21-9.925,0-.152.22-.308.358-.489a16.026,16.026,0,0,0,9.49,2.184,7.348,7.348,0,0,0,2.05-.7q0,10.54,0,21.081" transform="translate(-53.226 -98.874)" fill="#4c94c3"/>
        <path id="Trazado_733750" data-name="Trazado 733750" d="M65.817,188.7c-2.442,1.484-5.954-.228-5.985-3.048-.078-7.32-.047-14.641.025-21.961a1.684,1.684,0,0,1,1.179-1.148c1.847-.057,3.7.094,5.551.169.137,1.706.366,3.41.391,5.117.058,4.044-.017,8.089.031,12.133.035,2.979.147,5.953-1.191,8.738M62.68,174.624c0,2.6-.089,5.2.055,7.786.043.762.747,1.487,1.148,2.228.623-.733,1.761-1.45,1.784-2.2.157-5.188.092-10.384.076-15.577a1.618,1.618,0,0,0-1.827-1.837c-1.393-.006-1.208,1-1.22,1.811-.037,2.6-.014,5.193-.015,7.79" transform="translate(-35.772 -97.244)" fill="#ffbf00"/>
        <path id="Trazado_733751" data-name="Trazado 733751" d="M70.742,56.336h1.69a13.245,13.245,0,0,1,.138,1.347c.008,10.233-.009,20.466.025,30.7,0,1.358-.2,2.267-1.853,1.846V56.336" transform="translate(-42.327 -33.707)" fill="#8cc1c6"/>
        <path id="Trazado_733752" data-name="Trazado 733752" d="M68.293,56.336V90.228H66.649V56.336Z" transform="translate(-39.878 -33.707)" fill="#bcdde2"/>
        <path id="Trazado_733753" data-name="Trazado 733753" d="M63.176,29.661l4.366.359,1.382,7.487c-2.063,0-3.914.041-5.763-.019-.783-.026-1.2-.191-.909-1.352a55.153,55.153,0,0,0,.924-6.475" transform="translate(-37.19 -17.747)" fill="#dceeee"/>
        <path id="Trazado_733754" data-name="Trazado 733754" d="M172.46,146.337h9.857c-.079,3.729-1.924,5.033-4.449,5.359-2.96.382-4.365-1.109-5.409-5.359" transform="translate(-103.187 -87.557)" fill="#ee7d30"/>
        <path id="Trazado_733755" data-name="Trazado 733755" d="M74.8,188.877c1.338-2.785,1.226-5.758,1.191-8.737-.048-4.044.028-8.09-.031-12.133-.024-1.707-.254-3.411-.391-5.117,1.688-.359,1.973.981,1.985,2,.084,6.773.106,13.55-.006,20.323a3.731,3.731,0,0,1-2.749,3.664" transform="translate(-44.754 -97.426)" fill="#f79800"/>
        <path id="Trazado_733756" data-name="Trazado 733756" d="M51.485,148.95a11.809,11.809,0,0,1,3.027-.97c3.115-.129,6.243-.126,9.357.011.739.033,1.447.79,2.169,1.214-.726.486-1.434,1.357-2.182,1.393-3.246.155-6.5.112-9.756.034a11.055,11.055,0,0,1-2.519-.662q-.048-.51-.1-1.019" transform="translate(-30.805 -88.484)" fill="#fed86e"/>
        <path id="Trazado_733757" data-name="Trazado 733757" d="M118,117.157c.785-5.541,3.784-9.7,8.251-12.837,1.285-.9,1.2-1.451.639-2.839-1.031-2.538-2.234-4-5.25-4.566-3.833-.717-5.577-4.7-4.406-8.435.165-.527.774-.915,1.177-1.368a2.931,2.931,0,0,1-.13.979,5.176,5.176,0,0,0,.829,6.321c1.943,2.185,3.526,2.616,6.409,1.964l3.246,7.159c-1.283.96-2.706,1.945-4.04,3.039-2.994,2.455-4.6,5.815-5.944,9.334a7.531,7.531,0,0,1-.78,1.249" transform="translate(-69.926 -52.121)" fill="#f79800"/>
        <path id="Trazado_733758" data-name="Trazado 733758" d="M232.19,88.319l4.747.941c-.149,1.072-.293,1.76-.331,2.454a2.479,2.479,0,0,1-2.485,2.518c-1.224.146-2.074-.161-1.951-1.7.1-1.238.02-2.49.02-4.213" transform="translate(-138.907 -52.844)" fill="#fd9d5b"/>
        <path id="Trazado_733759" data-name="Trazado 733759" d="M130.907,87.414v6.592c-1.4-.464-2.918-.549-3.69-1.35-.634-.658-.908-2.619-.409-3.2.826-.956,2.4-1.264,4.1-2.045" transform="translate(-75.719 -52.302)" fill="#fd9d5b"/>
        <path id="Trazado_733760" data-name="Trazado 733760" d="M118.581,190.026q0-10.54,0-21.081c.278.385.793.768.8,1.155q.075,9.37,0,18.74c0,.4-.517.79-.794,1.186" transform="translate(-70.95 -101.084)" fill="#3b7ca8"/>
        <path id="Trazado_733761" data-name="Trazado 733761" d="M113.5,53.267c-.218-2.4.3-4.621,2.43-5.938,1.121-.693,2.611-.787,3.935-1.152-.279.359-.484.851-.85,1.054-1.19.661-2.608,1.021-3.6,1.885a3.887,3.887,0,0,0-.837,2.7c0,.921.441,1.791-1.076,1.454" transform="translate(-67.885 -27.63)" fill="#3b7ca8"/>
        <path id="Trazado_733762" data-name="Trazado 733762" d="M120.052,78.713l1.379-2.74-1.787-2.922,4.571,2.852-4.163,2.81" transform="translate(-71.586 -43.708)" fill="#f79800"/>
        <path id="Trazado_733763" data-name="Trazado 733763" d="M210.876,135.212c-1.471.938-2.925,1.905-4.422,2.8a15.6,15.6,0,0,1-1.972.849c.187-.421.259-.991.581-1.237a32.685,32.685,0,0,1,4.019-2.746c.411-.227,1.186.2,1.795.334" transform="translate(-122.346 -80.662)" fill="#006fd0"/>
        <path id="Trazado_733764" data-name="Trazado 733764" d="M157.038,139.034l-5.549-3.921a9.44,9.44,0,0,1,5.549,3.921" transform="translate(-90.64 -80.842)" fill="#006fd0"/>
        <path id="Trazado_733765" data-name="Trazado 733765" d="M118.452,72.6l-.818-.321.818.321" transform="translate(-70.384 -43.247)" fill="#f79800"/>
        <path id="Trazado_733766" data-name="Trazado 733766" d="M25.119,130.152q.316.309.635.617-.316-.309-.635-.617" transform="translate(-15.029 -77.873)" fill="#010101"/>
        <path id="Trazado_733767" data-name="Trazado 733767" d="M34.922,137.16l.279.279-.279-.279" transform="translate(-20.895 -82.067)" fill="#010101"/>
        <path id="Trazado_733768" data-name="Trazado 733768" d="M178.728,19.621c-.455-.507-.852-1.363-1.377-1.45a24.083,24.083,0,0,0-3.982-.076c-.125,0-.354.063-.36.116a26.038,26.038,0,0,0-.408,4.8c.039.53,1.207,1.261,1.949,1.393,1.292.229,2.666-.035,3.982.112.553.062,1.485.661,1.473.987-.021.585-.613,1.63-.99,1.641a36.623,36.623,0,0,1-6.666-.265c-2.253-.351-2.663-2.427-3.017-4.265a9.044,9.044,0,0,1-.006-3.186c.552-3.195,2.087-4.445,4.972-4.161,2.087.206,4.351-.685,6.147,1.281,1.421,1.556,1.306,3.333,1.208,5.169a.861.861,0,0,1-.177.349c-.549.888-6.765,1.325-7.082.39a10.27,10.27,0,0,1-.041-3.241c.877.109,1.764.167,2.626.349a4.366,4.366,0,0,1,1.126.623l.624-.567" transform="translate(-101.228 -9.111)" fill="#010101"/>
        <path id="Trazado_733769" data-name="Trazado 733769" d="M172.341,99.892c1.553-.5,2.868-1.038,3.057,1.348.037.472,1.457,1.083,2.283,1.16.576.053,1.736-.674,1.755-1.091.075-1.722,1.3-2.12,2.188-1.446a3.544,3.544,0,0,1,.684,3.156c-.635,2.036-3.9,3.585-5.919,3.04-1.933-.521-4.535-2.645-4.053-5.26a5.681,5.681,0,0,0,.006-.908" transform="translate(-103.077 -59.51)" fill="#010101"/>
        <path id="Trazado_733770" data-name="Trazado 733770" d="M164.11,93.782,162.131,95.8c-.5-.584-1.372-1.156-1.391-1.755a2.41,2.41,0,0,1,1.339-1.717c.308-.139,1.076.741,2.031,1.455" transform="translate(-96.175 -55.233)" fill="#010101"/>
        <path id="Trazado_733771" data-name="Trazado 733771" d="M204.025,91.552c.37.662,1.013,1.323,1.017,1.986,0,.47-.795,1.223-1.354,1.358-1.224.3-1.489-.688-1.313-1.6a6.283,6.283,0,0,1,.958-1.724l.692-.017" transform="translate(-121.057 -54.778)" fill="#010101"/>
        <path id="Trazado_733772" data-name="Trazado 733772" d="M66.952,178.342c0-2.6-.024-5.194.014-7.79.012-.813-.173-1.817,1.219-1.811a1.618,1.618,0,0,1,1.827,1.837c.016,5.193.082,10.388-.076,15.577-.023.751-1.161,1.468-1.783,2.2-.4-.741-1.105-1.466-1.148-2.228-.145-2.588-.055-5.19-.054-7.786" transform="translate(-40.042 -100.963)"/>
      </g>
    </g>
  </g>
</svg>
