<svg xmlns="http://www.w3.org/2000/svg" xmlns:xlink="http://www.w3.org/1999/xlink" width="118" height="118" viewBox="0 0 118 118">
  <defs>
    <clipPath id="clip-path">
      <rect id="Rectángulo_349856" data-name="Rectángulo 349856" width="99.349" height="58.935" fill="none"/>
    </clipPath>
  </defs>
  <g id="Grupo_998198" data-name="Grupo 998198" transform="translate(-394 -1040)">
    <circle id="Elipse_5962" data-name="Elipse 5962" cx="59" cy="59" r="59" transform="translate(394 1040)" fill="#ffc403"/>
    <g id="Grupo_997482" data-name="Grupo 997482" transform="translate(403.325 1064.16)">
      <g id="Grupo_997481" data-name="Grupo 997481" clip-path="url(#clip-path)">
        <path id="Trazado_733542" data-name="Trazado 733542" d="M61.31,96.046q-24.418.027-48.835.053c-3.618,0-7.235-.03-10.853.019C.484,96.133,0,95.8,0,94.587c.031-10.9.015-21.809.035-32.714A3.034,3.034,0,0,1,.4,60.908a15.423,15.423,0,0,0,2.2.311q19.49.029,38.98.018c6.592.007,13.184.056,19.776.087q-.012,17.2-.025,34.405-.015.159-.014.318M31.646,88.112c2.9,0,5.81-.042,8.713.018,1.486.031,2.081-.533,2.068-2.045q-.075-8.509,0-17.019c.015-1.65-.637-2.324-2.289-2.312q-8.52.062-17.04,0c-1.485-.011-2.081.545-2.069,2.05q.069,8.7,0,17.406c-.012,1.412.464,1.964,1.907,1.927,2.9-.076,5.809-.023,8.713-.023" transform="translate(0 -37.195)" fill="#ff4646"/>
        <path id="Trazado_733543" data-name="Trazado 733543" d="M61.936,24.128c-6.592-.03-13.184-.08-19.776-.087q-19.49-.02-38.98-.018a15.368,15.368,0,0,1-2.2-.311c.044-.637-.162-1.483.171-1.88C5.029,17.2,8.985,12.644,12.921,8.067c1.8-2.095,3.706-4.111,5.365-6.313A3.758,3.758,0,0,1,21.639,0Q51.086.068,80.533.033A2.857,2.857,0,0,1,80.2.906C74.615,7.418,68.982,13.887,63.465,20.452c-.8.95-1.06,2.349-1.57,3.541l.041.135" transform="translate(-0.587 0)" fill="#e2dbd5"/>
        <path id="Trazado_733544" data-name="Trazado 733544" d="M157.492,95.741q.012-17.2.025-34.405l-.041-.135q17.311.022,34.622.03c1.135,0,2.269-.2,3.4-.3q.009,16.249.015,32.5c0,2.351-.346,2.684-2.652,2.684-2.711,0-5.422-.013-8.134-.021l-.2-.376c.011-5.615.041-11.229.025-16.844-.006-2.191-.383-2.513-2.614-2.515-3.813,0-7.627.077-11.436-.037-1.727-.051-2.214.539-2.193,2.219.069,5.742-.006,11.485-.026,17.228l-.313.32H157.887l-.4-.344" transform="translate(-96.167 -37.208)" fill="#e94242"/>
        <path id="Trazado_733545" data-name="Trazado 733545" d="M195.5,23.773c-1.134.105-2.269.3-3.4.3q-17.311.012-34.622-.03c.51-1.192.772-2.591,1.57-3.541C164.563,13.939,170.2,7.471,175.776.959a2.857,2.857,0,0,0,.337-.873l2.34,1.155L180,2.8c0,.128,0,.255.006.382l1.547,1.555c0,.128,0,.255.006.383L183.1,6.671c0,.128,0,.256.008.383l1.544,1.556c0,.127,0,.255.007.382l1.545,1.553h0l1.553,1.941c0,.127,0,.255.007.382l1.545,1.555c0,.128,0,.256.009.383l1.544,1.554c0,.128,0,.256.005.384l1.547,1.554c0,.128,0,.256.005.384l1.546,1.556.383.385.782,1.161.366,1.989" transform="translate(-96.167 -0.053)" fill="#efebe8"/>
        <path id="Trazado_733546" data-name="Trazado 733546" d="M202.885,124.152l-11.494-.036a2.43,2.43,0,0,0-.034-.352V106.857h11.528Z" transform="translate(-116.858 -65.256)" fill="#cc7541"/>
        <path id="Trazado_733547" data-name="Trazado 733547" d="M199.153,120.239v-17.3H187.625v16.908l-.329.419-2.02,0a.463.463,0,0,0-.03-.369c.02-5.743.1-11.486.026-17.228-.02-1.68.466-2.271,2.194-2.219,3.809.114,7.624.033,11.436.037,2.231,0,2.608.324,2.614,2.515.016,5.614-.014,11.229-.025,16.844l-.632.43-1.707-.039" transform="translate(-113.126 -61.342)" fill="#fff"/>
        <path id="Trazado_733548" data-name="Trazado 733548" d="M64.628,97.278c-2.9,0-5.811-.053-8.713.023-1.443.037-1.919-.515-1.907-1.927q.077-8.7,0-17.406c-.012-1.5.584-2.061,2.07-2.05q8.52.066,17.039,0c1.652-.012,2.3.661,2.289,2.312q-.075,8.509,0,17.019c.013,1.512-.582,2.076-2.068,2.045-2.9-.06-5.809-.018-8.713-.018M56.32,78.295c0,5.319-.032,10.466.074,15.609.007.335,1.064.918,1.642.929,4.391.079,8.785-.017,13.176.076,1.512.032,1.848-.524,1.817-1.912C72.946,89.321,73,85.642,73,81.965c0-1.2,0-2.392,0-3.67Z" transform="translate(-32.982 -46.361)" fill="#fff"/>
        <path id="Trazado_733549" data-name="Trazado 733549" d="M59.939,82.024h16.68c0,1.278,0,2.474,0,3.67,0,3.677-.054,7.356.028,11.032.031,1.388-.305,1.944-1.817,1.912-4.39-.093-8.785,0-13.176-.076-.577-.01-1.635-.594-1.642-.929-.106-5.144-.074-10.29-.074-15.609" transform="translate(-36.601 -50.091)" fill="#a0d2fe"/>
      </g>
    </g>
  </g>
</svg>
