<svg xmlns="http://www.w3.org/2000/svg" xmlns:xlink="http://www.w3.org/1999/xlink" width="107" height="107" viewBox="0 0 107 107">
  <defs>
    <clipPath id="clip-path">
      <rect id="Rectángulo_349896" data-name="Rectángulo 349896" width="88.193" height="87.955" fill="none"/>
    </clipPath>
  </defs>
  <g id="Grupo_998208" data-name="Grupo 998208" transform="translate(-823 -999)">
    <circle id="Elipse_5971" data-name="Elipse 5971" cx="53.5" cy="53.5" r="53.5" transform="translate(823 999)" fill="#06d1d1"/>
    <g id="Grupo_997503" data-name="Grupo 997503" transform="translate(832.403 1006.527)">
      <g id="Grupo_997502" data-name="Grupo 997502" clip-path="url(#clip-path)">
        <path id="Trazado_733816" data-name="Trazado 733816" d="M81.732,3.063c4.2-1,6.476.166,6.461,4.337-.095,26.179-.048,52.357-.048,78.537v2.019H.079A8.129,8.129,0,0,1,0,87.145Q0,46.455,0,5.765c0-.295.038-.589.058-.884L2.116,3.063c4.2-1,6.563.162,6.459,4.336-.171,6.914-.046,13.836-.046,20.847h2.8V0H42.6V11.183h2.846V0H76.718V28.24h2.958V4.881l2.056-1.818M7.786,62.116l-.675-.741a10.245,10.245,0,0,1-1.043-8.519,3.856,3.856,0,0,0-.062-3.179l-.337-1.116V5.716h-2.7V76.292l2.327-2.116.384-.265L7.112,72.79l6.91-2.049c1-3.2-.156-5.205-3.277-6.167a6.307,6.307,0,0,1-1.516-1.02q.133-1.578-1.444-1.438M39.1,79.46h6.3v3.055H38.919l.716,2.609H48.26V65.376H34.12c0,2.3.159,4.551-.045,6.764-.206,2.242,1.255,3.118,2.823,4.4.05-1.075.086-1.856.121-2.6h8.367v2.8H36.728a13.263,13.263,0,0,0,1.108,1.994,4.045,4.045,0,0,0,1.26.731M28.722,64.246l.415-.293c2.067-1.786,2.184-4.219,2.167-6.632L33.965,55.9l-3.926-8.981c-3.08,1.766-6.054,1.637-9.32.742l-1.185,5.879c-.977.459-2.075.619-2.368,1.191-.526,1.028.147,1.992,1.054,2.7a5.175,5.175,0,0,1,1.118,1.13c.272.4.618.973.524,1.373-.376,1.6-.471,3.569-1.48,4.638-1.937,2.054-1.082,4.205-1.316,6.288H22.8V65.786l5.922-1.54M17.832,46.819c.142-.516.478-1.068.393-1.543-.467-2.616.15-3.691,2.61-4.51.459-.153.8-.653,1.2-.994l1.047,2.655c-.791.075-1.074.106-1.357.128-.889.07-1.872.04-1.81,1.349.059,1.234.866,1.538,1.947,1.5.887-.03,1.778-.051,2.663,0,4.751.281,7.67-3.693,6.466-8.538-4.1,0-8.239.013-12.373,0-4.035-.016-7.189,1.523-9.075,5.2a8.471,8.471,0,0,0,.976,9.839c.667.839,1.222,1.766,1.825,2.646l-2.046,1.5L8.808,54.973c-1.034,3.328,1.208,6.536,6.564,8.513,1.38-.718,1.166-1.954,1.041-3.16l.5-.315-.587-.387c-3.033-2.616-2.936-5.806.178-8.138a2.874,2.874,0,0,0,.889-1.564,30.514,30.514,0,0,0,.44-3.1m14.851-1.026c1.288,2.972,2.528,5.967,3.884,8.907.782,1.694.527,3.078-1.156,3.716-1.332.5-1.533,1.493-1.706,2.622l-.954.828.7.58H39.9V42.677H76.87V65.245h2.62V36.993H34.623L32.686,44.3c-.857.5-.937.993,0,1.492m32.673-.312v5.485H51.087V45.485h-8.34V62.5H56.8c.054,1.023.1,1.877.142,2.67h16.9V45.48ZM39.714,11.232V2.855h-5.66V8.3H19.847V2.847H14.323V28.221H31.361V11.232ZM68.267,8.317H53.936V2.832h-5.5v8.492h8.5V28.207h16.85V2.84H68.267ZM11.353,85.1H28.377c.047-.966.089-1.823.127-2.6h2.828v2.63h5.154a10.174,10.174,0,0,0-7.523-10.5A39.327,39.327,0,0,0,10.5,74.619c-4.836,1.151-7.575,6.059-7.551,10.508H8.535v-2.67h2.818ZM73.883,68.21v8.37H62.509V68.273H56.947V85.111H79.5V68.21ZM34.15,28.229H53.9V14.263H48.265V19.7H39.734V14.263H34.15ZM82.513,85.1h2.7V5.694h-2.7ZM8.583,33.918h70.91V31.29H8.583Zm45.394,31.5H51.285v19.68h2.692Zm16.959,2.833H65.514v5.516h5.422Zm-45.3,2.879,5.535.9V66.414L25.636,68.55ZM54.164,48.149h2.594V45.463H54.164Zm5.58-.017h2.684V45.541H59.743ZM45.391,14.224H42.753v2.692h2.638Zm17.2-8.778h2.687V2.885H62.589ZM59.614,2.861H57V5.51h2.618ZM31.195,2.845H28.546V5.463h2.649Zm-8.414,2.6h2.687V2.885H22.781Z" transform="translate(0)"/>
        <path id="Trazado_733817" data-name="Trazado 733817" d="M225.429,8.587l-2.056,1.818c.111-1.255.906-1.737,2.056-1.818" transform="translate(-143.696 -5.524)"/>
        <path id="Trazado_733818" data-name="Trazado 733818" d="M2.226,8.587.17,10.405c.111-1.255.906-1.737,2.056-1.818" transform="translate(-0.109 -5.524)"/>
        <path id="Trazado_733819" data-name="Trazado 733819" d="M142.451,127.5h8.49v19.689h-16.9c-.042-.793-.087-1.647-.142-2.67H119.841V127.508h8.34v5.481h14.27Z" transform="translate(-77.094 -82.024)" fill="#d3a06c"/>
        <path id="Trazado_733820" data-name="Trazado 733820" d="M65.544,16.366H57.192V33.355H40.154V7.981h5.525v5.455H59.884V7.99h5.66Z" transform="translate(-25.831 -5.134)" fill="#d3a06c"/>
        <path id="Trazado_733821" data-name="Trazado 733821" d="M155.618,13.424V7.947h5.519V33.313h-16.85V16.43h-8.5V7.938h5.5v5.486Z" transform="translate(-87.35 -5.107)" fill="#d3a06c"/>
        <path id="Trazado_733822" data-name="Trazado 733822" d="M92.649,127.754c.172-1.128.373-2.117,1.705-2.621,1.684-.638,1.938-2.021,1.157-3.716-1.357-2.941-2.6-5.935-3.884-8.907q0-.746,0-1.492l1.938-7.308h44.866v28.253h-2.62V109.393H98.846v19.768H92.394q.128-.7.255-1.407" transform="translate(-58.944 -66.716)" fill="#f8fafb"/>
        <path id="Trazado_733823" data-name="Trazado 733823" d="M16.677,217.7v-2.64H13.859v2.67H8.277c-.024-4.449,2.714-9.357,7.551-10.508a39.323,39.323,0,0,1,18.459.009,10.174,10.174,0,0,1,7.523,10.5H36.656V215.1H33.828c-.038.78-.08,1.638-.127,2.6Z" transform="translate(-5.324 -132.602)" fill="#b4dd7f"/>
        <path id="Trazado_733824" data-name="Trazado 733824" d="M176.588,191.227h5.62v16.9H159.651V191.291h5.562V199.6h11.374Z" transform="translate(-102.704 -123.017)" fill="#d3a06c"/>
        <path id="Trazado_733825" data-name="Trazado 733825" d="M31.576,126.812c.124,1.206.339,2.442-1.041,3.16-5.355-1.977-7.6-5.185-6.564-8.513l1.488,1.069,2.046-1.5c-.6-.88-1.157-1.807-1.824-2.646a8.472,8.472,0,0,1-.977-9.839c1.886-3.674,5.04-5.213,9.075-5.2,4.134.017,8.269,0,12.373,0,1.2,4.845-1.715,8.82-6.466,8.538-.885-.052-1.776-.031-2.663,0-1.08.036-1.888-.268-1.946-1.5-.062-1.309.921-1.279,1.81-1.349.284-.022.566-.053,1.357-.128L37.2,106.257a7.049,7.049,0,0,1-1.165.27c-3.511.217-4.395,4.167-3.038,6.778a30.515,30.515,0,0,1-.44,3.1,2.872,2.872,0,0,1-.889,1.564c-3.115,2.332-3.212,5.522-.179,8.138q.044.351.088.7" transform="translate(-15.163 -66.486)" fill="#656d78"/>
        <path id="Trazado_733826" data-name="Trazado 733826" d="M59.346,148.856l-5.922,1.54v5.073H47.689c.234-2.083-.621-4.235,1.316-6.288,1.009-1.07,1.1-3.042,1.48-4.638.094-.4-.251-.968-.524-1.373a5.175,5.175,0,0,0-1.118-1.13c-.907-.71-1.58-1.674-1.054-2.7.293-.572,1.391-.732,2.368-1.191.352-1.743.765-3.8,1.186-5.879,3.266.895,6.24,1.024,9.32-.742l3.926,8.981-2.661,1.425c.017,2.413-.1,4.846-2.167,6.632l-.415.293" transform="translate(-30.624 -84.61)" fill="#f0d0b4"/>
        <path id="Trazado_733827" data-name="Trazado 733827" d="M95.741,53.952V39.986h5.584v5.436h8.531V39.986h5.633V53.952Z" transform="translate(-61.591 -25.723)" fill="#cf9e76"/>
        <rect id="Rectángulo_349884" data-name="Rectángulo 349884" width="2.697" height="79.409" transform="translate(82.513 5.694)" fill="#aab2bd"/>
        <path id="Trazado_733828" data-name="Trazado 733828" d="M10.642,84.485,8.315,86.6V16.026h2.7V58.871l.337,1.116a3.857,3.857,0,0,1,.062,3.179,10.244,10.244,0,0,0,1.043,8.519V83.1l-1.435,1.12-.383.265" transform="translate(-5.349 -10.31)" fill="#aab2bd"/>
        <rect id="Rectángulo_349885" data-name="Rectángulo 349885" width="70.91" height="2.628" transform="translate(8.584 31.29)" fill="#aab2bd"/>
        <path id="Trazado_733829" data-name="Trazado 733829" d="M99.449,194.641h7.357v-2.8H98.439c-.035.747-.071,1.528-.121,2.6-1.568-1.28-3.029-2.157-2.823-4.4.2-2.214.045-4.461.045-6.764H109.68v19.749h-8.625l-.716-2.609h6.473v-3.055h-6.3Zm-.967-5.843h8.331v-2.7H98.483Z" transform="translate(-61.42 -117.906)" fill="#e6e9ed"/>
        <rect id="Rectángulo_349886" data-name="Rectángulo 349886" width="2.692" height="19.68" transform="translate(51.285 65.414)" fill="#ccd1d9"/>
        <path id="Trazado_733830" data-name="Trazado 733830" d="M19.936,183.481V172.066l.675.741,1.444,1.438a6.326,6.326,0,0,0,1.516,1.02c3.121.962,4.279,2.968,3.277,6.167l-6.91,2.048" transform="translate(-12.824 -110.691)" fill="#f8fafb"/>
        <rect id="Rectángulo_349887" data-name="Rectángulo 349887" width="5.422" height="5.516" transform="translate(65.514 68.247)" fill="#b27946"/>
        <path id="Trazado_733831" data-name="Trazado 733831" d="M71.87,190.9v-2.576l5.535-2.136V191.8l-5.535-.9" transform="translate(-46.234 -119.777)" fill="#f7f9fa"/>
        <rect id="Rectángulo_349888" data-name="Rectángulo 349888" width="2.594" height="2.686" transform="translate(54.164 45.463)" fill="#b27946"/>
        <rect id="Rectángulo_349889" data-name="Rectángulo 349889" width="2.684" height="2.591" transform="translate(59.744 45.541)" fill="#b27946"/>
        <rect id="Rectángulo_349890" data-name="Rectángulo 349890" width="2.638" height="2.692" transform="translate(42.753 14.224)" fill="#dfb28b"/>
        <rect id="Rectángulo_349891" data-name="Rectángulo 349891" width="2.687" height="2.561" transform="translate(62.589 2.885)" fill="#b27946"/>
        <rect id="Rectángulo_349892" data-name="Rectángulo 349892" width="2.618" height="2.649" transform="translate(56.996 2.861)" fill="#b27946"/>
        <rect id="Rectángulo_349893" data-name="Rectángulo 349893" width="2.649" height="2.618" transform="translate(28.546 2.845)" fill="#b27946"/>
        <rect id="Rectángulo_349894" data-name="Rectángulo 349894" width="2.687" height="2.561" transform="translate(22.781 2.885)" fill="#b27946"/>
        <path id="Trazado_733832" data-name="Trazado 733832" d="M48.9,118.546c-1.357-2.611-.474-6.56,3.038-6.778a7.051,7.051,0,0,0,1.165-.27c-.4.34-.74.841-1.2.994-2.46.819-3.077,1.894-2.61,4.51.085.476-.251,1.027-.393,1.543" transform="translate(-31.066 -71.728)"/>
        <path id="Trazado_733833" data-name="Trazado 733833" d="M104.268,215.128l1.066,2.725a4.051,4.051,0,0,1-1.261-.73,13.263,13.263,0,0,1-1.108-1.994Z" transform="translate(-66.238 -138.392)" fill="#e6e9ed"/>
        <path id="Trazado_733834" data-name="Trazado 733834" d="M92.771,171.119q-.127.7-.255,1.407l-.7-.58.954-.828" transform="translate(-59.066 -110.081)"/>
        <path id="Trazado_733835" data-name="Trazado 733835" d="M23.271,175.56l-1.444-1.438q1.576-.139,1.444,1.438" transform="translate(-14.041 -112.006)" fill="#010101"/>
        <path id="Trazado_733836" data-name="Trazado 733836" d="M90.419,124.2q0,.746,0,1.492c-.935-.5-.855-1,0-1.492" transform="translate(-57.734 -79.896)" fill="#f1f3f4"/>
        <path id="Trazado_733837" data-name="Trazado 733837" d="M16.229,137.259l-.337-1.116.337,1.116" transform="translate(-10.223 -87.581)" fill="#010101"/>
        <path id="Trazado_733838" data-name="Trazado 733838" d="M45.853,167.858q-.044-.351-.088-.7l.588.387-.5.315" transform="translate(-29.441 -107.532)" fill="#010101"/>
        <path id="Trazado_733839" data-name="Trazado 733839" d="M80.523,179.585l.415-.293-.415.293" transform="translate(-51.801 -115.339)" fill="#010101"/>
        <path id="Trazado_733840" data-name="Trazado 733840" d="M14.84,207.473l.383-.265-.383.265" transform="translate(-9.547 -133.298)" fill="#010101"/>
        <rect id="Rectángulo_349895" data-name="Rectángulo 349895" width="8.331" height="2.701" transform="translate(37.063 68.192)"/>
      </g>
    </g>
  </g>
</svg>
