<svg xmlns="http://www.w3.org/2000/svg" xmlns:xlink="http://www.w3.org/1999/xlink" width="118" height="118" viewBox="0 0 118 118">
  <defs>
    <clipPath id="clip-path">
      <rect id="Rectángulo_349801" data-name="Rectángulo 349801" width="72.377" height="92.09" fill="none"/>
    </clipPath>
  </defs>
  <g id="Grupo_998185" data-name="Grupo 998185" transform="translate(-394 -2490.867)">
    <circle id="Elipse_5894" data-name="Elipse 5894" cx="59" cy="59" r="59" transform="translate(394 2490.867)" fill="#ffc403"/>
    <g id="Grupo_997433" data-name="Grupo 997433" transform="translate(416.879 2503.822)">
      <g id="Grupo_997432" data-name="Grupo 997432" clip-path="url(#clip-path)">
        <path id="Trazado_733385" data-name="Trazado 733385" d="M54.713,142.918a26.957,26.957,0,0,1-22.992,26.688C18.443,171.755,6.079,164.544,1.672,152.1c-.4-1.131-.64-2.208.761-2.738,1.442-.546,1.927.525,2.351,1.6,3.66,9.248,10.356,14.535,20.3,15.65a24.055,24.055,0,0,0,26.349-22.656,2.308,2.308,0,0,0-1.6-2.642c-2.084-.864-4.118-1.858-6.118-2.9a1.98,1.98,0,0,0-2.7.383c-1.647,1.646-3.442,3.141-5.132,4.745-1.2,1.141-2.232,1.1-3.3-.181-1.488-1.793-3.129-3.468-4.513-5.335-1.017-1.372-1.722-1.214-2.852-.163-2.107,1.958-4.37,3.747-6.522,5.658a2.059,2.059,0,0,1-3.22-.028c-1.683-1.611-3.487-3.1-5.133-4.743a2.263,2.263,0,0,0-2.9-.571,11.271,11.271,0,0,1-2.333.779,1.968,1.968,0,0,0-1.792,2.459,4.5,4.5,0,0,1-.175,1.824,1.448,1.448,0,0,1-1.588,1.041A1.4,1.4,0,0,1,.1,143.062a13.778,13.778,0,0,1,.439-5.493c.184-.642.871-.832,1.457-1.032,2.072-.706,4.156-1.379,6.22-2.109a2.623,2.623,0,0,1,2.99.651c1.52,1.483,3.181,2.823,4.672,4.333.9.907,1.507.984,2.484.082,2.215-2.044,4.585-3.918,6.815-5.947,1.375-1.251,2.443-1.177,3.607.265,1.548,1.919,3.242,3.722,4.789,5.641.648.8,1.076.777,1.777.1,1.528-1.475,3.171-2.833,4.676-4.329a2.652,2.652,0,0,1,3.491-.556c2.744,1.4,5.5,2.806,8.347,3.951,2.25.9,3.4,2.194,2.849,4.3" transform="translate(0 -77.893)"/>
        <path id="Trazado_733386" data-name="Trazado 733386" d="M52.383,14.916c5.795,1.4,6.082,5.555,5.846,9.927-.107,1.983.371,3.084,2.64,2.831,1.18-.131,2.316.355,2.235,1.779C63.021,30.9,61.866,31,60.667,30.947c-6.8-.291-5.752-.509-5.6-5.546.131-4.257-1.18-6.82-5.352-8.207-2.891-.961-2.926-2.376-.456-4.1C58.637,6.531,68.8,1.846,80.241.262a25.576,25.576,0,0,1,8.787.252c6.715,1.4,10.67,6.235,11.157,13.866.419,6.55-1.238,12.757-3.493,18.833-.381,1.028-1.079,1.688-2.2,1.241-1.064-.425-1.25-1.326-.862-2.393a54.879,54.879,0,0,0,3.16-12.715,23.42,23.42,0,0,0-.311-7.562c-1.133-5.262-5-8.194-11.132-8.418-6.714-.245-12.985,1.66-19.117,4.115a69.133,69.133,0,0,0-13.852,7.435" transform="translate(-27.874 0)"/>
        <path id="Trazado_733387" data-name="Trazado 733387" d="M112.1,90.308a56.953,56.953,0,0,0,5.581-8.69c.264-.479.491-.98.781-1.443a1.617,1.617,0,0,1,2.876,1.48,56.041,56.041,0,0,1-8.537,13c-1.068,1.168-2.334.759-2.953-.883-1.085-2.879-2.141-5.771-3.094-8.695a1.818,1.818,0,0,0-2.027-1.493c-2.326-.011-4.649-.26-6.976-.3-1.636-.031-2.414-.679-2.272-2.372.285-3.411.534-6.826.787-10.24.08-1.083.468-1.92,1.7-1.854,1.351.072,1.654,1.039,1.568,2.18-.193,2.526-.386,5.053-.647,7.572-.107,1.027.131,1.5,1.265,1.51,1.915.017,3.838.326,5.742.227,2.1-.109,3.1.761,3.651,2.718.67,2.36,1.611,4.642,2.55,7.284" transform="translate(-56.049 -40.402)"/>
      </g>
    </g>
  </g>
</svg>
